<svg xmlns="http://www.w3.org/2000/svg" xml:space="preserve" viewBox="0 0 24 24"><path fill="#fff" d="m23.49 14.859-.465 1.6H17.64v-.25c.41 0 .761-.12.761-.688V9.778c0-.561-.345-.68-.761-.68v-.251h5.399l.236 1.59-.236.036c-.096-.574-.274-1.063-.799-1.063l-2.88-.013v2.76h1.875c.559 0 .685-.262.685-.598h.25v1.746h-.25c0-.336-.12-.61-.685-.61H19.36v3.203l2.9.011c.558 0 .82-.538.987-1.11l.243.06Zm-8.714-3.395c.993 0 1.798-.808 1.798-1.806 0-.997-.805-1.806-1.798-1.806s-1.798.809-1.798 1.806c0 .998.805 1.806 1.798 1.806zm-2.91 3.334c-.123.435-.355.95-.943.973l-3.235.115c.107-.658.505-1.23 1.147-1.684l1.537-1.164c.928-.687 1.506-1.252 1.506-2.326 0-.956-.592-1.984-2.328-1.984-1.584 0-2.612 1.003-2.612 2.426.002.317.05.631.145.934l1.165-.295a2.527 2.527 0 0 1-.274-1.045c0-.933.6-1.494 1.576-1.494.856 0 1.347.585 1.347 1.458 0 .837-.357 1.215-1.166 1.812L8.312 13.63A3.928 3.928 0 0 0 7.2 14.869a3.948 3.948 0 0 0-.5 1.59h4.956l.461-1.6zm-7.75-2.461c1.023-.318 1.414-.845 1.414-1.698 0-1.027-.794-1.91-2.4-1.91-1.606 0-2.404.883-2.404 1.91 0 .853.396 1.376 1.418 1.698-1.125.302-1.68.897-1.68 2.043 0 1.429 1.164 2.237 2.666 2.243 1.502.007 2.666-.814 2.666-2.243 0-1.146-.555-1.74-1.68-2.043zm-.986 3.749c-1.035-.009-1.666-.708-1.666-1.73 0-1.074.457-1.678 1.432-2.008v-.083c-.745-.331-1.183-.806-1.183-1.685 0-.837.531-1.387 1.417-1.387s1.417.55 1.417 1.387c0 .879-.44 1.354-1.185 1.685v.083c.977.33 1.434.934 1.434 2.008 0 1.022-.635 1.721-1.666 1.73z"/></svg>