<svg xmlns="http://www.w3.org/2000/svg" id="svg2" version="1.1" viewBox="0 0 24 24"><title>AJIO</title><defs id="defs4"><style id="style4139">.cls-1{fill:#df1f25}.cls-2{fill:#fefefe}.s0{fill:#df1f25}.s1{fill:#fefefe}</style></defs><g id="layer1" transform="translate(0 -1028.362)"><g id="g4814" fill="#243545" fill-opacity="1" stroke="none" transform="matrix(.00201 0 0 -.00199 .033 1052.352)"><path id="path4816" fill="#243545" fill-opacity="1" d="M0 6000V0h12000v12000H0V6000zm5747 1357c4-5 8-446 7-980 0-969 0-972-22-1057-33-126-43-149-102-251-86-144-234-285-375-353-281-137-579-135-850 6-74 39-195 132-201 156-6 20 16 46 147 178 85 85 159 154 164 154 6 0 36-19 68-43 73-54 148-77 258-77 175 0 315 84 391 234 60 119 58 83 58 1094 0 573 4 932 10 938 11 11 435 12 447 1zm1387-7c14-11 16-153 16-1361V4641l-22-15c-33-24-409-23-432 0-14 14-16 151-16 1362 0 741 4 1352 8 1358 14 21 37 23 234 20 143-2 201-6 212-16zm2366-1c171-22 382-99 518-190 24-16 46-29 49-29 26 0 249-214 321-308 78-101 92-123 145-227 52-100 63-128 83-200 73-258 74-519 4-810-20-83-128-294-201-390-65-87-207-233-299-306-154-123-403-227-625-261-194-29-498-1-632 58-17 8-36 14-43 14-24 0-185 82-264 134-166 110-343 292-438 451-76 126-131 264-164 410-27 115-26 475 0 590 79 344 298 658 599 859 82 54 242 136 266 136 7 0 27 6 44 14 150 64 400 86 637 55zM3285 6017c363-727 665-1337 672-1355 12-31 11-33-13-42-34-13-450-13-474 0-10 5-30 36-45 67-79 171-188 379-203 385-22 8-1119 10-1190 1l-53-6-33-66c-122-242-189-368-202-378-17-13-446-19-478-7-17 7-22 54-7 70 6 5 307 604 671 1332 493 985 666 1322 678 1321 12 0 198-363 677-1322z"/><path id="path4818" fill="#243545" fill-opacity="1" d="M9145 6883c-247-30-533-240-653-478-47-92-64-149-93-305-20-104-1-273 47-419 40-121 127-253 236-358 52-50 159-123 228-154 19-9 46-21 60-28 65-30 144-42 295-48 129-4 172-2 223 11 35 9 70 16 78 16 23 0 165 70 235 117 157 103 304 293 350 454 7 24 16 49 20 54 4 6 15 65 24 132 15 100 16 133 6 180-6 31-11 69-11 85 0 41-56 204-96 276-44 81-128 185-195 243-29 24-59 51-67 59-32 32-231 130-286 142-23 5-59 13-81 18-38 9-257 11-320 3z"/><path id="path4820" fill="#243545" fill-opacity="1" d="M2559 6228c-19-40-104-208-187-372-83-165-149-303-146-308 3-4 174-8 380-8 325 0 375 2 380 15 4 8 1 21-5 28-6 8-56 105-111 218-56 112-106 213-112 224-7 11-40 77-75 148-35 70-69 127-76 127s-28-33-48-72z"/></g></g></svg>