<svg xmlns="http://www.w3.org/2000/svg" xml:space="preserve" viewBox="0 0 24 24"><path fill="#767676" d="M16.917.229c-.904.13-2.003.438-2.628.727-1.453.68-2.3 2.133-2.133 3.643.074.652.438 3.018.475 3.056.037.046 2.096-.42 2.674-.606 1.547-.503 2.59-1.92 2.74-3.708.065-.755-.29-3.224-.467-3.205-.055.009-.354.046-.661.093zM6.528 4.105c0 1.817.503 2.944 1.538 3.503.326.177.559.205 1.798.233l1.416.037-.056-.69c-.13-1.676-.354-2.254-1.08-2.916-.644-.577-1.361-.791-2.647-.791h-.969Zm4.1 5.683c-1.854.317-3.746 1.519-4.64 2.944-.792 1.268-1.09 2.386-1.072 4.119.01 1.444.205 2.301.792 3.494 1.184 2.413 4.23 3.913 7.212 3.54 1.481-.186 2.609-.69 3.68-1.658l.55-.503v1.788h2.609V10.003H17.15v1.882l-.587-.54c-1.211-1.137-2.6-1.631-4.528-1.613a21.55 21.55 0 0 0-1.407.056zm3.075 2.125c1.304.344 2.487 1.267 3.056 2.385 1.024 2.022.624 4.705-.923 6.242-1.77 1.743-5.003 1.799-6.801.112-1.025-.95-1.5-2.17-1.51-3.801-.01-1.705.373-2.72 1.38-3.727.586-.587 1.285-.978 2.114-1.202.652-.177 2.04-.186 2.684-.01z"/></svg>