<svg xmlns="http://www.w3.org/2000/svg" xml:space="preserve" viewBox="0 0 24 24"><path fill="#fdb813" d="M10.897.051a12 12 0 0 1 6.46 1.208 12.049 12.049 0 0 1 5.655 5.964 12.054 12.054 0 0 1 .752 7.156 12.02 12.02 0 0 1-7.678 8.908 12.078 12.078 0 0 1-7.455.234 12.018 12.018 0 0 1-8.41-9.215 12.061 12.061 0 0 1 .715-6.96 12.055 12.055 0 0 1 4.453-5.362A11.951 11.951 0 0 1 10.895.052M8.743 4.63c-.372.192-.77.388-1.011.747-.409.56-.395 1.386.046 1.924.36.461.987.69 1.561.573.388-.075.71-.322 1.078-.451a4.223 4.223 0 0 1 2.268-.17c.642.128 1.248.522 1.539 1.12.311.588.29 1.27.283 1.916h3.865c.012-.854-.046-1.718-.288-2.541-.282-.998-.835-1.928-1.634-2.595-.857-.725-1.953-1.123-3.059-1.262-1.576-.193-3.224.018-4.649.74m-2.788 5.716a.59.59 0 0 0-.33.516l-.015 3.235c.059-.338.098-.682.214-1.006.275-.84.892-1.545 1.652-1.986 1.035-.605 2.258-.814 3.446-.808-1.49-.027-2.978-.003-4.468-.013-.167.004-.345-.015-.499.062m5.463 1.831c-.409.12-.774.38-1.019.728-.539.732-.44 1.843.227 2.463.655.666 1.809.716 2.522.114.721-.56.92-1.659.448-2.438-.417-.742-1.364-1.119-2.178-.867m-5.805 2.527c.025 1.038 0 2.076.013 3.115a2.43 2.43 0 0 0 2.417 2.358h7.87c.666.001 1.359-.205 1.84-.68.417-.403.626-.986.62-1.56-.043.172-.163.341-.357.34l-2.754.003c-.216.013-.423-.167-.418-.387-.013-.328 0-.657-.005-.985a5.699 5.699 0 0 1-2.808 1.548 6.902 6.902 0 0 1-3.28-.056c-1.016-.276-1.968-.886-2.526-1.793-.369-.569-.53-1.238-.612-1.9z"/><path fill="#231f20" d="M8.743 4.629c1.426-.72 3.074-.933 4.65-.74 1.105.14 2.201.538 3.058 1.263.8.666 1.353 1.598 1.634 2.594.241.824.3 1.688.288 2.542h-3.864c.005-.645.027-1.328-.284-1.916-.291-.599-.897-.992-1.54-1.12a4.223 4.223 0 0 0-2.267.17c-.369.129-.69.376-1.078.451A1.61 1.61 0 0 1 7.78 7.3c-.44-.537-.455-1.364-.046-1.923.24-.358.639-.555 1.01-.747zm-2.788 5.717c.154-.077.332-.059.499-.062l4.467.013c-1.187-.006-2.41.203-3.446.808-.76.441-1.376 1.145-1.651 1.985-.116.325-.156.67-.214 1.007.03-1.078 0-2.157.014-3.235a.591.591 0 0 1 .33-.516zm5.462 1.831c.814-.252 1.761.125 2.178.867.473.779.273 1.878-.448 2.438-.713.601-1.867.551-2.522-.114-.666-.62-.766-1.732-.227-2.464.245-.348.61-.608 1.019-.727zm-5.805 2.526c.082.664.243 1.333.612 1.9.557.908 1.51 1.519 2.526 1.794a6.91 6.91 0 0 0 3.28.056 5.685 5.685 0 0 0 2.808-1.548c.005.328-.008.657.005.985-.005.22.202.4.418.387l2.754-.004c.194.002.314-.167.357-.338.006.573-.203 1.155-.62 1.558-.48.476-1.174.682-1.84.68h-7.87a2.426 2.426 0 0 1-2.417-2.358L5.612 14.7z"/></svg>