<svg xmlns="http://www.w3.org/2000/svg" xml:space="preserve" viewBox="0 0 24 24"><g stroke="#a2fb15"><path fill="#a2fb15" stroke-width=".007" d="M10.02 20a1.272 1.272 0 0 0 0-1.755 1.266 1.266 0 0 0-.927-.4c-.356 0-.686.143-.93.402a1.274 1.274 0 0 0 0 1.753c.244.258.574.4.93.4.354 0 .684-.141.928-.4zm-2.042-.797h.438c.006.184.03.356.073.51a1.45 1.45 0 0 0-.254.127 1.112 1.112 0 0 1-.257-.637zm.257-.796c.079.05.164.093.254.127a2.23 2.23 0 0 0-.073.51h-.438c.016-.235.106-.457.257-.637zm1.973.636h-.44a2.242 2.242 0 0 0-.072-.51c.09-.035.175-.077.253-.128.152.18.242.403.259.638zm-.26.798a1.451 1.451 0 0 0-.252-.128c.042-.153.067-.326.073-.51h.439a1.111 1.111 0 0 1-.26.638zm-.777-.237v-.4h.438a2.12 2.12 0 0 1-.065.459 1.696 1.696 0 0 0-.373-.06zm.325.21a1.352 1.352 0 0 1-.052.12c-.077.155-.173.257-.273.293v-.463c.112.006.22.023.325.05zm-.325-.771v-.4c.128-.007.254-.026.373-.06.038.14.06.297.065.46zm0-.56v-.463c.1.036.196.138.273.292a.916.916 0 0 1 .05.12 1.533 1.533 0 0 1-.323.05zm-.16 0a1.557 1.557 0 0 1-.322-.05 1.3 1.3 0 0 1 .052-.12c.077-.154.172-.256.27-.292zm0 .16v.4h-.435a2.12 2.12 0 0 1 .065-.46c.118.034.243.054.37.059zm0 .56v.4a1.698 1.698 0 0 0-.37.059 2.085 2.085 0 0 1-.065-.46zm0 .56v.463c-.098-.037-.193-.14-.27-.292a1.236 1.236 0 0 1-.052-.12c.103-.027.212-.044.322-.05zm.636.103c.066.026.13.057.189.093a1.106 1.106 0 0 1-.35.212c.062-.083.117-.186.16-.305zm0-1.485a1.203 1.203 0 0 0-.162-.305c.128.048.246.12.35.212a1.217 1.217 0 0 1-.188.093zm-1.11 0a1.318 1.318 0 0 1-.19-.092c.106-.094.225-.166.353-.213a1.197 1.197 0 0 0-.163.306zm0 1.484c.045.119.1.222.163.306a1.109 1.109 0 0 1-.352-.214c.06-.035.123-.066.19-.093z"/><path fill="none" stroke-width="2.553" d="m1.319 11.31 4.256 4.257m5.958-6.81L15.79 4.5m-7.662 6.81 4.256 4.257L22.6 4.5"/></g></svg>