<svg xmlns="http://www.w3.org/2000/svg" version="1.2" viewBox="0 0 24 24"><defs><linearGradient id="b" x1=".5" x2="15.2" y1=".9" y2="18.6" gradientUnits="userSpaceOnUse"><stop offset="0" stop-color="#ef3b23"/><stop offset="1" stop-color="#8b131e"/></linearGradient><linearGradient id="d" x1=".7" x2="20.4" y1="11.8" y2="11.8" gradientUnits="userSpaceOnUse"><stop offset="0" stop-color="#b7212f"/><stop offset="1" stop-color="#ef3b23"/></linearGradient><clipPath id="a" clipPathUnits="userSpaceOnUse"><path d="m13.89-11 20.73 24.99L9.73 34.63-11 9.64"/></clipPath><clipPath id="c" clipPathUnits="userSpaceOnUse"><path d="M1.58.06h22.5v23.53H1.58z"/></clipPath></defs><g clip-path="url(#a)"><path fill="url(#b)" d="M12 .1C5.6.3.6 5.4.6 11.8c0 6.5 5.2 11.8 11.7 11.8 2.2 0 8-.9 10.8-7-1.2.5-2.5.7-3.9.7-5.6 0-10.1-3.6-10.1-9.2 0-2.9.9-5.2 2.2-6.9.3-.3.7-.8 1-1.1H12z"/></g><g clip-path="url(#c)"><path fill="url(#d)" d="M13.4 1.2c1.7 2.4 2.1 4.6 2.1 6.9 0 5.6-4.5 9.3-10.1 9.3-1.4 0-2.6-.3-3.8-.8 2.8 6.3 8.6 7 10.7 7 6.5 0 11.8-5.3 11.8-11.8C24.1 5.4 19 .3 12.7.1h-.4c.3.3.8.7 1.1 1.1z"/></g><path fill="#fff" d="M11.1 1.5c-1.2 1.7-2 3.9-2 6.6 0 2.9 1.3 5.3 3.2 7 2-1.7 3.3-4.1 3.2-7 0-2.2-.2-4.2-2.1-6.8-.3-.4-.8-1-1.1-1.2 0 0-.7.7-1.2 1.4z"/></svg>