<svg version="1.2" viewBox="0 0 24 24" xml:space="preserve" xmlns="http://www.w3.org/2000/svg"><g style="display:inline"><path d="m12.402 18.366-6.119 5.41 3.425-7.398-6.979-4.032 7.975.856L12.402.484 14.1 13.202l7.977-.856-6.98 4.032 3.425 7.397zm0 0" fill="#191917"/><path d="m12.402 18.21-5.778 5.11 3.234-6.99-6.593-3.806 7.54.806 1.597-11.965 1.599 11.965 7.54-.809-6.593 3.81 3.234 6.989zm0 0" fill="#e3300c"/><path d="M14 13.33h-3.196l-.942 3.005 2.54 1.876 2.546-1.88zm0 0" fill="#0073bd" fill-rule="evenodd"/><path d="M12.4 17.57a2.063 2.063 0 0 1-2.06-2.061 2.062 2.062 0 0 1 2.06-2.061 2.062 2.062 0 0 1 2.061 2.06 2.063 2.063 0 0 1-2.06 2.062" fill="#191917" fill-rule="evenodd"/><path d="M12.4 17.452a1.946 1.946 0 0 1-1.945-1.943 1.948 1.948 0 0 1 1.945-1.945 1.947 1.947 0 0 1 1.943 1.945 1.946 1.946 0 0 1-1.943 1.943" fill="#fff" fill-rule="evenodd"/><path d="M12.329 14.173a.008.008 0 0 0-.005.008c0 .006.003.01.008.013-.02 0-.029-.01-.029-.01s.006-.008.026-.011zm.018 0 .017.006s-.005.011-.02.013c.003-.002.008-.006.008-.012 0-.003-.003-.006-.005-.008zm-.042.025a.073.073 0 0 0 .031.007c.038 0 .048-.026.053-.028 0-.026-.016-.05-.042-.053a.056.056 0 0 0-.032.007.049.049 0 0 0-.021.023c.011-.003.026-.019.057-.014.014.003.032.024.021.027-.008-.005-.01-.008-.017-.01-.026-.01-.05.009-.062.02-.003 0-.006-.003-.008-.003.004.012.008.016.019.023zm.157-.025a.01.01 0 0 0-.003.008c0 .006.003.01.008.013a.076.076 0 0 1-.029-.01s.008-.008.024-.011zm.02 0h.003c.004.002.01.002.011.005l.004.002s-.005.011-.02.014c.003-.003.006-.006.006-.013a.01.01 0 0 0-.003-.008zm-.098.102c.003.003.007 0 .011 0 .015 0 .029.008.04.003.023-.01-.002-.04-.002-.06 0-.01 0-.017.005-.025 0 0 .042.023.069-.003.002-.005.008-.005.012-.01l.004-.002.002-.008c-.004 0-.006.008-.011.003-.016-.011-.027-.016-.046-.014a.063.063 0 0 0-.032.01c-.006-.033.06-.038.076-.016a.057.057 0 0 0-.013-.02c-.019-.017-.063-.005-.075.011a.206.206 0 0 0-.008.079c0 .01.008.014.008.024 0 .008-.006.016-.013.016-.01.003-.032-.01-.026.012zm.907 2.483c-.022-.01-.026-.034-.04-.046-.003 0-.01-.008-.017-.01l-.013-.008c-.02-.009-.04-.012-.06-.017-.009-.003-.015-.003-.023-.004-.008-.003-.016-.008-.025-.013-.03-.006-.065-.003-.097-.006-.049-.002-.094-.01-.14-.015-.02-.003-.044-.005-.064-.013-.006-.003-.014-.007-.02-.008a.068.068 0 0 0-.046.003c-.006.002-.013.008-.018.008-.008 0-.015-.014-.028-.01-.007.006-.011.015-.006.023a.072.072 0 0 0 .018.015c.016.006.024-.003.034-.005.037-.01.08.008.111.013.084.013.194.008.269.031.014.004.029.006.04.01.036.014.06.034.087.05a.103.103 0 0 0 .063.045c.014.004.037.004.037-.015 0-.024-.042-.019-.062-.03zm.517-.106c.007.006.019.02.018.03-.001.003-.006.008-.011.008-.015 0-.012-.034-.035-.032-.003 0-.007 0-.01.007-.006.019.036.026.024.056-.004.013-.02.014-.037.014 0-.005.007-.008.007-.015 0-.02-.027-.038-.044-.022 0 .016.018.024.012.04-.008.011-.033.011-.04 0 .002 0 .01.003.014 0 .004 0 .006-.004.007-.007.002-.008-.007-.01-.015-.015-.007-.006-.013-.01-.018-.016.003-.034-.028-.04-.062-.043l-.175-.016c.003-.026-.021-.03-.043-.034-.03-.006-.059-.008-.09-.015-.013-.003-.034-.008-.035-.019 0-.012.016-.02.025-.026.03-.022.058-.043.084-.066a.42.42 0 0 1 .148.063c.012.006.026.01.037.016a.18.18 0 0 0 .038.017c.061.019.146.001.19.032.017.009.031.024.031.045-.011 0-.011-.026-.023-.027-.006 0-.012.006-.012.01 0 .007.009.011.016.015zm-.16.06c-.012-.005-.027-.005-.04-.006-.022-.002-.045-.008-.069-.011-.023-.005-.046-.006-.066-.01.015-.008.039-.006.06-.006.041-.002.108 0 .123.023a.083.083 0 0 1 .003.015c-.003 0-.007-.003-.01-.005zm-.191.005c.006.02.024.024.02.052a.087.087 0 0 1-.022.023.032.032 0 0 0-.008-.031c-.005 0-.002.009-.005.009-.01-.003-.006-.013-.02-.012-.002.012.01.017.01.028.004.027-.016.042-.041.04.002-.013.02-.008.024-.018.001-.013-.01-.022-.019-.027-.006 0 0 .006-.008.009-.008-.004-.014-.019-.028-.013.006.008.014.021.005.032a.076.076 0 0 1-.038.01c-.021-.002-.044-.006-.055-.02-.006-.008-.01-.019-.016-.026-.008-.008-.022-.008-.03-.016-.006-.003-.009-.011-.013-.016-.007-.006-.02-.01-.034-.016a.384.384 0 0 0-.116-.03c-.067-.006-.141-.005-.207-.016l-.069-.014c-.024-.002-.047.006-.069.004-.02-.004-.03-.018-.036-.035a.358.358 0 0 0-.036-.132.109.109 0 0 1-.004-.062c0-.016.008-.034.01-.054.003-.02.003-.042.007-.06a.17.17 0 0 1 .031-.084c.008.002.016.016.021.02.016.011.037.016.052.03a.082.082 0 0 1 .016.02c.021.034.013.087.028.13.003.005.008.009.007.015-.022.003-.05.003-.062.017.01.016.035.003.055.003.02 0 .046.006.06.016.012.008.022.025.036.032.023.008.058.01.086.012a.738.738 0 0 1 .09.012.609.609 0 0 1 .123.04l.019.01c.005.003.01.008.015.01.012.009.03.009.047.01l.045.014c.012.006.03.01.046.019.006.002.01.009.016.011.011.002.022 0 .031.002a.1.1 0 0 1 .03.016c.019.01.034.025.034.053-.008-.006-.01-.029-.028-.017zm-.682.07c-.02-.013-.042-.03-.07-.036a.049.049 0 0 0-.026-.003c-.002.01.014.008.023.01a.135.135 0 0 1 .052.02c.006.006.02.012.016.021-.008.016-.037-.01-.037-.016-.008-.002-.01-.01-.02-.013-.006-.003-.014 0-.02-.003-.01 0-.015-.005-.022-.006-.003.024.034.013.046.024.003.001-.003.005-.003.008.004.005.008.007.011.01 0 0-.003-.006 0-.009.026-.006.027.024.006.03-.022.006-.037-.01-.052-.015-.025-.004-.048.004-.068-.002-.02-.005-.026-.016-.04-.029-.013-.014-.032-.016-.052-.022.01-.018.015-.041.032-.056.008-.007.05-.027.07-.015.011.005.029.008.036.012a.08.08 0 0 1 .017.012c.007.006.012.016.018.018.014.004.04.008.056.014.005 0 .013.002.013.009 0 .003 0 .008-.006.008-.004 0-.007-.006-.01-.008-.013-.008-.038-.008-.055-.015.003.004.01.005.011.007.027.005.047.017.067.028.006.003.016.01.008.016zm-.286-.186.012-.365.002-.002v.002c.005.005.005.014.005.02l.02.151c.007.057.023.111.026.17-.013.007-.028.01-.04.015-.008.003-.014.01-.024.01zm.112-.061c-.008.005-.02.005-.03.006a2.253 2.253 0 0 1-.05-.292 2.203 2.203 0 0 1-.016-.317c.006-.002.013-.006.023-.003.014.006.008.055.01.076.002.08.008.165.013.24.004.053.011.105.02.15.006.05.024.095.03.14zm-.027-.321a1.655 1.655 0 0 1-.003-.27.2.2 0 0 1 .002-.035c.004-.02.004-.041.018-.056l.024-.017a.239.239 0 0 0 .022-.022c.003-.013.012-.029.013-.038 0-.004 0 0 0 0 .009.183-.018.311-.035.478l-.014.138c-.017-.051-.02-.115-.027-.178zm-.128-.308-.042.048c-.006.008-.013.018-.021.023.044-.128.103-.25.142-.386.018-.068.038-.135.056-.207a1.057 1.057 0 0 0 .03-.237s0-.002.003-.002c.014.009.02.025.022.04.018.044.026.097.037.148.005.035.01.072.012.11 0 .016.005.036.005.056 0 .02.003.043 0 .059-.003.021-.02.044-.03.062-.01.021-.024.039-.036.056a.775.775 0 0 1-.075.104c-.035.042-.067.086-.104.125zm.028.117c.002.1-.006.195-.008.294-.002.116-.012.229-.017.334-.022-.003-.043-.012-.067-.016-.025-.006-.053-.006-.077-.006.038-.128.082-.255.11-.393l.053-.25s0-.003.002-.003c.006-.002.004.032.004.04zm-.18.694.026-.064h.002c-.005.021-.016.045-.023.065-.003 0-.003-.003-.005 0zm.108.056c-.008.02-.007.043-.028.055-.004.003-.011.001-.014.003-.018.013-.017.064-.052.043-.008-.02.016-.024.024-.012 0-.011-.012-.013-.024-.013.002-.022.017-.03.03-.04v-.011c-.01-.009-.018.003-.017.014-.003.005-.016.014-.021.023-.006.01-.006.023-.018.01-.003-.029.023-.03.028-.05 0-.004-.002-.004-.003-.007-.02-.002-.013.024-.028.027-.006.012-.008.028-.016.04-.003.002-.006-.001-.01-.003.002-.002-.002-.005 0-.009 0-.003.004-.003.006-.005-.01-.019.006-.038.018-.048-.01-.019-.026.016-.03.025-.002.008 0 .016-.006.016-.008 0 0-.029.002-.037.005-.011.013-.013.016-.02a.029.029 0 0 0-.019.011c-.003.003-.004.011-.008.011-.01 0-.001-.015 0-.017.01-.01.013-.014.027-.016.006-.006.008-.013.015-.017.013-.008.049-.005.068-.004a.257.257 0 0 1 .036.006c.013 0 .026 0 .032.009 0 .008-.006.01-.008.016zm-.132.089.007.002c-.003-.009.01-.01.013-.005.007.02-.027.022-.02.003zm-.099-.09a1.702 1.702 0 0 0-.13.006 3.547 3.547 0 0 1-.032-.132c.047-.002.097.008.14.013l.013.02c.008.009.022.015.032.024l.018.02a.199.199 0 0 1 .012.008.184.184 0 0 0 .023.018c-.008.008-.018.012-.023.02-.012.006-.035.002-.053.003zm-.12.05a.017.017 0 0 1-.002-.007.143.143 0 0 1 .014-.007.74.74 0 0 1 .135-.013c.003 0 .012-.003.013.002-.05.012-.108.016-.16.026zm-.067.02a.408.408 0 0 1-.095.017h-.047a.222.222 0 0 1-.064-.012.149.149 0 0 1-.024-.018c-.011-.011-.02-.024-.015-.048l.003-.003v-.01c.003-.005.008-.01.008-.018a.05.05 0 0 0-.013-.024.035.035 0 0 0-.032.016l-.003.005s-.008.008-.01.008a.038.038 0 0 1-.017.005.073.073 0 0 1-.031-.006c-.023-.01-.036-.03-.05-.05-.003-.016-.009-.024-.006-.042a.1.1 0 0 1 .007-.035c.004-.006.019-.022.012-.036-.002-.006-.01-.007-.014-.012-.005-.004-.003-.01-.008-.015-.008-.003-.016 0-.019.006-.008.013-.012.038-.016.05 0 .024 0 .053.005.075.002.016.013.022.015.036a.23.23 0 0 0 .035.038s.002 0 .003.003c.009.013.037.023.043.036l.036.017c.011.014.037.014.05.026a.165.165 0 0 1 .038.017c.05.017.09.04.138.057.019.011.036.023.054.031.008.01.018.019.024.028.001 0 0 0 0 0-.01-.003-.018-.017-.031-.01a.039.039 0 0 0 .02.024v.005c.004-.003.007.006.01.008-.007.002-.014-.013-.022-.016-.003-.005-.008-.013-.016-.013-.003.005.004.007.003.012l-.008-.01c-.008.009.005.017.008.022-.006-.002-.011-.01-.018-.013-.005.003 0 .008 0 .012-.005 0-.005-.008-.008-.007-.005.007 0 .013.003.019.002.006.006.012.008.02.005.026-.009.058.005.081-.016-.017-.006-.053-.008-.075a.16.16 0 0 0-.016-.042.304.304 0 0 0-.173-.106c-.014-.008-.04-.013-.058-.018-.044-.012-.087-.032-.132-.05-.021-.014-.036-.031-.053-.049a.294.294 0 0 1-.029-.04.116.116 0 0 1-.014-.039.14.14 0 0 1-.005-.036.235.235 0 0 1-.003-.048.27.27 0 0 1 .034-.102c.014-.024.032-.044.048-.064.019-.02.039-.04.057-.062.02-.03.032-.058.058-.08.014-.011.029-.018.046-.027a.434.434 0 0 1 .162-.05c.029.108.056.22.085.329a.201.201 0 0 1 .008.047c-.018-.004-.066-.019-.082-.01-.02.011.003.035.02.035-.003.002-.008.002-.01.003a.07.07 0 0 1-.026.014c-.003.002-.007.002-.01.003a.052.052 0 0 0-.022.022c-.006.014.004.028.022.02.01-.006.024-.021.033-.026a.197.197 0 0 1 .089-.016c.012.044.024.091.034.14a.262.262 0 0 1-.093 0c-.021-.006-.033-.008-.048.005.004.004.006.006.006.012 0 .02-.029.014-.032-.002-.005.024.024.043.046.045h.012a.533.533 0 0 0 .12-.022c.001.014-.016.011-.025.016zm-.027.153c.011.01.016.026.022.04-.01-.011-.014-.027-.022-.04zm-.143-1.135c-.024-.099-.045-.199-.073-.297-.006-.024-.01-.05-.018-.074a.567.567 0 0 1-.018-.074c-.032-.15-.072-.298-.107-.446l-.001-.003c.022.008.053.006.072.012-.003.02.004.038.029.037l.01.026c.017.005.031-.003.04-.008.088.036.168.08.273.097.005.104-.008.215-.011.33 0 .037-.007.073-.008.112a2.46 2.46 0 0 1-.015.215c-.008.052-.012.105-.017.155l-.003.058c0 .016-.007.04 0 .053a.032.032 0 0 0 .013.01c.023.017.062.029.085.046v.02c-.062.007-.118.018-.177.027-.024-.099-.052-.197-.075-.296zm-.233-.95c.003-.007.016-.008.016-.019 0-.008-.006-.012-.008-.022.01.002.014.014.022.022.004.005.02.02.026.02.009.003.025-.005.02-.016-.01-.004-.02-.001-.029-.008-.013-.008-.018-.025-.025-.04.004-.01 0-.022-.008-.026a.043.043 0 0 0-.01-.035v-.003h.002c.016.008.032.015.046.024a.103.103 0 0 1 .054.08c.01.007.024.01.032.021-.005.026-.014.046-.032.058-.013-.006-.024-.016-.034-.024-.014.012-.056.006-.065-.005a.045.045 0 0 1-.006-.027zm-.035-.016c-.008.002-.011.01-.014.017-.013-.003-.023-.028-.005-.037.016-.006.061.003.061.014.001.016-.03.005-.042.006zm-.04-.044c.013-.014.043-.006.058 0 .008.002.022.006.016.018-.02.002-.048-.01-.066.007-.008-.003-.01-.015-.008-.025zm-.004-.039c.004-.005.016-.005.023-.005.023-.003.031.007.047.016.008.007.023.009.022.016 0 .006-.006.007-.016.006-.016-.002-.033-.014-.05-.01-.01 0-.017.006-.022.006-.01-.002-.01-.022-.004-.029zm.082.002c-.01.003-.016-.007-.024-.011-.02-.008-.044 0-.062.003-.01-.054.096-.03.086.008zm-.072-.08c.005 0 .01.006.013.01.008.008.022.016.03.027-.013-.006-.03 0-.04-.007-.007-.003-.017-.03-.003-.03zm.227.169c0-.005.006-.003.008-.003.007.019-.002.04-.01.058-.006.013-.02.036-.033.043-.008.004-.021.004-.021-.007 0-.005.013-.013.017-.018a.188.188 0 0 0 .039-.073zm.029.014c.002-.002.008-.005.011 0-.008.003-.019.02-.008.026-.005.006-.012.008-.01.02-.007.004-.012.012-.01.018l-.01.012v.007c-.011.002-.011.016-.022.019-.003-.001-.003-.008-.004-.011a.194.194 0 0 0 .052-.092zm.016.068c0-.004 0-.01.002-.014a.049.049 0 0 0 .008-.013c.003-.007 0-.015.008-.02.051.01.106.02.153.035a.17.17 0 0 1 .03.01c.009.006.016.016.024.02.008 0 .013.005.018 0 .018-.017-.006-.042-.028-.042 0-.008.003-.016.005-.023.003-.002.016 0 .024 0a.272.272 0 0 1 .085.032c-.006.04-.029.06-.04.095-.013.013-.016.037-.037.041a.217.217 0 0 1-.05-.008.531.531 0 0 0-.047-.01c-.014-.005-.028-.013-.042-.016-.044-.016-.088-.038-.13-.055 0-.014.011-.02.017-.032zm.23-.082a.229.229 0 0 1 .113.035c0 .002 0 .005-.003.008a.555.555 0 0 0-.114-.035c0-.005 0-.007.004-.008zm.024-.11a2.84 2.84 0 0 1 .027-.144c.01-.042.017-.08.035-.113a.095.095 0 0 1 .021-.024l.006-.012a.274.274 0 0 0 .035-.027c.003 0 .006-.003.006 0 .012-.01.032-.012.046-.02h.003a.649.649 0 0 0 .012.102c.005.019.011.034.013.052l-.074.053c-.006-.008-.003-.02-.014-.024-.004.008-.01.015-.01.024 0 .007.007.02.006.026 0 .01.002.051 0 .067 0 .009-.008.052-.01.073 0 .01-.002.019 0 .028a.756.756 0 0 0-.11-.025c.003-.012.003-.026.008-.035zm.206-.161c.008.01.034.01.024.03a.115.115 0 0 1-.04.036h-.01c0-.012.007-.016.011-.024.007-.009.004-.024 0-.031.003-.007.011-.008.016-.011zm.04-.209v.003c.006.035.009.07.016.102.002.01.008.02.008.032a.113.113 0 0 1-.035.022.364.364 0 0 1-.023-.145.239.239 0 0 0 .034-.013zm-.008-.294a.176.176 0 0 1 .011-.04l.012-.02c.024-.027.06-.04.096-.055 0-.008 0-.016.003-.024.003.008.002.017.004.024.03.005.048.02.07.038.021.016.04.038.047.07.003.015.002.025.006.039.005.01.016.02.014.038a.23.23 0 0 1-.077.165.1.1 0 0 1-.076.024.154.154 0 0 1-.069-.035.213.213 0 0 1-.04-.056.155.155 0 0 1-.023-.097c0-.029.016-.044.022-.072zm.233.322c.003-.014.004-.02.009-.03.01.002.02.007.03.013-.01.01-.028.01-.039.017zm-.024-.064c0-.006.003-.014.003-.024 0-.008-.002-.014.001-.02 0 .025.011.045.01.068 0 .022-.012.04-.02.055a1.174 1.174 0 0 0-.138.077.337.337 0 0 1-.028-.095.125.125 0 0 1-.004-.042c0-.01.007-.018.007-.03a.135.135 0 0 1 .024.024c.016.013.038.032.068.032.01 0 .02-.004.03-.006.011 0 .023.005.034-.003.007-.003.015-.016.015-.026 0-.005-.003-.008-.003-.011zm.095.113c-.015.02-.038.035-.058.05-.042.032-.085.062-.127.097a.23.23 0 0 0-.027.027c-.014.014-.033.024-.026.047.015 0 .025-.015.035-.023l.1-.093.007-.006v.002c.02-.017.043-.032.064-.05a.217.217 0 0 1 .037-.028c.003 0 .004-.003.007-.004h-.003a.358.358 0 0 1 .035-.021.103.103 0 0 1 .023-.006c.012-.004.033-.019.044-.004-.012.012-.029.016-.041.024-.022.016-.04.027-.058.042a.074.074 0 0 1-.02.016.62.62 0 0 0-.104.117 1.38 1.38 0 0 0-.066.09c-.042.064-.082.127-.135.18-.014.013-.056.032-.063-.003.01 0 .02 0 .026-.004.017-.01.03-.027.043-.043.008-.01.019-.021.013-.032-.013 0-.02.016-.027.024-.015.006-.023.016-.043.016-.038 0-.058-.023-.056-.066 0-.011-.002-.058.002-.07a.109.109 0 0 1 .036-.043l.077-.058c.008-.005.015-.014.024-.02.016-.012.036-.023.053-.035.043-.027.086-.053.132-.076v.003l.06-.031h-.003l.039-.019zm-.006.546v-.045l.001-.002h.003l.003.036c0 .008 0 .014-.003.02-.003 0-.005-.006-.005-.01zm-.228.927c-.01.022-.023.04-.034.06a.22.22 0 0 1-.04.054 3.665 3.665 0 0 0-.083.101c-.024.03-.05.06-.072.093-.003.003-.006.01-.012.01-.005-.015-.005-.032-.006-.05a1.425 1.425 0 0 1-.006-.165c0-.04.014-.063.029-.094l.012-.027c.02-.046.04-.096.063-.136.018-.035.04-.066.06-.099.042-.064.085-.127.12-.197.03-.053.053-.106.08-.16l.052-.104a.254.254 0 0 1 .052-.072c0-.002.002-.003.005-.002.009 0 .003.029.003.035a3.629 3.629 0 0 1-.11.36c-.006.022-.016.043-.022.063-.007.02-.013.044-.022.064l-.015.023a.147.147 0 0 0-.014.027.315.315 0 0 0-.026.052.164.164 0 0 0-.021.03c-.012.02-.026.04-.032.066-.003.01-.009.03 0 .035.013.004.025-.019.032-.027l.02-.037c.04-.076.074-.167.105-.249.033-.086.06-.175.086-.267.005-.023.013-.046.019-.07.002-.006 0-.018.008-.02 0 .028-.005.054-.008.083a14.107 14.107 0 0 1-.058.225 1.702 1.702 0 0 1-.103.27c-.01.022-.017.044-.03.064-.01.02-.02.04-.032.06zm-.215.463c.005-.015.015-.029.023-.043a1.63 1.63 0 0 1 .106-.16c.01-.014.02-.024.027-.037a.631.631 0 0 1 .044-.058c.004-.005.008-.014.014-.018.007.008 0 .02-.002.028-.011.05-.02.094-.038.139-.001.003-.026.043-.011.05.008.003.02-.023.021-.029a.944.944 0 0 0 .04-.112c.013-.04.024-.078.04-.116.007-.013.01-.026.016-.037.006-.006.014-.01.017-.016.002.02-.004.045-.007.072l-.022.11a2.937 2.937 0 0 1-.05.183l-.063.172-.01.028c-.007.014-.009.029-.021.032-.007.002-.02-.002-.03-.003a.21.21 0 0 1-.087-.04.54.54 0 0 1-.009-.06c-.002-.032-.009-.06.002-.086zm-.062-.243c.003.046.004.092.006.14a.268.268 0 0 0-.118 0 .05.05 0 0 0-.012.008c0 .016.007.026.015.034a.056.056 0 0 1 .02.006c.013-.003.027-.008.044-.003.006 0 .012.008.018.01.007.002.015.004.02.007.013.01.02.027.03.036.008.03.013.074.017.109a.628.628 0 0 0 .02.086.048.048 0 0 0-.02-.003c-.018-.003-.04-.001-.059-.005-.014-.003-.033-.003-.051-.003l-.099-.396a.148.148 0 0 1 .052-.015l.093-.012a.048.048 0 0 1 .024.002zm.221-1.113c-.013.006-.01-.011-.014-.026-.002-.016-.011-.035.006-.034.006.015.008.04.008.06zm.003-.086c-.007.007-.02.014-.034.007.002-.01.014-.013.02-.018.008-.006.015-.013.023-.016.018-.002.03-.011.042-.019h.004c-.012.018-.036.033-.055.046zm.044.077a.062.062 0 0 1 .003-.05.07.07 0 0 1 .051-.028c.033-.004.065.008.076.027.011.032 0 .066-.026.078-.033.02-.091.003-.103-.027zm-.093.51c-.018.005-.023.026-.032.041-.014.032-.028.062-.04.098-.031.072-.06.152-.088.227-.004.007-.004.017-.011.023-.004-.009-.004-.023-.004-.033a2.56 2.56 0 0 1 .003-.175l.006-.063v-.049c0-.013.005-.026.007-.04l.01-.038a.048.048 0 0 1 .009-.019.577.577 0 0 1 .077-.145.961.961 0 0 1 .086-.109.76.76 0 0 1 .128-.117.5.5 0 0 0 .077-.066c.008-.008.014-.02.024-.025a.062.062 0 0 1-.01.029c-.014.022-.033.045-.05.067-.032.044-.067.088-.097.139l-.042.075c-.045.073-.083.152-.127.228a.414.414 0 0 0-.035.08c.007 0 .01-.009.015-.017.06-.1.118-.203.18-.302a1.423 1.423 0 0 1 .107-.153.73.73 0 0 0 .078-.114c.008-.014.015-.029.024-.04.009-.008.016.016.014.031-.001.007-.008.018-.011.026-.013.027-.021.054-.035.08-.017.033-.035.066-.05.098-.032.07-.071.13-.106.194l-.053.095c-.05.088-.1.175-.148.265-.004.006-.008.019-.015.019a2.711 2.711 0 0 1 .075-.17c.014-.033.026-.059.035-.098.003-.013.011-.032 0-.041zm.253-.632c.016-.008.028-.009.037-.014h.004v.003c0 .003-.005.005-.007.008-.01.016-.012.043-.028.05-.01.007-.022.003-.036.005-.026-.025-.084-.026-.114-.008-.01.004-.02.015-.036.01.003-.011.016-.017.025-.023.02-.011.037-.024.059-.034.011-.005.024-.011.035-.008 0 .016.009.028.033.023a.1.1 0 0 0 .015-.007c.005 0 .01-.004.013-.005zm-.281.137v-.07.001c0 .02.004.048 0 .068zm-.102-.014c0-.008 0-.016.002-.023a.128.128 0 0 1 .018-.041c.005.01.004.026.005.041l.009.068c0 .017 0 .031-.006.042l-.022.039a.528.528 0 0 1-.005-.126zm.02.145.016-.032a.318.318 0 0 1 .037-.062l.026-.032a.584.584 0 0 0 .092.01c.01 0 .023 0 .03.002.009.002.019.014.03.016.013.004.03.002.045.004-.011.02-.031.033-.048.048a.599.599 0 0 0-.045.047c-.03.032-.06.063-.088.1a3.819 3.819 0 0 0-.08.106c-.02.028-.035.058-.053.088-.005.01-.01.021-.019.028-.002-.06.007-.117.015-.174.003-.024.013-.05.02-.075.007-.024.013-.052.022-.073zm-.099.59c0 .048-.005.094-.005.144a.665.665 0 0 1-.003.055c0 .02 0 .037-.004.054-.006-.004-.01-.008-.024-.006.012-.092.022-.184.032-.277h.003c.004.01 0 .02 0 .03zm.018-.052c-.008 0-.017-.003-.027-.006 0-.107 0-.209.006-.302.002-.023.002-.049.002-.074 0-.024.003-.048.004-.07.002-.056.002-.112.005-.171.014-.007.024-.018.036-.026.01.027.003.06.005.086.002.03.008.06.004.088 0 .01-.006.021-.008.03-.003.01-.004.02-.008.027 0 .013-.005.028-.008.044v.01c0 .003-.003.006-.003.007-.015.1-.007.229-.008.356zm.661-1.214.009.022a.68.68 0 0 1 .02.11.56.56 0 0 1 .012.056l.012.053a.053.053 0 0 0-.021.005c-.037.005-.088.005-.131.019v-.008l-.001-.008-.002-.024c0-.01-.001-.025-.006-.024 0-.013-.017-.038-.02-.018v.017c.003.031.003.03.003.064a.485.485 0 0 1 0 .083c-.007 0-.014.003-.02 0a.105.105 0 0 1-.027.01.13.13 0 0 1-.043.006.217.217 0 0 1-.04-.01c-.01-.006-.02-.015-.031-.017-.032-.01-.034.022-.07.015.011-.031.031-.057.048-.084a.769.769 0 0 1 .078-.107l.035-.042a1.01 1.01 0 0 1 .048-.05c.006-.004.01-.012.02-.013a.11.11 0 0 1-.039.068c-.006.007-.012.014-.018.018-.005.004-.015.006-.015.014v.005c-.002.015.018.018.03.012.013-.01.024-.033.034-.051a.413.413 0 0 1 .113-.14c.01-.008.019.011.022.018zm.067.288c-.008.002-.02.002-.03.005l-.006-.025c.007-.003.016-.008.025-.006a.05.05 0 0 0 .01.027zm.006.014c.003.002.008 0 .008.006s-.028.01-.033.013a.5.5 0 0 0-.112.048c-.01.006-.015.016-.026.011a.047.047 0 0 1 .014-.016.119.119 0 0 1 .02-.01c.026-.012.052-.026.082-.038.015-.004.034-.008.047-.014zm.011.273a2 2 0 0 1 .074.266c-.002.011-.036.022-.05.022-.008 0-.022 0-.027-.002-.005-.003-.01-.022-.016-.032-.023-.052-.078-.212-.1-.27-.008-.022-.005-.04-.011-.062-.002-.013 0-.027 0-.07a.24.24 0 0 1 .097-.02l.01.045.003.03.003.032.005.023c.002.013.008.024.013.038zm.093.269h.004c.008.007-.005.02-.011.026a.175.175 0 0 1-.086.024c-.013 0-.034-.002-.026-.019.046.011.104.003.12-.031zm.01.029c.008-.002.017.008.017.014 0 .011-.013.007-.025.01-.006 0-.009.009-.017.01l-.01.002c-.006 0-.01.005-.017.006-.003 0-.008-.002-.012 0-.007 0-.008.005-.015.008-.01-.006-.015.003-.023.006-.01.002-.026-.008-.017-.02.004-.007.027-.006.037-.007a.24.24 0 0 0 .04-.01c.018-.006.03-.018.041-.019zm.021.037c.044.011.086.032.13.046.027.008.053.015.074.027l.014.01.022.012c.004.002.01 0 .007.006-.008.005-.014-.004-.02-.006-.036-.02-.075-.043-.126-.05.005.009.016.009.024.009.046.012.085.04.123.063.005.003.016.006.016.015-.008.004-.016 0-.021-.005-.041-.028-.083-.061-.146-.072-.004.012.012.013.018.014a.264.264 0 0 1 .082.035l.024.016c.008.005.019.008.024.016-.014.01-.032 0-.047-.008-.011-.005-.02-.012-.034-.017a.458.458 0 0 0-.08-.02c-.013-.004-.028-.004-.041-.007-.012-.003-.023-.013-.036-.013-.011.014.008.013.021.018l.006.005c.017.005.04.003.06.007.014.002.038.01.038.016 0 .015-.05.003-.064.003-.032-.002-.052.003-.082-.003-.022-.003-.045-.008-.057-.023a.045.045 0 0 1-.008-.017c0-.007.002-.016 0-.024s-.008-.01-.004-.016c0-.006.004-.002.012-.006.003 0 .006-.003.009-.004h.014c.008 0 .009-.012.02-.008a.113.113 0 0 1 .028-.02zm.198.056c.006-.006.017.002.028.008a.147.147 0 0 1 .025.008.21.21 0 0 1 .03.036c.007.012.003.027-.005.039-.013.01-.028.016-.043.023-.005.004-.01.004-.015.007-.008.005-.013.016-.022.016 0-.008.006-.014.008-.02.006-.004.009-.01.014-.015.017-.004.053-.01.055-.027 0-.008-.008-.012-.013-.02-.003-.004-.004-.01-.006-.013-.006-.008-.02-.013-.03-.02a.122.122 0 0 1-.015-.01c-.004-.002-.012-.006-.012-.012zm.084.017c.018-.003.022.017.037.024.011.002.026-.002.038.001s.015.014.023.023c.002.003.01.009.008.013 0 .005-.01.005-.014.006-.013.007-.028.02-.04.03a.116.116 0 0 1-.047.024l-.034-.003c-.01 0-.02.007-.03 0 .007-.008.02-.008.03-.013.018-.008.052-.023.05-.054-.003-.016-.018-.032-.021-.05zm.122.086c.02-.001.029.01.038.023.026.04.032.103.05.154.003.011.009.021.011.032.01.035.008.078.008.118l-.003.127c.002.069.016.134.016.207 0 .008.002.02-.004.027-.005 0-.005-.01-.006-.013-.005-.016-.013-.034-.016-.052a.245.245 0 0 1 .003-.042.258.258 0 0 0-.018-.112c-.003-.006-.013-.019-.014-.023 0-.007.005-.013.006-.02.01-.044-.024-.077-.022-.122 0-.017.003-.034.002-.05a.207.207 0 0 0-.043-.12c.008-.011.024-.02.03-.039a.111.111 0 0 0-.001-.059.057.057 0 0 0-.016-.028c-.018-.013-.047-.002-.06.007-.002.002-.005.008-.008.01-.006.005-.014.006-.02.01.02-.016.038-.035.068-.036zm-.13.886a.135.135 0 0 0 .015-.077c0-.026-.01-.05-.005-.076.006-.025.022-.052.035-.077a.162.162 0 0 0 .022-.056.09.09 0 0 0-.003-.037c-.004-.014-.014-.024-.016-.037 0-.012.007-.023.012-.032.006-.008.015-.013.019-.02l.005-.012c.004-.012.01-.024.014-.038.002 0 .002-.003.003-.003 0 0 0 .002.002.002.004.028-.012.063-.003.09 0 .005.005.01.007.015l.007.014c.008.016.022.024.027.044a.061.061 0 0 1 0 .034c-.003.006-.007.012-.009.024 0 .015.008.029.002.044-.002.013-.013.02-.016.034-.004.016 0 .035 0 .05 0 .008-.004.02-.007.03-.004.027-.005.052-.023.065-.005.005-.01.006-.016.01-.005.003-.008.01-.017.01-.006-.006-.003-.015 0-.02.01-.032.05-.072.019-.107 0 .02 0 .043-.008.059-.006.007-.017.015-.02.023a.021.021 0 0 0-.005.01c-.006.018-.001.039-.01.059-.01.023-.049.032-.079.02a.12.12 0 0 0 .048-.046zm-.155-.213c-.002.009-.013.016-.009.028-.016-.022-.003-.046-.003-.078-.002-.026-.031-.048-.017-.08.008.007.011.014.015.026l.006.011c0 .006 0 .01.003.016.003.008.008.013.011.018 0 .011-.01.022-.01.035 0 .007.006.018.003.024zm-.08.118c.003-.02.012-.037.014-.057a.382.382 0 0 0 0-.042c-.004-.042-.04-.077-.03-.126.008-.003 0 .012.007.013.008 0 .008-.005.013-.005.013-.043-.027-.071-.013-.115.008.006.012.016.023.02.003.012.01.024.01.037 0 .01-.005.018-.005.027 0 .026.016.038.025.058.003.037-.004.077.01.11.007.018.019.029.03.043l.008.016c.013.037.006.078-.016.095-.009.006-.02.01-.026.017-.006.006-.007.017-.014.02-.005-.005 0-.021-.002-.031a.068.068 0 0 0-.008-.021c-.011-.016-.027-.032-.026-.059zm-.012.048.004-.001a.103.103 0 0 1 .02.063l-.03-.002c.003-.018.008-.04.006-.06zm-.029-.083c-.008-.026.009-.06.006-.093a.156.156 0 0 0-.015-.057c-.012-.026-.03-.047-.032-.078-.003-.04.024-.062.032-.096.006-.013.006-.028.01-.044V16c.005 0 .005.006.005.014.002.012.005.019.008.029a.042.042 0 0 1 .006.013c0 .01-.006.023-.006.035-.003.016.004.032.004.043 0 .01-.003.02-.003.029-.004.02-.009.043-.005.064 0 .012.006.024.01.037.006.021.015.043.013.072-.001.023-.015.045-.015.07-.005-.014-.013-.026-.017-.036zm-.088-.036a.17.17 0 0 0-.001-.035c0-.005-.006-.011-.003-.015 0-.006.004-.008.005-.014.01-.033-.019-.058-.033-.077a.167.167 0 0 1-.032-.135l.003-.003c.016.016.025.038.042.052-.003.03-.003.063.01.086.006.011.014.02.02.03.006.012.017.024.02.034.003.017-.008.032-.013.044a.135.135 0 0 0 .01.108c.008.01.027.017.026.03 0 .013-.016.017-.022.028a.107.107 0 0 1-.035-.046.11.11 0 0 1-.01-.04c.002-.016.012-.03.013-.047zm.03-.725a.04.04 0 0 0-.006.025.09.09 0 0 0-.02.034.06.06 0 0 0-.052.04c-.005.011-.003.024-.002.038 0 .005.003.013.003.02a.15.15 0 0 1-.013.052c-.006.016-.022.029-.032.044l-.01.016a.103.103 0 0 0 .006.07c.004.006.012.011.016.017v.02l.002.02c0 .019-.008.036-.01.053a.242.242 0 0 0 .03.135c.004.006.01.01.012.02a.103.103 0 0 1-.048-.04c-.011-.023-.01-.049-.011-.08-.003-.031-.014-.056-.022-.083a.364.364 0 0 1-.005-.045.24.24 0 0 1 .005-.046.803.803 0 0 1 .027-.128c.006-.03.021-.048.03-.075a.362.362 0 0 1 .083-.11c.008 0 .012-.004.02-.005.003.002-.002.005-.005.008zm.025.115c0-.005 0-.006.003-.01a.636.636 0 0 0-.022.074.017.017 0 0 1 0-.015c.002-.016.008-.043.02-.05zm-.103.184c.004-.013.014-.023.02-.035a.227.227 0 0 0 .016-.072v-.005l.003.002c.018.064-.02.122-.019.18 0 .02.006.039.014.055.004.013.014.024.006.045-.014-.011-.02-.026-.032-.043a.3.3 0 0 1-.011-.02.211.211 0 0 1 .003-.107zm.026-.19c.01-.004.015-.011.028-.009a.18.18 0 0 0-.016.073c-.002-.003-.008-.005-.012-.009-.012-.014-.008-.043 0-.055zm-.055.156h.003c.014-.028.034-.051.041-.086.003.001.004.004.007.004 0 .062-.05.09-.056.144-.01-.012-.008-.04 0-.049v.002c.006 0 0-.015.004-.006.003-.002-.002-.005 0-.009zm.105-.021c0 .017 0 .036-.004.054-.005.017-.018.03-.02.05v.01c0 .005-.004.008-.006.012-.002.016.003.032.003.053a.138.138 0 0 1-.01-.095c.006-.022.016-.042.018-.065.004-.042-.001-.091.006-.13.006-.024.02-.038.032-.056.006-.002.01-.011.018-.01 0-.003-.005 0-.003-.003.028-.02.068-.041.113-.028a.302.302 0 0 1-.048.004c-.04.016-.075.038-.094.077l-.002.005a.175.175 0 0 0-.01.047c-.004.027.007.05.007.076zm.39-.061a.218.218 0 0 1-.016.121c-.012.023-.025.04-.04.062.003.007.008.023 0 .031a.13.13 0 0 1-.044-.015c.002.023.025.026.042.034 0 .007-.006.015-.01.016-.006 0-.026-.015-.032-.016-.003-.004-.006-.008-.008-.008 0 .021.017.028.027.038-.003.006-.01.016-.017.016-.017.002-.026-.03-.032-.045-.01.005-.007.02-.011.032-.028-.01-.038-.038-.035-.07.006-.025.052-.019.06-.045a.05.05 0 0 0-.005-.024c-.003-.008-.005-.016-.01-.017-.006.009.008.02 0 .031-.006.003-.01 0-.016 0-.018-.002-.033.007-.05.005-.009 0-.018-.005-.026-.005-.007 0-.014 0-.02-.003-.003-.01.006-.02-.004-.024a.04.04 0 0 0-.007.032c.001.01.012.02.018.025.016.008.038.008.045.022a.037.037 0 0 1 0 .026c-.001.026-.024.044-.045.05.003-.008.005-.032-.004-.03-.006 0-.009.017-.014.025-.008.013-.028.023-.039.003.016-.011.03-.018.038-.038a.118.118 0 0 0-.034.01c-.011.006-.02.014-.02-.01a.061.061 0 0 0 .046-.03c-.014.005-.03.012-.048.008-.003-.003 0-.008 0-.01a.232.232 0 0 1-.054-.145.28.28 0 0 1 .038-.14c.007-.012.014-.022.027-.027a.151.151 0 0 1 .06-.01c.023.002.038.013.057.017.024.007.04-.01.06-.012a.094.094 0 0 1 .07.02c.007.003.013.012.019.019a.151.151 0 0 1 .035.08zm-.016.37c.004.005.01.007.013.014.005.013.005.056-.006.06.003-.053-.048-.076-.035-.131a.201.201 0 0 1 .011-.036c.01-.026.023-.056.013-.09 0-.002-.004-.008-.004-.012a.14.14 0 0 1 .022-.04c.008.004.008.017.008.021.007.02.019.043.02.067a.143.143 0 0 1-.019.065c-.012.018-.03.03-.028.06l.006.021zm.02-.418v-.005c0 .003.002.003.002.003.023.01.032.04.034.068 0 .021-.009.044-.01.063a.078.078 0 0 0 .012.053c.006.006.018.013.018.025 0 .014-.01.023-.013.033-.008-.01-.01-.024-.013-.036s-.008-.026-.009-.04c0-.012.003-.02.004-.034a.293.293 0 0 0-.024-.13zm.122.276a.106.106 0 0 1-.01.038c-.01.016-.024.02-.03.037-.006.022.01.044.006.065-.006 0-.01-.008-.012-.015a.05.05 0 0 1-.01-.017c-.008-.03.014-.074.003-.108 0-.007-.008-.014-.008-.02 0-.015.015-.029.013-.05 0-.012-.008-.018-.014-.028-.007-.008-.014-.012-.014-.023 0-.017.013-.032.016-.05a.115.115 0 0 0-.013-.079h.004a.163.163 0 0 1 .049.108c0 .028-.008.056-.006.084.003.02.024.034.026.058zm-.072-.37c-.004 0 .006-.005.006-.008.012-.011.03.002.033.013.014.037-.017.082-.046.087-.012.002-.032-.003-.033-.012.004-.004.007-.002.01-.003a.082.082 0 0 0 .054-.028c.008-.023-.002-.048-.024-.048zm-.008.003c0 .007-.005.011-.002.018 0 .005.005.008.005.01 0 .006-.019.015-.026.018-.02.007-.048.001-.056-.01a.163.163 0 0 0 .08-.036zm-.238-.056c0-.01.012-.007.016-.012.021.002-.006.02-.016.012zm.022.015c.016-.003.02-.016.034-.016.01.015-.011.022-.017.032-.01.006-.02.015-.04.013-.014-.003-.026-.01-.04-.016-.03-.013-.07-.004-.095.006-.024.01-.04.026-.058.041.014-.045.042-.07.085-.077a.246.246 0 0 1 .047.003c.03.004.06.02.084.014zm-.417-.67c.001-.007.011-.009.02-.01.022-.007.05-.016.076-.016a.016.016 0 0 1 .004.011v.003c-.015.005-.033.006-.051.008-.016.003-.032.01-.047.007v-.003zm-.064.056c0-.005-.005-.006-.006-.01.013-.009.023-.027.038-.032h.002a.229.229 0 0 0 .006.045l.007.035.01.066c.005.024.02.084.029.106.024.068.055.134.085.195-.003.008-.01.016-.008.027 0 .008.008.009.011.014-.002.01-.008.015-.006.024.003.018.03.024.048.025.005.008.008.018.013.03.002.006.012.024.01.033 0 .007-.015.012-.019.018-.013.01-.021.023-.03.037a.499.499 0 0 0-.061.105c-.004.008-.006.016-.012.023.005-.257-.016-.502-.117-.661v-.02h.001v-.029c0-.01 0-.022-.002-.03zm.067 1.1c-.005-.003 0-.009 0-.014l.01-.046c0-.01 0-.018.007-.025h.003c-.006.017-.006.04-.01.056-.002.01-.003.022-.01.028zm.026-.051v-.002h.004c.019.046.005.104.03.143.015.027.044.035.076.047.015.01.005.026.007.04 0 .01.008.02.01.032a.142.142 0 0 1-.006.035c-.007-.006-.007-.018-.01-.026a.155.155 0 0 0-.02-.032c-.02-.022-.052-.026-.072-.048a.167.167 0 0 1-.037-.097c0-.033.017-.057.017-.092zm.195.345c-.003.005.003.014-.003.016-.008-.003-.01-.013-.012-.02a.111.111 0 0 1-.007-.067c.009-.028.02-.057.01-.089-.004-.013-.015-.026-.023-.041-.011-.022-.024-.04-.02-.073.004-.023.013-.049.014-.077 0-.03 0-.056.008-.08a.17.17 0 0 1 .018-.039c.005-.002.008.011.01.018.005.02.011.051.005.077-.004.016-.013.03-.018.044a.197.197 0 0 0-.005.084c.002.012.008.024.012.035.01.024.029.046.032.071a.117.117 0 0 1 0 .038c-.001.025-.017.043-.009.072.004.013.015.025.021.039a.124.124 0 0 1 0 .107c-.013-.003-.019-.016-.027-.025.02-.024.01-.068-.006-.09zm.24-.072.003-.016c0-.011-.008-.022-.006-.034.001-.012.01-.023.013-.035 0-.015-.008-.023-.008-.038-.002-.006.003-.02.003-.028 0-.005-.006-.041-.013-.041-.009 0-.013.02-.013.032a.065.065 0 0 0 0 .022c0 .01.007.018.011.028.006.02-.008.039-.008.054 0 .008.004.017.004.024.003.016-.008.03-.008.044.003.011.013.022.016.034.013.045-.017.078-.032.105-.008.008-.02.01-.031.024-.01.012-.012.038-.04.023.004-.01.017-.01.021-.021.015-.01.03-.022.035-.041.007-.027-.002-.063-.002-.097 0-.016.006-.027.011-.043a.229.229 0 0 0 .011-.043c.003-.031-.016-.058-.012-.083.003-.01.015-.02.016-.03 0-.01-.005-.016-.008-.02-.012.002-.028 0-.04.002-.001.007-.003.012-.002.02 0 .006.008.01.01.018.004.01.006.021.008.035.003.01.01.021.01.033 0 .034-.024.063-.022.101a.027.027 0 0 1-.008-.016.027.027 0 0 1-.003-.017c0-.01.008-.017.01-.027 0-.008-.003-.016 0-.027.001-.012.013-.023.013-.032 0-.01-.008-.016-.012-.023 0-.021-.011-.032-.01-.058 0-.002-.005-.004-.005-.007-.012-.008-.027-.002-.037-.01-.01-.008-.008-.033-.016-.045.008-.005.018-.004.028-.006.008-.003.017-.01.024-.011.01 0 .02.006.028.006.01-.003.015-.007.022-.007.008 0 .019.009.028.01h.008c.015.001.022.01.03.016.024-.008.036-.031.047-.053-.003.032-.024.052-.02.087.004.03.026.047.032.073l.004.026c.004.045-.018.067-.032.1-.008-.006-.018-.02-.018-.033-.001-.018.018-.033.021-.053.005-.029-.01-.055-.016-.076-.003-.012-.005-.024-.009-.03-.003-.006-.008-.009-.01-.014-.005-.006-.003-.017-.012-.022-.008.003-.009.009-.01.016 0 .02.024.039.03.056.003.006.004.016.008.026a.065.065 0 0 1 .008.04c-.004.016-.024.03-.026.048a.087.087 0 0 0 .008.037l.016.02a.118.118 0 0 1 .01.037.15.15 0 0 1 .009.037c.001.008-.002.03-.003.042a.076.076 0 0 1-.018.035.054.054 0 0 1-.027.024c-.01.005-.02.008-.033.012-.006 0-.012.004-.018.006-.011.002-.02-.008-.032-.006.005-.034.034-.037.05-.059a.113.113 0 0 0 .027-.085c-.002-.022-.013-.04-.013-.064zm.294.066c0 .005-.006.012-.009.017a.168.168 0 0 1-.026.046c-.021.026-.056.043-.086.066-.009.007-.016.016-.025.024a.11.11 0 0 1-.027.023c-.004.002-.01.006-.016.002-.004-.008.007-.008.01-.01.005-.006.014-.008.017-.014.002-.003 0-.008.003-.013.008-.017.03-.027.042-.045a.065.065 0 0 0 .011-.028c.003-.005.001-.011.004-.016.007-.01.02-.013.026-.02a.686.686 0 0 1 .016-.022.183.183 0 0 0 .013-.034c.006-.037-.01-.064-.003-.11-.014.016-.008.05-.008.073 0 .034-.018.056-.036.073.003-.012-.005-.024-.005-.033.003-.014.013-.023.02-.033.01-.02.002-.043.005-.066.002-.012.008-.022.01-.032a.076.076 0 0 0 0-.032c0-.006-.006-.014-.005-.022 0-.01.008-.018.006-.032 0-.009-.005-.018-.005-.026a.06.06 0 0 1 .01-.038l.01-.005c.002-.003.006-.012.01-.01.011.004.02.043.021.059a.349.349 0 0 1 0 .072c-.001.015-.003.033-.001.048 0 .033.016.056.018.086a.14.14 0 0 1 0 .05zm-1.97-2.058c.01-.006.023-.011.032-.018-.004.01-.016.018-.03.021v-.003zm-.023.143c-.006-.025-.007-.056-.012-.077a.378.378 0 0 1 .016.047c.002.017.008.036.004.051-.005-.004-.006-.014-.008-.022zm-.035-.137c.003-.006.012-.008.016-.01.003.002-.004.004-.005.007.005.017.005.037.017.049-.006 0-.008.004-.014.004 0-.008-.016-.04-.014-.049zm-.006-.05a1.08 1.08 0 0 0-.041-.07.46.46 0 0 0 .012-.078c.004 0 .002.006.003.011.006.02.023.044.003.051.006.034.02.062.029.096-.004-.003-.003-.007-.006-.01zm-.018.096a.125.125 0 0 1-.05-.003l-.025-.017c-.017-.033-.011-.09-.008-.133.005.017.002.052.003.077a.114.114 0 0 0 .01.044c.005.014.025.024.042.027.008.002.018 0 .026-.003.006 0 .013-.005.016.001 0 .006-.01.006-.015.007zm2.403 2.202-.023-.008c-.016-.003-.039-.003-.056-.003-.017-.003-.033-.003-.052-.007-.017-.003-.035-.004-.051-.01-.013-.005-.027-.016-.04-.023a1.686 1.686 0 0 0-.149-.067c.011-.017.023-.03.032-.047.011-.022.013-.049.017-.078.004-.018.01-.038.01-.053a.54.54 0 0 0-.002-.102c-.01-.102 0-.202-.004-.297a.43.43 0 0 0-.024-.117c-.013-.037-.022-.078-.034-.11a.14.14 0 0 0-.02-.035c-.007-.008-.02-.015-.024-.023-.002-.006 0-.008-.002-.015-.005-.013-.02-.018-.03-.025l-.02-.017a.073.073 0 0 0-.023-.012c-.006-.002-.014-.002-.02-.006-.007-.002-.01-.008-.014-.011-.02-.013-.041-.007-.07-.013-.005 0-.008-.005-.013-.005-.035-.01-.084-.002-.123-.014-.041-.01-.076-.033-.11-.044.002-.02-.013-.024-.024-.032 0-.01.008-.028-.005-.036h-.016c-.018-.067-.03-.133-.047-.197-.008-.031-.022-.062-.028-.093l-.008-.053c0-.017-.006-.034-.008-.052-.005-.028-.004-.052-.006-.08.008-.012.03-.024.028-.045v-.01a.164.164 0 0 0-.019-.035c-.015-.039-.022-.085-.031-.13-.008-.047-.015-.09-.03-.13-.005-.013-.012-.027-.015-.039 0 0-.002 0-.002-.002-.004-.027-.016-.041-.04-.046-.004-.008-.01-.015-.017-.025-.002-.005-.013-.02-.013-.025-.003-.016.002-.026-.003-.037-.001-.006-.01-.008-.01-.013 0-.006.002-.011 0-.017 0-.008-.008-.009-.01-.016.01-.017 0-.036-.009-.045.008-.014 0-.026-.008-.035.01-.014-.002-.029-.008-.04a.035.035 0 0 0-.009-.037c.008-.021-.003-.035-.005-.046v-.012c0-.007-.006-.012-.008-.016l-.003-.017a.105.105 0 0 0-.006-.02c-.006-.04-.011-.064-.036-.092a.172.172 0 0 0-.13-.053.21.21 0 0 0-.13.04.122.122 0 0 0-.049.069.024.024 0 0 1-.006.008.149.149 0 0 0-.02.066l-.014.042c-.002.008 0 .016-.003.024 0 .003-.003.008-.005.012 0 .005.003.009.003.015-.013.008-.011.025-.008.042-.01.006-.012.028-.003.035-.013.01-.013.037-.004.05-.002.008-.008.01-.008.02 0 .008.006.012.006.018s-.008.011-.01.018a.031.031 0 0 0 .005.027c-.008.011-.017.026-.01.043-.004.006-.009.008-.01.014-.003.004 0 .008-.003.013-.002.01-.013.016-.02.024a.3.3 0 0 0-.049.103c-.024.101-.044.213-.072.309-.005.02-.008.04-.018.057-.052-.018-.113-.026-.17-.04-.002-.01 0-.02-.008-.026-.01-.005-.024.003-.035.006-.005-.013-.027-.02-.04-.01-.007-.005-.014-.007-.02-.013a.12.12 0 0 0-.04-.066c-.009-.005-.022-.01-.034-.019a.207.207 0 0 0-.052-.024c-.012-.005-.037-.02-.042-.031l-.003-.015a12.47 12.47 0 0 1-.05-.194c-.003-.01-.007-.023-.006-.03 0-.005.005-.006.006-.013 0-.006-.004-.017-.004-.024-.008-.028-.016-.052-.02-.08a.135.135 0 0 0 .071-.033c.01-.018.022-.031.02-.06-.006-.071-.063-.125-.067-.202 0-.016.005-.032-.003-.046-.009 0-.013.013-.016.02-.02.061.015.115.024.168.004.024-.001.05-.017.063-.008.008-.023.022-.033.016a.163.163 0 0 1-.008-.082c-.008-.012.008-.025.004-.04 0-.006-.011-.014-.016-.02-.004-.008-.01-.014-.014-.02a.802.802 0 0 1-.053-.1c-.005-.012-.008-.027-.021-.031-.008.006-.003.015-.002.021.004.026.006.05.008.078 0 .02 0 .055-.004.077-.002.006-.008.014-.006.022.002.005.009.008.011.012l.011.02a.32.32 0 0 1 .038.073.018.018 0 0 0-.008.019c-.04.015-.063-.012-.066-.046-.004-.031 0-.065-.006-.096a.183.183 0 0 0-.036-.09c-.005-.007-.016-.018-.026-.014 0 .01.008.016.012.026.02.056.011.15.012.22a.077.077 0 0 0 .036.064c.025.016.06.006.093 0 .008.024.017.058.024.086l.004.018.011.008c.005.005.006.022.008.032.02.076.04.155.057.228 0 .006-.007.008-.008.013-.005.011-.003.02-.003.035v.016c0 .007.006.013.008.02.003.014 0 .026.012.034 0 .016.008.03.016.038.007.007.015.01.019.015a.15.15 0 0 1 .01.037.366.366 0 0 0 .01.04c.02.077.036.152.057.23.064.256.127.512.188.767.012.052.029.102.035.155a.2.2 0 0 0-.034.011.624.624 0 0 0-.135.066l-.014.008a.596.596 0 0 0-.159.193.592.592 0 0 1-.02.032c-.003.006-.004.014-.008.022-.003.007-.008.012-.01.02a.345.345 0 0 0-.029.099.246.246 0 0 0 .013.124c-.02-.001-.063.006-.063.024 0 .012.013.021.015.028a.047.047 0 0 1-.031.003.188.188 0 0 0-.08.004c-.006.004-.017.012-.016.021.002.018.04.022.057.022.008 0 .014-.003.02-.003.015 0 .032 0 .046.005.006.003.006.005.01.006h.014c.004 0 .008.003.014.003h.048c-.003.005-.008.008-.013.013.002.007 0 .01 0 .02.01.014.02.02.038.024.034.009.063-.008.095-.005.023.003.048.016.078.01-.012.012-.02.036-.01.052.006.008.014.008.021.013a.413.413 0 0 0 .077 0c.017 0 .05-.01.065 0 .006.004.008.014.014.021 0 .003.005.006.01.01l.01.01c.01.006.042.011.049.023 0 .001-.003.003 0 .005 0 .029.001.059.015.08.006.01.017.013.022.023.015.008.03.021.047.032.01.007.023.01.035.015.011.007.02.018.029.027l.002-.001.002-.001c-.005.002-.005-.009-.005-.014 0-.016.006-.031.01-.045.02-.094-.034-.161-.077-.204-.006-.007-.014-.01-.016-.018.022-.004.036-.016.054-.024.008.031.014.067.02.103.004.01.006.024.014.029.008.004.027-.004.03-.008.01-.012-.002-.035-.005-.05a1.67 1.67 0 0 0-.016-.069c-.002-.01-.01-.03-.006-.036.003-.011.036-.013.058-.011.01 0 .027.004.04.004.016-.002.031-.014.05-.008.008.006.012.016.021.018a.19.19 0 0 0 .09 0l.04-.012c.02-.006.04-.006.052-.014.013-.004.04-.008.042-.02 0-.007-.008-.006-.007-.015.011-.003.022-.008.034-.008.018 0 .035.005.05.005.01.001.02-.005.03-.002.019.002.039.011.06.008.01-.003.02-.007.034-.008.014-.003.028.003.042.005a.49.49 0 0 0 .058-.003.229.229 0 0 0 .072-.017c.005-.003.014-.011.02-.011l.028.005.032.003c.01 0 .03-.003.03-.008.003-.008-.01-.019-.014-.022-.025-.016-.076-.016-.109-.01-.007.002-.019.008-.023 0 0-.008.012-.007.018-.01.005-.004.008-.01.013-.013a.262.262 0 0 0 .09 0 .121.121 0 0 0 .058.016c.002.005 0 .01.002.015.013.01.036.012.056.012.057.003.12.014.175.017.024.018.07.014.1.024-.008.003-.014.01-.021.014a.25.25 0 0 0-.125.005c-.014.006-.02.023-.008.034.012.012.04.016.066.016.026 0 .05.005.073 0a.068.068 0 0 0 .029-.013c.006-.003.008-.01.008-.017.023 0 .09.003.093-.02 0-.009-.006-.011-.008-.017.012.003.014-.014.025-.017h.016l.023-.006c.01-.007.012-.015.02-.022.015 0 .028.005.042-.002.015-.006.025-.022.042-.024.016-.006.03 0 .047.004.016.003.032.009.049.009a.08.08 0 0 0 .05-.008c.008-.004.015-.012.023-.015.016-.005.036-.004.045-.016l.001-.013c.03-.012.044-.034.04-.076-.003-.04-.033-.064-.07-.071zm-.878.27c-.008 0-.018.006-.024.005-.006 0-.011-.005-.02-.008a.164.164 0 0 0-.037-.006c-.016 0-.065.006-.042.026.008.008.029.01.042.014-.007.007-.005.015.002.02.016.013.061.012.086.015.016 0 .042-.003.064 0l.029.01a.079.079 0 0 0 .056-.014c.01-.008.019-.013.014-.027-.018-.013-.048-.017-.081-.019-.01-.025-.06-.024-.09-.016zm-.114-.316c.01-.01.026-.01.035-.018-.017-.019-.072-.016-.069.021.003.016.037.018.034-.003zm.26-.45c0 .011.01.022.02.022.01.002.023-.008.02-.02-.008-.005-.03-.004-.04 0zm-.076-.28c.013-.006.03.006.017.013a.013.013 0 0 1-.01-.003c.002.015.022.014.032.007.003.002.006.002.005.006-.02.006-.05 0-.044-.025zm.032-.02c-.023-.012-.047.005-.067 0-.004 0-.008-.007-.012-.007 0 .02.009.029.026.03.009.027.037.036.073.034.004.004.003.008.008.01.004 0 .01-.009.01-.013a.059.059 0 0 0-.008-.024c-.003-.01-.022-.024-.03-.03zm.15.037c-.004 0-.006.005-.009.003 0-.007.004-.005.007-.008 0-.011.004-.018.015-.018a.012.012 0 0 1 0 .021c.014.005.022-.008.023-.021.006-.001.008.002.01.005-.003.018-.028.028-.047.018zm.058-.04c-.014 0-.031-.011-.045-.009-.01 0-.023.01-.031.02a.126.126 0 0 0-.015.045c0 .002 0 .006.007.008.005.003.004-.008.008-.008.029.002.05.002.065-.01.009-.006.013-.02.017-.031.004-.008.015-.016.011-.028h-.003c-.005.003-.008.01-.014.012zm-.12-.004a.027.027 0 0 1-.013-.017c-.005.016-.014.019-.023.02-.008.003-.012-.004-.016-.004-.003.023.034.016.042.005.006.009.032.019.035-.002-.008.004-.018.002-.025-.003zm-.676-.696c-.008.008-.013.008-.019-.003a.052.052 0 0 1-.012-.037.056.056 0 0 1 .024-.035h.002c.024.016.027.053.005.074zm-.01-.08c-.023.002-.038.012-.046.026a.045.045 0 0 0-.002.04.064.064 0 0 0 .049.032.064.064 0 0 0 .05-.029c.016-.037-.013-.071-.051-.07zm-.003-.678v-.003c.003-.002.007 0 .011.001.001.005-.01.003-.011.002zm.051-.03c-.003 0-.005.005-.009.005l-.014-.003c-.006 0-.012.002-.016.003-.015-.011-.027.005-.036.002-.008 0-.008-.005-.014-.005-.004.003-.003.012 0 .016.005.001.012-.002.016 0 .006.006.006.02.016.024a.058.058 0 0 0 .033 0c.008-.005.012-.015.014-.024.004 0 .01-.003.02-.003 0-.01-.003-.015-.01-.015" fill="#191917"/><path d="m12.402 2.246-1.434 10.777 1.436-.766zM9.334 14.504l-5.538-1.805 5.858 3.37zm11.671-1.808-6.667.718 1.146 1.084zm-6.68 5.396 3.52 4.772-2.874-6.183zm-7.368 4.777 5.128-4.545-1.603-.235zm5.644-4.661 1.635-.235.658-1.456zm-2.686-1.69.657 1.454 1.632.236zm.727-3.06L9.48 14.552l.326 1.581zm3.52 0 1.164 1.092-.325 1.582zm0 0" fill="#ee7a00"/><path d="m-280.055-186.021-1.825-.988-1.828.988zm0 0" fill="#ee7a00" style="display:inline" transform="translate(236.527 161.118) scale(.7951)"/></g></svg>