<svg xmlns="http://www.w3.org/2000/svg" viewBox="0 0 24 24"><title>Bank Of Baroda</title><g fill="#f15a29"><path d="m14.604 20.365-6.933.006-.003-.186 5.105-.203c.97-.037 1.91-.088 2.82-.397 1.867-.625 3.355-1.895 3.792-3.47.47-1.687-.609-3.327-2.642-3.469 1.722-.505 3.191-1.596 3.582-3.003.508-1.824-.411-2.746-1.962-3.084 2.58-.04 4.598.826 3.911 3.295-.39 1.405-1.894 2.475-3.605 2.942a2.874 2.874 0 0 1 2.578 3.732c-.554 1.738-1.956 2.817-3.822 3.44-.911.31-1.85.36-2.82.397"/><path d="m10.966 19.49-3.275.156a1.517 1.517 0 0 0-.014-.19l8.27-2.386.006-.133-8.384 2.017a1.17 1.17 0 0 0-.068-.175l8.805-4.89-.056-.135-9.005 4.604c-.055-.077-.047-.08-.109-.149l10.467-9.868-.092-.111-10.773 9.644c-.05-.037-.076-.066-.13-.098l7.644-11.151-.136-.038L6.15 17.571a2.267 2.267 0 0 0-.133-.042L10.39 6.743l-.116-.013-4.932 10.704a2.85 2.85 0 0 0-.184.006l-.042.004L8.294 5.963l5.937.018c2.808-.16 5.026.598 4.297 3.22-.391 1.406-1.86 2.498-3.573 2.965l-.01.037c2.034.141 3.178 1.778 2.71 3.466-.438 1.573-2.002 2.801-3.869 3.425-.911.31-1.852.362-2.82.398"/></g></svg>