<svg xmlns="http://www.w3.org/2000/svg" id="svg2" version="1.1" viewBox="0 0 24 24"><title>Bigbasket</title><defs id="defs4"><style id="style4139">.cls-1{fill:#df1f25}.cls-2{fill:#fefefe}.s0{fill:#df1f25}.s1{fill:#fefefe}</style></defs><g id="layer1" transform="translate(0 -1028.362)"><g id="g5094" transform="matrix(.18006 0 0 .18257 -11.469 852.123)"><path id="path5086" fill="#a3cb3b" fill-opacity="1" fill-rule="evenodd" d="M184.66 967.38q3.282 1.64 6.017 4.375 2.734 2.735 4.375 6.017 1.641 3.829 1.641 7.657v91.89a19.608 19.608 0 0 1-19.69 19.691h-91.89q-3.83 0-7.658-1.64-3.282-1.642-6.017-4.377-3.281-2.734-4.375-6.016-1.641-3.829-1.641-7.658v-91.89q0-3.828 1.64-7.657 1.642-3.282 4.376-6.017 2.735-2.735 6.017-4.375 3.829-1.641 7.658-1.641h91.89q3.828 0 7.657 1.64z"/><path id="path5084" fill="#ec1c24" fill-opacity="1" fill-rule="evenodd" d="M125.04 1080.054q2.189 0 3.83-.547 1.64-.547 3.828-1.64l3.282-2.189 2.735-2.734q1.094-1.094 2.188-2.735 1.64-1.641 2.188-3.282 1.094-1.64 1.64-3.829 1.095-1.64 1.641-3.828.547-1.641.547-3.83l1.094-4.375v-3.829q0-8.751-3.281-16.409-.547-2.187-1.641-3.828-.547-1.641-2.188-3.282-1.094-1.641-2.188-2.735l-2.735-2.735-3.282-2.188q-2.187-.547-3.828-1.64-1.641-.547-3.83-.547-1.64-.547-3.828-.547-1.64 0-2.735.547h-3.281q-1.094.547-2.735 1.093-1.094.547-2.735 1.094l-2.188 1.094q-1.094.547-2.188 1.641l-2.188 2.188q-1.094 1.094-1.64 2.188v-41.022H84.018v97.906s15.862 2.188 16.409-8.204v-1.641 1.094q.546 0 .546.547t.547.547q0 .547.547 1.094l.547.547 1.094 1.093q.547 1.094 1.641 1.641.547.547 1.641.547 1.094.547 1.641 1.094l3.282 1.094q1.64.547 2.735.547 1.64 0 3.281.547h3.282q2.188 0 3.829-.547z"/><path id="path5082" fill-rule="evenodd" d="M123.4 1010.59h2.735q1.64.547 2.735.547 1.64.547 2.734 1.094t2.735 1.64v-31.723H123.4z"/><path id="path5080" fill="#a3cb3b" fill-opacity="1" fill-rule="evenodd" d="M129.417 1039.579v2.735q.547 1.093.547 2.187v6.564q-.547 1.64-.547 3.829-.547 1.64-1.641 3.282-.547 2.187-1.641 3.828-.547 1.094-1.641 2.188-1.094 1.094-2.735 2.188-1.094.547-2.735 1.094h-3.281c-3.282 0-6.017-.547-8.205-2.735q-3.829-2.735-5.47-7.657l-1.094-2.188q0-1.094-.546-2.735v-2.188q0-1.64-.547-2.735.547-1.094.547-2.735v-2.187q.546-1.641.546-2.735l1.094-2.188q.547-1.094.547-2.188.547-1.094 1.641-2.188.547-1.094 1.094-1.64 1.094-1.095 2.188-1.641l1.64-1.641q1.095-.547 2.189-.547 1.094-.547 2.188-.547 1.094-.547 2.188 0 1.093-.547 2.187 0 1.094 0 2.188.547 1.094 0 1.641.547 1.094.547 2.188 1.64l1.64 1.641q.548.547 1.095 1.641.547 1.094 1.094 1.641.547 1.094.547 2.188.547 1.64 1.094 2.735z"/><path id="path5069" fill-rule="evenodd" d="m176.455 1059.816 1.094-4.375q0-1.641.547-3.829v-4.376q0-8.204-3.281-16.409-1.641-4.922-5.47-8.751-3.829-4.376-8.751-6.017-4.923-2.188-10.393-2.188-5.47 0-10.392 2.188-.547.547-1.641 1.094l1.64 1.641 1.095 1.094 1.64 1.641q.548 1.094 1.095 1.64h1.64q.548-.546 1.094-.546h2.735c13.674 0 17.503 13.674 17.503 24.613 0 10.94-4.376 24.614-17.503 24.614q-2.735 0-6.016-1.094-2.735 3.828-6.017 7.11h.547l.547.547h.547l3.282 1.094q1.64.547 2.735.547 1.64.547 3.281.547h7.11q2.189-.547 3.83-1.094 1.64-.547 3.828-1.64 1.641-.548 3.282-1.642 1.094-1.64 2.735-2.735l2.188-3.281q1.64-1.094 2.188-3.282 1.094-1.64 1.64-3.282 1.095-2.188 1.641-3.829z"/></g></g></svg>