<svg xmlns="http://www.w3.org/2000/svg" xml:space="preserve" viewBox="0 0 24 24"><g fill="none" transform="translate(-1.485 -1.374) scale(.00792)"><rect width="3036.215" height="3036.215" x="187.723" y="176.68" fill="#f8cb46" rx="0"/><path fill="#1c1c1c" d="M723.74 1601.385c44.705 0 84.618 11.179 119.742 33.526 35.443 22.029 63.223 53.318 83.34 93.858 19.477 38.951 29.217 84.77 29.217 137.449 0 51.08-9.74 96.734-29.217 136.964-19.479 40.22-46.939 71.674-82.382 94.342-35.763 22.987-75.995 34.476-120.7 34.476-32.569 0-63.222-6.704-91.96-20.11-28.738-13.416-53.325-32.248-73.76-56.514v64.45H391.34v-685.57h166.68v243.278c20.435-24.266 45.022-42.942 73.76-56.03 28.738-13.416 59.391-20.119 91.96-20.119zm-49.811 392.217c23.629 0 44.703-5.425 63.223-16.284 18.52-10.859 33.049-26.02 43.585-45.49 10.538-19.161 15.807-41.034 15.807-65.61 0-23.946-5.27-45.655-15.807-65.135-10.536-19.471-25.065-34.641-43.585-45.49-18.52-10.86-39.594-16.285-63.223-16.285-22.352 0-42.309 5.425-59.87 16.284-17.563 10.54-31.293 25.38-41.192 44.532-9.898 19.48-14.847 41.508-14.847 66.094 0 24.576 4.949 46.613 14.847 66.085 9.899 19.15 23.63 34.156 41.192 45.015 17.561 10.859 37.518 16.284 59.87 16.284zm304.928 126.224v-685.57h166.678v685.57Zm213.922 0v-507.08h165.723v507.08zm525.729-518.441c35.444 0 67.381 8.302 95.793 24.905 28.422 16.284 50.77 39.271 67.053 68.962 15.654 30.01 23.472 64.012 23.472 102.004v322.57h-159.011v-285.217c0-18.521-3.672-34.96-11.024-49.326-7.023-14.686-17.078-26.02-30.174-34.001-12.768-7.983-27.773-11.974-45.016-11.974-16.284 0-31.298 3.991-45.025 11.974-13.735 7.662-24.43 18.201-32.092 31.608-7.982 12.768-11.973 27.773-11.973 45.016l-.96 291.92h-165.723v-506.943h165.724v57.948c15.644-21.709 36.558-38.632 62.742-50.77 26.184-12.447 54.925-18.676 86.214-18.676zm552.552 233.225 188.034 285.216h-188.226L2160.9 1940.44l-50.77 58.906v120.48h-166.682v-685.57h166.683v378.8l160.243-200.438 188.1.128zm-1078.373-400.3h166.272v129.759h-166.272z"/><path fill="#0c831f" d="M2484.429 2119.863v-507.117H2650.7v507.117zm517.454-144.545 33.043 106.79c-15.005 14.375-34.002 26.019-56.998 34.96-22.667 8.94-44.86 13.416-66.569 13.416-31.298 0-59.235-6.868-83.82-20.595-24.586-14.046-43.747-33.526-57.482-58.431-13.727-24.257-20.595-52.194-20.595-83.803v-223.744h-66.569v-131.165h66.57V1434.31h159.02v178.436h104.89v131.165h-104.89v193.095c0 16.284 4.31 29.535 12.931 39.746 8.622 10.22 19.636 15.325 33.052 15.325 9.571 0 18.512-1.434 26.814-4.311 8.301-2.868 15.17-7.023 20.603-12.448zm-517.454-541.008H2650.7v129.759h-166.27z"/></g></svg>