<svg xmlns="http://www.w3.org/2000/svg" xml:space="preserve" viewBox="0 0 24 24"><g fill="#f5877a"><path fill="#fff" fill-rule="evenodd" d="M18.59 21.046H5.458V3.052H18.59z"/><path fill="#000" d="m11.423 23.972-.35-.02-.358-.04-.358-.04-.367-.065-.367-.066-.4-.099-.402-.098-.358-.117-.358-.116-.387-.151-.388-.152-.498-.249-.499-.248-.347-.211-.348-.21-.298-.208-.297-.208-.33-.263-.33-.263-.327-.302-.327-.303-.302-.327-.303-.326-.263-.33-.263-.33-.207-.298-.207-.298-.211-.348-.211-.348-.25-.506-.25-.506-.15-.38-.15-.38-.102-.316-.103-.316-.09-.352-.091-.352-.062-.306-.061-.306-.039-.266-.038-.266-.026-.234-.027-.235-.023-.506-.023-.505.024-.513.023-.513.038-.316.038-.316.053-.317.052-.316.097-.418.097-.417.118-.38.117-.38.18-.452.178-.452.222-.446.223-.447.212-.354.212-.354.148-.215.147-.216.217-.287.217-.288.24-.282.24-.281.369-.369.368-.368.282-.24.282-.24.287-.217.287-.216.24-.165.241-.165.354-.21.355-.21.428-.21.427-.212.446-.175.445-.176.329-.102.329-.101.19-.051.19-.052.24-.053.24-.053.266-.05.265-.049.405-.05.405-.05.506-.023.506-.023.516.023.516.022.319.038.32.038.176.028.177.027.266.051.266.05.392.1.392.1.443.15.443.149.363.154.362.155.333.167.334.167.265.153.266.153.287.186.287.187.286.212.286.213.313.26.312.259.42.419.418.42.263.315.262.317.208.278.207.279.189.29.189.292.153.266.152.265.179.357.178.357.142.336.141.337.15.44.15.439.113.449.112.45.065.366.066.367.038.338.038.338.028.516.028.517-.028.516-.028.516-.038.338-.038.338-.066.367-.066.367-.098.399-.098.399-.104.322-.105.323-.108.29-.109.292-.09.21-.09.21-.187.372-.187.372-.185.316-.184.317-.152.228-.153.227-.165.228-.165.228-.152.19-.152.19-.27.303-.271.304-.262.254-.262.254-.215.191-.215.192-.278.22-.279.22-.43.288-.43.288-.253.144-.253.145-.392.196-.393.197-.303.127-.304.127-.443.151-.442.15-.405.104-.405.103-.334.064-.334.065-.413.05-.412.05-.468.026-.468.026-.203-.004-.202-.003zm1.681-2.885.168-.053.124-.093.123-.094.083-.16.082-.159v-.343l-.037-.106-.037-.106-.08-.111-.08-.112-.095-.066-.094-.065-.124-.047-.123-.047-.29-.03-.288-.03-.135-.036-.134-.035-.172-.081-.17-.082-.206-.205-.206-.206-.13-.264-.128-.263-.058-.216-.057-.215.001-.417.001-.418.056-.224.056-.223.077-.194.077-.194.116-.203.116-.202.16-.205.159-.205.226-.212.226-.213.2-.143.199-.143.227-.13.228-.13.263-.102.263-.103.268-.06.267-.061.28-.017.279-.016.228.03.227.03.221.074.22.073.16.08.159.08.141.096.142.097.142.13.142.13.103.156.102.156.062.194.061.193.016.186.016.187-.024.253-.025.253.023.148.024.148.051.101.052.102.098.106.097.106.122.061.122.061.165.01.164.01.152-.058.152-.056.143-.146.143-.146.055-.148.055-.147.026-.14.027-.139-.014-.329-.014-.329-.042-.202-.042-.203-.051-.151-.052-.152-.098-.2-.099-.2-.11-.154-.11-.155-.187-.185-.187-.185-.164-.11-.165-.109-.183-.091-.182-.092-.189-.063-.188-.063-.177-.038-.177-.037-.306-.025-.306-.024-.31.025-.31.025-.253.05-.253.05-.253.078-.253.077-.278.114-.279.113-.264.141-.264.142-.275.185-.275.185-.258.213-.258.213-.23.237-.229.237-.14.177-.14.177-.144.214-.144.213-.161.322-.161.322-.101.312-.102.313-.055.33-.056.328.013.405.013.405.065.25.065.248.123.257.123.258.156.206.156.206.146.133.145.134.213.14.213.138.243.107.242.107.152.04.152.04.114.023.114.024.214.002.214.003zM7.82 19.416l.134-.029.097-.049.098-.05.108-.099.108-.1.07-.154.069-.155-.012-.231-.013-.231-.07-.228-.069-.228-.04-.164-.04-.165.001-.43.001-.43.056-.263.056-.263.077-.243.077-.244.145-.303.145-.304.133-.214.133-.214.16-.204.16-.203.236-.23.237-.229.215-.166.215-.166.226-.146.226-.145.315-.175.316-.174.319-.154.319-.154.253-.113.253-.113.506-.255.506-.255.165-.089.164-.09.202-.113.203-.114.228-.14.227-.14.253-.177.253-.177.203-.162.202-.161.263-.258.263-.258.183-.227.184-.228.132-.203.132-.202.16-.33.16-.328.079-.235.079-.234.063-.297.063-.297.015-.445.016-.445-.032-.25-.031-.25-.05-.166-.051-.165-.064-.111-.064-.11-.087-.097-.088-.097-.106-.062-.106-.063-.154-.03-.154-.03-.161.041-.162.042-.104.061-.105.061-.08.09-.079.09-.057.108-.057.107.001.265v.266l.095.313.095.313.027.244.028.244-.017.278-.016.279-.05.253-.051.253-.102.304-.102.303-.14.279-.14.278-.14.215-.142.215-.145.178-.145.177-.211.204-.211.205-.165.134-.164.134-.316.209-.317.208-.341.184-.342.184-.29.138-.292.138-.253.114-.253.115-.519.261-.518.262-.385.215-.384.214-.333.218-.333.218-.198.15-.198.151-.122.104-.122.104-.25.245-.248.244-.172.215-.171.215-.133.203-.132.202-.16.33-.16.328-.088.266-.087.266-.06.29-.06.292v1.139l.047.202.047.203.07.156.071.156.107.116.107.116.09.056.091.056.115.03.115.032.056.002.056.001zm1.488-8.289.24-.04.24-.06.24-.06.203-.074.203-.074.131-.052.132-.053.233-.117.232-.117.23-.141.231-.142.24-.176.24-.177.178-.157.177-.158.207-.212.207-.212.132-.164.132-.165.167-.253.168-.253.143-.291.143-.291.09-.266.089-.266.057-.266.058-.265v-.52l-.001-.518-.068-.253-.068-.253-.138-.279-.138-.278-.172-.214-.173-.215-.168-.14-.167-.14-.21-.125-.212-.125-.249-.098-.249-.097-.22-.05-.22-.048h-.34l-.134.028-.134.028-.113.057-.114.058-.108.109-.108.109-.053.14-.053.14.011.18.012.18.055.115.055.114.107.109.106.108.139.064.138.063.36.046.358.046.123.041.123.042.15.075.149.075.137.13.137.13.083.114.083.115.065.117.064.117.064.178.064.178.04.208.04.208v.544l-.038.212-.037.212-.053.165-.054.164-.12.253-.122.254-.154.213-.154.214-.222.225-.223.225-.228.17-.228.171-.156.094-.157.094-.235.11-.236.111-.196.065-.196.065-.21.04-.208.04-.28.015-.28.015-.214-.03-.213-.031-.22-.074-.221-.073-.16-.08-.158-.08-.185-.128-.185-.127-.145-.158-.145-.158-.08-.16-.079-.161-.042-.147-.042-.148-.002-.22-.003-.219.01-.304.01-.303-.072-.159-.072-.158-.108-.1-.107-.099-.11-.056-.11-.056-.165-.011-.165-.012-.142.054-.143.054-.116.102-.116.102-.089.182-.089.182-.029.19-.028.19.014.278.015.278.041.216.041.215.058.164.058.165.059.126.06.127.08.126.082.127.066.088.066.09.183.184.183.186.164.11.164.109.203.101.202.102.215.063.216.064.14.028.14.028.202.023.2.023.317-.012.316-.012z"/></g></svg>