<svg xmlns="http://www.w3.org/2000/svg" xml:space="preserve" viewBox="0 0 24 24"><path fill="#001e38" fill-rule="evenodd" d="M0 0h24v24H0z"/><path fill="#f4faff" d="M12.578 5.28c-.25.072-.487.246-.69.406-.934.74-1.252 1.915-.88 3.037.314.947 1.015 1.677 1.652 2.416a590.212 590.212 0 0 1 2.93 3.422c.445.523.893 1.044 1.34 1.566.175.205.379.554.625.67.18-.24.363-.453.472-.736.495-1.288-.606-2.229-1.351-3.11-.939-1.109-1.89-2.207-2.834-3.31-.835-.976-1.995-2.043-1.678-3.467.075-.338.25-.599.414-.895zm2.426.01a.204.204 0 0 0-.07.01c.728.422 1.13 1.302.994 2.126-.085.508-.462 1.002-.11 1.498.491.69 1.426.349 1.647-.38.38-1.252-.415-2.46-1.531-2.958a4.52 4.52 0 0 0-.711-.248c-.069-.018-.146-.049-.22-.049zM8 7.515c-.354.165-.67.577-.916.873-.342.41-.766.949-.914 1.474-.04.144-.014.323-.014.471v5.614c0 .199-.064.534.022.716.09.19.3.347.445.492.39.393.865.87 1.377 1.096Zm1.268 4.496c.098.162.327.267.464.402.336.33.637.678.862 1.096.988 1.834.373 4.081-1.283 5.28.229.137.678.082.933.046 1.063-.149 1.943-.858 2.418-1.815.784-1.578.272-3.612-1.262-4.53-.676-.406-1.365-.48-2.132-.48zm5.752 4.738a.979.979 0 0 0-.176.01c-.95.138-1.051 1.539-.133 1.814.134.04.283.05.422.03a.904.904 0 0 0 .355-.137c.773-.504.376-1.686-.468-1.717z"/></svg>