<svg xmlns="http://www.w3.org/2000/svg" xmlns:xlink="http://www.w3.org/1999/xlink" xml:space="preserve" viewBox="0 0 24 24"><defs><path id="a" fill="none" d="M0 0h59.182v59.1H0Z" data-name="Clip 2"/></defs><defs><clipPath id="b"><use xlink:href="#a" data-name="Clip 2" transform="translate(0 .389)"/></clipPath></defs><g data-name="Group 51"><g data-name="Group 3" transform="translate(.034 -.083) scale(.40338)"><use xlink:href="#a" data-name="Clip 2" transform="translate(0 .389)"/><g fill="#813588" clip-path="url(#b)" data-name="Group 3"><path d="M5.738 59.489A5.734 5.734 0 0 1 0 53.761V6.119A5.734 5.734 0 0 1 5.738.389h47.706a5.734 5.734 0 0 1 5.738 5.73v47.642a5.734 5.734 0 0 1-5.738 5.73z" data-name="Fill 1" paint-order="markers fill stroke"/></g></g><g data-name="Group 50"><path fill="#813588" d="M2.303 23.151a1.504 1.504 0 0 1-1.505-1.503V2.341A1.504 1.504 0 0 1 2.303.838h19.334a1.504 1.504 0 0 1 1.505 1.503v19.307a1.504 1.504 0 0 1-1.505 1.503z" data-name="Fill 10"/><path fill="#4b205a" d="m15.497 18.142-4.64 1.337a.741.741 0 0 1-.916-.507L6.43 6.83a.74.74 0 0 1 .507-.916l4.8-1.383a3.01 3.01 0 0 1 3.081.86 3.3 3.3 0 0 1-.214 4.79 4.063 4.063 0 0 1 .892 7.96" data-name="Fill 12"/><path fill="#eeeeef" d="M10.547 20.439a1.489 1.489 0 0 1-1.424-1.07L5.528 6.93a1.48 1.48 0 0 1 1.013-1.832l4.93-1.422a3.424 3.424 0 0 1 .948-.126 4.294 4.294 0 0 1 3.25 1.455 4.423 4.423 0 0 1 .955 2.352 4.135 4.135 0 0 1-.454 2.259 4.997 4.997 0 0 1 2.412 1.997 5.21 5.21 0 0 1 .726 3.355 4.656 4.656 0 0 1-1.144 2.453 4.815 4.815 0 0 1-2.248 1.527l-4.96 1.431a1.486 1.486 0 0 1-.41.059zm2.05-16.03a3.075 3.075 0 0 0-.852.12L6.937 5.914a.74.74 0 0 0-.506.917l3.51 12.142a.741.741 0 0 0 .916.506l4.64-1.338a4.063 4.063 0 0 0-.892-7.96 3.28 3.28 0 0 0 1.133-2.26 3.46 3.46 0 0 0-.924-2.535 2.973 2.973 0 0 0-2.218-.978z" data-name="Fill 14"/><path fill="#813588" d="M16.942 14.905a3.749 3.749 0 0 0-3.711-3.745 3.191 3.191 0 0 0 .242-4.59 2.926 2.926 0 0 0-3.023-.878L6.436 6.85l3.505 12.124a.741.741 0 0 0 .917.505l3.293-.95.048-.014a3.749 3.749 0 0 0 2.743-3.609" data-name="Fill 16"/></g></g></svg>