<svg xmlns="http://www.w3.org/2000/svg" viewBox="0 0 24 24"><title>Canara Bank</title><path fill="#00adee" d="M-.178 0h24.533v24H-.178z" opacity=".641"/><g opacity=".975"><path fill="#fff" d="m16.202 3.496 7.066 13.021c.85 1.404-.034 2.844-1.646 2.592-.509-.08-3.788-.53-7.931-1.084l1.182-1.596 5.61.614c.466.056.682-.08.415-.583 0 0-5.284-10.642-5.336-10.765-.178-.33-.374-.224-.535.073 0 0-5.19 9.425-5.259 9.546-.192.37-.117.552.438.606l2.04.223-1.176 1.45-2.663-.42c-.665-.086-.882-.506-.516-1.193.276-.518 6.471-11.826 6.471-11.826.124-.217.23-.383.355-.606.37-.65 1.04-.824 1.485-.052"/><path fill="#fabc09" d="m.875 13.486 9.274-1.635-.79 1.439-6.402 1.074c-.326.074-.297.22-.09.356 0 0 5.583 3.86 6.123 4.215.435.294.668.414 1.034-.055 0 0 4.535-5.563 4.771-5.937.345-.464.5-.648-.054-.55l-3.148.526.807-1.456 4.222-.769c.964-.161 1.346.508.874 1.218-.405.58-7.096 9.583-7.096 9.583-.433.634-.759.608-1.266.162-.625-.52-8.541-7.082-8.541-7.082-.52-.43-.356-.971.282-1.089"/></g></svg>