<svg xmlns="http://www.w3.org/2000/svg" xml:space="preserve" viewBox="0 0 24 24"><path fill="#92368d" fill-rule="evenodd" d="M.073.058h23.853v23.868H.073z"/><path fill="#fffaff" d="m11.454 20.055 1.455.704 1.457-.703-1.457-1.507zm3.514-2.761-1.054 1.155 1.858.803.804-1.857zm-4.117 0-1.607.1.803 1.86 1.858-.805zm6.529 1.556 1.555-.552.553-1.556h-2.11zm-11-2.108.502 1.556 1.557.502v-2.11zm6.53-.653-1.156.502 1.154 1.155 1.155-1.155zm2.71-1.105-.401 1.205h1.607v-1.607zm-6.629 1.155H10.6l-.402-1.205-1.206-.402zm-2.26-2.913-.803 1.858 1.858.804.1-1.607zm.703-.954 1.156 1.155.552-1.155-.552-1.154zm-3.012 0 .703 1.456 1.506-1.506-1.506-1.456zM5.929 9.41l.803 1.858 1.206-1.055-.1-1.607zm9.29-1.055.402 1.206 1.206.4V8.356zM9.044 9.962l1.205-.401.402-1.206H9.043zm2.762-2.059 1.154.553 1.156-.553-1.156-1.155zm5.625-.1h2.058l-.553-1.557-1.556-.553ZM6.933 6.246l-.552 1.557h2.11v-2.11Zm6.981-.2L15.02 7.25l1.607-.1-.804-1.858zM9.294 7.15l1.607.1 1.054-1.205-1.858-.803zm3.665-3.415-1.505.703 1.455 1.506 1.507-1.455z"/></svg>