<svg version="1.2" xmlns="http://www.w3.org/2000/svg" viewBox="0 0 1080 1080"><title>City Union Bank</title><style>.s0{fill:#2e3192}</style><g id="Layer"><path fill-rule="evenodd" class="s0" d="M348.5 598.3c-2.2-.3-7.1-1.5-8.6-3-.8-.3-1.2-.7-1.5-1.1-1.9-4.1-3-7.2-3.4-12.1v-50.8q.5-3.9 1.1-7.9c.8-1.9 1.5-3.4 2.6-4.9 1.2-.7 2.3-1.5 3.8-1.9 1.5-.3 3-.7 4.9-.7h62.9c1.5 0 3 .4 4.9.7 1.1.4 2.2.8 3.7 1.5 1.2 4.5 2.3 9.1 3.4 14 0 4.1 0 8.6.4 13.1h-27.1v-13.5h-32.8v50.4h32.8v-18h27.1c0 9.4 0 20.7-3.4 29.7-2.2.8-4.1 1.9-6 3-2.3.4-4.5.8-6.8 1.5h-58zm110 0c-3-.7-5.7-1.5-8.3-1.9v-.7c-1.5-1.1-2.6-2.3-3.8-3.4-.7-1.9-1.1-3.8-1.5-5.7v-70.7H472c0 21.8 0 44 .4 66.2h35v-66.2h27.5c-.4 22.9-.4 45.9-.4 68.9 0 2.6-3.4 9-4.9 10.9-2.2.7-4.5 1.5-6.4 2.2-21.8 0-43.3 0-64.7.4zm101.2 0v-82.4H635c1.5.4 3 .7 4.9 1.1.8.4 1.5.8 2.7 1.1.3.4.7 1.2 1.1 1.9.4 1.5 1.1 3.1 1.9 4.6 0 1.1.4 2.2.7 3.3-.3 6.1-.3 12.1-.3 18.5-.8 2.6-2.7 5.6-4.9 7.1-1.5.4-2.7.8-3.8 1.2.7.4 1.9.7 3 1.1 1.1 1.1 2.6 2.3 4.1 3.4.4 1.1.8 2.3 1.6 3.4.3 1.9.7 3.7 1.1 6-.4 6-.4 12.1-.4 18.1-.4.7-.7 1.9-1.1 3-1.5 2.6-3.8 4.9-6.4 6.4-3.4.7-6.4 1.5-9.4 2.2h-70.1zm56.5-16.2c.8-.7 1.9-1.1 3-1.5.8-1.8 1.5-3.4 2.3-4.9 0-2.6.4-9.7-1.9-12q-1.7-.5-3.4-1.1h-29v19.5h29zm36.9-6c-.4-50.4-.8-100.9-.8-151.3 0-2.7-.7-7.2-2.3-9.4 0-2.3-3-3.8-3-5.7-2.2-1.5-5.6-6.4-8.6-6.4-1.9-1.9-7.2-3.4-9.8-4.1l-15.8-1.2c-1.9 0-3.8.4-5.7.8-3.4 1.1-7.9 1.9-10.5 4.5-3 0-7.5 6-9 8.3-1.2 3.4-1.9 7.2-2.7 10.9v35c-.4 7.2-.4 14.3-.4 21.9-.7 3.4-1.1 6.7-1.5 10.1-2.2 4.2-4.5 8.3-6.4 12.5-1.5.7-3 1.8-4.5 3-1.9.4-3.7.7-5.3 1.1H399.7c-2.3-1.1-4.2-2.3-6-3-2.3 0-8.7-8.3-8.7-10.2q-2.2-6.8-4.5-13.5c-.8-30.9-1.1-61.8-1.5-92.6-4.9 0-13.2-3.8-16.6-7.2-2.2 0-11.7-10.2-11.7-11.7-3 0-8.2-16.5-9-19.2-.7-3-1.1-5.6-1.5-8.2 0-27.2-3.4-55.8.8-82.1 0-1.5.3-3 .7-4.2 1.5-4.9 3-9.8 6-14.3 0-1.5 3.4-6.4 4.6-6.8v-.7c2.2-2.6 4.5-5.3 7.1-7.5 1.9-1.6 3.8-3.1 6-4.2 5.3-2.2 9.4-4.5 15.1-5.3h9.8c4.9 0 14.3 4.2 17.3 7.2 1.1.8 2.3 1.5 3.8 2.3.3.3.7.7 1.5 1.1q1.7 2.2 3.4 4.5c.7 1.1 1.8 2.3 3 3.4.3-3 .7-5.7 1.5-8.3.7-3 1.9-6 3-8.7 0-5.2 7.1-13.9 10.2-17.6.7-.8 1.5-1.6 2.6-2.3 1.5-3.4 8.3-6.4 11.3-8.3 2.6-1.1 5.6-2.2 8.6-3 7.6-.4 21.1-1.5 27.1 4.5 3.1 0 8.3 6.4 11.3 8.3q2.9 4 5.7 7.9c0-1.1 0-1.9.4-2.6.3-1.5.7-3 1.5-4.2 1.5-3 3-6 4.5-8.6.4-.8.7-1.5 1.5-2.3 2.6-3 5.3-6 8.3-8.6 1.1-.4 1.5-1.9 3-1.9 1.1-1.2 2.6-2.3 4.1-3 3.8-2.3 7.6-3.8 11.7-4.6h14.7c5.6 1.9 10.9 3.8 15.4 7.6 2.7 0 5.3 4.5 7.2 5.6v-21.4q.5-4 1.1-7.9c1.1-5.3 4.9-10.6 7.9-14.7.4-.8.8-1.2 1.1-1.5 3.4-2.3 8.7-9.4 13.2-9.4 3.4-3.4 11.3-4.6 15.8-5.7 1.9-.4 3.8-.4 5.7-.4 7.5 0 15.8.8 22.2 4.5 2.2 1.2 4.5 2.3 7.1 3.4 3 2.6 6.1 5.7 9.1 8.7 0 1.9 4.1 7.1 4.5 8.3.7 2.2 1.5 4.5 2.3 7.1 0 2.3.3 4.5.7 6.8v43.3c1.5.4 3 .8 4.9 1.5 5.3 2.2 10.5 4.9 16.2 7.5 1.1.4 2.2.8 3.4 1.5 4.1 3.4 9.4 5.3 13.1 9.1 1.5 0 4.2 3 5.7 3.7 2.3 2.3 4.9 4.5 7.5 6.8 2.3 2.3 4.5 4.5 6.8 7.1 0 1.9 4.5 4.9 5.3 7.6 2.2 3.4 4.5 6.8 7.1 10.5 2.3 3.8 4.5 7.6 6.8 11.7 1.1 3.4 5.3 9.8 5.3 13.2.4 1.1.7 2.2 1.5 3.4 1.5 6.4 3 13.1 4.5 19.9.4 5.7.8 11.7 1.5 17.7-.7 6.8-1.1 13.6-1.5 20.3-1.1 4.9-2.3 9.8-3 14.7-.8 2.3-4.5 10.2-4.5 13.6-3.8 6.4-7.2 13.2-10.6 19.9v.8c-3.7 4.9-7.5 9.8-10.9 15-4.5 4.2-8.7 8.3-12.8 12.8-.7.4-1.5 1.2-1.9 1.9-.7.4-1.1.8-1.5 1.5-1.5.8-3 1.5-4.1 2.7 0 1.1-13.2 8.6-14.3 9.7-1.2.4-1.9.8-2.7 1.5-2.6 0-5.6 3.1-7.5 3.4-3.4 1.2-6.4 2.7-9.4 4.2-1.5.3-2.6.7-3.8 1.5 0 42.1 0 84.3.4 126.5h-12zm-33.9-29.7c-.4-5.3-.4-10.2-.4-15.1-1.5-.7-2.6-1.1-3.7-1.5h-27.9v17.3c10.6-.3 21.1-.7 32-.7zM567.6 494c.8-1.5 1.9-3 3-4.5q1.2-5.1 2.3-10.1v-34.7c-1.9-1.1-3.4-1.9-4.9-2.6-1.5-.8-3-1.1-4.2-1.5-.7-.8-1.1-1.1-1.5-1.5h-1.1c-1.9-1.1-3.4-2.3-4.9-3-.7-.8-1.1-1.2-1.5-1.5-2.3-1.5-4.1-3-6-4.2-1.5-1.1-3-1.8-4.5-2.6-.8-.8-1.5-1.5-1.9-2.3-1.1 0-8.7-7.5-9.4-8.6-3.4-3.4-6.4-6.8-9.4-10.2-1.2-1.9-2.3-3.4-3.1-4.9-.7-.7-1.1-1.5-1.5-1.9-1.8-.7-5.6-10.1-6.7-10.1-3.8-8.3-7.2-16.6-10.6-24.5-.7-2.6-1.5-5.3-1.9-7.5-1.1-5.7-2.2-10.9-3-16.2-2.2 2.6-6 6.4-9 7.9-3.4 3.4-10.2 4.5-13.9 7.1-1.5 0-2.7 0-3.8.4-4.9-.4-9.8-.4-14.3-.4-.8-.7-11.7-3.7-11.7-5.6-2.2 0-8.3-6.8-10.1-7.9v-.7c-1.9 0-2.3-3.8-3.8-3.8 0 2.6-.8 9.4-1.9 11.3-.7 1.9-1.5 3.7-1.9 6-3 6.8-9 18.1-15.4 22.2-2.6 0-4.1 4.2-6.8 4.2-1.9 1.8-6 2.6-8.3 4.1-1.5 0-3 .4-4.1.8 0 29.7 0 59.4.4 89.2 0 1.1.3 2.2.7 3.7 1.1 2.3 2.6 11 4.5 11 0 .3.4.7.8 1.5.4.3 1.1.7 1.9 1.5 55.7-.1 111.4-.1 167.5-.1zm103.5-59.4c5.7-3.4 11.7-6.8 17.7-9.8 4.2-3.4 8.3-6.8 12.8-9.8 0-.4.4-.8.8-1.1h.7c1.2-1.9 8.3-7.6 8.3-9.1.4-.4.8-.7 1.2-.7 1.8-3.1 3.7-5.7 6-8.3.7-.8 6-7.2 6-9.1q2.3-3.9 4.5-7.9c3-4.5 4.5-11.3 7.2-16.5 2.2-10.2 4.9-21.9 4.9-32.4-.4-4.9-.4-9.8-.4-14.7-1.5-7.2-3-14.3-4.2-21.5-1.8-5.2-4.5-12.8-7.5-17.7 0-1.8-3-4.9-3-6.3-4.1-5.7-7.9-11.3-11.7-17q-2.2-2.3-4.5-4.5c-.7-1.5-4.1-6-5.6-6-2.7-2.3-4.9-4.2-7.2-6.1l-6.8-5.6c-2.2-1.5-4.5-2.6-6.4-3.8-4.9-2.6-9.8-4.9-14.3-7.1-2.6-1.1-5.2-2.3-7.9-3-.4.3-.7.7-.7 1.1-1.2 4.5-6 10.2-9.1 13.5-1.5 1.2-2.6 2.3-3.7 3.8-2.7 0-5.3 4.1-8.3 4.1-4.5 2.7-12.4 3.8-17.3 4.2-6.4 0-14.7-.7-20.7-2.6-2.3-1.5-6.8-2.7-8.7-4.6-1.9 0-6-4.1-7.1-5.6-2.7 0-8.3-7.9-8.3-9.8-3.8 0-10.2 4.5-12.8 6.8-3.8 0-7.2 4.9-10.2 6.4-.8.4-1.1.7-1.5 1.1-3 2.3-6 4.5-8.7 7.2-1.1.7-2.2 1.8-3.3 3-.4.3-.4.7-.4 1.1-1.2.8-3.8 2.6-3.8 4.5-1.5 1.5-3 3-4.5 4.9-.8.4-1.1 1.2-1.5 1.9 0 1.5-4.5 4.5-4.5 7.2q-2.3 3.4-4.6 6.7c-1.5 3.1-6 9.8-6 13.6-4.9 7.5-5.6 20.3-7.5 29v26.7c.4 2.6.7 5.7 1.5 8.7.8 4.1 1.9 8.6 3 13.2 2.3 5.6 4.5 12 7.5 16.9 0 2.3 4.6 8.3 5.3 9.8 1.1 1.1 9.8 14.7 11.3 14.7.8 1.1 1.5 2.2 2.6 3.7 3.1 2.7 6.4 5.7 9.8 8.7 1.5 0 8.3 6.4 9.8 7.5q6.8 4 13.6 7.9c.4-6 .7-11.7 1.1-17.3.8-3 1.9-5.6 3-8.3 1.5-2.6 3.4-4.9 5.3-7.1 1.9-1.9 3.8-3.4 5.6-4.9h.8q3.9-2.3 7.9-4.5 3.4-1.2 6.8-2.3c4.5-1.1 9.8-1.1 14.7-1.1v-31.3h9c-.4 10.2-.4 20.3-.4 30.9-2.3 0-4.5 0-6.4.4 2.3 0 4.5 0 7.2.4 1.8.3 4.1.7 6.4 1.5 2.6 1.1 5.6 2.2 8.6 3.3 2.3 1.2 4.5 2.7 6.8 4.2 1.5 0 10.2 11.3 11.3 12.4.7 3 1.9 6 3 9 0 2.3.4 4.6.8 6.8 0 4.2 0 8.7.3 13.2 1.9-1.1 4.2-1.9 6.4-2.6zm-279.3-59.5c1.5-.8 3-1.1 4.5-1.5 2.6-2.3 5.6-4.2 8.7-6.1 1.5-.7 4.9-7.5 6.4-7.5 1.1-2.6 2.2-4.9 3.7-7.1.4-3.1 1.5-9.8 3.4-11.7 0-24.1 0-48.2.4-71.9-.8-9.1-2.6-18.8-7.5-26.4-1.2-1.5-1.9-2.6-2.7-3.7-1.1 0-2.2-3-3.7-3.8 0-1.1-4.9-3.8-5.7-4.1 0-1.2-6.4-2.7-7.1-3.4-2.7-.4-5.3-.8-7.6-.8-1.9 0-3.7.4-5.6.8-1.5.3-3 .7-4.2 1.1-2.6 1.5-5.2 3-7.5 4.5-1.5 1.5-7.9 6.8-7.9 9.8-1.5 2.3-3 4.5-4.1 7.2-.4 1.5-.8 3-1.2 4.8-.3 1.6-.7 3-1.1 4.6-.4.3-.7.7-.7 1.5v80.5q.5 1.1 1.1 2.3c0 9.4 8.6 20.7 15.4 26 1.5.7 3 1.9 4.9 3 2.7.7 5.3 1.5 8.3 2.2v.4c3-.4 6.4-.7 9.8-.7zm78.3-30.1c3.4-1.6 7.1-3.1 10.9-4.6 1.1-1.1 2.3-2.2 3.8-3 1.9-2.6 3.7-4.9 5.6-7.1 1.2-2.7 2.7-5.3 4.2-7.6 1.8-5.6 3.3-12.4 3.7-18-.4-4.5-.7-8.7-1.1-12.8-.4-21.9-.4-43.7-.4-65.2-.7-2.6-4.9-15.4-7.5-15.4 0-1.9-4.9-6-6-7.1 0-1.9-9.1-5.3-9.1-5.7-4.5-.8-8.6-1.1-12.8-1.5-3 .7-6 1.5-9 2.6-1.1.8-6.8 3-6.8 4.9-1.5 1.2-2.6 2.3-3.7 3.8-2.3 3.4-4.6 6.8-6.4 10.2-.8 1.8-1.2 3.7-1.5 5.6-1.2 1.1-1.6 3.8-1.6 5.7-.3 1.1-.7 2.2-1.1 3.7v75.3c.4 1.1.8 2.7 1.1 4.2 0 1.5 0 3.3 1.2 4.5 0 1.5 3.4 10.9 4.9 10.9 0 .4.3.7.7 1.5 4.2 7.5 12.4 13.9 21.5 15.1v.3c3-.3 6-.3 9.4-.3zm41.4-78.7c1.9-3.4 3.8-6.8 6-10.2 3.4-4.1 7.2-11.3 11.7-14.3 1.1-1.5 2.3-3 3.4-4.1 2.2-2.3 4.5-4.2 6.8-6.1.7-1.1 1.5-1.8 2.2-2.6h.8c4.5-3.8 9-7.1 13.9-10.5 3.4 0 7.9-6.1 11.7-6.1 1.9-1.1 3.7-2.2 5.6-3-2.2-4.5-4.1-13.9-9-16.2-2.6-5.6-13.9-11.2-20.3-11.2-7.2 0-12.5 1.8-18.1 6-1.9 1.9-10.2 8.6-10.2 12-4.5 5.7-5.6 14-6.8 21.1v50.1c.8-1.9 1.6-3.4 2.3-4.9zm113.7-35.1c2.3-.7 4.9-1.1 7.5-1.5 3-1.8 6.1-3.3 9.4-4.8.8-1.2 1.6-1.9 2.7-2.7 1.1-2.3 2.6-4.1 4.1-6 .8-3 1.5-5.7 2.7-8.3v-49.7c0-1.1-2.7-8.7-3.8-8.7-1.9-2.6-3.8-4.8-5.3-7.1h-.7c-3-4.2-11.3-6.4-15.8-7.5h-5.3c-1.1-1.1-7.5.4-8.7.4-.7 0-1.1.3-1.5.7-4.1.4-7.1 2.3-10.9 4.2-1.9 1.1-3.8 2.2-5.3 3.7-.3.4-.7.8-1.1 1.5-2.3 0-6.8 7.9-6.8 9.8-.3 1.1-.7 2.3-1.1 3.8v48.9q.6 2.3 1.1 4.5c.4 0 3 6.4 4.9 7.2 1.9 4.1 9.1 7.1 12.8 9.4 1.5.4 3 .8 4.9 1.5 1.5 0 3 .4 4.9.8v.3c3.8-.4 7.5-.4 11.3-.4z"/><path fill-rule="evenodd" class="s0" d="m595.2 301.3 27.4-41.7 27.3 41.7-27.3 41.7zm54.5 9.6 48 .1-22.8 40.4h-48l22.8-40.5zm-54.3 0-48 .1 22.8 40.4h48l-22.8-40.5z"/><path fill-rule="evenodd" d="M738.7 765.8zm219 0c63.4-1.7 96.8 11.5 97.4 56.3.7 43.1-11.1 63.8-33.7 69.9 33.5 5.3 45.5 28.5 42.8 63.9-1.7 64.6-39.4 67.4-105.9 67.4H738.7V765.8zM89.5 761h178.3c40.4 0 73.5 33.1 73.5 73.5v27.6h-77V853c0-13.4-10.9-24.3-24.3-24.3H119.6c-13.4 0-24.3 10.9-24.3 24.3v84c0 13.3 10.9 24.3 24.3 24.3H240c13.4 0 24.3-11 24.3-24.3v-12.6h77V952c0 40.4-33.1 73.5-73.5 73.5H89.5c-40.5 0-73.6-33.1-73.6-73.5V834.5c0-40.4 33.1-73.5 73.6-73.5zm615.4 4.8v183.9c0 41.7-34.2 75.8-75.9 75.8H445.1c-41.7 0-75.9-34.1-75.9-75.8V765.8h81.9v168.4c0 13.8 11.3 25.1 25 25.1h124.3c13.8 0 25-11.3 25-25.1V765.8zm108.6 60.9v41.1h144.8c23.7.3 26.8-42.1 0-41.4v.3H813.5zm0 94.6v41.1h144.8c29.5 2.5 37.4-42.6 0-41.3v.2H813.5z" style="fill:#ec0677"/><path fill-rule="evenodd" class="s0" d="M543.6 718.1C360.2 718.1 212 569.9 212 386.5 212 203.2 360.2 55 543.6 55c183.3 0 331.5 148.2 331.5 331.5 0 183.4-148.2 331.6-331.5 331.6zm318.1-331.6c0-175.9-142.2-318.1-318.1-318.1-175.9 0-318.1 142.2-318.1 318.1 0 175.9 142.2 318.1 318.1 318.1 175.9 0 318.1-142.2 318.1-318.1z"/></g></svg>