<svg xmlns="http://www.w3.org/2000/svg" xml:space="preserve" viewBox="0 0 24 24">
  <g fill="#fff" stroke-width=".915">
    <path d="M9.44 7.432c-.213.54-.277 2.228-.175 4.524.055 1.235.102 2.39.098 2.559-.004 1.247-3.459 2.236-6.01 1.723-4.45-.9-3.122-6.531 1.626-6.896.734-.055.777-.072.806-.263.09-.65-2.227-.352-3.64.467-2.827 1.646-2.75 6.246.127 7.324 1.825.683 4.328.39 6.476-.76.844-.45 1.04-.496 1.213-.288.505.61 1.311.475 2.058-.34l.242-.258.234.258c.92 1.027 1.994.488 2.18-1.094l.056-.467.276.046c.153.026.348.005.433-.042.14-.076.22.038.734 1.01.76 1.434.819 1.422 1.502-.263.242-.607.437-.955.603-1.087l.242-.19.038.275c.373 2.597.509 2.771 1.396 1.808l.505-.552.055.344c.119.743.76.993 1.587.62.424-.187.548-.212.68-.132.288.183.661.123.937-.153.348-.348.284-.475-.233-.44-.331.02-.455-.01-.607-.15-.208-.199-.225-.25-.353-1.256-.199-1.548-.594-1.672-1.54-.47-1.09 1.387-1.451 1.807-1.566 1.807-.131 0-.263-.539-.373-1.557-.094-.81-.395-1.125-.543-.56-.051.195-.382.225-.455.038-.11-.289-.454-.094-.454.263 0 .157-.581 1.663-.683 1.765-.089.094-1.014-1.765-1.014-2.04 0-.26-.216-.421-.382-.285-.068.06-.127.157-.127.22 0 .264-.31.289-.734.064-.904-.475-1.049-.539-1.26-.539-.548 0-.947.475-1.142 1.358-.162.73-.174.755-.45 1.07-1.027 1.17-2.062.64-1.8-.926.29-1.71.247-5.457-.072-6.382-.144-.416-.36-.484-.492-.153zm.347 3.187c-.004.705-.03.997-.085.913-.11-.17-.11-1.952 0-1.952.051 0 .085.403.085 1.04zm3.947 2.729c.64.64.377 1.948-.39 1.948-.748 0-1.023-1.278-.404-1.897.31-.306.522-.323.794-.051zm8.283.055c.204.717.026 1.85-.31 1.982-.695.263-1.056-.31-.683-1.095.459-.968.87-1.333.993-.887z"/>
    <path fill="#e50f87" d="M18.151 11.379c-.242.352-.118 1.001.196 1.001.246 0 .352-.182.352-.594 0-.573-.28-.785-.548-.407zm1.069-.111c-.216.136-.228.811-.016 1.023.263.263.513.047.513-.437 0-.547-.195-.776-.496-.586z"/>
  </g>
</svg>
