<svg xmlns="http://www.w3.org/2000/svg" xml:space="preserve" viewBox="0 0 24 24"><path fill="#ededed" d="M2.294.161c-.032.24-.196.435-.222.684-.142 1.324-.006 2.737-.006 4.07v11.654c0 .471-.113 1.13.116 1.561.18.34.79.554 1.121.715.815.396 1.687.835 2.442 1.328 1.362.89 2.845 1.603 4.264 2.398.351.197.734.362 1.075.568.342.208.696.503 1.107.554.336.041.639-.158.911-.32.475-.283.97-.57 1.465-.817.79-.393 1.505-.907 2.28-1.323 1.16-.622 2.339-1.212 3.483-1.862.474-.27.954-.535 1.432-.795.207-.112.484-.2.614-.415.247-.408.102-.983.102-1.429v-3.418c0-3.018.036-6.034 0-9.05-.013-1.125.147-2.304.027-3.42-.027-.248-.19-.443-.222-.683H2.293m1.079 1.192c.309-.128.866-.02 1.2-.02H20.2c.241 0 .916-.115 1.084.076.122.138.088.374.088.543 0 .38.033.758.033 1.14 0 1.55-.033 3.101-.033 4.655V16.6c0 .233.07.603-.038.814-.122.237-.404.31-.613.442-.596.373-1.237.671-1.855 1.007-.687.371-1.332.806-2.019 1.173-.618.33-1.284.61-1.888.967-.355.21-.683.475-1.042.684-.144.084-.317.083-.456.173-.317.205-.68.492-1.041.614-.347.118-.721-.267-1.01-.407-.959-.465-1.87-1.065-2.8-1.59-1.273-.72-2.58-1.369-3.841-2.119-.433-.258-1.224-.476-1.506-.912-.125-.194-.057-.558-.057-.78V2.896c0-.38-.004-.76 0-1.14.002-.141.013-.34.167-.403m4.75 1.818c-.373.06-.295.439-.294.734 0 .125-.01.306.108.385.128.087.331.07.478.07h1.042c2.106 0 4.209-.032 6.316-.032h1.725c.218 0 .544-.059.743.047.296.157.169.845.169 1.125v2.507c0 .218-.093.72.056.893.133.153.638.11.823.076.36-.066.195-1.034.195-1.327V4.491c0-.477.094-.965-.364-1.247-.21-.13-.601-.055-.84-.055h-2.084c-1.846 0-3.688-.033-5.534-.033-.817 0-1.734-.117-2.54.015M6.69 6.198c-.402.052-1.2-.154-1.507.17-.26.273-.121 1.03-.121 1.379v7.032c0 .448-.11 1.074.057 1.497.208.53 1.08.693 1.506.989.576.4 1.249.68 1.855 1.032.777.451 1.543.915 2.338 1.338.456.243.982.782 1.536.741.184-.013.275-.158.424-.247.302-.182.632-.353.944-.515 1.03-.535 2.055-1.061 3.058-1.627.272-.153.48-.39.783-.529.46-.21.903-.459 1.335-.722.195-.119.426-.21.535-.429.13-.261.051-.69.051-.975v-2.279c0-.24.115-.883-.197-.966-.161-.043-.67-.073-.783.065-.127.154-.05.455-.071.64-.083.703-.023 1.442-.023 2.15 0 .279.052.617-.174.829-.344.322-.888.492-1.291.732-1.058.63-2.16 1.177-3.222 1.796-.114.066-.182.185-.295.254-.224.137-.48.219-.71.344-.171.094-.313.22-.526.193-.27-.035-.605-.358-.847-.489-.793-.432-1.595-.853-2.382-1.298-.636-.36-1.287-.809-1.948-1.117-.26-.12-.777-.332-.846-.626-.147-.631-.033-1.404-.033-2.051v-5.6c0-.164-.045-.415.105-.529.15-.114.377-.033.546-.025.422.018.848.001 1.27.001 1.705 0 3.409-.033 5.111-.033H14.6c.143 0 .42.052.534-.056.148-.143.114-.67.071-.855-.06-.26-.294-.228-.508-.228-.5 0-.996.033-1.497.033H8.74c-.673 0-1.383-.107-2.051-.02m1.53 4.368c-.23.07-.163.38-.163.567v1.791c0 .434-.148 1.205.047 1.595.158.314.558.43.832.606.778.499 1.65.858 2.41 1.38.33.227.752.519 1.171.398.438-.127.874-.487 1.27-.712.476-.27.954-.54 1.432-.808.243-.136.562-.24.772-.422.068-.058.163-.154.176-.246.024-.183-.36-.833-.56-.836-.21-.004-.503.27-.68.366-.583.317-1.206.605-1.759.968-.339.222-.781.57-1.204.378-.724-.328-1.456-.807-2.116-1.245-.214-.14-.554-.24-.683-.48-.115-.213-.066-.545-.066-.78v-1.66c0-.203.075-.596-.034-.774-.108-.176-.669-.139-.845-.086m7.162 7.827-.032.033.032-.033"/></svg>