<svg xmlns="http://www.w3.org/2000/svg" version="1.2" viewBox="0 0 24 24"><style>.s0{fill:#f37024}</style><path id="Layer" d="M11.6 10.1q-.8 0-1.6.2t-1.5.6q-.7.3-1.2.9-.6.5-1.1 1.2c1.4-1.3 3.5-1.6 5.2-.8 1.7.7 2.8 2.5 2.8 4.4 0 1.9-1.1 3.6-2.8 4.3-1.7.8-3.8.5-5.2-.7 1.3 1.8 3.4 2.9 5.7 2.8 2.3-.1 4.3-1.4 5.3-3.4 1.1-2 1-4.4-.1-6.4-1.2-1.9-3.3-3.1-5.5-3.1z" class="s0"/><path d="M12.3 3.8q-.5.7-.7 1.4-.3.8-.4 1.5-.1.8 0 1.6t.4 1.5c-.2-1.9.6-3.7 2.3-4.7 1.6-1 3.6-1 5.2.1 1.6 1 2.4 2.9 2.1 4.8-.4 1.9-1.8 3.4-3.6 3.9 2.2 0 4.3-1.2 5.5-3.2 1.2-1.9 1.2-4.3.2-6.3-1.1-2-3.1-3.3-5.4-3.4-2.2-.1-4.4 1-5.6 2.8M8 18.7q.8-.2 1.5-.6.6-.3 1.2-.9.6-.5 1.1-1.1.4-.7.7-1.4c-1.1 1.5-3 2.3-4.9 2-1.8-.3-3.3-1.7-3.8-3.6-.5-1.8.2-3.8 1.7-4.9C7 7 9 6.8 10.7 7.7c-1.7-1.5-4-2-6.2-1.4C2.4 7 .7 8.7.2 10.9c-.6 2.2.1 4.5 1.7 6.1 1.6 1.6 3.9 2.3 6.1 1.7z" class="s0"/></svg>
