<svg xmlns="http://www.w3.org/2000/svg" viewBox="0 0 24 24" style="background-color:#fff"><title>DCB Bank</title><g fill="#17479c"><path d="m24.195-.291-12.138.043-12.139.043v24.32l12.568.088 11.666-.088.043-12.01V-.29zM10.76 7.49c.02-.02.375-.006.56.022.19.03.298.06.442.12a.304.304 0 0 0 .078.028c.063 0 .403.224.531.348.172.166.263.308.383.59.087.203.141.486.096.513-.03.018-.828.036-.871.018-.018-.006-.038-.04-.045-.074a.36.36 0 0 0-.03-.092 2.053 2.053 0 0 1-.049-.11.902.902 0 0 0-.28-.332c-.127-.094-.182-.114-.415-.16a.639.639 0 0 0-.297-.01c-.432.08-.648.228-.81.563-.038.075-.072.15-.082.168a.683.683 0 0 0-.03.11.43.43 0 0 1-.03.11c-.028.054-.077.4-.077.546 0 .144.049.483.078.556.01.026.033.101.053.166a.69.69 0 0 0 .055.149c.011.016.042.071.07.125.061.118.243.308.34.353.04.02.08.043.086.053.006.012.029.021.05.021a.63.63 0 0 1 .14.032c.078.025.146.031.337.021.262-.012.324-.03.49-.137.205-.134.377-.426.422-.72.008-.046.025-.092.04-.104.017-.016.168-.023.456-.023.361 0 .43.003.444.03.021.037-.033.355-.094.538-.073.227-.214.503-.322.63a1.672 1.672 0 0 1-.77.532l-.188.06a2.03 2.03 0 0 1-.326.048c-.663.057-1.267-.143-1.675-.553a2.337 2.337 0 0 1-.622-1.143c-.106-.471-.048-1.277.118-1.648.013-.034.04-.095.058-.139a.976.976 0 0 1 .051-.107c.01-.016.037-.066.059-.11.136-.25.452-.578.67-.689a.586.586 0 0 0 .08-.049.65.65 0 0 1 .117-.058l.148-.059a1.41 1.41 0 0 1 .385-.102 1.57 1.57 0 0 0 .176-.03zm-5.115.112c.895 0 1.096.005 1.224.03.452.092.775.26 1.04.544.106.114.308.404.308.443 0 .006.011.039.027.072.136.318.191.61.203 1.09.008.29.003.365-.074.76a1.95 1.95 0 0 1-.129.393.205.205 0 0 0-.027.078c0 .016-.066.127-.147.248-.234.353-.471.557-.78.676-.396.15-.577.168-1.75.16a17.333 17.333 0 0 1-.968-.022c-.02-.012-.025-.482-.025-2.232 0-1.217.006-2.22.014-2.227.005-.008.496-.013 1.084-.013zm7.753.013c.02-.021 2.335-.014 2.434.008.05.01.125.023.168.03.331.049.653.28.764.55.088.215.121.59.066.762a1.514 1.514 0 0 0-.039.137c-.028.126-.254.387-.42.482-.037.022-.072.047-.072.057-.002.008.04.033.094.054.244.095.483.32.562.532.028.069.055.136.065.148.007.012.023.108.035.217.023.219-.002.52-.051.615a.324.324 0 0 0-.027.074c0 .036-.07.157-.147.262-.073.1-.297.283-.426.344a2.15 2.15 0 0 1-.611.183c-.322.046-2.357.038-2.387-.01-.021-.033-.03-4.425-.008-4.445zm7.061 5.938c.529-.004.582 0 .582.027 0 .02-.03.06-.064.092a5.122 5.122 0 0 0-.204.205c-.075.08-.354.37-.62.646l-.616.641a.748.748 0 0 0-.135.164c0 .014.031.07.067.121.132.188.3.433.455.664.089.13.164.242.17.248.006.006.064.09.129.186l.261.385c.26.38.37.538.389.57l.13.18c.15.205.2.292.186.326-.01.025-.094.03-.576.03-.311 0-.58-.009-.592-.017a1.781 1.781 0 0 1-.134-.19c-.063-.1-.181-.277-.258-.395l-.27-.415a25.203 25.203 0 0 0-.244-.375l-.127-.197a5.774 5.774 0 0 0-.138-.215l-.127-.195-.233.244a5.378 5.378 0 0 0-.263.29c-.028.037-.032.148-.034.734-.002.46-.011.697-.025.71-.014.014-.179.018-.494.016l-.47-.006-.01-2.216c-.01-2.027-.009-2.219.02-2.24.032-.022.895-.028.952-.007.018.006.023.205.021.881-.001.569.004.875.018.883.012.006.058-.027.102-.074l.27-.293.275-.305a47.185 47.185 0 0 0 .777-.85 3.02 3.02 0 0 1 .223-.234c.015-.01.29-.017.607-.02zm-15.764.002c.077-.008 1.303.002 1.924.013.543.01.63.026.887.155.132.065.225.139.342.267.049.054.118.244.16.438a1.01 1.01 0 0 1-.291.978.67.67 0 0 1-.164.125c-.034 0-.09.059-.076.082a.279.279 0 0 0 .087.037c.093.024.255.132.372.243.082.08.222.29.222.336 0 .013.016.046.033.072.054.075.052.67-.002.84a.69.69 0 0 1-.06.146.54.54 0 0 0-.057.106 1.02 1.02 0 0 1-.289.32c-.1.073-.31.187-.344.187a.29.29 0 0 0-.08.03 1.101 1.101 0 0 1-.185.062c-.113.03-.288.033-1.338.041-.864.004-1.219 0-1.248-.015l-.041-.022V15.79l.002-2.21.043-.01a.887.887 0 0 1 .103-.014zm11.356.007c.347-.003.449 0 .453.02.004.014.004 1.021-.002 2.236l-.01 2.21-.443.005c-.245.002-.463 0-.488-.006a.108.108 0 0 1-.065-.06 1.322 1.322 0 0 0-.098-.168.897.897 0 0 1-.08-.135.379.379 0 0 0-.052-.092 1.379 1.379 0 0 1-.102-.166.791.791 0 0 0-.062-.097c-.008-.006-.037-.057-.069-.11a4.94 4.94 0 0 0-.228-.379 1.369 1.369 0 0 1-.078-.134c0-.006-.039-.07-.086-.143a1.169 1.169 0 0 1-.1-.178c-.008-.023-.021-.045-.03-.045-.01 0-.036-.044-.062-.097-.025-.056-.052-.1-.06-.1a.017.017 0 0 1-.018-.018.404.404 0 0 0-.053-.103c-.031-.047-.064-.103-.078-.125a13.28 13.28 0 0 1-.136-.225l-.135-.226a1.809 1.809 0 0 0-.076-.125.494.494 0 0 1-.053-.1.24.24 0 0 0-.043-.076l-.047-.057-.01 1.48-.01 1.48h-.886l-.006-2.22c-.004-1.85 0-2.224.021-2.24.03-.021.877-.021.944 0 .02.008.037.024.037.037 0 .012.038.08.088.153.05.073.09.138.09.146 0 .012.137.247.224.385.026.038.136.225.248.414.113.19.211.348.22.352a.033.033 0 0 1 .017.027c0 .018.07.139.181.31.02.028.07.113.113.19.044.075.084.148.094.16a.6.6 0 0 1 .088.149c.012.031.03.056.04.056.01 0 .017.008.017.018 0 .022.138.257.17.29a.33.33 0 0 1 .047.09c.031.078.119.187.119.15l.006-1.475.003-1.452.446-.006zm-6.133.008c.04-.03.957-.021.992.008.014.012.03.047.035.076a.68.68 0 0 0 .034.121c.023.065.04.106.1.248a.817.817 0 0 1 .038.118c.01.031.035.108.059.168.023.059.068.18.097.267.129.365.205.576.229.631.014.032.04.109.059.168.02.06.048.144.068.187.02.044.047.113.06.157.03.092.052.16.135.373.034.085.063.17.063.187 0 .018.011.05.025.073.014.021.047.106.07.187.026.081.055.154.063.166.008.01.046.118.086.238.041.119.08.225.088.237a.85.85 0 0 1 .05.138c.02.065.057.172.08.237.1.26.151.427.141.455-.008.023-.09.027-.472.027-.505 0-.508 0-.543-.117a2.927 2.927 0 0 0-.07-.203.835.835 0 0 1-.051-.178.17.17 0 0 0-.028-.086.346.346 0 0 1-.04-.111c-.009-.042-.024-.08-.034-.086-.01-.006-.018-.035-.018-.065a.194.194 0 0 0-.033-.1c-.035-.043-.04-.042-.824-.044l-.787-.002-.04.117a3.309 3.309 0 0 1-.109.303 1.4 1.4 0 0 0-.058.178c-.024.08-.059.171-.074.2a.228.228 0 0 0-.028.094c0 .091-.057.102-.543.096l-.453-.006.002-.048c.002-.046.084-.277.127-.366.01-.021.037-.097.059-.168a5.66 5.66 0 0 1 .18-.476.164.164 0 0 0 .017-.057c0-.014.015-.06.037-.105.02-.046.056-.138.082-.21.085-.25.172-.485.213-.58a.564.564 0 0 0 .043-.12c0-.024.107-.309.137-.366a.438.438 0 0 0 .03-.097.46.46 0 0 1 .032-.1 1.2 1.2 0 0 0 .098-.242c0-.028.036-.13.078-.22.01-.023.037-.098.059-.169.023-.07.05-.146.06-.168.041-.093.084-.204.12-.314.02-.065.054-.143.07-.172a.23.23 0 0 0 .027-.09.11.11 0 0 1 .017-.057.258.258 0 0 0 .038-.086c.041-.14.08-.226.107-.246z"/><path d="M5.608 8.443c-.033.008-.035.091-.035 1.397s.002 1.39.035 1.397c.018.006.204.01.409.012.544.006.8-.051 1.016-.225.171-.14.262-.298.37-.66.048-.163.048-.764-.001-.968a1.26 1.26 0 0 0-.056-.181.17.17 0 0 1-.017-.063c0-.05-.085-.217-.162-.322-.077-.106-.264-.262-.314-.262a.271.271 0 0 1-.085-.03c-.114-.061-.333-.089-.732-.097a4.979 4.979 0 0 0-.428.002zm8.815-.057c-.027.006-.031.057-.031.497 0 .34.006.496.021.505.032.018 1.06.01 1.147-.01a.474.474 0 0 0 .302-.252.894.894 0 0 0 .002-.483.475.475 0 0 0-.269-.223 16.77 16.77 0 0 0-1.172-.034zm-.006 1.73c-.021.016-.025.127-.021.592l.006.572h1.282l.109-.06c.153-.09.209-.166.248-.35a.695.695 0 0 0-.079-.533c-.13-.2-.248-.228-.967-.234-.343-.004-.56.002-.578.013zm-8.83 4.244a4.799 4.799 0 0 0-.014.505v.49h1.115l.118-.058c.126-.059.227-.156.227-.219 0-.02.01-.043.02-.049.031-.02.023-.308-.012-.408a.373.373 0 0 0-.23-.227c-.07-.028-.18-.034-.646-.04a5.586 5.586 0 0 0-.578.006zm-.004 1.728a8.99 8.99 0 0 0-.006.588l.006.563.582.006c.507.004.594 0 .68-.03a.597.597 0 0 0 .13-.06.107.107 0 0 1 .05-.025c.043-.002.124-.096.158-.187a.773.773 0 0 0 .037-.276c0-.214-.041-.34-.144-.448-.126-.134-.173-.142-.868-.15-.499-.006-.617-.002-.625.02zm4.774-1.315a.912.912 0 0 1-.037.118 2.168 2.168 0 0 0-.061.177c-.02.066-.056.172-.081.237-.024.065-.064.18-.087.257a2.284 2.284 0 0 1-.07.197c-.04.095-.173.505-.163.513a15.69 15.69 0 0 0 1.056.002c.005-.006 0-.04-.014-.075a4.944 4.944 0 0 1-.13-.38.823.823 0 0 0-.046-.139 1.419 1.419 0 0 1-.08-.245 1.12 1.12 0 0 0-.058-.177 6.047 6.047 0 0 1-.103-.302 1.042 1.042 0 0 0-.078-.197l-.034-.046-.014.06z"/></g><path fill="none" d="M1.464 4.242h21.48v15.582H1.464z"/></svg>