<svg xmlns="http://www.w3.org/2000/svg" viewBox="0 0 24 24"> <title>Dhanlaxmi Bank</title> <g fill="#504" clip-path="url(#a)" transform="matrix(.831 0 0 -.831 -451.222 647.48)"><path d="m555.799 770.77-.032-.158v-.005l-.05-.255-.074-.225c-.273-.441-1.156-1.8-1.44-1.836-.345-.05-.693.39-.693.39-.687.375-1.332-.176-1.453-.369-.124-.203.267-.203.709-.293.449-.104.845-.447 1.637-.127.65.268 1.423 1.042 1.8 1.514a.491.491 0 0 1 .145.217c.024.066.1.416.158.658l.03.156c-.367.146-.737.332-.737.332m3.329 3.295c-1.131.11-2.32-.19-2.743-.771-.092-.118-.206-.535-.306-.974-.36.173-.652.379-.652.379-.384.25-1.09.865-1.225 1.096-.151.244-.05.716.025 1.033.069.326-.15.543-.15.543-.09.155-.562-.125-.664-.543-.04-.162.03-.34.03-.36 0 0-.005.057.144-.43.27-.889.809-1.7 1.285-2.099.104-.088.43-.294 1.027-.509-.028-.155-.047-.274-.06-.34.166-.106.759-.327.759-.327.055.314.146.824.16.933l.004.021 2.41 2.346-.044.002Zm4.073.745c-.1.416-.57.697-.665.545 0 0-.224-.221-.154-.545.08-.318.176-.791.027-1.035-.13-.231-.838-.847-1.225-1.098l-.13-.072c-.175-.385-.403-.871-.657-1.414l.09-.276.04-.12.01-.034c.077.024.411.127.833.33l-.027.132c-.045.156-.047.228-.084.419l.054.03c.144.052.293.132.424.245.477.404 1.023 1.215 1.29 2.102.144.486.144.429.144.429 0 .017.064.197.03.362m-1.757-4.055a6.961 6.961 0 0 0-.818-.328l.114-.414c0-.162.018-.336.06-.514.198-.787.964-1.701 1.03-2.22.063-.521.173-1.188.35-1.336.175-.15.374.689.391.965.025.272.221-.098.287.12l.005.038c.045.22-.684.5-.905 1.53-.16.809-.427 1.816-.514 2.159m-4.626-5.516-.002.034c-.317.966-.928 2.464-.02 4.327l.022.065c.092.178.182.365.271.59.124.315-.097.72-.253.974l2.763 2.678 1.297-.459-.059-.17c-.81-1.82-3.09-6.83-4.019-8.039m-2.993 10.775s-.018 0-.124-.165c-.109-.166-.306-.084-.306-.084.102.035.09.074.19.178.09.107.24.07.24.07m.186.758.17-.346s.15-.35-.17-.35c-.31 0-.176.34-.176.34l.176.356zm0-1.168-.154.189s-.136.199.154.199c.28 0 .16-.191.16-.191l-.16-.197zm.613 1.182c-.1-.063-.028-.404-.145-.551-.077-.098-.243-.112-.243-.112.102.163.023.21.045.409.057.27.343.254.343.254m-1.238 0s.294.017.347-.254c.028-.198-.053-.246.047-.41 0 0-.166.015-.246.113-.113.147-.047.488-.148.55m.816-.77s.153.036.248-.071c.092-.104.08-.143.184-.178 0 0-.197-.082-.303.084-.11.165-.129.165-.129.165m4.266 1.069s.705.107.863-.463c.172-.576.035-.601.524-1.174.494-.574.248-.959.109-.929-.137.025-.518.49-.704.378-.187-.105-.388-.517-.792-.488-.41.027-.69.576-.875.524-.193-.059-.538-.366-.601-.389-.104-.04-.545.141-.193.711.357.577.432.139.759.928.335.794.42.876.91.902m.248 1.106c.697-.18.762-.847.77-.97-.224.127-.546.207-.901.207-.377 0-.707-.05-.931-.186l-.07-.04c.1.79.785 1.008.785 1.008v.67c.2.196.347 0 .347 0v-.69zM557.052 754s-1.007.25-1.627-.547c-.618-.789-.568-1.083-1.235-1.378 0 0 1.287-.595 2.002.662.718 1.263.86 1.263.86 1.263m2.495 0s1.015.25 1.63-.547c.613-.789.56-1.083 1.227-1.378 0 0-1.277-.595-1.994.662-.718 1.263-.863 1.263-.863 1.263m-5.377 5.636s1.922.102 2.267-1.947c.17-1.503-.345-1.878.295-3.163 0 0-1.094.134-1.6.87-.794 1.127-.31 3.739-.962 4.24m8.19 0s-1.93.102-2.275-1.947c-.168-1.503.345-1.878-.297-3.163 0 0 1.101.134 1.612.87.786 1.127.303 3.739.96 4.24m-4.083-8.798 1.071 1.522s.814 1.468-1.07 1.468c-1.936 0-1.033-1.498-1.033-1.498l1.032-1.492zm.01 8.679-1.183-2.696s-.893-2.595 1.183-2.595c2.123 0 1.14 2.646 1.14 2.646l-1.14 2.645zm4.117 16.496s-.02 0-.126-.165c-.109-.166-.303-.084-.303-.084.102.035.094.074.186.178.092.107.243.07.243.07m.191.758.17-.346s.151-.35-.17-.35c-.315 0-.178.34-.178.34l.178.356zm0-1.168-.159.189s-.134.199.16.199c.278 0 .153-.191.153-.191l-.154-.197zm.608 1.182c-.099-.063-.029-.404-.142-.551-.079-.098-.24-.112-.24-.112.097.163.018.21.042.409.055.27.34.254.34.254m-1.236 0s.296.017.345-.254c.026-.198-.049-.246.048-.41 0 0-.169.015-.246.113-.114.147-.039.488-.147.55m.815-.77s.158.036.248-.071c.09-.104.081-.143.186-.178 0 0-.204-.082-.3.084-.115.165-.134.165-.134.165m-3.063-6.247.052-.102.027-.064c.905-1.863.298-3.361-.015-4.327l-.012-.1a9.92 9.92 0 0 1-.311-2.178c.01-1.516.343-2.913.707-3.99l-.032-.05.025-.063.007-.021a3.247 3.247 0 0 1-.404-1.125l-.03-.275-1.426 3.14-.03-.024.003.024-1.416-3.232-.035.367a3.056 3.056 0 0 1-.407 1.125l.01.02c.602 1.519.945 3.537.518 5.722.569.674 1.759 3.03 2.769 5.153"/></g></svg>