<svg xmlns="http://www.w3.org/2000/svg" xml:space="preserve" viewBox="0 0 24 24"><path fill="#fffae7" fill-rule="evenodd" d="M0 0h24v24H0z"/><path fill="#dd3848" d="M6.345 17.366c-.605.023-.605.751-1.074.93-.702.268-1.47-.84-2.179-.101-.254.265-.269.695-.187 1.033.241.992 1.292 1.373 2.218 1.332.93-.04 1.801-.779 2.037-1.665.164-.618-.008-1.56-.815-1.53m2.186-1.841c0 1.706.094 3.405.074 5.112-.005.393-.03.79-.037 1.185-.002.103-.06.384.114.384.178 0 .14-.272.152-.384.037-.395.03-.788.03-1.185 0-1.706-.074-3.41-.074-5.112 1.557 0 3.11.037 4.668.037h1.185c.123 0 .327-.037.423.06.204.204.043.992.062 1.273.09 1.301.034 2.622.034 3.927 0 .333.003.667 0 1-.001.099-.043.268.03.348.155.167.227-.14.23-.237.007-.433.036-.862.036-1.296 0-1.694-.074-3.385-.074-5.075 1.677.014 3.444.17 5.112-.027.4-.047.82-.008 1.223-.01.108-.001.36-.003.331-.178-.025-.145-.266-.122-.368-.112-.395.037-.788.03-1.186.03-1.701 0-3.407.037-5.112.037 0-1.556.037-3.11.037-4.667V9.448c0-.122-.036-.326.06-.422.109-.109.326-.048.459-.033.351.042.72.01 1.074.01 1.184 0 2.374-.071 3.557-.073h1c.117 0 .293.03.395-.038.233-.155-.084-.257-.21-.258-.455-.007-.913.036-1.37.036-1.653 0-3.31.037-4.965.037V5.41c0-.558.055-1.149-.01-1.704-.054-.454-.013-.913-.027-1.37-.004-.107-.068-.383-.237-.258-.1.074-.06.299-.06.406 0 .396.038.788.038 1.185 0 1.138.037 2.27.037 3.408 0 .448.107 1.05-.012 1.48-.049.178-.25.15-.395.15-.349 0-.692-.028-1.038-.036-1.122-.028-2.248 0-3.37 0-.383 0-1.053.13-1.403-.023-.136-.06-.116-.225-.117-.348v-.926c0-1.287.085-2.606-.003-3.89a17.516 17.516 0 0 1-.034-1.111c0-.112.015-.323-.148-.323-.161 0-.152.211-.145.323.025.396.034.787.034 1.185 0 1.188.037 2.37.037 3.557 0 .391.134 1.08-.022 1.439-.102.233-.765.105-.978.12-1.02.07-2.05.07-3.075.07-.668 0-1.335-.037-2-.037-.108 0-.625-.066-.565.145.036.128.237.129.342.141.363.044.747.01 1.112.01 1.296 0 2.596-.036 3.89-.036.31 0 .617-.037.926-.037.101 0 .267-.022.326.086.053.099.007.285.007.395v5.483c0 .14.016.313-.15.359-.515.14-1.24.048-1.776.048-1.035 0-2.075.037-3.112.037-.397 0-.789-.037-1.186-.037-.104 0-.332-.04-.383.085-.069.168.21.189.31.201.398.05.82.01 1.222.01 1.693 0 3.386-.073 5.075-.073m.26-.26.036-6.334 4.446.037h1.26l.543.022.065.348-.016 1.037v4.557l-.06.332-.459.038-1.26-.034-4.556-.003"/><path fill="#1a1918" d="M6.233 3.212c-.623-.033-1.343.131-1.962.214-.161.021-.533-.003-.607.175-.086.203.04.555.05.772.034.792.128 1.58.183 2.371.015.218-.06.885.227.92.554.065 1.26-.127 1.814-.2.185-.025.493.013.65-.097.133-.091.102-.742.016-.87-.092-.138-.31-.07-.444-.055-.333.04-.667.078-1 .115-.114.013-.292.07-.385-.02-.126-.123-.119-.44.054-.511.276-.114 1.026.065 1.1-.32.019-.095.01-.2.009-.296-.012-.81-.826-.069-1.114-.424-.117-.145-.127-.497.078-.56.424-.13 1.134.037 1.501-.213.178-.121.071-.988-.17-1.001m11.93.103c-.44.064-.405.433-.475.799-.15.79-.281 1.581-.429 2.37-.041.223-.248.78-.124.982.096.155.788.146.937.07.157-.079.102-.39.16-.53.086-.204.472-.266.671-.263.319.007.254.475.434.646.16.15.67.032.86-.02.353-.097-.141-.931-.227-1.144-.273-.68-.557-1.356-.83-2.037-.093-.234-.189-.667-.395-.825-.143-.11-.415-.073-.582-.048m.337 1.941c.217-.051.462.618.107.692-.389.08-.34-.638-.107-.692m-7.742-1.845c-.223.124-.182.558-.21.777-.105.793-.14 1.61-.205 2.408-.015.19-.154.757-.006.897.124.117.522.018.676-.003.67-.093 1.37-.255 1.963-.593.194-.11.393-.244.539-.414.997-1.163-.43-2.283-1.428-2.713-.293-.126-1.016-.534-1.33-.359m.78 1.245c.178-.067.472.111.624.19.706.37.91 1.236.037 1.548-.186.067-.701.244-.865.068-.133-.142.01-.787.035-.977.024-.18-.024-.756.17-.829m-7.008 7.46c.155.15.164.387.196.592.063.407.082.955.245 1.332.09.208.586.228.7.033.283-.475-.07-1.37.34-1.772.019.417.114.848.183 1.26.025.148.006.378.089.506.112.173.798.071.934-.053.168-.153-.01-.733-.04-.935-.125-.8-.209-1.607-.323-2.408-.039-.272.004-.716-.36-.74-.767-.048-.871.286-.968.962-.022.149-.046.664-.212.718-.146.048-.174-.226-.186-.31-.045-.307-.052-.895-.25-1.14-.184-.23-.864-.083-1.126-.04-.347.056-.296.546-.296.81 0 .781.012 1.631-.09 2.407-.025.189-.13.872.035.994.137.1.925.051.996-.11.06-.137.015-.33.033-.476.062-.533.1-1.094.1-1.63m13.596.185c.017.414.09.85.157 1.26.026.158.006.365.084.51.086.16.53.181.653.055.118-.122.112-.407.143-.566.094-.48.166-.964.26-1.444h.073c.113.473.099 1.067.11 1.555.005.165-.06.48.066.608.107.109.353.055.491.06.14.007.342.083.47-.002.192-.128.049-.72.049-.925 0-.818-.028-1.667-.105-2.482-.022-.227.08-.633-.16-.771-.203-.117-1.065-.203-1.235-.028-.139.143-.139.428-.17.614-.024.14-.076.898-.285.86-.153-.028-.172-.48-.189-.6-.036-.25-.042-.676-.185-.885-.14-.206-.71-.255-.93-.168-.262.105-.225.667-.264.904-.112.688-.175 1.385-.277 2.075-.04.273-.184.728-.115.995.052.199.81.31.96.189.113-.09.095-.351.113-.48.047-.354.026-1.081.286-1.334m-6.928 6.742h.074c.082.439.1.892.164 1.334.018.125.017.395.123.48.129.104.567.121.65-.044.264-.531.251-1.371.36-1.955h.074c.104.435.038.892.08 1.333.02.215-.028.618.106.796.113.151.928.187 1.009.01.093-.2-.01-.617-.01-.843 0-.76.01-1.58-.09-2.334-.032-.247.078-.732-.14-.903-.195-.153-1.093-.223-1.272-.044-.146.146-.152.528-.186.725-.023.137-.042.733-.239.733-.191 0-.233-.663-.252-.807-.082-.623-.243-.911-.932-.882-.356.016-.344.473-.38.734-.118.821-.26 1.656-.327 2.482-.017.206-.209.743-.022.894.093.076.245.074.358.09.14.021.379.1.507.015.125-.082.116-.347.138-.48.074-.442.095-.9.207-1.334m7.376-2.185c-.225.126-.32.588-.411.814-.298.744-.612 1.48-.91 2.223-.07.174-.423.773-.253.928.126.117.824.205.951.087.344-.319.094-.759.73-.612.521.12.256.357.483.697.099.148.813.103.95.01.199-.134-.065-.973-.107-1.184a63.979 63.979 0 0 1-.352-1.926c-.045-.267-.045-.647-.17-.888-.123-.234-.695-.27-.91-.149m.15 1.913c.25-.088.335.613.133.683-.447.154-.422-.58-.132-.683zm-7.342-8.746c-.327.095-.337.55-.38.831-.123.792-.28 1.583-.427 2.37-.036.193-.24.783-.118.942.107.138.768.14.92.074.197-.086.108-.405.176-.567.074-.175.543-.263.717-.24.254.032.244.467.375.632.138.174.697.052.884-.01.333-.108-.141-.918-.23-1.126-.285-.662-.531-1.34-.816-2-.107-.25-.185-.608-.374-.807-.154-.163-.523-.158-.727-.099m.419 1.93c.232-.088.45.573.172.674-.434.157-.404-.587-.172-.674"/></svg>