<svg xmlns="http://www.w3.org/2000/svg" xml:space="preserve" viewBox="0 0 23.965 23.965"><g transform="translate(23.202 -105.269) scale(.1418)"><circle cx="-79.12" cy="826.849" r="84.5" fill="#fff"/><path fill="#e67a20" d="M-39.42 780.25c6.5 1.6 12.4 4.4 16.8 9.8-6.2-3.8-12.8-5.3-19.9-3.8-7.2 1.5-12.8 5.5-16.7 11.7-5.8 9.3-4.8 21.4 2.3 29.9 7.8 9.4 18.6 11.2 33.1 5.5.1.9-.7 1.2-1.1 1.6-6 5.6-13.5 7-21.2 7.9-7.6.9-15.3 1.8-22.9 3-14.8 2.3-27.1 9.5-37.3 20.3-4.8 5.1-10.6 7.5-17.5 7.2-.7 0-1.5.2-2.3-.9 9-1.4 15.4-6 17.6-15 1.2-5 .5-9.9-2.2-14.4-6.1-10.2-16.6-11.7-29.9-4 .9-2.6 2.7-4.1 4.4-5.5 4.4-3.5 9.6-4.9 15-5 10.5-.1 18.7-5.1 26.3-11.5 6.6-5.5 12.1-12 17.9-18.2 3.1-3.3 6.2-6.6 9.5-9.7 5-4.7 10.8-7.9 17.6-9.1 5.6-.8 9-.1 10.5.2z"/></g></svg>