<svg xmlns="http://www.w3.org/2000/svg" xml:space="preserve" id="svg44" preserveAspectRatio="xMidYMid" version="1.0" viewBox="0 0 24 24"><title>Federal Bank</title><defs id="defs48"><style id="style17099">.cls-3{fill:#fff}</style><path id="a" d="M0 83h235V0H0z"/></defs><g id="g17221" transform="translate(-.038 8.15) scale(.0348)"><path id="rect17103" fill="#004e96" d="M.37 0h688.55v172.14H.37z"/><path id="rect17105" fill="#faa61a" d="M.37 154.92h688.55v17.21H.37z"/><path id="polygon17107" d="M51.91 116.19H39.1l9.04-77.15 35.03.11-1.19 12.58H59.75L57.67 69.2h22.32L78.5 81.9H56.17z" class="cls-3"/><path id="path17109" d="m89.68 39.18-8.75 76.71s37.78.76 37.78-.11 1.29-12.15 1.29-12.15H94.71l2.56-21.95h25.38l1.58-12.81H99l2.06-17.32h25.3l1.47-12.48z" class="cls-3"/><path id="path17111" d="m193.17 39.18-8.76 76.71s37.78.76 37.78-.11 1.29-12.15 1.29-12.15h-25.3l2.56-21.95h25.39l1.57-12.81h-25.19l2.06-17.32h25.29l1.49-12.48z" class="cls-3"/><path id="path17113" d="m152.63 39.37-17.17-.09-8.67 76.72h12.53v-.06c2.67.26 17.75 1.42 27.15-4.06 0 0 19.35-7.94 19.17-39.74.01-.03-1.12-29.22-33.01-32.77zm3.08 64.25s-11.85.77-15 .36l5.91-52.17 9.37-.18s13.42 0 17.27 17.2a1.8 1.8 0 0 1 .06.32c3.74 17.53-7.32 33.03-17.61 34.47z" class="cls-3"/><path id="path17115" d="m278 116.19-16.21-33s14.13-2.6 15.47-22.59c0 0 .29-20-19.48-21.13H239.3l-8.77 76.71h12.93L247 84.55l1.7.11 16 31.54zm-27.24-64.51s12.47-2.28 14.11 5.32c0 0 2.86 14.18-10.14 16.06l-6.39-.06Z" class="cls-3"/><path id="path17117" d="M331.51 116.19h13.28L322.48 39l-43 77.09h14.6l8.53-16.31h24.75zm-22.43-28.78 10.24-19.58 5 19.68z" class="cls-3"/><path id="path17119" d="M503.67 116.19H517L494.64 39l-43 77.09h14.59l8.53-16.31h24.75zm-22.43-28.78 10.25-19.58 4.95 19.68z" class="cls-3"/><path id="polygon17121" d="M347.43 116.19h34.56l1.31-12.12h-21.41l6.81-64.41-12.28.12z" class="cls-3"/><path id="path17123" d="M444.83 76s10.31-8.77 7.64-20.34c0 0-1.27-14.78-18.75-16.31H416.9l-8.67 76.67h19.51s16.95.14 22.7-9.48c0 .03 11.21-16.83-5.61-30.54zm-15.57-25.6s7.78-.56 10.59 4c0 0 5.48 10.74-6.25 15.75l-6.83.4 2.23-18.9zm9.95 50.46s-3.31 4.88-16.06 3.21h-.37L425.41 82c2.13-.17 7.13-.44 8.83.64 0-.05 12.49 3.03 4.97 18.22z" class="cls-3"/><path id="polygon17125" d="m574.31 85.18-41.5-46.45-11.1 77.35H534l6.64-49.91 41.72 49.6 10.55-76.69h-13.2z" class="cls-3"/><path id="polygon17127" d="m608.7 85.53 2.08-2.33 22.87 32.7h15.01L620.3 72.54l29.89-33.47h-14.62L610.94 66l3.09-26.93-13.22-.14-8.85 77.26h13.22z" class="cls-3"/></g><g id="g20936" fill="#000" stroke="none" transform="matrix(.13333 0 0 -.13333 -248.571 306.512)"><path id="path20922" d="M1146 1598c-4-18-10-70-13-116l-6-83 39 6c48 8 90 51 99 99 12 63-35 126-94 126-13 0-21-10-25-32zm69-40c9-42 9-53 1-85-5-21-12-30-24-29-13 2-18 15-20 52-2 35 0 45 8 34 6-9 10-10 10-3 0 6-4 15-10 18-18 11-11 35 10 35 12 0 21-8 25-22z"/><path id="path20924" d="M1588 1584c-2-25-2-47 0-48 1-2 14-1 28 2 52 10 51 92 0 92-21 0-24-5-28-46z"/><path id="path20926" d="M1867 1515c-22-46-22-45 14-45 28 0 31 3 25 23-3 12-6 30-6 40 0 28-15 20-33-18z"/><path id="path20930" d="M2360 1610c0-15-3-35-6-44-4-11 0-16 14-16 45 0 57 66 15 81-21 7-23 5-23-21z"/><path id="path20932" d="M2346 1488c-3-7-7-30-10-50-4-34-2-38 18-38 46 0 74 44 50 79-17 23-52 28-58 9z"/><path id="path20934" d="M2606 1515c-20-48-21-45 14-45 28 0 29 2 23 33-9 49-20 53-37 12z"/></g></svg>