<svg xmlns="http://www.w3.org/2000/svg" xml:space="preserve" viewBox="0 0 24 24"><path fill="#fff" d="M18.988.64c-.291.151-.697.16-8.889.184-5.256.012-7.966.033-7.97.061-.004.021.086.099.197.173.693.447 1.103.967 1.336 1.713.193.615.197.743.197 9.348 0 8.762 0 8.75-.221 9.418-.218.652-.488 1.03-1.05 1.452-.193.143-.381.287-.426.32-.041.032-.062.077-.045.102.016.033 1.365.045 4.575.045 3.838 0 4.547-.008 4.547-.057 0-.03-.18-.148-.398-.263-.746-.381-.98-.537-1.291-.857-.46-.471-.689-1.012-.767-1.832-.029-.283-.045-1.792-.045-4.047 0-3.215.008-3.604.066-3.661s.287-.066 1.914-.066c2.645.004 3.207.045 3.932.295.304.107.75.398.947.62.197.217.48.59.48.627 0 .016.025.061.057.094.12.143.517.988.648 1.382.05.151.11.262.14.262.049 0 .057-.636.057-3.875 0-3.452-.008-3.874-.061-3.874-.037 0-.07.025-.078.05-.152.61-.681 1.692-1.087 2.225-.578.759-1.25 1.091-2.497 1.23-.717.082-4.39.09-4.469.013-.037-.037-.049-1.206-.049-4.998 0-4.17.008-4.953.057-4.994.078-.066 5.084-.037 5.49.029 1.165.192 2.054.52 2.846 1.062.824.557 1.52 1.291 2.263 2.39.234.344.722 1.148.754 1.238.017.041.045.074.066.074.078 0 .082-.135.02-.463a17.649 17.649 0 0 1-.098-.558 9.178 9.178 0 0 0-.078-.41c-.02-.102-.07-.365-.107-.578a12.22 12.22 0 0 0-.123-.656c-.028-.148-.065-.36-.082-.472-.012-.114-.04-.27-.061-.348s-.066-.312-.103-.513c-.036-.205-.09-.508-.123-.676-.028-.168-.086-.492-.123-.718-.094-.561-.127-.606-.348-.492z"/><path fill="#f02d23" d="M19.398 18.023a.55.55 0 0 1-.172.062 1.25 1.25 0 0 0-.332.123 1.983 1.983 0 0 1-.308.123c-.028 0-.049.016-.049.033 0 .02-.078.09-.172.16-.336.242-.599.557-.73.877-.033.078-.082.164-.11.193s-.054.094-.054.143-.029.127-.062.168c-.09.12-.09 1.386 0 1.46a.197.197 0 0 1 .062.127c0 .098.23.545.39.754.164.214.52.554.586.554.024 0 .049.02.049.041 0 .025.041.057.094.078.05.02.177.074.275.119.496.23.603.254 1.099.254.525 0 .676-.037 1.177-.275.299-.14.725-.475.873-.688.049-.07.135-.177.193-.242s.102-.144.102-.177.02-.098.05-.147c.098-.177.163-.386.237-.763.07-.377.07-.394-.008-.779-.041-.217-.094-.41-.12-.435-.02-.02-.036-.073-.036-.123s-.029-.123-.061-.168a.286.286 0 0 1-.062-.13c-.004-.148-.832-1.034-.968-1.034a.534.534 0 0 1-.168-.057 4.01 4.01 0 0 0-.598-.246c-.259-.086-1.03-.09-1.177-.004z"/></svg>