<svg xmlns="http://www.w3.org/2000/svg" id="svg2" version="1.1" viewBox="0 0 24 24"><title>Firstcry</title><g id="layer1" transform="translate(0 -1028.362)"><g id="g4929" transform="matrix(.01154 0 0 .01154 .183 1035.707)"><path id="path4901" fill="#f3952e" d="M141.5 77.3c10.1-23.9 27.9-48.4 73.5-69.2C235.9-.2 259.6-1 283 .9c15 2.3 28.9 5.4 43 16.2 10.1 7.9 22.5 20.1 26.3 40.9.2 2.6-6.7 1.6-9.1 1.3-10.7-1.3-16.2 3.6-25.2 8.9-2.5 1.5-6.8 3.2-10 .7-7.9-8.7-14.2-14.9-22.1-23.7-19.8-16.8-48.7-9.7-69.7 5.5-24.2 20.5-34.7 39.9-42.2 59.2-7.5 20.8-10.6 41.5-14.7 62.2-3.7 33.5-3.9 65.7-3.8 98.3.2 16.6.9 33.2 4.4 49 5.4 11.6 13 21.4 28.1 25.2 16 1.9 31.9 3.8 47.9 5.7 8.6 1.3 15.4 5.3 19.5 13.7 1.8 10.5-.6 17.2-6.2 18.5-17.8-.3-36.2-.2-54.2.9-23 5.2-19.6 23.7-21.4 38.7 13.3 89.2 25 177.4 34.5 267.5-.8 17.3-6.2 20-14.3 21.6-2.8 2.8-12.3 1.1-20-9.6-19.4-108.2-34.9-217.7-56.8-326.2-1.7-12.4-7.9-18.9-18.3-19.7-24.5-1.1-48.9-2.2-73.4-3.3-11-1.7-19.3-5.4-22.8-12.6C-2 325.1-1 309.5 10.4 297c5.7-5.7 10.1-11 25.9-9.3 10.6 2.8 18.4 8.5 28.2 20.7 8.6 7.1 24.9 8.1 39.8 4.6 6.6-1.7 11.7-7.6 9.4-21.7-4.4-34.2-4.6-63.8-2.7-96.5 4-43.8 12-77.9 30.5-117.5m188.2 147.2c4.6-10.6 9.8-18.1 23.8-15.5 12.7 2.4 18.6 15.6 25 29.3 11 46.5 11.8 95.8 17.6 143.9 4.6 60.9 8.4 122.7 10.8 185.1 1.7 26.3-.5 44.1-9.4 54.4-14.8 10.2-28.3 2.6-34.2-13.7-15.7-123.7-43-259.1-33.6-383.5"/><path id="path4903" fill="#f3952e" d="M326.1 127.2c14.3-4.7 26.3-2.6 37.8.8 10.4 6.5 15.2 15 13.6 27.9-3.2 26.9-24 36.2-49.5 28.9-9.9-4.4-17.6-11.8-17.8-29.6.4-11 4.3-20.8 15.9-28M535.4 262c17.4-30.3 34.1-40.4 57-33.8 20.4 8.3 37.7 25.6 52.9 40.7 16.3 17.5 32 35.2 41.7 54.9 3.1 6.6-.4 19.8-10 27.5-13.8 10.8-27 9.3-36.4 2.3-15.5-11.8-23.9-32.6-42.1-46.6-20.5-14.8-38.3-5.1-45.8 4.1-9.1 13.3-11.7 41.1-13.3 67.6-4 66.2.7 134.2 7.1 203.2 4.1 32.5 1.9 54-6.7 64.7-8.6 12.8-17.5 14.4-26.8 4.9-5.6-4.8-9.4-12.8-11.2-23.8-11.2-78.8-20.7-162.2-19.8-247.7 1.1-39.7.7-74.7 1.8-114.5.7-13.2 2.2-23.3 6.4-31.5 4.9-11.5 17.9-12.3 26-3.1 5.5 6.2 11.8 20.1 12.2 30.2.1 3.7 5.9 4.3 7 .9m233.4-46.1c19.7-19.2 36.1-37.3 68-45.6 15.5-3.2 31-4.9 45.6-3.5 25.4 2.7 54.7 7.5 72.8 32.4 3.4 11.1 3.4 21.9-3.9 30.5-5.5 5.5-27.7 4.3-30.3.1-15.6-15.5-22.8-26.3-43.2-30.5-43.7-6.1-60.2 15-67.4 33.3-4.9 11.6-4.1 24.7-.1 35.2 6.5 15 20.7 25.2 36.2 33.9 33.9 16.9 66.3 29.5 98 40.4 28.5 14.8 58.3 27.4 71 68.6 3.1 21.8 5.4 43.7-2.7 65.8-17.6 52.1-43.2 66.4-68 84.4-29.5 12.6-51.4 15-73.1 17.2-20.2-.4-39.2-2.9-53.4-7.4-36.2-13.5-64.4-28.1-80.5-50.7-4.1-16.7-8.1-39.2-1.7-54.3 5.2-12.3 14.1-20.6 26.7-25 10.8-2.7 20-.1 24.3 8 7.9 21.7-1.5 26.2-7 38.2.6 17.4 13.6 29.7 35.1 37.4 16.2 5.7 37.1 7.1 58.2 8.6 26.6-1.4 53.7-26.3 64.6-38.3 32.9-37.2 33.8-61.6 27.7-82.5-13.7-28.1-79.5-44.6-111.2-52.8-28.5-5.2-49.7-15-71.4-31.4-23.3-16.6-31.1-41.4-29.6-72.8 1.2-14.1 5.4-27.6 15.3-39.2M1071 22.5c6.4-8.4 13.1-7.3 19.7-4.9 11.7 11.2 18.4 33.3 22.1 71.2 5.5 35 4.5 100.8 10.9 102.9 10.9.2 29.4-16 45.3-19 10.3 1.6 14.7 7.3 18.5 17.2 5.8 15 3.3 31.2-3.2 38.1-15.2 11.3-28.3 15.5-41.1 18.6-12.7 5.1-13.5 9.9-12.7 14.6 6.7 44.4 10.7 89.1 17.4 133.5 5.8 31.6 12.7 62.4 25.4 91.7 8.3 20.1 25.2 28.5 43.1 28.9 5.9-.2 13.5-.6 18.6 7.3 4.5 12.6 3 22.4-3.8 27.2-12 7.1-28.8 6.4-46.2 4.5-21.3-5.2-37.1-13.2-50.5-24.5-12.7-19.6-20.5-46.4-24.5-74.3-7.8-56.8-15.5-113.5-23.3-170.3-.5-6.7-1.9-12-8.8-7.8-19.3 10-38.6 19.9-57.9 29.9-30.7 8.1-29.9-38.8-15.6-51.7 12.7-10.4 34.1-12.4 49.5-23.4 6.3-4.5 13.5-8.5 17.3-13.9 7-8.1 6.3-10.8 7.4-17.1-.3-10.6.5-20.6.3-31.2-2.5-49-5.2-98.2-7.9-147.5"/><path id="path4905" fill="#c1539c" d="M1280.4 206.1c33.9-24.3 62.9-35.7 107-30.4 30.2 8.6 61.3 15 75 46.1 2.1 21.5-14.1 29.5-41.3 32.6-28.4.9-37.9-16.4-53.9-30.9-33.5-14.1-52.3-7.3-76.3 20.3-29.7 32.3-.8 151.1 43.7 183.6 26.1 20.9 53.7 22.8 80.4 16.2 11.5-2.9 21.1-11.6 24-24.1 3.2-19.6 21-22.2 31.4-15.4 21.2 17.7 22 50.6-1.1 65.7-18.8 12.3-42.9 14.8-64.3 15.6-58.7 4.6-92.9-23.1-123.8-55.4-37.4-61.5-62.9-168.9-.8-223.9"/><path id="path4907" fill="#c1d43a" d="M1575 97.7c17.3-30.3 34.1-40.4 57-33.8 20.4 8.3 37.7 25.6 52.9 40.7 16.3 17.5 32.1 35.2 41.7 55 3.1 6.5-.4 19.8-10 27.5-13.8 10.8-27.1 9.3-36.4 2.3-15.5-11.8-23.9-32.6-42.1-46.6-20.5-14.7-38.3-5-45.8 4.1-9.2 13.3-11.8 41.1-13.3 67.6-4 66.2.7 134.2 7.1 203.2 4.2 32.5 2 54-6.6 64.7-8.6 12.8-17.6 14.4-26.7 5-5.7-4.8-9.4-12.8-11.2-23.8-11.3-78.9-20.8-162.4-19.9-247.8 1.2-39.7.7-74.8 1.8-114.5.7-13.2 2.2-23.3 6.4-31.5 4.9-11.5 17.9-12.3 26-3.1 5.4 6.3 11.8 20.1 12.1 30.3.1 3.5 5.8 4.1 7 .7"/><path id="path4909" fill="#5fc5da" d="M1747.7 141.8c1.9-8.3 7.3-15.5 24.7-17.5 11.1-1.1 19.6 4.8 22.1 13.3 2.3 46 .1 87.2 12.1 135.4 14.1 35.9 28.7 71.2 62.2 89.7 32.3 11.6 64.1 0 94.4-62.7 23.4-55.5 39.3-109.9 53.5-166.7 3.2-16.5 28.8-10.5 28.6 5.8 14 64.6 12.6 129.7 18.1 194.6 8.6 65 14 129.5 5.9 195-4.9 40.7-13.8 80.2-45.3 125.3-33.4 45.9-111.4 85.5-165.4 60.3-17.2-10.8-37.8-19.6-47.4-89.4-.4-19-3.6-33.5 5.7-39.4 8.4-5.5 18-9 27.5 3.1 6.9 5 14.8 29.3 22.4 60.2 21.2 22.4 47 35 105.6-21.3 13-22.9 27-44.9 33.5-74 12-45.4 18.6-90.7 18.5-135.8 1.7-40 .8-80.4-.9-119.3-.6-10-5.3-11.7-8.5-6.5-11.5 30.9-26.1 57.4-51.3 82.6-34.3 33-73.7 49.7-118.5 25-34.1-20.5-62.9-53-79.8-111.9-8.8-48.3-19.7-96-17.7-145.8"/><path id="path4911" fill="#c1539c" d="m1414.3 543.3 28.6-.8 45.7-53.5-12.6 52.6 242.1-6.7c28.5-.8 57.3 24.8 58.1 53.3l2.6 94.9c.8 28.5-24.9 55.2-53.4 56l-309.7 8.5c-28.5.8-56.5-26.5-57.3-55l-2.5-91.4c-.8-28.6 29.9-57.1 58.4-57.9"/><path id="path4913" fill="#fff" d="M1401 672.2c5.7-.2 10.5 5.1 10.7 11.9.2 6.7-4.3 12.3-10 12.5-5.7.2-10.5-5.2-10.7-11.9-.2-6.8 4.3-12.4 10-12.5m94.4-67.3-7.9 17.1c-4.8-4.8-11-7.2-18.8-7-7.5.2-13.3 3.3-17.5 8.9-4.2 5.8-6.1 13.7-5.8 23.6.6 20.1 9.2 30 26.2 29.5 7.2-.2 13.6-3.1 19-8.8l7.7 17.3c-5.5 4.2-10.5 6.9-14.7 8.1-4.2 1.2-9.3 1.9-15.1 2.1-13 .4-23.3-3.7-31.2-12.1-7.8-8.4-11.8-20.2-12.3-35.6-.4-15 3.3-27.4 11.3-37 8.1-9.4 19.1-14.5 33.3-14.8 9.8-.2 18.4 2.7 25.8 8.7m14.3 39.7c-.4-14.6 3-26.5 10.1-36 7.2-9.4 16.9-14.2 29-14.5 12.9-.3 22.9 3.8 30.2 12.4 7.3 8.8 11.2 20.7 11.6 36 .4 15.4-2.8 27.5-9.8 36.7-7 9.2-16.7 14-29.3 14.4-12.7.3-22.9-4-30.2-12.9-7.3-8.9-11.2-20.9-11.6-36.1zm20.5-.5c.6 21.1 7.5 31.5 20.8 31.1 6.1-.2 11.1-3 14.5-8.6 3.4-5.6 4.9-13.3 4.7-23.6-.6-20.7-7.5-30.9-20.8-30.6-6.1.2-10.9 3.1-14.5 8.6-3.5 5.6-5 13.4-4.7 23.1m180.2 43.2-1.6-60c-.3-12.4-5.4-18.7-15.4-18.4-2.9.1-5.8 1.3-8.5 3.2-2.5 2.1-4.4 4.4-5.4 6.9l1.9 69.2-19.7.5-1.8-63.5c-.1-4.6-1.5-8.4-4.2-11-2.6-2.7-6.4-4-11.1-3.9-2.4.1-5.1 1.2-8 3.3-2.8 2.3-4.9 4.5-6.1 7.1l1.9 68.8-19.6.5-2.7-95.7 13.6-.4 4.2 8.3c5.3-6.9 12.3-10.6 20.9-10.8 11.3-.3 19.7 2.9 25.6 9.7 2.3-3.2 5.8-5.8 10.1-7.8 4.1-2 8.6-3.2 13.1-3.3 9.3-.3 16.9 2.6 22.2 8.5 5.3 6.1 8.3 14.2 8.6 25l1.7 63.2z"/></g></g></svg>