<svg xmlns="http://www.w3.org/2000/svg" xml:space="preserve" viewBox="0 0 24 24"><path fill="#fff" d="M13.616 11.685c0-.698.012-1.347.048-1.948l-1.84.349v.168l.181.024c.132.012.216.06.265.132.048.084.084.205.108.385.024.349.048 1.142.036 2.392 0 1.239-.012 2.02-.036 2.32.661.145 1.178.205 1.563.205.721 0 1.286-.204 1.695-.625.409-.409.625-.986.625-1.695q0-.848-.469-1.407a1.47 1.47 0 0 0-1.178-.553c-.313 0-.637.084-.998.253m.036 3.703c-.024-.385-.048-1.54-.048-3.427a1.4 1.4 0 0 1 .433-.06c.288 0 .517.144.685.445.168.3.253.661.253 1.118 0 .565-.097 1.022-.289 1.407-.192.372-.433.565-.733.565a2 2 0 0 0-.3-.048zm-8.728-5.53H.114v.24l.253.024c.192.036.325.108.409.216q.126.18.144.577a23 23 0 0 1 0 3.631q-.036.397-.144.577c-.084.12-.217.193-.409.217l-.252.036v.24h3.101v-.24l-.324-.024a.6.6 0 0 1-.409-.217q-.126-.18-.144-.577a22 22 0 0 1-.06-1.647l.649.012c.349.012.589.277.71.806h.24v-1.96h-.24c-.121.517-.35.781-.71.793l-.65.012c0-1.082.025-1.851.06-2.32h.95c.674 0 1.13.433 1.395 1.298l.289-.084Zm-.565 3.702c0 .625.18 1.142.529 1.551.348.409.865.601 1.514.601.65 0 1.179-.204 1.563-.625.385-.409.565-.926.565-1.55 0-.626-.18-1.143-.529-1.552-.348-.409-.865-.6-1.514-.6-.65 0-1.179.203-1.563.624-.385.409-.565.926-.565 1.551m2.68-1.37c.145.348.205.805.205 1.358 0 1.275-.264 1.9-.781 1.9q-.398 0-.614-.541c-.144-.36-.204-.818-.204-1.359 0-1.262.264-1.887.781-1.887.265-.012.47.168.614.529zM17.2 15.11c.397.397.902.601 1.503.601.372 0 .697-.072.986-.228a1.8 1.8 0 0 0 .673-.541l-.12-.144a1.44 1.44 0 0 1-.914.3c-.481 0-.854-.156-1.106-.48-.265-.325-.385-.734-.36-1.263h2.572c0-.577-.144-1.046-.445-1.419q-.45-.54-1.262-.54c-.674 0-1.19.216-1.563.636s-.553.938-.553 1.551c0 .625.192 1.13.589 1.527m.89-3.018c.132-.288.3-.432.529-.432.36 0 .54.456.54 1.382l-1.274.024c.012-.36.072-.685.205-.974m5.578-.48c-.325-.145-.733-.229-1.226-.229-.505 0-.902.132-1.203.385-.3.252-.456.565-.456.938 0 .324.096.577.276.757s.469.337.842.469c.336.12.577.24.697.349a.58.58 0 0 1 .192.432c0 .169-.06.325-.192.445-.12.132-.289.193-.505.193-.529 0-.926-.385-1.202-1.155l-.205.06.049 1.203a4 4 0 0 0 1.442.252c.553 0 .974-.12 1.287-.372.312-.24.469-.59.469-1.022 0-.289-.073-.53-.229-.71s-.409-.336-.77-.48c-.396-.145-.673-.277-.817-.397a.55.55 0 0 1-.216-.445.63.63 0 0 1 .156-.445.51.51 0 0 1 .409-.168c.48 0 .83.348 1.046 1.034l.204-.06zm-11.566-.109a1.2 1.2 0 0 0-.553-.12c-.204 0-.409.084-.637.253s-.397.396-.53.709l.013-.962-1.827.36v.17l.18.011c.228.024.36.204.385.53q.108 1.117 0 2.38c-.024.324-.157.493-.385.529l-.18.024v.228h2.548v-.228l-.324-.024c-.229-.024-.361-.205-.385-.53a12.3 12.3 0 0 1-.024-2.212q.108-.18.469-.216c.24-.024.517.048.805.216z"/></svg>