<svg xmlns="http://www.w3.org/2000/svg" xmlns:xlink="http://www.w3.org/1999/xlink" xml:space="preserve" viewBox="0 0 24 24"><defs><linearGradient id="a"><stop offset="0" stop-color="#77bc59"/><stop offset="1" stop-color="#299349"/></linearGradient><linearGradient xlink:href="#a" id="b" x1=".697" x2="4.868" y1="6.1" y2="6.1" gradientUnits="userSpaceOnUse"/></defs><path fill="url(#b)" d="M1.105 3.422c.017.376.308.65.205 1.044-.157.597-.706 1-.6 1.679.201 1.276 1.908 1.758 2.93 2.17.23.093.917.62 1.13.418.128-.121.102-.345.08-.5a5.199 5.199 0 0 0-.3-1.193c-.47-1.185-1.279-2.173-2.29-2.942-.335-.255-.726-.611-1.155-.676M2.745 5.1c.666.638 1.165 1.297 1.5 2.164.1.262.301.66.179.932h-.038c-.16-.236-.23-.524-.347-.783a10.717 10.717 0 0 0-.784-1.455c-.14-.215-.523-.6-.51-.858m2.35-.932c-.197.474-.623.984-.7 1.492-.064.414.15.855.297 1.23.094.238.174.663.44.746.276-.971 1.024-2.685-.037-3.468m.112 1.119v.895l-.179.264-.05-.264.229-.895M.584 7.698c-.266.088-.263.379-.263.61 0 .524.006 1.002.312 1.454.57.843 1.763.875 2.634.571.219-.076.432-.173.634-.284a3.03 3.03 0 0 0 .373-.246c.586-.445.404-.765-.186-1.036-.613-.282-1.263-.462-1.902-.67-.445-.146-1.128-.555-1.602-.399m.93.572c.701.198 1.376.446 2.052.717.099.04.661.203.528.38-.13.174-.545-.09-.677-.155a33.03 33.03 0 0 0-1.94-.904l.038-.038" transform="translate(2.68 -9.17) scale(3.03874)"/></svg>