<svg xmlns="http://www.w3.org/2000/svg" xml:space="preserve" viewBox="0 0 24 24"><path fill="#28c9c9" d="m19.386 6.08 2.347-2.397-.502-.512a10.389 10.389 0 0 0-14.902 0c-3.932 4.018-4.094 10.465-.486 14.697L3.48 20.25l.501.513a10.389 10.389 0 0 0 14.902 0c3.948-4.018 4.11-10.466.502-14.682ZM7.332 4.213A8.962 8.962 0 0 1 19.661 3.7l-1.342 1.372a7.116 7.116 0 0 0-9.692.496c-2.654 2.711-2.815 7.01-.486 9.903l-1.31 1.34c-3.042-3.655-2.88-9.16.501-12.598ZM17.865 19.72a8.964 8.964 0 0 1-12.346.496l1.345-1.372a7.117 7.117 0 0 0 9.692-.496c2.653-2.712 2.815-7.01.485-9.904l1.31-1.338c3.058 3.67 2.896 9.175-.485 12.614Z"/></svg>