<svg xmlns="http://www.w3.org/2000/svg" xml:space="preserve" viewBox="0 0 24 24"><path fill="#959da5" d="M12.07.423C5.536.423.243 5.716.243 12.25c0 5.235 3.386 9.656 8.088 11.223.591.103.813-.251.813-.562 0-.281-.015-1.212-.015-2.203-2.972.547-3.74-.725-3.977-1.39-.133-.34-.71-1.39-1.213-1.67-.414-.223-1.005-.77-.014-.784.931-.015 1.597.857 1.818 1.212 1.065 1.79 2.765 1.286 3.445.976.104-.769.414-1.287.754-1.582-2.631-.296-5.382-1.316-5.382-5.84 0-1.287.459-2.352 1.213-3.18-.118-.295-.532-1.508.118-3.134 0 0 .99-.31 3.253 1.212a10.981 10.981 0 0 1 2.957-.399c1.006 0 2.011.133 2.957.4C17.32 4.99 18.31 5.316 18.31 5.316c.65 1.626.237 2.839.119 3.134.754.828 1.212 1.878 1.212 3.18 0 4.539-2.765 5.544-5.397 5.84.429.37.799 1.08.799 2.188 0 1.582-.015 2.854-.015 3.253 0 .31.222.68.813.562A11.848 11.848 0 0 0 23.9 12.25C23.9 5.716 18.606.423 12.071.423z"/></svg>