<svg xmlns="http://www.w3.org/2000/svg" xml:space="preserve" viewBox="0 0 24 24"><g fill="none"><path fill="#e24329" d="m23.579 9.691-.034-.085-3.252-8.486a.85.85 0 0 0-.844-.537.85.85 0 0 0-.782.625l-2.199 6.73H7.573l-2.199-6.73a.851.851 0 0 0-.78-.626.862.862 0 0 0-.846.538L.492 9.617.46 9.7a6.048 6.048 0 0 0 2.002 6.983l.013.009.028.022 4.96 3.713 2.452 1.857 1.491 1.13a1.009 1.009 0 0 0 1.216 0l1.49-1.13 2.454-1.857 4.99-3.735.013-.01a6.047 6.047 0 0 0 2.01-6.992z"/><path fill="#fc6d26" d="m23.579 9.691-.034-.085c-1.586.327-3.08.999-4.377 1.969l-7.142 5.412 4.554 3.44 4.99-3.734.013-.01a6.047 6.047 0 0 0 1.996-6.992z"/><path fill="#fca326" d="m7.466 20.428 2.449 1.857 1.49 1.13a1.009 1.009 0 0 0 1.216 0l1.491-1.13 2.453-1.857-4.554-3.441z"/><path fill="#fc6d26" d="M4.87 11.58A10.998 10.998 0 0 0 .492 9.612l-.033.084a6.048 6.048 0 0 0 2.002 6.988l.013.009.028.022 4.96 3.713 4.564-3.441z"/></g></svg>