<svg width="24mm" height="24mm" viewBox="0 0 24 24" xml:space="preserve" xmlns="http://www.w3.org/2000/svg"><use href="#a" x="45" y="38" transform="scale(.26458)"/><use href="#a" x="45" y="38" transform="scale(.26458)"/><use href="#a" transform="translate(11.906 10.054) scale(.26458)"/><path style="fill:#fff;fill-opacity:1;stroke:#fff;stroke-width:.0725253;stroke-opacity:1" d="M10.463 23.863a12.22 12.22 0 0 1-3.492-1.03l-.7-.326-.05-1.388c-.027-.764-.036-3.543-.02-6.176.027-4.184.046-4.844.152-5.245C6.803 8 7.98 7.065 9.665 7.065c1.355 0 2.478.668 3.009 1.79.36.762.421 1.221.429 3.224.007 1.71.018 1.867.152 2.095.22.372.485.535.935.572.496.041.848-.15 1.068-.581.143-.28.148-.385.12-2.404-.034-2.465-.089-2.803-.64-3.925-.614-1.248-1.298-1.936-2.498-2.51-.807-.387-1.312-.507-2.326-.552-.99-.044-1.718.068-2.495.383-1.743.709-2.99 2.299-3.369 4.3-.098.519-.115 1.387-.117 5.984l-.003 5.377-.668-.69c-1.09-1.128-2-2.623-2.542-4.183C-.674 11.941.123 7.64 2.869 4.341 4.569 2.299 7.02.866 9.755.314c1.173-.236 3.364-.233 4.48.006 1.029.221 1.962.539 2.77.942l.674.337v12.546l-.2.592c-.358 1.054-1.05 1.783-2.015 2.123-1.605.564-3.448-.098-4.153-1.49-.395-.781-.43-1.01-.48-3.22-.041-1.88-.059-2.092-.189-2.313-.304-.519-1.126-.686-1.642-.335-.484.328-.517.53-.475 2.88.04 2.202.088 2.58.454 3.492.783 1.953 2.455 3.207 4.616 3.462 2.595.306 4.93-1.047 5.92-3.429.467-1.126.48-1.276.456-5.533-.012-2.114.003-4.573.031-5.464l.052-1.621.469.46c2.31 2.27 3.65 5.937 3.358 9.193-.365 4.066-2.542 7.485-6.043 9.491-2.151 1.233-4.91 1.768-7.375 1.43z"/></svg>