<svg xmlns="http://www.w3.org/2000/svg" viewBox="0 0 24 24">
  <g style="fill:#000;stroke:none">
   
    
  </g>
  <path d="M11.938 2.908c-1.365-.025-1.44-.017-2.368.25-2.58.743-4.576 2.364-5.736 4.656a8.259 8.259 0 0 0-.625 1.57 9.327 9.327 0 0 0 .24 5.862c.329.875.988 2.008 1.432 2.461l.207.213.021-.3c.012-.166.034-1.665.047-3.329.033-4.117.052-4.42.326-5.213A5.006 5.006 0 0 1 6.73 7.096c.657-.637 1.315-.99 2.27-1.217.516-.123 1.423-.154 1.951-.065a4.815 4.815 0 0 1 3.508 2.59c.52 1.021.592 1.488.592 3.834v1.364l-.186.232c-.377.472-.673.65-1.088.65-.22.001-.3-.014-.464-.095-.391-.192-.624-.462-.704-.819-.02-.088-.058-.716-.088-1.392-.077-1.801-.128-2.183-.345-2.627-.166-.34-.567-.733-.912-.899-.712-.34-1.595-.362-2.229-.054-.167.081-.317.199-.55.433-.28.282-.434.371-.594.701l-.096.377v9.952l.275.136a8.177 8.177 0 0 0 2.522.762c.243.031.49.062.549.072.265.037 1.927-.01 2.265-.064 1.926-.31 3.655-1.204 5.063-2.62 1.175-1.181 1.883-2.403 2.332-4.017.21-.758.303-1.424.303-2.201 0-1.17-.226-2.547-.553-3.373-.4-1.008-1.088-2.158-1.58-2.637l-.196-.19-.017 3.518c-.01 2.171-.033 3.673-.057 3.924-.085.881-.205 1.35-.52 2.014-.264.56-.539.953-.952 1.369a4.803 4.803 0 0 1-2.631 1.344c-.451.075-1.428.055-1.846-.037-.666-.147-1.368-.447-1.79-.766-.339-.257-.872-.8-1.16-1.182-.41-.547-.698-1.238-.843-2.017-.063-.338-.076-.58-.092-1.828-.02-1.612.001-1.91.156-2.196.3-.544 1.02-.803 1.547-.545.227.111.565.406.647.563.102.198.15.652.187 1.765.062 1.834.102 2.089.399 2.592.434.738 1.202 1.126 2.117 1.069.953-.06 1.507-.407 1.955-1.225l.068-.281.135-1.612c0-.837.01-3.111.024-5.052l.023-3.53-.313-.142a11.076 11.076 0 0 0-1.609-.58c-.526-.13-.88-.16-2.265-.186Z" style="opacity:1;fill:#000;fill-opacity:1;stroke:#000;stroke-width:1.10000002;stroke-miterlimit:4;stroke-dasharray:none;stroke-opacity:1"/>
</svg>