<svg xmlns="http://www.w3.org/2000/svg" xml:space="preserve" viewBox="0 0 24 24"><title>Google</title><path fill="#4285f4" d="M12.372 10.013v4.515h6.276c-.276 1.453-1.103 2.683-2.343 3.51l3.784 2.936c2.205-2.035 3.477-5.025 3.477-8.576 0-.827-.074-1.622-.212-2.385z"/><path fill="#34a853" d="m5.837 14.352-.853.654-3.022 2.353c1.919 3.806 5.852 6.435 10.41 6.435 3.148 0 5.788-1.04 7.717-2.82l-3.784-2.937c-1.04.7-2.364 1.124-3.933 1.124-3.032 0-5.608-2.046-6.53-4.802z"/><path fill="#fbbc05" d="M1.962 6.907a11.517 11.517 0 0 0-1.25 5.226c0 1.887.455 3.657 1.25 5.226 0 .01 3.88-3.01 3.88-3.01a6.988 6.988 0 0 1-.37-2.216c0-.774.137-1.516.37-2.216z"/><path fill="#ea4335" d="M12.372 5.115c1.717 0 3.244.594 4.463 1.739l3.34-3.34C18.148 1.628 15.52.472 12.371.472 7.813.472 3.88 3.09 1.961 6.907l3.88 3.01c.922-2.756 3.498-4.802 6.53-4.802z"/></svg>