<svg xmlns="http://www.w3.org/2000/svg" xml:space="preserve" viewBox="0 0 24 24"><path fill="#fff" d="m6.975 7.222 3.448-1.964a1.896 1.896 0 0 1-.109-.606 1.7 1.7 0 0 1 1.403-1.665V0h.579v2.987a1.7 1.7 0 0 1 1.403 1.665c0 .217-.045.416-.118.606l3.457 1.964c.127-.145.28-.272.453-.38a1.7 1.7 0 0 1 2.145.38l2.588-1.493.29.506-2.589 1.494a1.685 1.685 0 0 1-1.24 2.235v4a1.685 1.685 0 0 1 1.24 2.235l2.588 1.494-.29.507-2.587-1.494a1.7 1.7 0 0 1-2.145.38 2.059 2.059 0 0 1-.453-.38c-1.15.652-2.298 1.313-3.457 1.964.073.19.118.39.118.606a1.7 1.7 0 0 1-1.403 1.666v2.986h-.58v-2.986a1.7 1.7 0 0 1-1.402-1.666c0-.217.045-.416.109-.606l-3.448-1.964c-.127.145-.28.272-.453.38a1.7 1.7 0 0 1-2.145-.38L1.79 18.2l-.29-.507 2.589-1.494a1.685 1.685 0 0 1 1.24-2.235v-4a1.685 1.685 0 0 1-1.24-2.235l-2.59-1.494.29-.506 2.588 1.493a1.7 1.7 0 0 1 2.145-.38c.172.108.326.235.453.38zm9.774 8.978a1.697 1.697 0 0 1 1.357-2.253V9.981A1.697 1.697 0 0 1 16.75 7.73l-3.457-1.973c-.317.362-.77.588-1.286.588s-.968-.226-1.285-.588L7.264 7.729a1.697 1.697 0 0 1-1.357 2.253v3.964A1.697 1.697 0 0 1 7.264 16.2l3.457 1.972a1.696 1.696 0 0 1 2.571 0z" shape-rendering="geometricPrecision" text-rendering="geometricPrecision"/></svg>