<svg xmlns="http://www.w3.org/2000/svg" xml:space="preserve" viewBox="0 0 24 24"><g fill="#0e765b"><path d="M10.873 22.763c-3.275-.495-5.983-1.86-8.13-4.096C.647 16.48-.48 11.719.338 8.487c.613-2.428 3.012-4.622 6-5.49.473-.137 1.796-.416 2.943-.621 1.146-.205 2.607-.538 3.248-.739 1.33-.417 3.062-.744 3.944-.744 1.804 0 4.089.9 5.08 2.002.629.7 1.495 2.42 1.863 3.698.947 3.288.678 7.519-.68 10.725-1.29 3.046-3.4 4.776-6.503 5.334-1.574.283-3.9.331-5.359.11z"/><path fill="#21a983" d="M21.056 6.685c-.097-.413-.72-1.012-1.055-1.012-.204 0-.233.057-.17.337.094.421.706 1.012 1.048 1.012.217 0 .244-.052.177-.337zm-5.32-1.215c.302-.273.283-.368-.095-.463-.365-.092-.907.198-.907.485 0 .253.716.237 1.002-.022zm5.39-.277c.331-.268.294-.346-.215-.448-.465-.093-1.09.35-.783.556.286.192.68.15.998-.108zm-4.007-.408c-.302-.995-.908-1.52-1.912-1.655-.56-.075-.607.084-.24.801.398.782.912 1.107 1.767 1.122.43.007.462-.015.385-.268zm2.56.107c.427-.178.89-.911.697-1.104-.206-.205-.962.047-1.283.428-.603.717-.313 1.052.587.676zm-1.135-.883c.22-.235.297-.455.297-.848 0-.725-.14-.808-.562-.336-.348.39-.452.867-.283 1.306.102.267.203.245.548-.122z"/><path fill="#fff" d="M19.82 19.774c.04-.066-.012-.284-.116-.485-.104-.2-.189-.4-.189-.443 0-.043.455-.06 1.011-.039l1.012.04.038-.458c.032-.393.002-.458-.215-.458-.139 0-.252.056-.252.123s-.138.123-.307.123c-.295 0-.306-.03-.306-.78 0-.773.002-.78.398-.892.273-.078.41-.2.438-.386.034-.242-.015-.271-.46-.271h-.499v-.981c0-.89.022-.98.238-.98.13 0 .272.054.314.122.041.067.155.122.252.122.124 0 .177-.145.177-.49 0-.475-.013-.49-.412-.49a9.17 9.17 0 0 1-1-.08l-.587-.081.067 2.838c.037 1.561.046 2.839.02 2.839s-.262-.429-.526-.953l-.479-.952.288-.335c.159-.184.346-.541.416-.794.17-.613.163-1.783-.013-2.168-.324-.712-1.236-.936-2.582-.636-.49.11-1.058.213-1.26.23-.202.017-.359.086-.348.153.15.925.286 3.176.22 3.661-.153 1.135-.433 1.358-.752.599-.137-.326-.216-1.066-.27-2.538l-.076-2.078-.92.004c-.505.002-1.484.013-2.175.024l-1.256.022v.367c0 .358.015.368.595.368h.595l.082 1.38c.044.758.115 1.916.157 2.573l.077 1.195h.919l-.067-2.574-.066-2.574h.447c.266 0 .456-.062.468-.153.01-.084.056.564.1 1.44.13 2.591.716 3.861 1.78 3.861 1.033 0 1.5-1.464 1.269-3.978-.061-.663-.096-1.218-.077-1.234.018-.015.157-.066.31-.113l.275-.085.027 2.184c.016 1.202.02 2.419.011 2.705l-.017.521h.603c.437 0 .602-.047.602-.173 0-.096-.047-.192-.104-.215-.057-.022-.139-.303-.181-.623-.063-.467-.043-.582.103-.582.1 0 .25.152.334.337.085.186.39.792.676 1.348.437.846.571 1.012.82 1.012.164 0 .332-.054.372-.12zM5.735 18.77c.048-.078-.017-.218-.146-.312-.196-.143-.238-.356-.268-1.36l-.035-1.19.445 1.226c.245.674.473 1.317.506 1.429.083.277.371.332 1.328.256.826-.067 1.08-.238.819-.553-.112-.135-.021-1.128.113-1.243.025-.021.272-.074.548-.116l.502-.077.152.679c.117.526.119.718.005.855a.416.416 0 0 0-.071.372c.06.158.178.18.596.11.286-.048.561-.15.61-.226.142-.217.11-.444-.062-.444-.16 0-.323-.568-.832-2.881a57.783 57.783 0 0 0-.443-1.877c-.167-.627-.187-.65-.562-.613-.388.038-.388.039-.61 1.203l-.464 2.414c-.133.688-.242 1.364-.242 1.502 0 .146-.08.252-.191.252-.168 0-.185-.29-.14-2.421.027-1.332.092-2.573.143-2.758.087-.312.067-.338-.258-.336-.877.004-.844-.081-.812 2.12l.028 1.985-.285-.858a54.016 54.016 0 0 1-.532-1.716c-.233-.808-.27-.86-.628-.896-.523-.053-.556.14-.488 2.868.054 2.16.047 2.257-.178 2.257-.322 0-.203.28.163.382.487.137 1.196.118 1.29-.033zm3.56-6.478c.2 0 .184-.156-.213-2.023a382.29 382.29 0 0 1-.41-1.961c-.579-2.844-.551-2.758-.877-2.758-.355 0-.362.016-.593 1.287-.211 1.155-.617 3.31-.781 4.142-.112.568-.105.592.23.765.41.212.428.189.543-.661l.089-.657.503.08c.276.045.519.097.538.117.02.02.094.361.164.76.173.984.21 1.068.434.983a1.24 1.24 0 0 1 .372-.074zm-4.368-.603c0-.13-.05-.253-.112-.276-.062-.022-.152-.496-.2-1.052L4.528 9.35h.89v1.211c0 1.15.013 1.215.273 1.283.15.04.312.032.36-.016.047-.048.103-1.536.124-3.306l.04-3.217h-.522c-.439 0-.52.038-.52.245 0 .135.056.245.126.245.081 0 .114.47.092 1.318L5.357 8.43l-.398.039-.399.038v-3.34l-.337.039-.337.038-.033 3.096c-.028 2.638-.06 3.095-.214 3.095-.1 0-.182.11-.182.245 0 .218.082.245.736.245.643 0 .735-.03.735-.235zm6.62.004c0-.128-.11-.26-.246-.295-.218-.057-.245-.167-.245-.991V9.48l.614-.264c1.09-.469 1.751-1.526 1.476-2.36-.285-.863-1.185-1.305-2.657-1.305h-.904v.368c0 .286.055.367.245.367.223 0 .245.082.247.889 0 .489.035 1.095.077 1.348.062.375.039.46-.124.46-.131 0-.2.105-.2.307 0 .19.07.306.184.306.147 0 .184.184.184.92 0 .53-.052.919-.123.919-.067 0-.122.11-.122.245 0 .22.081.245.797.245.698 0 .796-.028.796-.231zm3.186-.014c0-.135-.075-.245-.167-.245-.172 0-.32-.593-.322-1.293 0-.335.052-.387.52-.516.807-.223 1.308-.595 1.567-1.166.5-1.101.212-1.869-.907-2.42-.415-.204-1.043-.405-1.397-.447l-.642-.076V7.31c0 1.713-.011 1.795-.245 1.795-.135 0-.245.078-.245.173 0 .308.144.562.32.562.128 0 .17.197.17.797 0 .45-.053.797-.123.797-.067 0-.122.11-.122.245 0 .22.081.245.797.245.715 0 .796-.025.796-.245zm4.046-.061c0-.191-.07-.307-.184-.307-.287 0-.239-.878.07-1.27.23-.294.22-.38-.04-.338-.179.028-.086-.46.347-1.839.648-2.06.675-2.195.457-2.279-.241-.093-.308.029-.842 1.528-.402 1.126-.468 1.24-.616 1.045-.09-.12-.167-.395-.17-.612-.002-.3-.048-.378-.186-.325-.11.042-.22-.02-.276-.157-.28-.688-.947-1.76-1.094-1.76-.336 0-.285.335.215 1.416 1.349 2.912 1.245 2.584 1.152 3.636-.062.695-.131.955-.256.955-.1 0-.17.126-.17.307 0 .295.028.306.796.306s.797-.011.797-.306z"/><path d="M17.309 15.188c0-.62.031-.689.513-1.125l.514-.464.112.334c.173.518-.003 1.135-.44 1.545-.572.537-.7.484-.7-.29zm-8.535.276c.042-.21.08-.527.084-.704.007-.286.019-.294.105-.077.054.135.136.452.182.705.076.416.059.46-.182.46-.232 0-.256-.049-.19-.384zM7.654 9.25c-.121-.077-.123-.247-.008-.821l.146-.724.156.67c.086.369.159.74.162.824.006.172-.224.198-.455.051Zm3.403-1.798c0-.854.045-1.287.135-1.287.074 0 .314.085.534.19.682.323.88 1.116.423 1.696-.222.283-.826.688-1.025.688-.037 0-.067-.58-.067-1.287zm3.187.122c0-.708.03-1.287.065-1.287.216 0 .92.384 1.143.623.285.305.35.947.137 1.345-.15.28-.74.606-1.094.606-.237 0-.251-.07-.251-1.287zm8.234 11.617c.225-.411.428-.727.453-.703.074.074-.474 1.13-.673 1.296-.103.085-.003-.182.22-.593zM.884 5.58C.882 5.325 2.5 3.767 3.09 3.457c.881-.462 1.86-.847 2.136-.841.145.003.025.086-.282.193-1.24.435-3.068 1.671-3.75 2.538-.17.214-.308.32-.309.235z"/></g></svg>