<svg xmlns="http://www.w3.org/2000/svg" xml:space="preserve" viewBox="0 0 24 24"><path fill="#fff" fill-rule="evenodd" d="M0 0h24v24H0z"/><path fill="#0e533e" d="M2.69 14.385c-.12.32.593.624.824.765a17.98 17.98 0 0 0 3.099 1.52c3.803 1.406 7.978 1.2 11.67-.444.853-.38 1.699-.834 2.473-1.358.155-.105.704-.37.704-.579 0-.12-.148-.07-.21-.043-.244.105-.486.229-.725.345-1.017.494-2.087.848-3.165 1.18-3.464 1.064-7.265.995-10.747.073a21.09 21.09 0 0 1-2.637-.9c-.425-.175-.846-.432-1.286-.56zm19.12-4.601c-.96.104-1.396 1.04-1.754 1.831-.194.428-.32 1.006-.016 1.417.434.586 1.46.52 2.1.457.426-.042.91-.176 1.155-.555.223-.347.191-.827.14-1.22-.118-.908-.499-2.052-1.625-1.93m-3.725-.061c-.965.042-1.205 1.336-1.358 2.09a3.823 3.823 0 0 0-.092.66c-.011.463.048 1.11.66 1.11.31 0 .548-.204.656-.484.154-.4.107-.867.182-1.286.096-.529.352-1.053.408-1.582.032-.3-.141-.521-.456-.508"/><path fill="#0e533e" d="M14.063 13.462c.689.087 1.748.047 2.211-.562.512-.673-.015-1.873-.374-2.504-.143-.252-.334-.511-.617-.614-.841-.305-1.624.219-1.95.976-.444 1.036-.607 2.18-.656 3.297-.021.49-.058 1.045.12 1.516.171.46.77.593 1.089.198.222-.276.198-.657.174-.989a8.766 8.766 0 0 1 .003-1.318m-3.791 0c.68.085 1.766.052 2.216-.561.502-.684-.005-1.862-.365-2.505-.14-.25-.354-.52-.631-.622-.844-.311-1.615.24-1.94.984-.468 1.073-.664 2.33-.664 3.495 0 .406-.03.862.102 1.253.171.504.784.692 1.132.23.225-.298.172-.676.147-1.022-.03-.424-.015-.829.003-1.252M7.206 9.718c-1.04.124-1.605 1.091-1.905 2.03-.139.433-.236.931.077 1.317.4.493 1.321.481 1.894.424.14-.014.281-.086.42-.087.196-.002.35.146.57.12a.61.61 0 0 0 .521-.456c.09-.298.086-.617.14-.923.076-.43.206-.841.349-1.253.09-.261.315-.644.17-.922-.135-.26-.588-.248-.818-.138-.098.046-.218.174-.33.17-.114-.004-.225-.138-.33-.182a1.65 1.65 0 0 0-.758-.1m15.989-.905h-.165l.033-.132.132.132m-4.912-.576c-.576.138-1.075 1.39-.198 1.432a1.18 1.18 0 0 0 .33-.028c.395-.097.939-.894.612-1.285-.153-.183-.53-.17-.744-.119m2.176-.43c-.52.098-.83.66-1.022 1.105-.456 1.056-.952 2.126-1.167 3.264-.126.671-.038 1.505.87 1.34.533-.096.492-1.115.598-1.538.219-.872.558-1.735.96-2.538.176-.352.604-.858.613-1.253.011-.433-.547-.438-.852-.38"/><path fill="#fff" d="M22.008 10.725c.204.438.25 1.124.08 1.583-.095.257-.416.494-.703.375-.208-.086-.106-.38-.064-.54.123-.467.309-1.093.687-1.418m-10.945 0c.092.239.157.474.205.726.056.298.09.76-.1 1.018-.111.15-.395.268-.552.119-.124-.119-.076-.329-.056-.478.048-.374.134-1.193.503-1.385m3.759-.033c.204.438.352 1.035.24 1.517-.056.245-.284.522-.57.429-.21-.069-.177-.353-.155-.528.053-.434.163-1.1.485-1.418m-7.451 0c.223.426.242 1.1.076 1.55-.1.27-.418.521-.722.376-.188-.09-.083-.397-.04-.541.134-.435.327-1.087.686-1.385"/><path fill="#0e533e" d="m3.745 10.396-1.022.066c.078-.534.264-1.078.45-1.583.112-.301.372-.693.26-1.022-.21-.609-1.073-.149-1.312.165-.899 1.182-1.18 2.849-1.353 4.286-.07.594-.15 1.466.636 1.6.977.165.943-1.044 1.017-1.666.017-.144.005-.36.082-.485.135-.221.742-.224.978-.24-.063.5-.227 1.133-.013 1.615.253.571 1.044.583 1.365.066.287-.462.19-1.252.278-1.78.13-.775.285-1.558.524-2.308.134-.42.418-.915.447-1.352.048-.703-.897-.517-1.207-.18-.26.283-.402.656-.55 1.005-.24.559-.53 1.2-.58 1.813"/></svg>