<svg xmlns="http://www.w3.org/2000/svg" xml:space="preserve" viewBox="0 0 24 24"><title>Himalaya Wellness</title><path fill="#04646c" d="M7.566 18.178c-1.746.45-2.693.771-4.004 1.363l-.508.229v3.643h5.73V20.64c0-1.527-.005-2.773-.011-2.771l-1.207.31m13.129-5.002c-1.26 1.15-2.513 1.88-4.725 2.752l-.733.288v3.598l-.001 3.598h5.73V18.18c0-2.879-.005-5.233-.012-5.232a5.097 5.097 0 0 0-.26.229M15.236 3.156c0 1.365.011 2.481.024 2.481.07 0 1.583-.393 2.254-.586a20.41 20.41 0 0 0 3.102-1.145l.35-.161V.675h-5.73v2.481M3.054 5.668v4.993l.35-.337c1.1-1.059 2.746-2.012 4.703-2.726l.655-.238.011-3.343.012-3.342H3.054v4.993"/><path fill="#f47c24" d="M23.555 5.953c-.875 1.285-1.81 2.135-3.672 3.338-1.415.914-3.763 1.805-8.97 3.406-4.582 1.409-6.87 2.547-8.592 4.274-.91.913-1.87 2.549-2.044 3.482l-.032.175.378-.327c1.369-1.184 3.165-2.129 5.319-2.796.706-.219 2.192-.596 5.436-1.38 6.776-1.635 10.25-3.974 11.796-7.938.077-.199.16-.402.183-.452.15-.313.474-1.801.442-2.021-.011-.08-.059-.033-.244.24"/><path fill="#f47c24" d="M23.481 3.153c-2.125 1.82-4.234 2.703-9.148 3.834-4.245.977-5.982 1.532-7.94 2.538-3.53 1.813-5.838 4.865-6.2 8.204l-.028.248.102-.132c.057-.073.253-.334.436-.58 1.15-1.542 2.752-2.76 5.002-3.8 1.547-.715 2.412-1.02 6.463-2.281 1.526-.475 2.795-.878 2.82-.897.025-.018.299-.12.609-.227 4.537-1.562 7.2-3.83 8.148-6.938.074-.242.053-.24-.264.03"/></svg>