<svg xmlns="http://www.w3.org/2000/svg" xml:space="preserve" viewBox="0 0 24 24"><g fill-rule="evenodd"><path fill="#ffdc00" d="M23.928 21.418a2.484 2.484 0 0 1-2.484 2.482H2.611a2.484 2.484 0 0 1-2.483-2.484V2.583A2.485 2.485 0 0 1 2.61.1h18.833a2.484 2.484 0 0 1 2.484 2.483z"/><path fill="#7323dc" d="m12.029 6.979-8 7.996 1.861 1.859c.236.235.545.265.806.006.214-.214 4.97-5.044 4.97-5.044.254-.276.342-.477.361-.553.02.076.11.277.364.553 0 0 4.756 4.83 4.97 5.044.26.259.57.23.804-.006l1.86-1.86z"/></g></svg>