<svg version="1.2" xmlns="http://www.w3.org/2000/svg" viewBox="0 0 24 24"><title>ICICI Bank</title><path d="M7.2 5.2c5.5-5.4 12.1-6.8 14.7-3.1 2.6 3.6.3 11.1-5.1 16.5-5.5 5.4-12.1 6.8-14.7 3.1C-.5 18 1.8 10.6 7.2 5.2z" style="fill:#f06321"/><path d="M10.8 2.3Q9.9 3 9 3.8C4.3 8.5 2.3 15 4.6 18.2c2.5 3.3 8.3 2.1 13.2-2.7 2.6-2.5 4.4-5.5 5.1-8.2.2-2.1-.1-3.9-1-5.2-2.1-2.9-6.6-2.7-11.1.2z" style="fill:#ae282e"/><path d="M17.7 2.9V3c0 .7-.4 1.5-1.2 2.2-1 1.1-2.5 1.5-3.1.9-.7-.6-.3-2 .8-3.2 1.1-1 2.6-1.4 3.2-.8q.3.3.3.8zm-4.2 18.3c-2.5 2-5.2 2.9-7.7 2.5 1.1.1 1.9-1.1 2.7-2.7.7-1.7 1.1-3.2 1.4-4.6.6-2.3.6-3.9.3-4.3-.4-.5-1.4-.4-2.5.2-.6.3-1.3.1-.4-.9.8-1 4.2-3.5 5.4-3.9 1.4-.4 2.9.2 2.4 1.6-.4 1.1-5.1 13.4-1.6 12.1z" style="fill:#fff"/></svg>