<svg xmlns="http://www.w3.org/2000/svg" viewBox="0 0 24 24"><title>IDBI Bank</title><path fill="#00836c" d="m-.136 21.922 24.226.05.1-20.572H-.034z"/><path fill="#fff" d="M22.14 11.685c0 5.67-4.599 10.264-10.275 10.264-5.672 0-10.272-4.595-10.272-10.264 0-5.665 4.6-10.262 10.272-10.262 5.676 0 10.274 4.597 10.274 10.262"/><path fill="#f58220" d="M11.79 19.366a5.116 5.116 0 0 0 2.754-.782c.494-.286.935-.67 1.296-1.11.24-.258.413-.562.598-.86.307-.594.534-1.236.596-1.906a5.514 5.514 0 0 0-.199-2.232 5.55 5.55 0 0 0-.726-1.538c-.436-.643-.999-1.21-1.672-1.601-.151-.095-.281-.19-.435-.283-.225-.156-.59-.352-.857-.143-.272.267-.259.688-.282 1.047-.002 2.54-.014 5.081-.009 7.623-.016.213.05.472-.168.596a2.05 2.05 0 0 1-.746.269c-.217.062-.422-.032-.634-.072-.18-.063-.378-.14-.51-.267-.191-.168-.076-.466-.108-.703-.003-2.599.007-5.198-.005-7.797-.038-.28-.068-.62-.33-.787a.443.443 0 0 0-.378-.001c-.296.086-.548.336-.798.485a4.915 4.915 0 0 0-1.178.953c-.3.303-.537.658-.756 1.022a5.804 5.804 0 0 0-.66 1.824 5.36 5.36 0 0 0-.027 1.8 5.35 5.35 0 0 0 1.106 2.495c.566.72 1.343 1.248 2.182 1.606.621.23 1.281.37 1.947.362zm.02-11.904c.072-.003.146.008.214-.01.044-.002.083-.035.129-.027.03-.024.063-.048.1-.05.035-.02.09-.013.107-.06.038-.013.069-.035.104-.054.033-.016.057-.05.088-.072.049-.021.065-.076.111-.1.024-.03.045-.06.075-.086.03-.044.06-.086.078-.137.03-.023.036-.065.056-.097.017-.035.038-.066.046-.104a.187.187 0 0 0 .025-.104c.018-.045.005-.098.037-.14-.002-.104.005-.212-.003-.315-.034-.043-.017-.1-.034-.15a.221.221 0 0 0-.034-.103c-.026-.102-.093-.186-.14-.278-.023-.03-.035-.062-.07-.083-.031-.045-.08-.076-.105-.126-.047-.002-.07-.05-.106-.073-.025-.026-.064-.037-.091-.059-.034-.013-.05-.048-.092-.047-.058-.025-.115-.061-.18-.073-.036-.017-.065-.041-.108-.03-.046-.002-.092-.012-.138-.012-.08-.01-.162.001-.241.005-.049.018-.107-.01-.15.028-.05.025-.108.028-.157.057-.032.024-.076.022-.1.055-.043.008-.073.044-.114.058-.034.028-.07.06-.101.088-.044-.005-.051.05-.082.073-.033.023-.04.062-.07.085a.794.794 0 0 0-.142.22c-.006.04-.04.061-.042.102a.454.454 0 0 0-.042.109c-.01.04.002.087-.028.123.005.096-.019.192 0 .286-.001.051-.004.102.022.148a.334.334 0 0 0 .048.174c-.004.044.035.06.04.098.015.033.024.068.047.097.02.067.077.107.118.16.026.023.034.065.07.081.026.028.045.061.083.075.023.036.07.044.096.079.04.036.104.03.136.079.029.02.073.016.1.033.028.016.066.025.097.04.044.003.08.034.125.027.069.021.146.004.219.01z"/><path fill="#f58220" d="M14.392 5.332c.133-.291.483-.514.78-.292.59.376 1.037.945 1.547 1.421.666.646 1.272 1.368 1.688 2.202a6.58 6.58 0 0 1 .719 2.753c.1.968-.062 1.96-.35 2.886-.595 1.74-1.821 3.281-3.448 4.162-2.25 1.27-5.164 1.185-7.36-.161-2.089-1.246-3.444-3.595-3.55-6.016-.057-1.112.12-2.237.567-3.262C5.417 8 6.137 7.122 6.94 6.36c.456-.458.877-.962 1.417-1.316.23-.176.598-.143.72.135.272.429.459.961.444 1.483-.068.86-.821 1.387-1.422 1.898-.713.586-1.21 1.385-1.623 2.203a5.64 5.64 0 0 0-.54 2.567c.005 1.917.952 3.817 2.504 4.952 1.019.713 2.252 1.124 3.502 1.083 1.71-.021 3.347-.907 4.376-2.254a6.28 6.28 0 0 0 1.292-4.216c-.04-.915-.326-1.803-.752-2.597a6.445 6.445 0 0 0-1.567-1.871c-.472-.44-1.05-.853-1.202-1.512-.114-.543.072-1.097.303-1.584z"/></svg>