<svg xmlns="http://www.w3.org/2000/svg" xml:space="preserve" viewBox="0 0 24 24"><path fill="#15a794" fill-rule="evenodd" d="M.073.058h23.853v23.868H.073z"/><g fill="#fff"><path d="M11.098.138c-.137.01-.33.035-.43.048-.098.016-.24.026-.317.026-.077 0-.153.013-.172.032a.427.427 0 0 1-.169.05C9.678.342 8.933.516 8.788.58a2.57 2.57 0 0 1-.357.098.861.861 0 0 0-.15.053c-.048.02-.127.052-.172.074a3.443 3.443 0 0 1-.232.084 2.94 2.94 0 0 0-.283.108.935.935 0 0 1-.155.061 2.12 2.12 0 0 0-.301.135L6.9 1.31a6.158 6.158 0 0 0-.317.16.859.859 0 0 0-.127.08l-.084.063v20.43l.087.06c.116.083.182.125.23.143.132.05.42.198.435.222.008.013.035.026.056.026.04 0 .132.04.422.175a.75.75 0 0 0 .172.063.18.18 0 0 1 .087.04.21.21 0 0 0 .1.04.53.53 0 0 1 .146.042c.219.092.264.11.404.15.377.108.52.148.594.174.044.013.15.04.237.056l.343.071c.103.021.246.045.317.055a.67.67 0 0 1 .172.045c.021.014.14.035.264.048.124.01.338.032.475.045.518.055 1.484.06 2.112.013.945-.074 1.011-.082 1.09-.114a.455.455 0 0 1 .156-.031c.045 0 .135-.019.204-.037a3.47 3.47 0 0 1 .583-.122.244.244 0 0 0 .116-.04.247.247 0 0 1 .124-.039c.04 0 .106-.018.146-.04a.4.4 0 0 1 .145-.04c.037 0 .09-.018.119-.039a.25.25 0 0 1 .13-.04.242.242 0 0 0 .128-.039.212.212 0 0 1 .098-.04c.027 0 .08-.015.122-.036.147-.074.274-.122.319-.122.026 0 .058-.01.071-.024.016-.013.103-.055.198-.095.095-.04.304-.134.465-.214a3.59 3.59 0 0 1 .312-.142.9.9 0 0 0 .155-.087c.198-.124.251-.15.296-.15.021 0 .04-.009.04-.022 0-.01.055-.05.126-.092.193-.111.222-.132.325-.212a.57.57 0 0 1 .111-.07c.008 0 .095-.056.195-.125.098-.069.217-.148.262-.18a2.73 2.73 0 0 0 .2-.153.938.938 0 0 1 .135-.097c.01 0 .056-.035.103-.077l.222-.198a.91.91 0 0 1 .153-.121c.018 0 .81-.769.924-.895.032-.035.077-.085.103-.111.024-.027.045-.06.045-.077 0-.013.01-.026.026-.026a.574.574 0 0 0 .132-.137 6.09 6.09 0 0 1 .198-.246c.111-.13.515-.665.515-.684a.82.82 0 0 1 .08-.127c.044-.063.1-.142.123-.18l.156-.24a5.55 5.55 0 0 0 .314-.538c.037-.074.077-.15.09-.172l.145-.29a2.51 2.51 0 0 0 .08-.172c.026-.058.081-.174.124-.256a.802.802 0 0 0 .076-.195c0-.04.108-.293.198-.467a.378.378 0 0 0 .04-.138c0-.037.016-.103.037-.15.018-.048.058-.159.082-.246.026-.087.063-.182.079-.21a.45.45 0 0 0 .045-.16c.008-.057.04-.213.074-.343.031-.132.063-.285.07-.343a.486.486 0 0 1 .051-.158.48.48 0 0 0 .037-.217c0-.09.01-.169.024-.177.01-.007.029-.124.04-.258.007-.135.034-.36.058-.497.06-.361.06-1.911 0-2.27a5.399 5.399 0 0 1-.059-.497 1.042 1.042 0 0 0-.04-.258c-.012-.008-.023-.087-.023-.177a.48.48 0 0 0-.037-.217.486.486 0 0 1-.05-.158 4.554 4.554 0 0 0-.071-.343 10.336 10.336 0 0 1-.08-.344 5.861 5.861 0 0 0-.2-.615.448.448 0 0 1-.037-.148.823.823 0 0 0-.08-.216 2.115 2.115 0 0 1-.134-.335 1.429 1.429 0 0 0-.119-.272.387.387 0 0 1-.063-.127.211.211 0 0 0-.04-.085.209.209 0 0 1-.04-.108c0-.031-.013-.066-.026-.074a1.646 1.646 0 0 1-.158-.29 1.869 1.869 0 0 0-.156-.288.66.66 0 0 1-.084-.142 3.789 3.789 0 0 0-.167-.296 7.497 7.497 0 0 1-.134-.217 13.796 13.796 0 0 0-.835-1.13 1.34 1.34 0 0 0-.15-.18 1.094 1.094 0 0 1-.111-.126.275.275 0 0 0-.045-.058 1.521 1.521 0 0 1-.103-.114 23.072 23.072 0 0 0-.924-.895.91.91 0 0 1-.153-.121 14.924 14.924 0 0 0-.214-.195.948.948 0 0 0-.172-.12.378.378 0 0 1-.113-.081 1.377 1.377 0 0 0-.238-.182c-.119-.08-.303-.204-.409-.277a1.319 1.319 0 0 0-.22-.132.634.634 0 0 1-.147-.093 2.235 2.235 0 0 0-.283-.174 3.189 3.189 0 0 1-.24-.132 1.305 1.305 0 0 0-.145-.077 2.131 2.131 0 0 1-.238-.108 5.433 5.433 0 0 0-.472-.222 1.207 1.207 0 0 1-.182-.082.678.678 0 0 0-.148-.063c-.035 0-.328-.119-.351-.143a.161.161 0 0 0-.074-.015.217.217 0 0 1-.109-.04.219.219 0 0 0-.116-.04.316.316 0 0 1-.132-.04.36.36 0 0 0-.132-.039.388.388 0 0 1-.142-.04.374.374 0 0 0-.146-.039.247.247 0 0 1-.124-.04.244.244 0 0 0-.116-.04c-.084 0-.425-.07-.583-.12A1.015 1.015 0 0 0 14.27.29a.455.455 0 0 1-.155-.031c-.077-.032-.18-.043-1.051-.111-.56-.042-1.547-.05-1.967-.01zm2.772 1.806c.124.024.264.058.312.08a.516.516 0 0 0 .174.036c.047 0 .14.019.2.04.061.021.148.04.19.04.046 0 .117.015.162.037.171.079.29.121.335.121.048 0 .449.14.536.187.024.014.121.053.211.088.264.097.74.324 1.009.477.087.05.18.098.206.109.023.008.045.026.045.04 0 .01.052.044.118.073.064.03.172.095.24.145a.643.643 0 0 0 .149.095c.01 0 .087.05.166.111.079.064.23.18.335.26.354.271.684.556.966.844.386.39.473.486.576.62.053.072.14.177.193.233.05.055.14.169.198.25.055.082.11.156.121.164.01.008.05.069.09.138.04.07.084.126.098.126.013 0 .023.013.023.027 0 .016.037.076.08.137a.41.41 0 0 1 .079.143c0 .018.01.036.021.042.029.01.216.332.216.367 0 .016.03.066.064.11.034.048.124.214.2.376.074.158.154.322.175.361a.29.29 0 0 1 .037.109c0 .02.026.09.06.153.077.145.177.422.177.488a.2.2 0 0 0 .04.1c.021.03.04.074.04.098 0 .026.015.08.036.122.037.073.167.565.198.76a.52.52 0 0 0 .037.135c.03.047.1.565.125.884.01.169.031.33.047.356.034.066.034 1.54 0 1.606a2.09 2.09 0 0 0-.05.37c-.024.332-.082.75-.127.894-.053.18-.158.629-.18.763-.007.056-.031.114-.05.13a.106.106 0 0 0-.036.074.363.363 0 0 1-.04.118.334.334 0 0 0-.04.117c0 .055-.105.34-.177.478a.516.516 0 0 0-.06.176c0 .035-.01.064-.027.064-.013 0-.037.045-.053.097a.924.924 0 0 1-.079.18.733.733 0 0 0-.066.119c-.047.119-.38.744-.427.797a.938.938 0 0 0-.095.148c-.109.19-.727 1.038-.837 1.14a.61.61 0 0 0-.095.111c-.014.024-.198.22-.412.436-.386.39-.671.647-.996.892a25.83 25.83 0 0 0-.496.383.111.111 0 0 1-.058.027.635.635 0 0 0-.15.095 1.519 1.519 0 0 1-.24.148c-.064.026-.114.058-.114.068 0 .021-.032.04-.227.135a3.203 3.203 0 0 0-.17.084c-.158.093-.4.209-.432.209-.022 0-.043.01-.048.024-.008.023-.74.335-.853.364-.029.008-.09.03-.137.05a.397.397 0 0 1-.137.037.441.441 0 0 0-.14.037l-.185.08a.49.49 0 0 1-.158.042.64.64 0 0 0-.154.029c-.05.015-.158.037-.237.05-.08.01-.18.031-.225.047-.124.045-.507.109-.752.127-.174.013-.232.008-.256-.018-.037-.045-.06-19.791-.024-19.85.03-.044.407-.023.755.04zm-3.754.27a.43.43 0 0 1 .169.052.144.144 0 0 0 .092.032c.066 0 .246.084.367.177a.33.33 0 0 0 .106.06c.02 0 .25.222.409.4.055.06.121.174.166.287.008.021.027.058.037.08.061.105.082.16.124.319.08.298.045.895-.06 1.093-.066.13-.19.412-.19.435a.027.027 0 0 1-.027.027c-.013 0-.055.045-.092.1a1.977 1.977 0 0 1-.47.415 7.616 7.616 0 0 0-.143.074c-.169.092-.32.147-.43.158a3.791 3.791 0 0 0-.275.047.696.696 0 0 1-.33 0l-.293-.055c-.169-.029-.28-.071-.486-.193-.163-.097-.464-.34-.488-.398a1.005 1.005 0 0 0-.092-.12 1.044 1.044 0 0 1-.125-.187l-.11-.237a1.656 1.656 0 0 1-.135-.637c-.01-.285.071-.689.158-.792a.143.143 0 0 0 .037-.087c0-.113.404-.612.565-.694a.41.41 0 0 0 .109-.077c.06-.076.459-.243.652-.272a.459.459 0 0 0 .145-.04c.024-.023.401-.004.61.032zm1.19 4.987.056.047v7.221c.003 3.971.003 7.234 0 7.253 0 .063-.08.116-.132.087a.42.42 0 0 0-.164-.026c-.182 0-.673-.072-.903-.132a1.752 1.752 0 0 0-.32-.053c-.057 0-.118-.01-.134-.024a.45.45 0 0 0-.156-.05 2.18 2.18 0 0 1-.277-.085 1.794 1.794 0 0 0-.211-.07 2.276 2.276 0 0 1-.488-.167 3.408 3.408 0 0 0-.275-.108.419.419 0 0 1-.15-.072c-.043-.04-.043-.203-.048-8.937-.003-3.308.005-4.86.024-4.876.055-.043.16-.048 1.626-.05 1.389-.003 1.5 0 1.553.042z"/><path d="M16.405 7.335v8.996l.124-.008c.245-.016.718-.307 1.048-.65.246-.253.573-.726.705-1.019.024-.05.076-.164.119-.25a2.62 2.62 0 0 0 .169-.49c.013-.05.05-.163.082-.25.06-.166.097-.356.174-.871.058-.394.066-1.487.013-1.848-.08-.56-.148-.882-.22-1.056a2.87 2.87 0 0 1-.129-.402c0-.02-.036-.116-.081-.214-.048-.097-.103-.219-.127-.269a4.998 4.998 0 0 0-.7-1.024A3.249 3.249 0 0 0 17 7.526l-.214-.117c-.106-.058-.38-.11-.38-.074zm4.477-5.172c-.026.043.008.135.053.135.048 0 .048-.055.003-.119-.026-.032-.042-.04-.056-.016zM4.453 3.182c0 .059.005.08.01.045a.354.354 0 0 0 0-.105c-.008-.024-.013.002-.01.06zm.918 17.154c.003.018.014.063.024.1.019.058.021.056.024-.034.003-.053-.008-.098-.024-.098-.013 0-.026.016-.024.032zm-.921.127c0 .05.005.07.013.044a.271.271 0 0 0 0-.092c-.008-.024-.013-.003-.013.048zm.813.303c-.034.037-.05.066-.034.066.031 0 .127-.1.108-.119-.005-.008-.04.016-.074.053zM17.344 1.672c.005.018.026.04.045.045.02.007.031-.003.024-.024a.075.075 0 0 0-.045-.045c-.021-.008-.032.003-.024.024z"/><path d="M17.12 15.68c-.032.03-.022.061.02.061a.04.04 0 0 0 .04-.04c0-.042-.031-.052-.06-.02zm3.27-14.462c-.29.1-.517.42-.517.726 0 .079.013.153.027.16.015.009.026.046.026.08s.053.127.121.211a.694.694 0 0 0 .595.277.717.717 0 0 0 .712-.515c.074-.224.061-.398-.052-.588-.201-.34-.547-.476-.911-.351zm.494.153a.808.808 0 0 1 .288.269c.042.069.056.127.053.27-.008.393-.217.61-.586.614a.591.591 0 0 1-.433-.166c-.15-.13-.211-.49-.116-.689a.778.778 0 0 1 .298-.3c.11-.059.39-.056.496.002z"/><path d="M20.362 1.505a3.64 3.64 0 0 0-.014.433v.42l.088-.008.084-.008v-.158c0-.15.003-.159.071-.166.08-.011.153.073.153.174 0 .105.048.163.132.163.059 0 .08-.013.08-.047a.658.658 0 0 0-.1-.275c-.046-.044-.04-.068.034-.158.076-.09.082-.169.018-.248-.09-.111-.174-.143-.356-.14a.79.79 0 0 0-.19.018zm.367.153c.05.048.05.064.015.156-.023.061-.04.069-.124.061-.092-.008-.1-.016-.108-.095-.005-.048.005-.106.024-.127.04-.05.142-.047.193.005zM4.613 2.728a.548.548 0 0 0-.195.826c.134.177.266.238.493.22.174-.011.185-.017.312-.14a.622.622 0 0 0 .156-.222.678.678 0 0 0-.014-.407.832.832 0 0 0-.311-.301.652.652 0 0 0-.441.024zm.401.126c.103.04.214.206.227.346.021.225-.119.396-.34.418a.38.38 0 0 1-.415-.238c-.06-.132-.06-.137-.016-.254a.617.617 0 0 1 .14-.208c.08-.071.116-.087.22-.087.068 0 .15.01.184.023zM3.079 4.093c-.087.037-.256.266-.275.37-.029.179.066.324.402.607.293.248.396.306.551.306.14.003.146 0 .288-.15.143-.148.145-.156.145-.304 0-.143-.007-.161-.121-.29-.066-.075-.137-.138-.158-.138-.019 0-.053.034-.077.08-.024.042-.053.078-.066.078-.063 0-.021.125.069.193.108.09.11.159.005.238l-.071.053-.085-.082a.352.352 0 0 0-.108-.085.874.874 0 0 1-.164-.126 13.678 13.678 0 0 0-.237-.206c-.12-.103-.132-.22-.03-.275.061-.032.077-.029.146.021.1.074.121.074.214-.018.103-.106.097-.161-.03-.235a.571.571 0 0 0-.398-.037zm-.813 1.024a.36.36 0 0 0-.056.13c0 .018.053.068.12.11.065.04.187.122.271.18.082.06.203.14.27.177.065.037.147.1.182.137a.3.3 0 0 0 .084.069c.01 0 .06.034.108.079.048.042.1.08.116.08.035 0 .196-.19.196-.23 0-.035-.1-.125-.19-.17a7.098 7.098 0 0 1-.51-.335 4.787 4.787 0 0 0-.171-.124 4.186 4.186 0 0 1-.201-.148c-.085-.076-.156-.063-.22.045zm-.314.507a.61.61 0 0 0-.1.164.395.395 0 0 1-.083.14.075.075 0 0 0-.034.058.811.811 0 0 1-.108.198c-.058.087-.103.18-.098.203.005.026.045.066.09.092.071.043.084.043.137.006a.143.143 0 0 0 .058-.1c0-.035.027-.08.061-.104.053-.034.066-.031.164.035.163.113.332.219.449.277.058.03.174.1.258.156.145.095.156.1.2.055a.22.22 0 0 0 .067-.108c.01-.034.029-.063.042-.063.016 0 .027-.016.027-.035 0-.02-.082-.079-.183-.132a6.56 6.56 0 0 1-.285-.155 6.14 6.14 0 0 0-.404-.222c-.163-.064-.185-.116-.097-.23.092-.121.09-.15-.022-.222-.084-.053-.095-.055-.14-.013zM1.278 6.81c-.01.007-.018.04-.018.066a.203.203 0 0 1-.032.097c-.047.08-.01.124.156.172.422.13.615.208.615.253 0 .066-.25.056-.718-.029-.188-.037-.259-.016-.259.08a.186.186 0 0 1-.04.092c-.063.082-.047.11.088.158l.203.082.158.066c.109.045.214.09.36.156a.58.58 0 0 0 .163.055c.024 0 .05.014.058.027a.761.761 0 0 0 .246.132c.04 0 .148-.227.13-.272-.009-.021-.085-.06-.17-.085a.825.825 0 0 1-.18-.066.403.403 0 0 0-.126-.034.632.632 0 0 1-.195-.074c-.088-.055-.09-.06-.048-.095.05-.034.24-.029.449.018.058.014.166.03.24.04.124.013.135.008.19-.066a.454.454 0 0 0 .074-.158c.016-.069.008-.082-.071-.116-.404-.175-.86-.36-.885-.36-.015 0-.044-.018-.063-.04a.12.12 0 0 0-.08-.039.12.12 0 0 1-.078-.04c-.035-.039-.135-.052-.167-.02zm-.53 1.346a1.885 1.885 0 0 0-.032.18.855.855 0 0 1-.05.198.81.81 0 0 0-.053.187c-.021.143 0 .166.169.193.066.01.156.034.198.055.045.019.119.04.161.048a.938.938 0 0 1 .158.04c.045.015.15.047.238.07.087.024.195.064.24.085a.31.31 0 0 0 .146.03c.05-.006.066-.027.07-.101a.29.29 0 0 1 .035-.119c.013-.013.024-.05.024-.082s.029-.124.066-.208c.074-.167.069-.243-.027-.267-.11-.03-.184-.003-.192.069a1.39 1.39 0 0 1-.111.353c-.019.019-.119-.005-.283-.066-.081-.031-.079-.129.01-.293l.072-.132-.063-.053a.206.206 0 0 0-.156-.042l-.095.008-.018.164c-.019.169-.059.272-.1.272a.252.252 0 0 1-.088-.032L.97 8.666c-.06-.03-.06-.143-.002-.28.097-.217.071-.275-.116-.275-.061 0-.093.013-.103.045zM.444 9.389c-.042.05-.066.23-.037.272.013.018.127.04.283.05l.258.019-.013.169a.663.663 0 0 1-.029.184c-.018.019-.272-.034-.433-.092-.066-.024-.121-.03-.135-.016-.04.042-.055.267-.02.296.018.013.131.04.255.055.124.019.296.05.383.069.087.021.211.042.277.05.066.008.18.032.257.053.198.055.237.037.258-.116.01-.072.01-.14.003-.153-.008-.014-.09-.032-.18-.043-.24-.023-.417-.058-.443-.084-.03-.03.018-.246.063-.293.024-.027.09-.019.314.042.301.077.317.074.34-.05.009-.037.025-.085.033-.108.037-.082-.053-.13-.246-.13-.1 0-.232-.018-.293-.04a.799.799 0 0 0-.214-.039.54.54 0 0 1-.169-.026 1.57 1.57 0 0 0-.206-.05l-.206-.043c-.045-.013-.076-.002-.1.024zm-.19 1.341a8.86 8.86 0 0 0-.013.388c-.003.222-.019.391-.035.407-.055.055-.026.092.085.103.174.018.185.01.164-.172l-.019-.158.087.018c.235.05.383.064.737.072l.38.01.021-.119c.034-.203.019-.21-.6-.21-.292-.003-.546-.014-.564-.025-.024-.015-.032-.068-.024-.163l.008-.143-.11-.008a.357.357 0 0 0-.117 0zm.116 1.315c-.127.018-.206.071-.169.116a.26.26 0 0 1 .034.108l.008.08.396-.014c.647-.02.753-.018.78.027a.188.188 0 0 1-.032.23c-.056.05-.109.055-.59.073-.29.011-.535.024-.546.03-.04.023-.023.269.019.282.058.024.987-.032 1.122-.066.256-.066.317-.18.277-.539-.016-.147-.029-.184-.11-.264l-.09-.092-.494.008a8.987 8.987 0 0 0-.605.021zm1.101 1.204c-.066.037-.13.077-.143.09a.097.097 0 0 1-.063.026.476.476 0 0 0-.132.042c-.055.021-.132.056-.177.074-.042.021-.148.066-.23.106a1.541 1.541 0 0 1-.23.084c-.123.027-.173.095-.136.198a.612.612 0 0 1 .029.159c0 .04.013.082.029.09.013.01.243.023.507.031.264.006.551.024.638.04.283.05.317.045.325-.042a.398.398 0 0 0-.037-.18c-.045-.1-.05-.106-.153-.095a.956.956 0 0 0-.148.03c-.066.028-.113-.025-.132-.151-.018-.132.003-.175.095-.175.035 0 .069-.013.077-.026.008-.016.045-.026.082-.026.084 0 .1-.05.074-.206-.021-.106-.035-.125-.09-.13a.437.437 0 0 0-.185.06zm-.25.486c.039.045.041.063.018.119-.03.06-.045.066-.217.066-.142 0-.19-.011-.2-.04-.024-.06.04-.119.153-.135a.306.306 0 0 0 .116-.04c.024-.039.08-.026.13.03zm.501 1.412c-.177.085-.22.124-.227.2-.013.146.005.21.095.305s.098.097.237.081c.315-.031.433-.142.396-.375-.036-.258-.234-.343-.501-.21zm.28.172c.1.055.04.15-.14.214-.087.029-.103.029-.153-.016-.061-.056-.04-.095.092-.177.09-.055.13-.058.2-.021zm-1.117.517c-.032.032-.024.13.01.164.022.021.164.032.47.032.24 0 .59.018.777.04.382.044.43.034.396-.101l-.016-.071-.415-.003c-.227 0-.507-.01-.623-.024-.39-.047-.58-.058-.6-.037zm.575.354c-.182.066-.306.182-.306.288 0 .127.122.32.214.338.042.008.08.016.082.018.005 0 .071-.016.15-.037.196-.052.32-.171.32-.303a.392.392 0 0 0-.185-.317c-.09-.048-.106-.045-.275.013zm.238.195c.066.05.03.117-.098.18-.134.066-.203.06-.224-.021-.013-.053-.003-.077.045-.111.127-.092.198-.103.277-.048zm.79.373-.159.092c-.029.013-.124.069-.211.119a2.95 2.95 0 0 1-.225.121.67.67 0 0 0-.166.132c-.1.1-.103.111-.092.246a.39.39 0 0 0 .1.253c.156.198.301.217.53.074a.603.603 0 0 1 .157-.074.432.432 0 0 0 .132-.079.484.484 0 0 1 .121-.079.9.9 0 0 0 .169-.092c.11-.074.153-.12.19-.212.04-.103.042-.124.008-.19a.334.334 0 0 1-.04-.105c0-.064-.163-.22-.258-.246-.132-.034-.135-.034-.256.04zm.282.29a.152.152 0 0 1-.103.209c-.034.01-.14.063-.232.121a1.2 1.2 0 0 1-.196.106c-.013 0-.037.016-.052.037-.04.047-.17.079-.24.055-.038-.01-.054-.04-.054-.09 0-.063.027-.087.206-.182.111-.06.288-.158.389-.216.102-.058.2-.103.219-.106.018 0 .047.03.063.066zm.343.658c-.05.018-.097.044-.105.06-.01.014-.1.085-.204.153-.248.172-.483.352-.504.389a.6.6 0 0 0-.013.187c.003.14.013.166.09.24.198.193.282.214.462.114.195-.108.665-.446.747-.541.076-.085.082-.106.068-.225-.026-.222-.219-.422-.398-.412a.78.78 0 0 0-.143.035zm.277.324c.037.053.032.064-.09.153-.538.402-.593.439-.678.43-.066-.004-.084-.02-.09-.076-.005-.053.011-.084.069-.126a.361.361 0 0 1 .1-.056c.01 0 .037-.018.061-.04.024-.02.108-.09.188-.153.274-.21.37-.24.44-.132zm.468.542-.17.153-.184.158a15.9 15.9 0 0 0-.264.225 3.62 3.62 0 0 1-.22.182c-.134.097-.144.137-.057.216.06.056.084.064.195.048.116-.016.132-.01.203.066.043.045.1.082.132.082.05 0 .17-.098.17-.143 0-.01-.05-.066-.111-.124l-.114-.106.074-.058c.04-.031.164-.134.277-.23.111-.095.248-.203.301-.237.056-.037.1-.085.1-.106 0-.042-.058-.119-.147-.192-.053-.045-.058-.043-.185.066zm.702 1.452a.527.527 0 0 0-.253.388.566.566 0 0 0 .554.636c.11 0 .164-.018.28-.092.206-.135.272-.26.256-.505-.008-.169-.021-.2-.1-.298a.515.515 0 0 0-.452-.214c-.14.003-.185.016-.285.085zm.573.187c.084.082.098.114.108.248.008.14.003.164-.076.267-.095.13-.164.164-.322.164-.13 0-.235-.061-.32-.188-.095-.14-.103-.216-.04-.359.077-.18.199-.248.402-.237.134.007.164.02.248.105z"/></g></svg>