<svg xmlns="http://www.w3.org/2000/svg" xml:space="preserve" viewBox="0 0 24 24"><path fill="#e3391d" fill-opacity=".945" fill-rule="evenodd" d="M20.918 8.284c0-1.288-.464-3.096-2.649-3.096-2.298 0-3.36 2.217-2.652 4.643H12.55c-.232-.695-.371-2.631.372-4.17.82-1.7 2.753-3.26 5.308-3.26H6.583L.039 12.153v4.18H7.05v-2.787H3.31l5.454-8.358h.156v14.86h2.96c0-5.493 3.22-7.272 6.233-8.528 1.658-.691 2.805-1.543 2.805-3.236m3.116-.155v9.132h-7.79c0-1.548 1.457-1.811 3.272-2.786 2.33-1.252 4.518-2.786 4.518-6.346"/></svg>