<svg xmlns="http://www.w3.org/2000/svg" viewBox="0 0 24 24"><title>India Post</title><g opacity=".975"><path fill="#b11a1e" fill-rule="evenodd" d="M3.678 8.154H18.19v8.197H3.678V8.154"/><path fill="#fff200" fill-rule="evenodd" d="M18.118 9.126c-.041.055-.339.25-.424.305-.605.391-1.49 1.079-2.1 1.516-.573.41-1.097.81-1.677 1.209-1.359.935-3.262 2.302-5.017 2.198a2.542 2.542 0 0 1-1.1-.342c-.703-.396-.879-.94-1.426-1.46-.587-.558-.994-.8-1.719-1.168-.207-.105-.987-.39-1.018-.421-.38-.084-1.418-.458-1.767-.397-.43.076-.886.207-1.3.33l-.42.142c.035.049-.022.04.205.037.462-.004.711.041 1.17.105.091.012.15.013.233.028.54.098.727.136 1.266.271.144.036.528.125.61.174.462.059 1.536.655 1.931.939.091.065.513.407.58.488.064.076.123.116.185.19.171.201.498.621.667.776 1.24 1.134 2.749 1 4.335.229 1.125-.547 2.484-1.532 3.472-2.28.797-.605 1.664-1.274 2.469-1.86.13-.095.764-.566.847-.6l1.66-1.129c.134-.099.368-.223.526-.316l.722-.403c.07-.037.12-.06.185-.096l.56-.284c.039-.02.032-.02.087-.044l1.651-.747c.075-.03.124-.05.198-.083.096-.04.15-.054.182-.099-.117 0-.464.126-.614.173a20.9 20.9 0 0 0-1.733.684l-1.594.804-1.832 1.131"/><path fill="#fff200" fill-rule="evenodd" d="m17.82 8.47-1.662 1.17a104.42 104.42 0 0 1-3.296 2.342c-1.023.69-2.754 1.76-4.077 1.458-.886-.202-1.132-.87-1.534-1.277-.853-.864-1.351-1.207-2.476-1.74-.578-.274-.536-.215-1.14-.16l-.9.12c.045.061.008.027.217.064.085.015.159.032.234.047.085.016.16.036.229.052.071.017.167.037.22.06.506.086 1.574.596 2.027.86 1.848 1.075 1.675 2.268 3.36 2.448 1.341.144 3.076-.975 4.075-1.696.566-.408 1.137-.813 1.679-1.225.554-.422 1.102-.836 1.657-1.247.162-.12 1.538-1.154 1.687-1.22l1.735-1.13 2.294-1.21c.055-.028.098-.031.13-.076-.136.012-1.101.429-1.217.488-.536.271-.83.388-1.395.722-.097.058-.185.1-.273.158-.043.029-.08.05-.128.079l-.143.081c-.045.026-.081.052-.126.08l-.653.415c-.177.106-.379.261-.524.338"/><path fill="#fff200" fill-rule="evenodd" d="m16.505 8.47-3.324 2.388c-.97.65-2.706 1.883-3.905 1.804-.866-.056-2.167-2.125-3.195-2.515-.15-.056-.926-.002-1.134.014.069.045.334.118.433.162.401.178.796.417 1.143.674.475.351.916.726 1.258 1.16.331.422.728.89 1.531.89.678.002 1.391-.312 1.867-.573.54-.296 1.02-.588 1.492-.926.48-.342.938-.66 1.405-1.013.465-.35.913-.686 1.377-1.04.149-.113 1.25-.96 1.393-1.034l.35-.258c.036-.027.05-.036.088-.062l2.346-1.627c.04-.028.066-.04.083-.086-.147.078-.277.146-.424.233l-.813.498c-.066.044-.127.071-.199.12l-.79.52c-.072.049-.131.084-.203.136-.215.157-.584.386-.78.535"/><path fill="#b11a1e" d="M4.075 6.737v-.166l-.06.014h-.092a.284.284 0 0 1-.124-.023.385.385 0 0 1-.18-.177.348.348 0 0 1-.023-.128c0-.056.018-.111.052-.164a.28.28 0 0 1 .131-.112.45.45 0 0 1 .211-.027.203.203 0 0 1 .057.021.33.33 0 0 1 .178.167.342.342 0 0 1 .025.123v.472h.18v.088h-.18v.173c0 .075-.03.15-.091.222a.3.3 0 0 1-.213.093c-.133 0-.228-.055-.284-.166a.304.304 0 0 1 .066-.317.285.285 0 0 1 .218-.093zm-.078.509.043-.047.025-.066.01-.082v-.226h-.023a.25.25 0 0 0-.162.07.238.238 0 0 0-.065.158l.007.083c.01.046.032.083.066.11l.048.014a.197.197 0 0 0 .05-.014zm.03-.798a.33.33 0 0 0 .048-.184.23.23 0 0 0-.012-.087.194.194 0 0 0-.079-.135.144.144 0 0 0-.06-.023.102.102 0 0 0-.059.02l-.048.053-.036.079-.01.093c0 .078.015.137.043.178.03.05.067.076.11.076a.16.16 0 0 0 .103-.07zm.824-.479v.094h-.203l.007 1.256a.08.08 0 0 0 .028.043l.04.033.052.008v.059h-.431V7.4c.052.012.092-.015.119-.081l.01-.056v-1.2h-.19v-.094zm.468 0v.094h-.202l.007 1.256a.074.074 0 0 0 .028.043l.04.033.051.008v.059h-.43V7.4c.052.012.092-.015.119-.081l.01-.056v-1.2h-.19v-.094zm.902.094h-.514c.1.03.186.092.26.183l.047.07.03.064.018.07.007.079a.425.425 0 0 1-.144.312l-.076.055-.081.038a.319.319 0 0 1-.09.026l-.1.006c.189.26.32.39.395.39l.04-.002a.12.12 0 0 0 .041-.015l.043-.026.048-.044.026.062a.31.31 0 0 1-.046.06l-.063.041-.033.015-.038.009-.041.006h-.046a.376.376 0 0 1-.116-.02.44.44 0 0 1-.117-.06.745.745 0 0 1-.192-.244.266.266 0 0 0-.043-.068l-.05-.058a.211.211 0 0 0-.054-.044l-.058-.03v-.063l.096.029.132.009a.37.37 0 0 0 .104-.016.352.352 0 0 0 .096-.049.424.424 0 0 0 .164-.347.404.404 0 0 0-.233-.377.834.834 0 0 0-.17-.061H5.26v-.094h.962zm1.307 0h-.197l.007 1.264c.005.02.015.034.028.044l.04.032h.054v.059h-.433v-.059h.048l.04-.027a.164.164 0 0 0 .03-.05l.011-.056v-.75a.353.353 0 0 0-.19-.08h-.091a.375.375 0 0 0-.347.237.374.374 0 0 0-.03.149v.065a.77.77 0 0 0 .042.237.98.98 0 0 0 .13.252l-.152.082a.941.941 0 0 1-.195-.583c0-.112.03-.21.09-.297a.535.535 0 0 1 .234-.192.593.593 0 0 1 .205-.038h.081l.03.009.044.013.07.028.079.04v-.38h-.917V5.97l1.264-.009zm.034-.74c.108.055.187.16.238.313a.9.9 0 0 1 .032.228v.105h.198v.094h-.198l.008 1.256a.108.108 0 0 0 .028.046l.043.03.05.008v.059h-.435V7.4c.055.012.096-.015.121-.081l.01-.056v-1.2h-.19v-.094h.19v-.108c0-.13-.02-.243-.06-.339-.04-.095-.09-.147-.148-.155a.174.174 0 0 0-.094.024c-.06.023-.107.076-.138.16a.41.41 0 0 0-.018.113v.06l.008.036c0 .013.003.028.01.043l.024.059.034.072-.173-.003a.194.194 0 0 1-.031-.05l-.034-.066-.005-.015v-.035l-.013-.02v-.082c0-.052.008-.099.024-.14a.416.416 0 0 1 .082-.127.369.369 0 0 1 .273-.116.32.32 0 0 1 .164.044zm1.758.74h-.195v1.202c0 .036.012.07.037.103l.041.032h.048v.062h-.43V7.4c.054 0 .093-.027.119-.081l.01-.056v-.17a.42.42 0 0 1-.38.196.48.48 0 0 1-.371-.186.673.673 0 0 1-.161-.456v-.09l.103.031h.178c.044 0 .09-.02.14-.061l.042-.071a.249.249 0 0 0 .015-.088.353.353 0 0 0-.058-.18.366.366 0 0 0-.154-.125h-.32v-.1H9.32zm-.811.604a.434.434 0 0 1-.114.02h-.137l-.023-.01-.023-.019c0 .08.01.148.028.202.04.127.112.219.213.278a.332.332 0 0 0 .155.038h.053a.13.13 0 0 0 .048-.006l.045-.012.049-.02.078-.053a.263.263 0 0 0 .069-.074v-.948h-.48a.194.194 0 0 1 .092.04c.069.042.114.117.137.223v.058c0 .125-.063.22-.19.283zm2.663-.604h-.218v.35h-.403a.267.267 0 0 0-.099.014.117.117 0 0 0-.079.032c-.043.017-.068.051-.073.103 0 .033.024.065.073.097l.081.032.097.008h.243c.06 0 .115.02.167.059.05.033.09.08.12.143a.358.358 0 0 1 .022.126.39.39 0 0 1-.153.305.562.562 0 0 1-.376.13.62.62 0 0 1-.457-.202.83.83 0 0 1-.164-.232 1.34 1.34 0 0 1-.086-.293l.076-.003a.811.811 0 0 0 .07.247.655.655 0 0 0 .327.328.51.51 0 0 0 .375.014.345.345 0 0 0 .146-.113.286.286 0 0 0 .067-.183.247.247 0 0 0-.063-.163.202.202 0 0 0-.162-.075h-.205a.741.741 0 0 1-.158-.015.404.404 0 0 1-.126-.052c-.08-.045-.12-.103-.12-.175 0-.055.032-.107.095-.155a.374.374 0 0 1 .225-.064h.342v-.263h-.92v-.094h1.336zm.504-.094v.094h-.203l.008 1.256a.07.07 0 0 0 .028.043l.04.033.05.008v.059h-.43V7.4c.052.012.092-.015.12-.081l.01-.056v-1.2h-.19v-.094zm1.727.094h-.833v.35a.495.495 0 0 1 .327-.143c.084 0 .162.028.233.084.07.05.121.125.157.224.022.07.033.133.033.189a.525.525 0 0 1-.261.458.342.342 0 0 1-.162.035h-.033l-.05-.006-.031-.01-.036-.012-.07-.035-.031-.022v-.06l.076.014.099.006c.03 0 .052-.001.066-.003a.331.331 0 0 0 .204-.159.408.408 0 0 0 .054-.208.388.388 0 0 0-.101-.256.331.331 0 0 0-.17-.102l-.068-.009h-.046c-.017 0-.028.002-.033.006l-.028.006-.035.009-.043.02a.158.158 0 0 0-.051.033v.787l.008.059a.113.113 0 0 0 .022.044l.043.032.049.009v.059h-.426V7.4c.049.012.086-.015.111-.081l.01-.056v-.149a.504.504 0 0 1-.326.146.388.388 0 0 1-.307-.145.52.52 0 0 1-.124-.348.506.506 0 0 1 .266-.459.298.298 0 0 1 .08-.03.422.422 0 0 1 .085-.008h.09c.02 0 .036.005.05.015l.045.02c.035.017.06.033.076.048l.065.063v-.353h-.825v-.094h1.841zm-1.39.353a.336.336 0 0 0-.175.199.56.56 0 0 0-.018.071.407.407 0 0 0-.008.078c0 .105.031.193.093.265a.293.293 0 0 0 .232.109h.033a.278.278 0 0 0 .1-.021.26.26 0 0 0 .057-.024.485.485 0 0 0 .06-.043v-.573l-.058-.035-.063-.029-.067-.015-.058-.011a.349.349 0 0 0-.067.006.2.2 0 0 0-.062.023m.341 11.394v-.771c0-.028-.005-.048-.015-.059-.01-.011-.028-.017-.055-.017h-.07v-.066h.421v.066h-.071c-.026 0-.045.006-.055.017-.01.011-.015.03-.015.059v.772c0 .028.005.047.015.059.01.01.029.017.055.017h.071v.065h-.422v-.065h.071c.027 0 .045-.006.055-.018.01-.01.015-.03.015-.058zm.46.016v-.438c0-.015-.003-.026-.01-.032-.008-.006-.021-.009-.04-.009h-.051v-.058l.109-.007.11-.008v.126a.346.346 0 0 1 .038-.068.196.196 0 0 1 .164-.08c.059 0 .106.024.14.07a.3.3 0 0 1 .053.185v.319c0 .025.005.043.015.053.01.01.027.015.052.015h.037v.058h-.325v-.058h.036c.025 0 .043-.005.053-.015.01-.01.015-.028.015-.053v-.33c0-.05-.01-.088-.03-.114a.102.102 0 0 0-.087-.04.142.142 0 0 0-.116.057.233.233 0 0 0-.045.148v.279c0 .025.004.043.014.053.01.01.028.015.053.015h.037v.058h-.326v-.058h.037c.025 0 .043-.005.053-.015.01-.01.015-.028.015-.053zm.951.148a.225.225 0 0 1-.19-.099.432.432 0 0 1-.073-.261c0-.1.024-.186.072-.256.048-.07.106-.106.174-.106.079 0 .14.032.182.095l.01.015v-.374c0-.015-.004-.026-.013-.032a.1.1 0 0 0-.05-.009h-.066v-.058l.123-.007.124-.006v.944c0 .028.006.048.02.059.014.01.038.016.073.016h.01v.059l-.11.007-.11.007v-.12l-.016.032a.176.176 0 0 1-.16.094zm.022-.648a.122.122 0 0 0-.114.072.477.477 0 0 0-.039.216c0 .095.013.166.039.215.025.048.063.072.114.072.049 0 .087-.025.114-.075a.469.469 0 0 0 .04-.213.461.461 0 0 0-.04-.213c-.027-.05-.065-.074-.114-.074zm.544.5v-.438c0-.015-.004-.026-.013-.032-.008-.006-.024-.009-.046-.009h-.06v-.058l.118-.007.118-.008v.552c0 .025.005.043.015.053.01.01.028.015.053.015h.036v.058h-.325v-.058h.037c.025 0 .042-.005.052-.015.01-.01.015-.028.015-.053zm.054-.929a.07.07 0 0 1 .055.026.092.092 0 0 1 .022.063.093.093 0 0 1-.022.063.07.07 0 0 1-.055.025.07.07 0 0 1-.055-.025.093.093 0 0 1-.022-.063c0-.025.008-.046.022-.063a.07.07 0 0 1 .055-.026zm.439 1.077a.182.182 0 0 1-.132-.045.169.169 0 0 1-.047-.127c0-.058.027-.108.08-.152a.515.515 0 0 1 .222-.096l.1-.021v-.072c0-.05-.01-.087-.032-.11-.022-.023-.056-.034-.103-.034-.05 0-.086.008-.106.025l-.009.009c-.005.004-.006.013-.004.025a.104.104 0 0 0 .016.037c.006.011.01.025.01.042 0 .02-.007.037-.02.049a.07.07 0 0 1-.052.019.057.057 0 0 1-.048-.026.117.117 0 0 1-.018-.068.15.15 0 0 1 .07-.126.295.295 0 0 1 .177-.05c.083 0 .142.017.178.052.036.036.054.095.054.178v.327c0 .02.004.036.013.049.008.013.02.02.032.02.01 0 .02-.002.028-.005a.074.074 0 0 0 .022-.01.015.015 0 0 1 .01-.004.012.012 0 0 1 .01.005.019.019 0 0 1 .005.011.021.021 0 0 1-.002.013.118.118 0 0 1-.044.056.116.116 0 0 1-.067.02.101.101 0 0 1-.088-.046.201.201 0 0 1-.026-.058l-.028.032a.277.277 0 0 1-.201.081zm.223-.27v-.113l-.06.013a.408.408 0 0 0-.168.067.14.14 0 0 0-.05.114c0 .034.01.061.03.083a.09.09 0 0 0 .071.033.16.16 0 0 0 .127-.056.215.215 0 0 0 .05-.14zm.78.107v-.772c0-.028-.005-.048-.015-.059-.01-.011-.028-.017-.054-.017h-.072v-.066h.428c.121 0 .211.024.272.07.06.047.09.118.09.212 0 .101-.03.177-.09.228-.06.05-.151.075-.272.075a2.79 2.79 0 0 1-.147-.003v.331c0 .029.005.048.016.06.01.01.028.017.054.017h.071v.065h-.422v-.065h.072c.026 0 .044-.006.055-.018.01-.01.015-.03.015-.058zm.14-.396a2.542 2.542 0 0 0 .151.004c.07 0 .121-.02.154-.058.033-.04.05-.099.05-.18 0-.078-.016-.135-.047-.169-.03-.033-.083-.05-.157-.05h-.081c-.028 0-.046.005-.056.016-.01.01-.014.032-.014.064zm.848.559a.239.239 0 0 1-.199-.099.421.421 0 0 1-.075-.261c0-.1.026-.186.08-.256a.237.237 0 0 1 .194-.106.24.24 0 0 1 .2.1c.05.066.075.153.075.262a.41.41 0 0 1-.08.255.238.238 0 0 1-.195.105zm0-.058c.047 0 .083-.026.107-.077a.552.552 0 0 0 .036-.225.55.55 0 0 0-.036-.226c-.024-.052-.06-.077-.107-.077s-.082.025-.106.077a.553.553 0 0 0-.036.226c0 .1.012.174.036.225.024.051.06.077.106.077zm.763-.42a.254.254 0 0 0-.067-.134.162.162 0 0 0-.118-.051.127.127 0 0 0-.087.029.1.1 0 0 0-.033.078c0 .029.012.051.036.068a.487.487 0 0 0 .135.05.396.396 0 0 1 .174.078c.03.03.045.077.045.14a.22.22 0 0 1-.058.16.204.204 0 0 1-.154.06.286.286 0 0 1-.18-.069l-.036.065h-.043v-.275h.048a.303.303 0 0 0 .076.16c.04.04.084.06.135.06.041 0 .075-.01.1-.03a.1.1 0 0 0 .038-.083.092.092 0 0 0-.04-.08.485.485 0 0 0-.15-.056.337.337 0 0 1-.156-.073c-.027-.03-.04-.075-.04-.138 0-.061.017-.11.052-.147a.18.18 0 0 1 .138-.056c.057 0 .11.02.161.058l.03-.053h.042v.24zm.27.315v-.471h-.104v-.066c.054-.01.09-.032.11-.067a.48.48 0 0 0 .059-.225h.053v.292h.185v.066h-.185v.44c0 .036.006.063.018.08.012.019.03.027.054.027a.08.08 0 0 0 .076-.044.384.384 0 0 0 .03-.15h.048a.39.39 0 0 1-.049.212c-.03.046-.078.069-.14.069a.147.147 0 0 1-.112-.045.164.164 0 0 1-.042-.118"/></g></svg>