<svg xmlns="http://www.w3.org/2000/svg" viewBox="0 0 24 24" style="background-color:#0e4ba8"><title>Indian Bank</title><g fill-rule="evenodd" clip-rule="evenodd" opacity=".975"><path fill="#fff" d="M13.015 13.229c.02.02.02.041.041.041 5.804-8.425 16.08-.499 7.697 7.26l1.581 1.477-.54.541-7.26-.582-.167-3.911c-1.394 4.306-9.61 6.116-11.628-2.517l-2.164.437 3.35-5.68.478-.54 3.682 2.184C3.612 8.507 6.982.04 16.489 3.452l.27-1.165.479-.479 3.744 6.324-.54.583-6.99 2.62.81-2.204c-2.974-1.103-4.284 2.267-1.247 4.202v-.104zm-3.745-.583 2.018 1.207-.603.54-1.79-.062c.167 2.663 4.265 2.746 4.12-.998-1.498.041-2.746-.23-3.745-.687zm3.807.645c.603.707 1.02 1.394 1.248 2.08l.479-.52 1.622 1.581c2.205-2.038-.29-5.159-3.349-3.14z"/><path fill="#f4b035" d="M12.64 13.874c6.095 7.676-7.592 13.812-10.297 2.309l-2.205.353 3.786-6.24 6.76 4.14-2.329.478c.603 2.891 4.16 2.475 4.285-1.04-.02.02-.041.02-.062.041-10.713.208-8.446-14.145 3.516-9.88l.603-1.644 3.682 6.324-7.364 3.203.874-2.205c-3.038-1.102-4.348 2.247-1.311 4.202 5.409-8.84 16.246-.52 7.8 7.26l1.311 1.373-7.53.042.166-7.156 1.665 1.643c2.267-2.101-.292-5.221-3.35-3.203z"/></g></svg>