<svg xmlns="http://www.w3.org/2000/svg" viewBox="0 0 24 24"><title>Indian Overseas Bank</title><path fill="#013cc8" d="M6.473 22.4c1.821-1.747 3.621-3.516 5.424-5.281.022.325.034.651.031.978-1.815 1.754-3.632 3.507-5.442 5.266-1.968-1.73-3.94-3.453-5.911-5.178-.015-.327-.01-.653-.019-.979.783.711 1.59 1.396 2.382 2.096 1.179 1.032 2.357 2.066 3.535 3.099zm11.986.004c1.753-1.784 3.5-3.573 5.246-5.364.027.322.042.645.05.969-1.756 1.783-3.515 3.564-5.273 5.347-1.966-1.7-3.941-3.39-5.909-5.088-.033-.324-.024-.649-.04-.973 1.97 1.708 3.956 3.4 5.926 5.11zM.491 15.46c1.977 1.774 3.95 3.551 5.931 5.32 1.823-1.736 3.621-3.496 5.43-5.246-.014.297.044.595.014.893-.124.175-.3.31-.45.461-1.655 1.623-3.325 3.23-4.977 4.855-1.827-1.625-3.65-3.252-5.476-4.879-.147-.137-.311-.258-.443-.41-.005-.332-.024-.663-.03-.994zm17.882 5.32c1.77-1.765 3.513-3.554 5.265-5.335.013.307.013.615.026.923-1.751 1.79-3.508 3.576-5.256 5.368-1.975-1.724-3.943-3.455-5.919-5.178-.004-.337-.033-.673-.042-1.01 1.973 1.746 3.952 3.486 5.926 5.231zm-6.006-6.983c1.964 1.722 3.95 3.42 5.923 5.13 1.757-1.702 3.516-3.403 5.268-5.11-.004.32.028.641.036.962-1.751 1.71-3.523 3.402-5.278 5.109-1.967-1.723-3.942-3.437-5.911-5.158-.012-.311-.017-.622-.038-.933zM.436 13.712c1.975 1.74 3.954 3.474 5.927 5.217 1.816-1.675 3.63-3.35 5.442-5.03-.018.324.029.646.02.97a2342.065 2342.065 0 0 0-5.446 5.015c-1.938-1.71-3.867-3.432-5.804-5.144-.047-.047-.115-.091-.106-.168-.008-.286-.028-.573-.033-.86zm2.26 1.125c1.202-1.191 2.42-2.364 3.618-3.56 1.23 1.136 2.445 2.289 3.675 3.426-.167.171-.337.339-.505.508-1.052-.983-2.103-1.966-3.159-2.944-1.026 1.028-2.078 2.03-3.104 3.059-.176-.162-.353-.322-.525-.489zm12.98-1.63c.717-.705 1.435-1.408 2.152-2.111 1.228 1.14 2.448 2.288 3.674 3.43-.172.165-.347.327-.515.496-1.045-.983-2.1-1.956-3.145-2.939-1.042 1.016-2.077 2.038-3.118 3.055a17.33 17.33 0 0 1-.52-.494c.502-.467.978-.962 1.473-1.438zm-9.345-3.63c1.519 1.439 3.044 2.87 4.565 4.306-.17.166-.334.337-.507.497l-4.047-3.813c-1.327 1.314-2.662 2.618-3.99 3.932-.164-.167-.353-.31-.502-.492 1.08-1.1 2.197-2.163 3.286-3.254.405-.386.79-.79 1.195-1.176zm7.011 4.249c1.497-1.474 2.992-2.95 4.491-4.422.15.101.267.242.401.362 1.39 1.308 2.774 2.622 4.17 3.925l-.507.507c-1.343-1.276-2.698-2.541-4.042-3.817-1.33 1.31-2.664 2.619-3.99 3.935-.178-.16-.35-.326-.523-.49zm-9.519-3.469c.812-.822 1.64-1.625 2.456-2.443 1.814 1.719 3.634 3.431 5.448 5.15l-.5.501c-1.646-1.553-3.292-3.106-4.933-4.663-.966.956-1.934 1.909-2.892 2.872-.663.635-1.293 1.303-1.96 1.935-.168-.164-.342-.322-.512-.484.56-.57 1.138-1.122 1.7-1.69.396-.394.786-.795 1.193-1.178zm12.124-.807c.625-.596 1.225-1.217 1.839-1.825 1.812 1.72 3.63 3.435 5.447 5.15-.167.167-.334.333-.498.501-1.648-1.546-3.29-3.1-4.93-4.656-1.626 1.592-3.23 3.208-4.85 4.809-.168-.168-.343-.329-.517-.49 1.171-1.162 2.343-2.323 3.51-3.49zm-7.43-.255c1.203-1.19 2.42-2.366 3.619-3.56 1.229 1.138 2.447 2.287 3.673 3.427l-.504.504c-1.049-.982-2.102-1.958-3.15-2.94-1.044 1.015-2.08 2.038-3.118 3.058-.174-.161-.344-.328-.52-.489zm-.86-.821c1.492-1.485 3-2.954 4.494-4.437 1.523 1.432 3.041 2.87 4.564 4.302l-.502.504c-1.348-1.275-2.696-2.55-4.05-3.816-1.327 1.311-2.66 2.616-3.983 3.93-.177-.158-.35-.322-.523-.483zm4.44-6.105 5.45 5.149c-.165.17-.334.336-.5.504-1.647-1.555-3.293-3.11-4.938-4.666-1.606 1.612-3.23 3.205-4.836 4.816-.172-.165-.347-.327-.519-.493C8.138 6.3 9.53 4.928 10.911 3.545c.406-.38.794-.78 1.187-1.176z" opacity=".975"/></svg>