<svg xmlns="http://www.w3.org/2000/svg" viewBox="0 0 24 24"><title>IndusInd Bank</title><path d="M1.564 8.1c-.256.016-.361.061-.391.151-.038.136-.798 3.763-.798 3.823 0 .015.218.03.482.03h.481l.09-.399c.091-.436.753-3.62.753-3.642 0-.007-.06-.007-.128 0-.075.008-.293.023-.489.038zm6.646.618c-.084.354-.166.752-.197.895l-.052.256-.166-.195c-.3-.37-.835-.452-1.37-.211-.519.233-.857.82-.857 1.49 0 1.046.888 1.55 1.753 1l.354-.225-.045.188c-.045.18-.038.188.368.188.37 0 .414-.015.46-.18.067-.286.797-3.74.797-3.793 0-.03-.203-.053-.451-.053H8.36l-.15.64zm-.61 1.43c.248.248.203.76-.083 1.09-.264.294-.527.34-.805.144-.136-.09-.166-.188-.166-.497 0-.33.03-.406.256-.632.293-.293.572-.331.798-.105zm8.165-1.934c-.053.233-.79 3.83-.79 3.86 0 .015.218.03.481.03h.49l.12-.587c.067-.316.15-.715.188-.88.128-.58.459-2.258.474-2.4.015-.129-.045-.144-.452-.166-.436-.023-.474-.008-.511.143zm7.397-.121c-.12.015-.21.045-.21.068 0 .083-.324 1.505-.354 1.558-.015.03-.136-.03-.264-.136-.594-.504-1.52-.263-1.911.505-.27.534-.309 1.008-.12 1.437.316.722 1.204.88 1.813.331l.18-.166-.052.204-.045.21h.865l.407-1.956c.226-1.069.414-1.98.414-2.01.007-.067-.422-.097-.723-.045zm-.865 2.137c.3.414-.09 1.272-.587 1.272-.46 0-.64-.33-.49-.895.159-.587.76-.798 1.077-.377zm-9.046-.857c-.286.143-.534.496-.534.775 0 .293.196.504.64.715.624.3.632.594.015.594-.173 0-.437-.022-.587-.06l-.279-.06-.052.316c-.03.173-.038.323-.023.346.023.015.339.053.707.075.587.045.723.03 1.024-.105.376-.166.587-.46.587-.82 0-.309-.166-.505-.587-.685-.474-.203-.595-.346-.46-.512.084-.098.196-.113.61-.083l.497.045.083-.233c.045-.128.083-.24.083-.256 0-.015-.128-.06-.279-.098-.429-.12-1.151-.097-1.445.046zm-10.814.225a37.71 37.71 0 0 1-.263 1.325 22.22 22.22 0 0 0-.219 1.114c0 .045.189.067.467.052l.467-.022.158-.738c.195-.88.278-1.053.594-1.219.196-.105.279-.113.407-.045.248.128.263.354.097 1.189-.09.421-.158.783-.158.805 0 .023.219.045.474.045h.482l.166-.933c.188-1 .173-1.25-.09-1.58-.129-.158-.257-.218-.52-.249-.451-.052-.67.008-.97.256l-.241.204.037-.241.038-.241H2.49l-.053.278zm6.826.692c-.173.971-.173.971-.023 1.303.098.233.218.36.384.436.339.136.858.06 1.166-.18.143-.106.271-.196.294-.196.015 0 .015.098-.008.226l-.03.225h.805l.249-1.151c.128-.625.263-1.257.286-1.392l.052-.249-.474.023-.481.023-.128.632c-.226 1.046-.527 1.452-.986 1.34-.278-.076-.309-.324-.135-1.122a10.4 10.4 0 0 0 .15-.79c0-.068-.135-.098-.482-.098h-.474l-.165.97zm7.857-.805c-.023.098-.151.723-.294 1.393l-.249 1.226h.475c.541 0 .466.098.67-.888.15-.715.293-.978.609-1.113.572-.241.715.165.436 1.256-.18.73-.173.745.347.745h.444l.075-.286c.248-.948.293-1.783.128-2.114-.256-.49-1.234-.52-1.618-.053-.158.188-.234.143-.18-.105l.044-.226h-.429c-.368 0-.421.015-.459.165zm2.415 5.283c-.196 1.009-.384 1.92-.399 2.032-.037.188-.03.196.339.196.466 0 .617-.053.617-.226 0-.27.248-1.211.3-1.151.039.03.166.316.294.624.136.309.294.61.362.655.143.113.925.136.925.03 0-.037-.15-.384-.33-.775l-.332-.715.52-.572c.285-.308.519-.594.519-.632 0-.03-.234-.053-.52-.038l-.511.03-.437.52c-.24.286-.451.512-.459.496-.015-.015.068-.519.196-1.113.12-.595.225-1.107.225-1.144 0-.03-.21-.053-.466-.053h-.474l-.369 1.836zm-10.302.212c-.196.962-.354 1.82-.354 1.895 0 .136.053.143 1.038.098 1.16-.052 1.49-.12 1.822-.399.474-.406.429-1.196-.083-1.414l-.233-.098.323-.18c.452-.25.647-.64.527-1.054-.143-.467-.376-.55-1.626-.58l-1.06-.03-.354 1.761zm2.016-.994c.174.143.136.421-.075.587-.18.143-.835.293-.918.21-.038-.037.113-.775.188-.903.053-.09.67-.007.805.106zm-.376 1.43c.361.135.339.594-.037.79-.271.143-.904.15-.904.015 0-.083.113-.565.189-.79.037-.106.474-.12.752-.015zm2.627-1.189c-.37.067-.392.082-.43.346-.03.15-.037.278-.03.293.016.008.143-.015.286-.052.354-.106.843-.09.986.015.06.052.136.173.15.255.038.15.008.166-.609.196-1 .06-1.467.369-1.452.963.007.324.203.595.52.73.33.136.661.083 1.03-.165.346-.234.376-.234.316 0-.045.18-.037.188.354.188h.399l.165-.85c.219-1.114.211-1.34-.03-1.626-.3-.361-.805-.452-1.655-.293zm.835 1.655c-.068.248-.46.587-.67.587-.188 0-.421-.173-.421-.308 0-.046.082-.158.188-.256.143-.15.256-.188.564-.188.361 0 .384.007.339.165zm1.941-1.693a.292.292 0 0 0-.21.196c-.09.398-.49 2.385-.49 2.46 0 .046.189.076.452.076h.444l.083-.294c.045-.165.113-.497.158-.737.128-.685.376-.994.805-1.001.391 0 .437.203.249 1.129-.09.429-.159.805-.159.835 0 .038.211.068.475.068h.474l.143-.738c.158-.835.165-1.287.03-1.603-.226-.557-1.122-.602-1.678-.083-.12.113-.204.15-.181.09.158-.466.166-.45-.143-.443-.158.007-.361.03-.452.045z" fill="#852526"/></svg>