<svg xmlns="http://www.w3.org/2000/svg" xml:space="preserve" preserveAspectRatio="xMidYMid" version="1.0" viewBox="0 0 24 24"><g fill="#fbfbfb"><title>Internet Freedom Foundation</title><path d="M10.208.122C-.852 1.886-3.675 16.308 5.912 22.082c7.78 4.683 17.722-1.046 17.722-10.221 0-7.272-6.39-12.856-13.426-11.74Zm2.538 1.491c.178.393.742.45.99.089.273-.387 1.611 0 1.611.47 0 .475.597.697.94.355.349-.35 1.446.336 1.497.932.05.559.368.794.749.553.444-.273 1.281.609 1.18 1.25-.089.539.159.824.628.736.463-.09 1.225 1.25.844 1.484-.374.235-.025.952.463.952.438 0 .698 1.333.311 1.605-.419.292-.184 1.06.324 1.06.127 0 .171.21.171.762 0 .494-.05.76-.146.76-.533 0-.78.762-.349 1.06.387.273.127 1.606-.31 1.606-.49 0-.838.717-.464.952.38.234-.38 1.573-.844 1.484-.47-.088-.717.197-.628.737.101.64-.736 1.522-1.18 1.25-.381-.242-.698-.007-.749.552-.05.596-1.148 1.281-1.497.932-.35-.349-.94-.12-.94.362 0 .457-1.351.831-1.618.444-.24-.343-.812-.28-.983.108-.171.4-1.713.438-1.713.044 0-.437-.628-.526-.99-.133-.368.387-1.593-.013-1.65-.546-.05-.437-.558-.609-.888-.304-.336.298-1.542-.394-1.46-.831.083-.444-.374-.819-.767-.641-.45.203-1.46-.812-1.212-1.212.222-.355-.172-.831-.622-.749-.457.089-1.104-1.091-.831-1.51.26-.4.114-.806-.33-.895-.533-.108-.901-1.237-.514-1.592.361-.337.33-.832-.064-1.016-.476-.215-.476-1.51 0-1.725.425-.197.413-1.041-.012-1.041-.222 0-.222-.063.012-.85.165-.546.248-.654.559-.717.463-.09.615-.489.349-.895-.273-.419.374-1.599.83-1.51.451.082.845-.394.623-.749-.248-.4.761-1.415 1.212-1.212.393.178.85-.196.767-.628-.082-.457 1.104-1.161 1.44-.857.35.318.857.153.908-.291.057-.533 1.282-.933 1.65-.546.362.393.99.304.99-.133 0-.394 1.542-.356 1.713.044z"/><path d="M11.813 3.498a85.868 85.868 0 0 1-.101 2.189c-.083 1.345-.083 1.351.203 1.351.31 0 .31-.634.006-3.49l-.095-.888zm-2.246-.077c.057.21.254 1.149.45 2.094.343 1.675.49 1.948.857 1.593.045-.044-1.244-3.928-1.332-4.004-.038-.038-.026.108.025.317zm3.877 1.967c-.476 1.41-.533 1.682-.374 1.783.304.19.336.153.494-.672a77.24 77.24 0 0 1 .343-1.644c.33-1.446.127-1.211-.463.533zm1.966.089c-1.503 2.265-1.382 2.03-1.103 2.183.21.108 2.189-3.319 2.018-3.496-.013-.013-.426.577-.914 1.313zm-7.785-.882c.038.083 1.523 3.078 1.574 3.173.05.089.438-.133.438-.248 0-.146-1.891-3.02-1.986-3.02-.038 0-.045.045-.026.095zM5.88 5.896c1.485 1.84 2.412 2.76 2.602 2.57.197-.197.006-.419-1.643-1.86-.311-.272-.73-.647-.94-.824l-.374-.33zm10.75.977c-1.187 1.054-1.498 1.39-1.39 1.523.228.267.272.235 1.681-1.358.749-.837 1.326-1.523 1.3-1.523-.03 0-.748.61-1.592 1.358zm-12.514.514c.102.095 2.577 1.751 3.3 2.215.076.044.21-.026.292-.159.14-.228.013-.317-1.783-1.212-1.066-.533-1.878-.907-1.809-.844zm13.655.895c-1.675.837-2.005 1.091-1.611 1.243.114.045.774-.31 1.687-.913 2.26-1.491 2.26-1.504-.076-.33z"/><path d="M10.9 7.844c-3.833 1.034-4.245 6.148-.635 7.805 1.402.64 3.14.355 4.327-.705 3.18-2.861.4-8.204-3.693-7.1zm-.299.876a5.601 5.601 0 0 0-.355.57c-.114.223-.254.286-.654.286h-.507l.31-.33c.553-.596 1.58-1.04 1.206-.526zm3.319.165c.787.526.837.691.19.685-.412-.006-.533-.083-.888-.571-.52-.724-.26-.762.698-.114zm-1.212.247c.317.368.28.444-.216.444-.438 0-.444-.012-.444-.52 0-.571.114-.552.66.076zm-1.168 0c0 .406-.031.444-.38.444-.45 0-.47-.101-.12-.552.354-.457.5-.425.5.108zm-1.687 1.123c-.039.102-.108.444-.16.762l-.088.59h-.692c-.596 0-.678-.032-.628-.222.032-.12.095-.394.146-.603.127-.571.292-.698.92-.698.425 0 .552.044.502.171zm1.687.59v.762h-1.427l.089-.59c.14-.901.164-.933.78-.933h.558zm1.891-.361c.33.939.229 1.123-.622 1.123h-.761v-1.523h.622c.584 0 .628.025.761.4zm1.84.107c.35.882.299 1.016-.425 1.016-.723 0-.71.012-.831-.857l-.089-.666h.571c.546 0 .578.019.774.507zm-5.59 2c.153.9.14.92-.488.92-.622 0-.692-.083-.87-.984l-.076-.413h1.358zm1.86.221v.698h-.565c-.546 0-.571-.019-.698-.476-.241-.875-.216-.92.564-.92h.698zm2.03-.323c0 .806-.184 1.021-.889 1.021h-.634v-1.396h.761c.755 0 .762 0 .762.375zm1.903-.115c0 .73-.336 1.136-.951 1.136h-.584l.082-.603c.12-.805.108-.793.825-.793.546 0 .628.032.628.26zm-5.101 2.278c.438.705.438.717-.14.432-.964-.489-1.332-1.066-.679-1.066.375 0 .476.076.819.634zm1.161-.031-.006.602-.438-.494c-.546-.622-.546-.711.006-.711h.444zm1.53-.546c0 .12-.794.958-.902.958-.063 0-.114-.228-.114-.508 0-.507 0-.507.508-.507.279 0 .507.025.507.057zm1.617.102c-.076.234-1.37 1.11-1.637 1.11-.184 0-.14-.114.248-.635.463-.621 1.56-1.002 1.39-.475zM3.552 9.614c.076.083 3.407 1.231 3.572 1.231.057 0 .102-.108.102-.247 0-.286-.032-.292-1.739-.628-.71-.146-1.453-.299-1.65-.343-.196-.05-.323-.05-.285-.013zm15.603.153a91.02 91.02 0 0 1-1.682.387c-1.002.215-1.06.253-.876.539.083.127.495.032 1.872-.425 2.177-.73 2.443-.92.686-.501z"/><path d="M4.846 11.702c-.977.044-1.294.285-.38.285.298 0 1.008.038 1.586.083 1.009.076 1.047.07 1.047-.19 0-.299.095-.292-2.253-.178zm11.897.152v.286l1.555-.09c1.472-.082 2.411-.316 1.282-.316-.28 0-1.035-.038-1.675-.083-1.149-.082-1.162-.076-1.162.203zM5.22 13.472c-2.036.698-2.055.762-.082.356 2.164-.445 2.088-.42 2.088-.698 0-.337-.045-.33-2.005.342zm11.352-.406c-.044.12-.082.229-.082.248 0 .082 3.68.869 3.75.8.031-.026-.705-.3-1.625-.604-.926-.304-1.745-.577-1.82-.603-.083-.025-.179.045-.223.16zm-10.73 2.107c-.939.622-1.738 1.167-1.776 1.205-.045.045.8-.355 1.872-.894 1.75-.876 1.928-.99 1.776-1.187-.089-.12-.165-.222-.165-.235-.006-.012-.774.489-1.707 1.11zm10.203-.901c-.146.234.375.533 3.3 1.941.489.235.006-.127-1.478-1.097-1.51-.99-1.682-1.066-1.822-.844zm-8.395 1.51c-1.262 1.408-2.24 2.608-1.814 2.22.241-.215.692-.615 1.003-.888 1.643-1.434 1.84-1.662 1.643-1.859-.171-.165-.26-.108-.831.527zm7.59-.457c-.108.133.17.45 1.275 1.428 1.948 1.732 2.005 1.726.425-.051-1.428-1.612-1.472-1.644-1.7-1.377zM8.406 17.54c-.432.888-.768 1.63-.743 1.656.064.063 1.974-2.837 1.974-2.995 0-.096-.317-.305-.425-.273-.007.006-.375.73-.806 1.611zm5.888-1.46c-.197.146-.127.298.749 1.618.977 1.472 1.332 1.942 1.104 1.46-.368-.762-1.605-3.237-1.618-3.237a1.4 1.4 0 0 0-.235.16zm-3.953.52c-.025.077-.19.889-.374 1.796a94.73 94.73 0 0 1-.413 1.967c-.044.171-.05.286-.019.254.057-.057 1.37-3.883 1.37-3.991 0-.127-.532-.153-.564-.026zm2.729-.05c-.16.101-.102.374.374 1.783.672 1.998.761 1.96.324-.146-.178-.863-.324-1.606-.324-1.663 0-.127-.146-.12-.374.026zm-1.358 1.484c.044.743.089 1.733.101 2.19l.013.837.095-.888c.305-2.856.305-3.49-.006-3.49-.286 0-.286.006-.203 1.351z"/></g></svg>