<svg version="1.2" xmlns="http://www.w3.org/2000/svg" viewBox="0 0 24 24"><title>J&amp;K Bank</title><path d="M7.6 1.5h.2c.4 1.1 1.1 2.2 1.6 3.4-1.6-.3-3.2 0-4.8-.1-.8-.1-1.6-.3-2.3-.6.7-.5 1.5-.8 2.3-1.2 1-.5 2.1-.9 3-1.5zM.2 7c1.7.3 3.4.3 5 .7 1.1.3 2.1.7 2.8 1.6.4.6.6 1.3.6 2-1.3.6-2.5 1.1-3.8 1.7-.4.2-.9.6-1.4.6C2.4 11.3 1.2 9.2.2 7z" style="fill:#de4019"/><path d="M14 2.6c.1-.3.4-.1.5-.1 2.8 1.1 5.6 2.3 8.3 3.4.2.1 0 .4 0 .5q-1.7 4-3.3 8 0 .2-.2.3c-.1-.4-.1-.9-.2-1.3-.3-1-1-1.8-1.9-2.3-.8-.4-1.7-.5-2.6-.7.3-.5.7-.9 1.2-1.3.2-.2.5-.2.8-.2-.1-.1-.1-.2-.1-.3-.4-.2-.8-.5-1.3-.5-.9.2-1.8.6-2.8.8-.1-.4-.3-.9-.4-1.3.6-1.7 1.3-3.4 2-5z" style="fill:#0084c4"/><path d="M11.1 13.7c.1-.2.5-.2.7-.2.7 0 1.4-.1 2 .2 1.4.6 2.4 1.9 2.9 3.3-1.9 2-3.7 4.1-5.6 6.1-.6-.3-1-.8-1.5-1.2C7.8 20.2 6 18.6 4.2 17c.5-.7 1-1.2 1.6-1.8.6.5 1.3 1 2.1 1.2h2.3l.9-2.7z" style="fill:#68b92e"/></svg>