<svg xmlns="http://www.w3.org/2000/svg" xml:space="preserve" viewBox="0 0 24 24"><defs><clipPath id="a"><rect width="36" height="36" fill="#fff" rx="18"/></clipPath></defs><g fill="none" clip-path="url(#a)" transform="translate(.095 .074) scale(.66206)"><path fill="#d9008d" d="M0 18c0 9.941 8.059 18 18 18s18-8.059 18-18S27.941 0 18 0 0 8.059 0 18Z"/><path fill="#fff" d="M26.179 8.156a1.124 1.124 0 0 0-1.305-.911l-1.001.18-2.183 3.825 4.883-.866zm-5.186-.225-4.624.821-2.183 3.803 4.624-.81zM13.5 9.259l-4.117.72a1.125 1.125 0 0 0-.923 1.27l.383 2.25 2.463-.438zM9 14.625V24.75A2.25 2.25 0 0 0 11.25 27h13.5A2.25 2.25 0 0 0 27 24.75V14.625zm11.543 7.087-2.993 2.25a1.125 1.125 0 0 1-1.8-.9v-4.5a1.125 1.125 0 0 1 1.8-.9l2.993 2.25a1.125 1.125 0 0 1 0 1.8z"/></g></svg>