<svg xmlns="http://www.w3.org/2000/svg" version="1.2" viewBox="0 0 24 24"><title>JioMart</title><style>.s0{fill:#df1f25}.s1{fill:#fefefe}</style><path id="Layer" fill-rule="evenodd" d="M12.5 24c-1.5 0-3-.3-4.4-.9-1.4-.6-2.7-1.4-3.7-2.5-1.1-1.1-2-2.3-2.5-3.7-.6-1.4-.9-2.9-.9-4.4C1 6.1 6.2 1 12.6 1 18.9 1 24 6.2 24 12.6 24 18.8 18.8 24 12.5 24zM10 8.9H7.7c-.5 0-.8.3-.7.9v.8l.6 6.8c.1.4.3.7.8.7h8.2c.4 0 .7-.3.7-.7q.1-.5.1-1l.6-6.6c.1-.6-.2-.9-.9-.9h-1.9c-.3-1.7-1.3-2.6-2.8-2.6-1 .1-2.3.8-2.4 2.6z" class="s0"/><path fill-rule="evenodd" d="M10 8.9c.1-1.8 1.4-2.5 2.4-2.6 1.5 0 2.5.9 2.8 2.6h1.9c.7 0 .9.3.9.9l-.6 6.6q0 .5-.1 1c0 .4-.3.7-.7.7H8.4c-.5 0-.7-.3-.8-.7L7 10.6v-.8c-.1-.6.2-.9.7-.9H10zm4.5 6.3c.9 0 1.5-.5 1.5-1.3s-.6-1.4-1.5-1.4c-.8 0-1.4.6-1.4 1.4 0 .8.6 1.3 1.4 1.3zm-5.2-1.1c-.2.1-.3.3-.3.5s.2.4.3.5h.3q.1.1.3.1h.5q.9-.1 1-1c.1-.7.1-1.4.1-2.1 0-.1-.2-.3-.3-.3-.5-.1-.8-.1-.8.5v1.6c0 .4-.2.5-.6.4-.2 0-.3-.1-.5-.2zM14 8.9c0-.9-.7-1.5-1.5-1.5q-.3 0-.5.1-.3.2-.5.4t-.3.4q-.1.3-.1.6zm-2.1 5q-.1.4 0 .9c0 .3.1.4.4.4.4 0 .5-.1.5-.4q.1-.9 0-1.9c0-.3-.1-.4-.5-.4-.3.1-.4.2-.4.5q-.1.4 0 .9zm.5-1.6q.5-.1.5-.5 0-.5-.5-.5c-.4 0-.6.2-.6.5s.2.5.6.5z" class="s1"/><path fill-rule="evenodd" d="M14.5 15.2c-.8 0-1.4-.5-1.4-1.3s.6-1.4 1.4-1.4c.9 0 1.5.6 1.5 1.4 0 .8-.6 1.3-1.5 1.3zm.6-1.3zm-.6-.6c-.3 0-.5.2-.5.6 0 .3.2.6.5.6s.6-.3.6-.6c0-.4-.3-.6-.6-.6z" class="s0"/><path d="M9.3 14.1c.2.1.3.2.5.2.3.1.6 0 .6-.4v-1.6c0-.6.3-.6.8-.5.1 0 .2.2.2.3.1.7.1 1.4 0 2.1q-.1.9-1 1h-.5q-.2 0-.3-.1h-.3c-.1-.1-.3-.3-.3-.5s.1-.5.3-.5zM14 8.9h-2.9q0-.3.1-.6.1-.2.3-.4.2-.2.5-.4.2-.1.5-.1c.8 0 1.5.6 1.5 1.5zm-2.2 5V13c0-.3.2-.5.5-.5.4 0 .5.1.5.4q.1 1 0 1.9c0 .3-.2.4-.5.4s-.5-.1-.5-.4v-.9zm.5-1.6c-.3 0-.5-.2-.5-.5s.2-.5.5-.5c.4 0 .6.2.6.5s-.2.5-.6.5z" class="s0"/><path d="M15.1 13.9c0 .3-.3.6-.6.6s-.5-.3-.5-.6c0-.4.2-.6.5-.6s.6.2.6.6z" class="s1"/></svg>