<svg version="1.2" xmlns="http://www.w3.org/2000/svg" viewBox="0 0 24 24"><title>Karnataka Bank</title><path fill-rule="evenodd" d="M1 6h7.3L11.8.4 12 0l.2.4L15.7 6h7.4l-.3.4-3.4 5.6 3.4 5.6.3.4h-7.4l-3.5 5.6-.2.4-.2-.4L8.4 18H1l.2-.4L4.7 12 1.2 6.4zm19.1 1.6h-3.4l1.7 2.7zM12 3.2 10.3 6h3.4zM3.9 7.6l1.8 2.8 1.7-2.8zm0 8.8h3.4l-1.7-2.8zm16.2 0-1.8-2.8-1.7 2.8zM9.3 7.7 6.5 12l2.8 4.4h5.4l2.8-4.4-2.8-4.3zM12 20.8l1.8-2.8h-3.5zm-.2-10.6c.6 0 1.1.2 1.4.5.4.3.6.8.6 1.3s-.2 1-.6 1.3c-.3.4-.8.6-1.4.6-.5 0-1-.2-1.4-.6-.3-.3-.6-.8-.6-1.3s.3-1 .6-1.3c.4-.3.9-.5 1.4-.5z" style="fill:#853a93"/></svg>