<svg version="1.0" viewBox="0 0 24 24" preserveAspectRatio="xMidYMid" xml:space="preserve" xmlns:xlink="http://www.w3.org/1999/xlink" xmlns="http://www.w3.org/2000/svg"><title>KeePass</title><defs><linearGradient id="a"><stop style="stop-color:#000;stop-opacity:0" offset="0"/><stop style="stop-color:#4e75e5;stop-opacity:1" offset="1"/></linearGradient><linearGradient xlink:href="#a" id="b" x1="7.77" y1="6.841" x2="20.725" y2="15.494" gradientUnits="userSpaceOnUse" gradientTransform="translate(-6.354 -2.053) scale(1.27559)"/></defs><circle style="display:inline;fill:#fff;fill-opacity:1;fill-rule:nonzero;stroke:#000;stroke-width:.0277824;stroke-linejoin:bevel;stroke-dasharray:none;stroke-opacity:1" cx="11.919" cy="11.995" r="10.575"/><circle style="display:inline;fill:url(#b);fill-opacity:1;fill-rule:nonzero;stroke:#000;stroke-width:.026572;stroke-linejoin:bevel;stroke-dasharray:none;stroke-opacity:1" cx="11.719" cy="12.189" r="10.149" transform="rotate(-1.286)"/><path style="fill:#000;fill-opacity:1;fill-rule:evenodd;stroke:#000;stroke-width:.0198446px;stroke-linecap:butt;stroke-linejoin:miter;stroke-opacity:1" d="m6.115 16.63 11.536-.072v1.21H6.115Z"/><path style="fill:#000;fill-opacity:1;fill-rule:evenodd;stroke:#000;stroke-width:.0277824;stroke-linecap:butt;stroke-linejoin:miter;stroke-dasharray:none;stroke-opacity:1" d="m6.115 11.033 11.536-.071v1.21H6.115Z"/><path style="fill:#000;fill-opacity:1;fill-rule:evenodd;stroke:#000;stroke-width:.0198446px;stroke-linecap:butt;stroke-linejoin:miter;stroke-opacity:1" d="M6.186 12.885H11.1v1.068H6.186Zm0 1.706H11.1v1.069H6.186Zm6.469-1.627h4.914v1.068h-4.914zm0 1.627h4.914v1.069h-4.914z"/><g style="display:inline"><path d="M338 885c-82-22-141-57-204-119-180-180-180-452 0-632 180-179 452-179 632 0 179 180 179 452 0 632-116 115-278 161-428 119Zm285-73c82-41 149-107 190-191 30-61 32-73 32-171 0-93-3-111-27-163-38-80-117-160-197-200-61-30-72-32-171-32-98 0-110 2-170 32-83 41-152 110-193 193-30 60-32 72-32 170 0 97 2 110 31 170 34 73 105 150 168 182 75 39 118 48 212 45 79-2 100-7 157-35z" style="display:inline" transform="matrix(.02643 0 0 -.02643 .14 23.81)"/><path d="M375 742c-73-34-115-105-115-194 0-37 1-38 35-38 33 0 35 2 35 35 0 85 47 140 120 140 74 0 120-55 120-145 0-39 1-40 35-40h35v53c0 148-140 247-265 189z" style="display:inline" transform="matrix(.02643 0 0 -.02643 .14 23.81)"/></g></svg>