<svg version="1.2" xmlns="http://www.w3.org/2000/svg" viewBox="0 0 24 24"><title>Kotak Mahindra Bank</title><path d="M12.2 21.6C5.7 21.6.5 17 .5 11.5.5 5.9 5.7 1.3 12.2 1.3 18.7 1.3 24 5.9 24 11.5c0 5.5-5.3 10.1-11.8 10.1z" style="fill:#003874"/><path d="m10.8 4.6 2.7-.9v14.8l-2.7.9z" style="fill:#ed1c24"/><path d="M21.1 12.5c-.3 2.1-1.5 4.2-4.1 4.2-1.5 0-2.6-1-3.5-2.3V13c1.1.5 2 1 3.2 1 1.4 0 2.7-.5 3.2-1.5zm-8.6 1.3c-1.2 1.4-2.4 2.9-4.5 2.9-3.1 0-4.5-2.9-4.5-5.4 0-2.4 1.1-5.2 4.1-5.2 1.3 0 2.5.8 3.3 1.7v2c-.7-.5-2-.9-2.9-.9-1.9 0-3.6.8-3.5 2.7 0 1.2 1.2 2.1 2.5 2.1 1.9 0 3.1-1.8 4.1-3.1.2-.3 1-1.4 1.1-1.5 1.1-1.5 2.4-2.9 4.5-2.9 2.5 0 4 2 4.4 4.1h-1.2c-.4-.7-1.3-1.1-2.2-1.1-2 0-3.2 1.9-4.2 3.2 0 0-.7 1.1-1 1.4" style="fill:#fff"/></svg>