<svg xmlns="http://www.w3.org/2000/svg" id="svg2" version="1.1" viewBox="0 0 24 24"><title>Lenskart</title><defs id="defs4"><style id="style4139">.cls-1{fill:#df1f25}.cls-2{fill:#fefefe}.s0{fill:#df1f25}.s1{fill:#fefefe}</style></defs><g id="layer1" transform="translate(0 -1028.362)"><g id="g4881" fill="none" transform="translate(-8.885 1027) scale(.46058)"><path id="path4859" fill="#010045" d="M33.188 38.767c4.513-.094 8.11-3.19 8.274-7.998.446 1.994 1.316 3.753 2.28 5.254-2.703 2.088-5.266 3.026-7.945 3.026a11.85 11.85 0 0 1-2.61-.282z"/><path id="path4861" fill="#010045" d="M71.361 30.37c0 .446-.282.751-.728.751h-1.034l.046-.657c.189-2.627-.376-4.41-1.48-5.98l2.515.727c.54.187.681.445.681 1.149v4.01z"/><path id="path4863" fill="#010045" d="M19.484 26.36c0-.704.14-.985.658-1.15l2.633-.727c-1.199 1.69-1.787 3.964-1.693 5.958l.047.68h-.94c-.423 0-.705-.305-.705-.75V26.36z"/><path id="path4865" fill="#010045" d="M28.58 24.225c1.364-1.712 3.291-2.556 5.807-2.556 4.56 0 8.203 2.768 9.966 7.388l.94 2.392c2.28 5.981 5.242 8.96 8.697 10.062-5.382-.797-9.614-4.01-11.4-9.288l-.8-2.415c-1.715-4.95-4.395-7.201-8.626-7.201-1.716 0-3.408.633-4.583 1.618z"/><path id="path4867" fill="#010045" d="M59.89 20.004c5.36.704 9.191 4.785 9.191 9.64 0 4.245-3.196 7.693-7.545 8.045 2.915-1.783 4.02-4.176 4.02-7.436 0-4.667-2.163-8.795-5.665-10.25z"/><path id="path4869" fill="#010045" d="M50.84 19.746c-2.091.844-3.83 2.064-5.359 3.753-2.068-2.088-3.408-2.885-5.759-3.73l11.119-.023z"/><path id="path4871" fill="#010045" d="M45.857 23.991c2.845-2.955 6.37-4.55 9.473-4.55 3.855 0 7.687 2.51 9.026 7.036-1.762-2.978-4.771-3.87-6.934-3.87-4.301 0-8.062 3.589-8.062 8.092-.94-3.4-2.421-5.629-3.503-6.708z"/><path id="path4873" fill="#010045" d="M21.74 30.44c0-6.496 5.007-11 12.27-11 6.676 0 11.942 3.636 14.198 9.805l.658 1.923c1.88 5.16 4.96 7.623 9.497 7.623 3.384 0 7.31-1.15 9.332-3.472-1.716 3.87-5.477 6.098-10.061 6.098-5.265 0-9.12-3.47-11.4-9.475l-1.035-2.697c-2.068-5.348-5.806-8.28-10.671-8.28-5.5 0-9.262 3.894-9.262 9.382 0 5.606 4.137 9.382 10.343 9.382 2.021 0 3.784-.399 5.547-1.243-1.974 1.9-4.771 2.932-7.874 2.932-6.652 0-11.542-4.644-11.542-10.977z"/></g></g></svg>