<?xml version="1.0" encoding="UTF-8" standalone="no"?>
<svg
   xml:space="preserve"
   preserveAspectRatio="xMidYMid"
   version="1.0"
   viewBox="0 0 24 24"
   id="svg42"
   sodipodi:docname="lenskart.svg"
   inkscape:version="1.2.2 (732a01da63, 2022-12-09)"
   xmlns:inkscape="http://www.inkscape.org/namespaces/inkscape"
   xmlns:sodipodi="http://sodipodi.sourceforge.net/DTD/sodipodi-0.dtd"
   xmlns="http://www.w3.org/2000/svg"
   xmlns:svg="http://www.w3.org/2000/svg"
   xmlns:rdf="http://www.w3.org/1999/02/22-rdf-syntax-ns#"
   xmlns:cc="http://creativecommons.org/ns#"
   xmlns:dc="http://purl.org/dc/elements/1.1/"><sodipodi:namedview
     id="namedview44"
     pagecolor="#505050"
     bordercolor="#eeeeee"
     borderopacity="1"
     inkscape:showpageshadow="0"
     inkscape:pageopacity="0"
     inkscape:pagecheckerboard="0"
     inkscape:deskcolor="#505050"
     showgrid="false"
     inkscape:zoom="19.407086"
     inkscape:cx="19.786587"
     inkscape:cy="11.645231"
     inkscape:window-width="1366"
     inkscape:window-height="715"
     inkscape:window-x="-8"
     inkscape:window-y="-8"
     inkscape:window-maximized="1"
     inkscape:current-layer="svg42" /><title
     id="title24">IDFC First Bank</title><defs
     id="defs27"><path
       id="a"
       d="M0 83h235V0H0z" /><style
       id="style4139">.cls-1{fill:#df1f25}.cls-2{fill:#fefefe}.s0{fill:#df1f25}.s1{fill:#fefefe}</style></defs><rect
     style="fill:#010045;fill-opacity:1;fill-rule:evenodd;stroke:#000000;stroke-width:0;stroke-linejoin:bevel;stroke-dasharray:none"
     id="rect6519"
     width="24.114902"
     height="24.063375"
     x="0"
     y="0" /><g
     id="g4881"
     fill="none"
     transform="matrix(0.46058,0,0,0.46058,-8.8632436,-1.2060408)"
     style="fill:#ffffff;fill-opacity:1"><path
       id="path4859"
       fill="#010045"
       d="m 33.188,38.767 c 4.513,-0.094 8.11,-3.19 8.274,-7.998 0.446,1.994 1.316,3.753 2.28,5.254 -2.703,2.088 -5.266,3.026 -7.945,3.026 a 11.85,11.85 0 0 1 -2.61,-0.282 z"
       style="fill:#ffffff;fill-opacity:1" /><path
       id="path4861"
       fill="#010045"
       d="m 71.361,30.37 c 0,0.446 -0.282,0.751 -0.728,0.751 h -1.034 l 0.046,-0.657 c 0.189,-2.627 -0.376,-4.41 -1.48,-5.98 l 2.515,0.727 c 0.54,0.187 0.681,0.445 0.681,1.149 z"
       style="fill:#ffffff;fill-opacity:1" /><path
       id="path4863"
       fill="#010045"
       d="m 19.484,26.36 c 0,-0.704 0.14,-0.985 0.658,-1.15 l 2.633,-0.727 c -1.199,1.69 -1.787,3.964 -1.693,5.958 l 0.047,0.68 h -0.94 c -0.423,0 -0.705,-0.305 -0.705,-0.75 z"
       style="fill:#ffffff;fill-opacity:1" /><path
       id="path4865"
       fill="#010045"
       d="m 28.58,24.225 c 1.364,-1.712 3.291,-2.556 5.807,-2.556 4.56,0 8.203,2.768 9.966,7.388 l 0.94,2.392 c 2.28,5.981 5.242,8.96 8.697,10.062 -5.382,-0.797 -9.614,-4.01 -11.4,-9.288 l -0.8,-2.415 c -1.715,-4.95 -4.395,-7.201 -8.626,-7.201 -1.716,0 -3.408,0.633 -4.583,1.618 z"
       style="fill:#ffffff;fill-opacity:1" /><path
       id="path4867"
       fill="#010045"
       d="m 59.89,20.004 c 5.36,0.704 9.191,4.785 9.191,9.64 0,4.245 -3.196,7.693 -7.545,8.045 2.915,-1.783 4.02,-4.176 4.02,-7.436 0,-4.667 -2.163,-8.795 -5.665,-10.25 z"
       style="fill:#ffffff;fill-opacity:1" /><path
       id="path4869"
       fill="#010045"
       d="m 50.84,19.746 c -2.091,0.844 -3.83,2.064 -5.359,3.753 -2.068,-2.088 -3.408,-2.885 -5.759,-3.73 l 11.119,-0.023 z"
       style="fill:#ffffff;fill-opacity:1" /><path
       id="path4871"
       fill="#010045"
       d="m 45.857,23.991 c 2.845,-2.955 6.37,-4.55 9.473,-4.55 3.855,0 7.687,2.51 9.026,7.036 -1.762,-2.978 -4.771,-3.87 -6.934,-3.87 -4.301,0 -8.062,3.589 -8.062,8.092 -0.94,-3.4 -2.421,-5.629 -3.503,-6.708 z"
       style="fill:#ffffff;fill-opacity:1" /><path
       id="path4873"
       fill="#010045"
       d="m 21.74,30.44 c 0,-6.496 5.007,-11 12.27,-11 6.676,0 11.942,3.636 14.198,9.805 l 0.658,1.923 c 1.88,5.16 4.96,7.623 9.497,7.623 3.384,0 7.31,-1.15 9.332,-3.472 -1.716,3.87 -5.477,6.098 -10.061,6.098 -5.265,0 -9.12,-3.47 -11.4,-9.475 l -1.035,-2.697 c -2.068,-5.348 -5.806,-8.28 -10.671,-8.28 -5.5,0 -9.262,3.894 -9.262,9.382 0,5.606 4.137,9.382 10.343,9.382 2.021,0 3.784,-0.399 5.547,-1.243 -1.974,1.9 -4.771,2.932 -7.874,2.932 -6.652,0 -11.542,-4.644 -11.542,-10.977 z"
       style="fill:#ffffff;fill-opacity:1" /></g><metadata
     id="metadata8820"><rdf:RDF><cc:Work
         rdf:about=""><dc:title>IDFC First Bank</dc:title></cc:Work></rdf:RDF></metadata></svg>
