<svg xmlns="http://www.w3.org/2000/svg" xml:space="preserve" viewBox="0 0 24 24"><title>Lenskart</title><g fill="#fff"><path d="M6.374 15.245c2.083-.044 3.743-1.473 3.819-3.692.206.92.607 1.732 1.052 2.425-1.247.964-2.43 1.397-3.667 1.397a5.47 5.47 0 0 1-1.205-.13zm17.62-3.876c0 .206-.13.346-.336.346h-.477l.021-.303c.087-1.212-.173-2.035-.683-2.76l1.16.335c.25.087.315.206.315.53zM.048 9.518c0-.325.064-.455.304-.531l1.215-.336c-.554.78-.825 1.83-.782 2.75l.022.314H.373c-.195 0-.325-.14-.325-.346z"/><path d="M4.247 8.532c.63-.79 1.519-1.18 2.68-1.18 2.105 0 3.787 1.278 4.6 3.41l.434 1.105c1.053 2.76 2.42 4.136 4.015 4.644-2.485-.367-4.438-1.85-5.262-4.287l-.37-1.115c-.791-2.285-2.028-3.324-3.981-3.324-.793 0-1.574.293-2.116.747zM18.7 6.584c2.473.325 4.242 2.209 4.242 4.45 0 1.96-1.475 3.55-3.483 3.713 1.346-.823 1.856-1.927 1.856-3.432 0-2.155-.999-4.06-2.615-4.732zm-4.178-.119a6.58 6.58 0 0 0-2.474 1.732c-.955-.964-1.573-1.332-2.658-1.722l5.132-.01z"/><path d="M12.222 8.424c1.313-1.364 2.94-2.1 4.372-2.1 1.78 0 3.549 1.159 4.167 3.248-.814-1.375-2.203-1.787-3.201-1.787-1.985 0-3.721 1.657-3.721 3.736-.434-1.57-1.118-2.599-1.617-3.097z"/><path d="M1.09 11.401c0-2.998 2.31-5.077 5.663-5.077 3.082 0 5.512 1.678 6.554 4.525l.304.888c.867 2.382 2.29 3.519 4.383 3.519 1.562 0 3.375-.53 4.308-1.603-.792 1.787-2.528 2.815-4.644 2.815-2.43 0-4.21-1.602-5.262-4.374l-.478-1.245c-.955-2.468-2.68-3.822-4.926-3.822-2.539 0-4.275 1.798-4.275 4.331 0 2.588 1.91 4.33 4.774 4.33.933 0 1.747-.183 2.56-.573-.91.877-2.202 1.354-3.634 1.354-3.07 0-5.328-2.144-5.328-5.067z"/></g></svg>