<svg xmlns="http://www.w3.org/2000/svg" xml:space="preserve" viewBox="0 0 24 24"><path fill="#7c8d97" fill-rule="evenodd" d="M.046.092h24v24h-24z"/><path fill="#fff" d="M6.907 19.535a1.55 1.55 0 0 1-.252 1.054 2.167 2.167 0 0 1-2.8 0 1.55 1.55 0 0 1-.253-1.054V4.872a1.545 1.545 0 0 1 .253-1.058 1.758 1.758 0 0 1 1.385-.51 1.782 1.782 0 0 1 1.414.51 1.545 1.545 0 0 1 .253 1.058v14.663Zm8.75-6.308H8.338V10.27h7.318zm4.736 6.308a1.55 1.55 0 0 1-.252 1.054 2.167 2.167 0 0 1-2.8 0 1.55 1.55 0 0 1-.253-1.054V4.872a1.543 1.543 0 0 1 .254-1.058 1.758 1.758 0 0 1 1.384-.51 1.783 1.783 0 0 1 1.414.51 1.545 1.545 0 0 1 .253 1.058z"/></svg>