<svg xmlns="http://www.w3.org/2000/svg" xml:space="preserve" viewBox="0 0 24 24"><defs><clipPath id="a"><path fill="#fff" d="M0 0h48v20H0z"/></clipPath></defs><g fill="none"><path fill="#fbf8f2" fill-rule="evenodd" d="M-.109-.072h24.21v24.244H-.11z"/><g clip-path="url(#a)" transform="translate(.467 7.567) scale(.47403)"><path fill="#d11243" d="M12.079 2.318c.208-.9-.291-1.784-1.114-1.974-.823-.19-1.66.386-1.867 1.286-.208.9.29 1.784 1.114 1.974.823.19 1.659-.385 1.867-1.286zm11.61 0c.207-.9-.291-1.784-1.114-1.974-.824-.19-1.66.386-1.868 1.286-.208.9.291 1.784 1.114 1.974.824.19 1.66-.386 1.868-1.286zM7.54 12.994c1.821 2.62 4.091 4.012 7.623 4.012 3.917 0 6.761-1.772 8.415-4.083 1.051.561 1.4 1.193 1.4 1.882 0 1.983-3.69 5.195-9.284 5.195-4.829 0-8.163-2.751-9.11-5.289-.341-.914.175-1.703.956-1.717Z"/><path fill="#4b4f54" d="M48 12.193c0 1.647-1.484 3.113-3.261 3.113-1.96 0-3.048-1.184-3.048-2.37 0-1.187.875-2.014 1.947-1.612a.75.75 0 0 0-.328.644c0 .334.257.752.797.752.45 0 .871-.385.871-1.057 0-1.004-1.192-2.007-1.948-3.3a4.784 4.784 0 0 1-.842 1.946c-.98 1.364-2.392 2.453-3.843 2.453-.706 0-1.504-.54-1.504-1.51 0-.11.006-.221.017-.335-.89 1.073-2.017 1.846-3.116 1.846-.812 0-1.547-.529-1.547-1.512 0-1.204 1.132-3.527 1.132-5.158 0-.318-.09-.68-.296-.914.331-.426.701-.798 1.464-.798.74 0 1.435.515 1.435 1.356 0 1.198-.785 2.96-.785 3.978 0 .31.202.492.492.492 1.083 0 2.314-2.572 2.314-4.115 0-.328-.105-.71-.289-.992.331-.426.788-.726 1.464-.726.653 0 1.363.512 1.363 1.291 0 1.278-.727 3.257-.727 4.049 0 .273.162.493.51.493.936 0 2.152-2.1 2.152-3.858l.001-.03c.016-1.425 1.135-2.266 2.221-2.266.65 0 1.072.281 1.238.589-.63 0-.942.608-.942 1.291 0 2.222 3.058 3.434 3.058 6.26ZM9.807 4.374c-.676 0-1.16.305-1.515.807.218.275.34.633.34 1.197 0 1.106-1.11 3.957-1.11 4.882 0 .926.798 1.503 1.503 1.503.609 0 1.365-.376 1.801-1.047-.301-.321-.484-.867-.484-1.464 0-.942.828-3.239.828-4.516 0-.78-.636-1.362-1.363-1.362zm11.616 0c-.676 0-1.16.305-1.515.807.217.275.34.633.34 1.197 0 1.106-1.11 3.957-1.11 4.882 0 .926.798 1.503 1.503 1.503.608 0 1.364-.376 1.8-1.047-.3-.321-.483-.867-.483-1.464 0-.942.828-3.239.828-4.516 0-.78-.636-1.362-1.363-1.362zm10.443 3.302c0 2.664-2.178 5.087-4.943 5.087-1.908 0-3.65-1.025-3.65-3.302 0-2.664 2.179-5.087 4.943-5.087 1.9 0 3.65 1.025 3.65 3.302zM29.092 8.75c.24-1.36-.183-2.485-1.015-2.632-.832-.147-1.788.906-2.028 2.266-.238 1.348.255 2.499 1.087 2.645.832.147 1.716-.919 1.956-2.279zM16.506 7.343c.203.275.543.48 1.059.48.745 0 1.313-.69 1.313-1.735 0-.853-.776-1.714-2.254-1.714-2.606 0-4.966 2.484-4.966 5.191 0 1.918 1.263 3.198 3.32 3.198 1.993 0 3.456-1.25 3.456-2.465 0-.321-.247-.557-.662-.61-.443.703-1.169 1.057-1.844 1.057-.836 0-1.533-.755-1.533-1.776 0-1.356 1.052-2.85 1.936-2.85.341 0 .512.212.512.534 0 .27-.087.483-.337.69zM6.01 9.453c-.369.457-1.43.684-3.064.485 1.166-2.912 1.946-5.686 1.946-7.74 0-1.153-.584-1.89-1.638-1.89-.624 0-1.296.27-1.754.952.306.352.41.998.41 1.559C1.91 6.906 0 9.777 0 11.457c0 .693.402 1.068.831 1.298.308-.252.841-.43 1.217-.43.863 0 2.188.576 3.592.553.884-.014 1.361-.935 1.35-1.64-.01-.608-.364-1.358-.98-1.785Z"/></g></g></svg>