<svg xmlns="http://www.w3.org/2000/svg" xml:space="preserve" viewBox="0 0 24 24"><path fill="#f99d1c" d="m20.01 10.797.793-.03.095-1.223h2.013v1.253h.95v1.007h-.95v2.434c0 .635.123.84.82.84h.18v1.09a11.89 11.89 0 0 1-1.333.071c-1.272 0-1.915-.395-1.915-1.45v-2.985h-.645zm-3.323 5.371h-2.981v-.967h.22c.144 0 .195-.082.195-.216V12c0-.135-.051-.216-.195-.216h-.22v-.986h2.664v.846a2.135 2.135 0 0 1 1.79-.96c1.243 0 1.512.646 1.512 1.603v2.703c0 .133.05.216.214.216h.18v.967h-2.97v-.967h.123c.132 0 .195-.083.195-.216v-2.457c0-.443-.161-.585-.46-.585-.3 0-.584.236-.584.758v2.274a.2.2 0 0 0 .219.226h.098zM10.598 12c0-.135-.05-.216-.195-.216h-.224v-.986h2.668v4.19c0 .143.051.226.195.226h.2v.967h-3.063v-.967h.221c.145 0 .195-.083.195-.216zm-7.43 4.17H.189v-.97h.22c.145 0 .195-.082.195-.216V12c0-.135-.05-.216-.195-.216h-.22v-.986h2.687v.836c.384-.54.885-.95 1.685-.95 1.058 0 1.413.425 1.535 1.052a1.992 1.992 0 0 1 1.754-1.051c1.342 0 1.526.645 1.526 1.602v2.703c0 .133.06.216.226.216h.17v.967h-2.93v-.967h.08c.135 0 .195-.083.195-.216v-2.457c0-.443-.152-.585-.461-.585-.41 0-.543.339-.543.861v2.171c0 .143.06.226.196.226h.121v.967H3.58v-.967h.083c.13 0 .192-.083.192-.216v-2.457c0-.443-.152-.585-.461-.585-.41 0-.542.339-.542.861v2.171c0 .143.052.226.195.226h.123zm8.54-8.36a1.212 1.212 0 1 1-1.206 1.217 1.217 1.217 0 0 1 1.207-1.217" data-name="Layer 1"/></svg>