<svg xmlns="http://www.w3.org/2000/svg" xml:space="preserve" viewBox="0 0 24 24"><path fill="#01adef" d="M5.38 19.269v-6.597c0-1.186-.144-2.482.102-3.647.09-.43.255-.869.596-1.164.796-.69 2.244-.552 2.907.244.567.68.518 1.706.518 2.537v5.201c0 1.145.093 2.464 1.237 3.067.257.135.541.216.824.274.967.2 2.03.085 3.013.085v-6.597c0-1.174-.148-2.465.109-3.616.113-.505.348-.998.78-1.307.764-.548 2.113-.4 2.717.324.578.693.55 1.751.55 2.6v5.17c0 1.16.088 2.461 1.268 3.051.247.123.522.21.793.265 1.029.207 2.126.11 3.171.11v-7.295c0-2.157 0-4.372-1.237-6.248-1.882-2.854-6.214-3.658-8.975-1.644-.575.42-1.263 1.01-1.554 1.676-.511-.876-1.069-1.566-1.967-2.08-2.44-1.396-6.25-.76-8.18 1.255C-.383 7.474.146 11.293.146 14.511c0 1.315-.23 2.909.794 3.932 1.117 1.115 3.011.826 4.439.826"/></svg>