<svg xmlns="http://www.w3.org/2000/svg" xmlns:xlink="http://www.w3.org/1999/xlink" xml:space="preserve" preserveAspectRatio="xMidYMid" version="1.0" viewBox="0 0 24 24"><title>Meesho</title><defs><path id="a" d="M64 171.2h471v108.7H64z"/></defs><g transform="translate(-3.126 .113) scale(.05071)"><clipPath id="b"><use xlink:href="#a" overflow="visible"/></clipPath><path fill="#f43397" d="M133.5 208c7.9.1 14.5 2.8 20 8.2 5.5 5.4 8.2 11.8 8.2 19.5l-.2 35.8c0 4.3-3.6 7.7-8.1 7.7-4.4 0-8-3.5-7.9-7.8l.2-35.8c.1-3.2-1.2-6.3-3.6-8.5-2.3-2.3-5.2-3.5-8.7-3.5-3.4-.1-6.7 1.3-9 3.7-2.3 2.3-3.4 5.4-3.4 8.6l-.2 35.3c0 4.3-3.7 7.8-8.2 7.8-4.5 0-8.1-3.6-8.1-7.9l.2-35.5c.1-3.1-1.1-6.2-3.3-8.4-2.4-2.5-5.4-3.7-9-3.8-3.3-.1-6.4 1.1-8.7 3.4-2.4 2.3-3.6 5.1-3.6 8.4l-.2 35.7c0 4.3-3.6 7.8-8.1 7.7-4.4 0-8-3.5-8-7.8l.2-35.6c0-6.7 2.5-13.1 7-18 5.9-6.3 13.1-9.5 21.5-9.4 8 .1 14.9 2.9 20.4 8.5 5.8-5.6 12.6-8.3 20.6-8.3zm101.2 39.7-45.9-.3c.4 5.5 2.2 9.9 5.5 13.2 3.3 3.2 7.5 4.9 12.5 4.9 4 0 7.3-.9 9.9-2.7 1.5-1.1 3.2-2.7 5-5 2.3-2.9 6.4-3.7 9.7-2l.5.3c4.1 2.2 5 7.5 2 11-.5.6-1 1.2-1.6 1.7-2.2 2.3-4.7 4.4-7.5 6-2.7 1.6-5.6 2.7-8.6 3.4-3.1.7-6.4 1.1-10.1 1.1-10.3-.1-18.6-3.3-24.9-9.8-6.2-6.5-9.3-15.1-9.2-25.8.1-10.6 3.2-19.2 9.3-25.7 6.2-6.4 14.3-9.6 24.4-9.5 10.2.1 18.3 3.3 24.1 9.6 5.8 6.3 8.7 15 8.7 26 0 2-1.8 3.6-3.8 3.6zm-12.6-12.8c-2.2-8.3-7.5-12.4-16.1-12.5-1.9 0-3.7.2-5.5.8-1.7.5-3.3 1.4-4.7 2.5-1.4 1.1-2.6 2.4-3.6 3.9-1.1 1.6-1.8 3.3-2.3 5.2zm89 12.8-45.9-.3c.4 5.5 2.2 9.9 5.5 13.2 3.3 3.2 7.5 4.9 12.5 4.9 4 0 7.3-.9 9.9-2.7 1.6-1.1 3.2-2.7 5-5 2.3-2.9 6.4-3.7 9.7-2l.5.3c4.1 2.2 5 7.5 2 11-.5.6-1 1.2-1.6 1.7-2.2 2.3-4.7 4.4-7.5 6-2.7 1.6-5.6 2.7-8.6 3.4-3.1.7-6.4 1.1-10.1 1.1-10.3-.1-18.7-3.3-24.9-9.8-6.2-6.5-9.3-15.1-9.2-25.8.1-10.6 3.2-19.2 9.3-25.7 6.2-6.4 14.3-9.6 24.4-9.5 10.2.1 18.3 3.3 24.1 9.6 5.8 6.3 8.7 15 8.7 26 0 2-1.7 3.6-3.8 3.6zm-12.6-12.8c-2.2-8.3-7.5-12.4-16.1-12.5-1.9 0-3.7.2-5.5.8-3.4 1.1-6.3 3.3-8.3 6.3-1.1 1.6-1.8 3.3-2.3 5.2zm101-63.7c4.5 0 8.1 3.6 8.1 8l-.3 35.1c5.9-5 12.3-6.2 19.4-6.1 7 0 14.4 3.1 19.2 8.1 4.1 4.4 6 11.4 6 21l-.2 34.1c0 4.4-3.7 7.9-8.2 7.9-4.5 0-8.2-3.6-8.1-8l.2-32.6c0-5.5-.9-9.5-2.9-11.9-2-2.5-5.2-3.7-9.7-3.7-5.7 0-9.8 1.7-12.1 5-2.3 3.5-3.5 9.4-3.6 17.9l-.2 25.3c0 4.4-3.7 7.9-8.3 7.8-4.5 0-8.1-3.6-8.1-8l.7-91.8c-.1-4.7 3.6-8.2 8.1-8.1zm62.1 72.8c.1-9.5 3.6-17.5 10.7-24.1 7-6.6 15.6-9.9 25.7-9.8 10.1.1 18.7 3.5 25.7 10.2 6.9 6.7 10.3 15 10.3 24.7-.1 9.9-3.6 18-10.7 24.7-7.1 6.6-15.8 9.8-26 9.7-10.2-.1-18.7-3.5-25.5-10.3-6.9-6.6-10.3-15-10.2-25.1zm16 .4c0 6.6 1.7 11.7 5.3 15.6 3.7 3.9 8.6 5.9 14.7 5.9s11-1.8 14.7-5.6c3.7-3.8 5.6-8.9 5.6-15.2 0-6.4-1.7-11.5-5.4-15.3-3.7-3.9-8.6-5.9-14.7-5.9-6 0-10.8 1.9-14.6 5.7-3.6 3.7-5.5 8.7-5.6 14.8zm-105-1.4c4.9 3.6 7.4 8.3 7.5 14v.2c0 7-2.7 12.7-7.9 16.6-4.7 3.6-11.2 5.5-18.8 5.5-8.1 0-16.6-2.3-24-6.4-3.9-2.1-5.1-7-2.6-10.7 1.5-2.1 3.9-3.4 6.5-3.4 1.4 0 2.7.3 3.8 1 5.6 3.1 11.4 4.8 16.7 4.8 8.3 0 9.2-4 9.2-5.8v-.2c0-3.5-4.8-5.2-12.6-7.5-.5-.2-1.1-.3-1.6-.5-5.2-1.4-10.6-3.2-14.8-6.2-5-3.6-7.4-8.3-7.4-14.5v-.2c0-12.6 10.6-21.4 25.6-21.4 6.3 0 13.3 1.5 19.6 4.4 1.9.9 3.5 2.5 4.2 4.5.7 2 .4 4.2-.6 6-1.4 2.4-4 3.9-6.8 3.9-1.1 0-2.3-.2-3.3-.7-4.9-2.2-9.5-3.4-13.4-3.4-4.9 0-8.1 2-8.1 5.1v.2c0 3.6 6.3 5.6 13.1 7.7l1.3.4c4.8 1.6 10.1 3.5 14.4 6.6zm0 0" clip-path="url(#b)"/></g></svg>