<svg xmlns="http://www.w3.org/2000/svg" xml:space="preserve" viewBox="0 0 24 24"><path fill="#f18c6e" d="M6.214 2.011c-.168.349.075 1.095.103 1.482.084 1.167.235 2.332.352 3.496l.105 1.023c.015.146-.01.385.072.512.078.119.273.18.391.25.344.205.717.485 1.094.614l-.068-1.095L7.98 5.08c.967.754 2.034 1.394 3.034 2.105.243.173.5.33.742.504.102.072.217.19.354.163.376-.071.852-.553 1.163-.775.64-.455 1.293-.9 1.943-1.341.303-.205.613-.488.953-.62l-.388 4.272c.39-.106.777-.414 1.128-.615.125-.073.318-.141.393-.272.077-.134.056-.34.075-.49.06-.456.093-.917.138-1.376.152-1.52.454-3.097.455-4.624l-1.482 1.026-2.861 2.043-1.059.757-.494.311-.458-.279-1.131-.807ZM6.32 9.3c-.157-.01-.358.118-.494.185-.324.16-.66.3-.988.45-1.035.47-2.068.948-3.107 1.407-.405.179-1.075.334-1.377.66 1.609.77 3.266 1.44 4.872 2.215.383.184.775.355 1.164.527.146.064.409.127.499.269.082.13.009.34-.003.482-.038.46-.092.918-.138 1.377-.174 1.74-.499 3.548-.499 5.296l1.237-.848 2.683-1.927.953-.686.421-.327.037-.52v-1.234c-.38.09-.745.457-1.06.681-.816.58-1.63 1.27-2.505 1.754 0-1.236.234-2.471.283-3.706.012-.293.214-.936.073-1.194-.147-.268-.864-.446-1.134-.58-1.072-.537-2.17-1.096-3.282-1.544v-.072l1.695-.766 2.152-.997v-.073c-.328-.195-.661-.382-.988-.578-.143-.086-.323-.239-.494-.25Zm11.507.005-.494.246-1.023.578v.073l2.648 1.21 1.236.553v.072c-.434.117-.868.393-1.271.59-.69.337-1.388.668-2.084.988-.243.112-.966.298-1.077.55-.048.109.012.264.019.377.021.39.062.778.1 1.166.108 1.1.253 2.248.253 3.353-.838-.463-1.625-1.114-2.402-1.674-.35-.252-.746-.64-1.164-.761v1.234c0 .151-.043.385.038.52.087.145.32.264.456.362.329.237.658.473.988.708.827.586 1.656 1.175 2.473 1.774.417.306.887.772 1.376.944 0-1.448-.277-2.938-.419-4.378l-.178-1.8c-.031-.32-.01-.684-.11-.989 1.54-.624 3.044-1.378 4.554-2.072.623-.286 1.532-.511 2.046-.964l-1.339-.61-3.072-1.38-.988-.452z"/></svg>