<svg viewBox="0 0 24 24" xml:space="preserve" xmlns="http://www.w3.org/2000/svg"><g style="fill:none;stroke:#0f0;stroke-opacity:1"><path fill-rule="evenodd" clip-rule="evenodd" d="m.042 11.294 5.605 4.43V24H0ZM55.35 23.92l1.45-3.62.007.015L64.94.03h-.013L58.69 0h-.014c-1.186 2.975-2.374 5.945-3.56 8.913l-1.442 3.597.007.015-1.457 3.658A3387.512 3387.512 0 0 0 45.774 0l-6.245.03L49.127 24ZM29.647 24h5.647V0h-5.647zm39.53 0h5.647V0h-5.647ZM12.639 10.377 25.412 0v8.005c-4.272 3.474-8.48 6.872-12.753 10.348A3229.08 3229.08 0 0 0 0 8.052V.068Zm12.773.917V24h-5.647v-8.217c1.887-1.491 3.767-2.99 5.647-4.489z" fill="#0f0" style="stroke:#0f0;stroke-opacity:1" transform="translate(.18 7.75) scale(.3172)"/></g></svg>