<svg xmlns="http://www.w3.org/2000/svg" viewBox="0 0 24 24"><title>Myntra</title><g opacity=".975"><path fill="#fefefe" fill-rule="evenodd" d="M5.13 5.008c.47-.564.98-1.168 1.705-1.396.812-.215 1.504.423 2.014.966 1.336 1.531 2.31 3.337 3.216 5.15.49-1.101 1.101-2.149 1.732-3.169.604-.927 1.229-1.867 2.102-2.571.402-.31.96-.605 1.463-.343.712.376 1.249 1 1.753 1.611 1.067 1.377 1.906 2.914 2.665 4.479.947 2.014 1.766 4.115 2.108 6.324.1 1.02.195 2.169-.423 3.062-.476.698-1.383.94-2.189.799a3.965 3.965 0 0 1-1.765-1.283c-1.088-1.342-1.733-2.967-2.33-4.572-.087-.282-.195-.557-.289-.832-.06.282-.14.564-.235.839-.61 1.625-1.262 3.283-2.383 4.632-.45.551-1.04.974-1.712 1.216-.967.201-1.9-.302-2.525-1.014-1.222-1.33-1.9-3.048-2.524-4.72a11.22 11.22 0 0 1-.33-1.04c-.1.355-.22.711-.348 1.053-.564 1.538-1.209 3.089-2.23 4.385-.557.664-1.282 1.316-2.188 1.363-.84.073-1.652-.47-1.974-1.236-.456-1.06-.322-2.256-.12-3.363.436-2.115 1.241-4.136 2.195-6.063.732-1.497 1.564-2.961 2.611-4.277m.477.47c-1.034 1.316-1.86 2.793-2.598 4.29-.92 1.94-1.753 3.961-2.108 6.09-.128.59-.128 1.202-.068 1.8.074.563.296 1.167.813 1.456.497.289 1.135.175 1.584-.148.806-.564 1.343-1.423 1.806-2.276.994-1.9 1.645-3.96 2.135-6.036.524 2.129 1.182 4.25 2.23 6.19.416.72.852 1.464 1.53 1.961.343.309.793.524 1.262.47.524-.054.96-.39 1.33-.745.624-.645 1.08-1.437 1.484-2.23.859-1.758 1.45-3.638 1.913-5.531.578 2.296 1.296 4.599 2.531 6.64.464.711 1.007 1.45 1.82 1.786.57.235 1.296.026 1.625-.504.396-.638.43-1.43.369-2.155-.08-1.175-.423-2.316-.8-3.431a30.932 30.932 0 0 0-2.94-6.143c-.557-.86-1.135-1.726-1.913-2.41-.276-.242-.685-.477-1.034-.236-.672.41-1.135 1.061-1.605 1.679-1.141 1.625-2.081 3.397-2.853 5.223-.02.027-.074.081-.094.108a6.638 6.638 0 0 0-.222-.611C11.011 9.003 10.131 7.318 9.01 5.8c-.383-.503-.779-1.014-1.296-1.383-.221-.154-.517-.295-.779-.16-.557.254-.946.758-1.329 1.221" clip-rule="evenodd"/><path fill="#9e242e" d="M5.606 5.478c.383-.463.779-.96 1.336-1.215.262-.134.557 0 .779.16.517.37.913.887 1.296 1.384 1.114 1.524 2 3.203 2.793 4.915.094.194.16.402.221.61-1.034-1.752-1.974-3.571-3.263-5.156-.376-.443-.772-.913-1.316-1.148-.308-.134-.624.04-.88.208-.926.78-1.61 1.793-2.255 2.8a29.197 29.197 0 0 0-3.41 7.822c.355-2.129 1.181-4.15 2.108-6.09.731-1.497 1.557-2.974 2.591-4.29M16.577 4.31c.349-.242.758-.007 1.034.235.778.678 1.356 1.544 1.913 2.41a30.74 30.74 0 0 1 2.94 6.143c.377 1.115.72 2.25.8 3.431a13.44 13.44 0 0 0-.618-2.403 28.597 28.597 0 0 0-2.894-6.11c-.523-.82-1.08-1.632-1.752-2.33-.269-.268-.557-.55-.926-.671-.29-.088-.551.114-.786.255-.624.49-1.108 1.121-1.571 1.759a32.42 32.42 0 0 0-2.209 3.639c-.107.201-.242.39-.39.557.773-1.833 1.713-3.599 2.854-5.223.47-.625.94-1.283 1.605-1.692" class="st2"/><path fill="#ff912e" d="M6.573 5.236c.255-.168.57-.342.88-.208.543.235.94.705 1.315 1.148 1.29 1.585 2.23 3.404 3.257 5.157-.645 1.832-1.41 3.672-1.457 5.64-.034.63.134 1.248.369 1.832-.678-.497-1.121-1.242-1.53-1.96-1.041-1.94-1.706-4.056-2.23-6.19-.376-1.773-.725-3.586-.604-5.419"/><path fill="#f41cb2" d="M16.295 5.263c.235-.14.497-.342.785-.255.37.12.658.403.927.671.671.705 1.228 1.511 1.752 2.33a28.597 28.597 0 0 1 2.894 6.11c.282.779.49 1.584.617 2.403.06.726.027 1.518-.369 2.156-.329.537-1.047.738-1.625.503-.812-.329-1.356-1.074-1.819-1.786-1.235-2.034-1.954-4.337-2.531-6.64-.39-1.792-.752-3.632-.631-5.492M4.317 8.036c.645-1.007 1.33-2.02 2.256-2.8-.12 1.826.228 3.646.61 5.418-.49 2.082-1.147 4.136-2.134 6.036-.463.853-1 1.712-1.806 2.276-.45.323-1.088.437-1.585.148-.517-.289-.738-.9-.812-1.457a5.584 5.584 0 0 1 .067-1.8 28.76 28.76 0 0 1 3.404-7.821" class="st4"/><path fill="#f25511" d="M14.724 7.022c.463-.638.946-1.269 1.57-1.759-.12 1.853.242 3.7.639 5.499-.464 1.9-1.061 3.773-1.914 5.532-.403.8-.86 1.585-1.484 2.23-.362.355-.805.69-1.33.744-.47.054-.919-.16-1.261-.47-.235-.584-.403-1.201-.37-1.832.047-1.968.813-3.814 1.457-5.64.02-.027.074-.08.094-.108.148-.174.282-.355.39-.557a33.447 33.447 0 0 1 2.209-3.639"/></g></svg>