<svg version="1.2" xmlns="http://www.w3.org/2000/svg" viewBox="0 0 24 24"><title>Nainital Bank</title><style>.s2{fill:#a93c40}.s3,.s5{fill:#fefefe}.s5{stroke:#a93c40;stroke-width:.5}</style><g id="g18"><g id="g22"><g id="g30"/><g id="g124"><g id="Clip-Path: g126" clip-path="url(#cp1)"><g id="g126"><g id="g132"/></g></g></g><g id="g140"><g id="g142"><g id="Clip-Path: g144" clip-path="url(#cp2)"><g id="g144"><g id="g150"><g id="Clip-Path: image156" clip-path="url(#cp3)"><use id="image156" href="#img1" transform="matrix(.328 .098 -.105 .323 12.71 1.718)"/></g></g></g></g></g><g id="g158"><g id="Clip-Path: g160" clip-path="url(#cp4)"><g id="g160"><g id="g166"><g id="Clip-Path: image172" clip-path="url(#cp5)"><use id="image172" href="#img1" transform="matrix(.328 .098 -.105 .323 12.766 1.718)"/></g></g></g></g></g><path id="path174" fill-rule="evenodd" d="M12.1 23.6c-6.6 0-12-5.3-12-11.8C.1 5.4 5.5.1 12.1.1S24 5.4 24 11.8c0 6.5-5.3 11.8-11.9 11.8z" style="fill:#fefefe;stroke:#fefefe;stroke-width:.1"/><path id="path176" fill-rule="evenodd" d="M12.1 22.5C6 22.5 1.2 17.8 1.2 11.8 1.2 5.9 6 1.2 12.1 1.2c6 0 10.9 4.7 10.9 10.6 0 6-4.9 10.7-10.9 10.7z" style="fill:#fefefe;stroke:#a93c40;stroke-width:.9"/><path id="path178" fill-rule="evenodd" class="s2" d="M16 13.8s0 .1.1.1v.2s.1 0 .1.1v.1c.1.1.2 0 .1.1v.1c.1 0 .1.1.1.1 0 .1.1.1.1.2s.1.2.2.3c.1.1-.1.1.1.2.1.1.3.4 0 .4-.6-.1-1.2 0-1.9-.1h-.2c0 .1 0 0-.1 0h-.1v-.1c-.1 0-.2 0-.2.1-2.2 1-1.2.8-3.6.1h-.6q0 .1 0 0h-.3c-.1 0 0 0 0 0q-.1.1-.2.1h-.2c0-.1-.1-.1-.1-.1H8.2c-.1.1-.4 0-.6 0H6.4v-.3c0-.2.2-.2.2-.3 0-.1.1-.1.1-.1 0-.1.1-.1.1-.2l.1-.2.1-.1c0-.1.1-.1.1-.1v-.1q.1 0 .1-.1v-.1c.1-.1.1-.1.1-.2q0-.1.1-.1c0-.1.1-.1.1-.2-.1-1.2 0-.5.2-.5h.1c.1 0 .1-.1.1-.2l.1-.1.1-.2q.1 0 .1-.1l.1-.1v-.1c.1 0 .1-.1.1-.2l.1-.2q.1 0 .1-.1v-.1c.1 0 .1-.1.1-.2v-.1l.1-.1c0-.1.1-.1.1-.2l.1-.2c.1 0 0-.2.1-.2q.1 0 .1-.1h.1v-.1c0-.1.1-.1.1-.1v-.2c.1-.1.2-.1.2-.2s.1-.1.1-.2v-.1l.1-.1v-.1h.1v-.1h.1v-.2l.1-.1v-.2h.1l.1-.2c.1 0 .1-.1.1-.2 0 0 .1 0 .1-.1l.1-.1c0-.1.1-.2.1-.2V8s.1 0 .1-.1q.1-.1.1-.2t.1-.2s.1-.1.1-.2v-.1s0-.1.1-.1V7h.1s.1-.1.2-.1V7l.1.1v.5l-.1.1v.2c0 .1 0 .2.1.2 0 .2-.1.3-.1.5q0 .1-.1.1l.1.1v1.3c0 .1-.1.1 0 .1v.6c0 .1-.1.2-.1.3 0 .3-.1.6-.1 1v.2s.1.3 0 .3-.1.1 0 .1v.2c-.1 0-.1.2-.1.2.1 0 0 .2 0 .3v.9s-.1.2 0 .3c0 0-.1.2-.1.3 0 0 .1.4.1.5.3.3.4-.3.4-.5 0 0-.1 0-.1-.1.1-.1.1-.1.1-.2v-.3c0-.1-.1-.2-.1-.3 0-.1.1-.1.1-.2v-.2l-.1-.1v-.2c0-.2.1-.4.1-.7 0-.1.1-.3 0-.4 0 0 .1-.1.1-.2v-.2c-.1-.4 0-.7 0-1v-.6l.1-.4v-.2h-.1c0-.1.1-.3.1-.4v-.5q0-.1.1-.2v-.1c0-.1 0-.4-.1-.4 0-.2.1-.5.1-.7v-.5c0-.1.1-.1.1-.2s-.1-.1-.1-.2 0-.4.1-.5c0-.1-.2-.1-.1-.3l.1-.1s0-.1 0 0c.3 0 .3 0 .3.2 0 .1.1.1.1.2l.1.1c.1.1.2.2.2.4s.1.2.1.3v.2l.3.3v.2c0 .1.1.1.1.1v.3s.3.2.3.3c0 .1.1.3.2.3.2 0 .1.4.1.5v.2c.1 0 .2.2.2.2.1 0 .2.4.2.4l.2.3c0 .1 0 .3.1.3 0 .1.1.3.1.4 0 .1.2.4.3.4v.1l.1.1h-.1.1v.2c-.1.1 0 .1 0 .1 0 .1.1.1.1.1.1.1.1.2.2.2v.4c.1 0 .1 0 .1.1l.1.1c0 .1.1.4.1.5q.1 0 .1.1v.2h.1c0 .6.1-.4.2.5z"/><path id="path180" fill-rule="evenodd" class="s3" d="m11.7 15.6 2.2-.1-1.1.1z"/><path id="path182" fill-rule="evenodd" class="s3" d="M9.1 15.4c0-.1 0-.2.1-.2.2 0 .5.1.6-.1.1-.2.5-.1.7-.3.1-.1.2 0 .3 0 .1 0 0 .4 0 .4-.1.1-.3.1-.5.1-.1 0-.3.1-.3.1h-.6c-.1 0-.3.1-.3 0z"/><path id="path184" fill-rule="evenodd" class="s3" d="M7.6 15.4h-.1c0-.1-.1-.1-.1-.1q.1 0 .1-.1h.1l.1-.1c.1 0 .2 0 .3-.1h.2c.1 0 .1-.1.2-.1s.4-.2.5-.2c.1 0 .2 0 .2-.1s.1-.1.3-.1c.1.1.6-.1.6-.2s.1-.1.2-.1c.2.1.1-.1.2-.1.2 0 .8-.2.5.3-.1.2-.4.3-.7.3 0 0-.3 0-.3.1-.1.1-.8.2-.9.4h-.2c-.3.3-1 0-1.2.2z"/><path id="path186" fill-rule="evenodd" class="s3" d="m11 13.6-.1.2h-.2c-.1 0-.1 0-.1.1h-.1c-.1.1-.2.1-.3.1 0 0-.1 0-.2.1-.1 0-.1-.1-.1 0-.1.1-.4.1-.4.2-.1 0-.6.2-.7.2-.1.1-.2.1-.3.2-.1 0-.3 0-.5.1 0 0 0 .1-.1 0-.2 0-.7.4-.8.2-.1-.1 0-.3.1-.3 0-.1.2-.1.2-.2s.4 0 .5-.1c0-.1.1-.2.1-.2h.3c.1 0 .1 0 .1-.1 0 0 .3 0 .3-.1h.2l.3-.1c.1 0 .1-.1.1-.1l.3-.1h.2c.2 0 .3-.1.5-.2h.1s.2-.1.3-.2c.2-.1.3.1.3.3z"/><path id="path188" fill-rule="evenodd" class="s3" d="M9.4 13.2h-.1q-.1.1-.2 0c-.1 0-.1.2-.2.1-.1 0-.1.1-.2.1h-.1c-.1.1 0 .1-.1.1 0 0-.2.1-.2.2H8l-.2.1s-.1.1-.2.1v.3c.2.1.4-.1.5-.1.1 0 .2 0 .3-.1v-.1c.1 0 .7-.2.7-.2.1 0 .2 0 .3-.1 0 0 .2 0 .2-.1.2 0 .2-.1.3-.2h.3c.1 0 .3-.1.3-.1.1-.1.2-.1.2-.1 0-.1.1-.1.2-.2h.1c0-.1 0-.2-.1-.2h-.2c-.1 0-.3.1-.3.1-.1 0-.2.1-.2.1-.1 0-.4.1-.4.1-.1.1-.3.1-.4.2z"/><path id="path190" fill-rule="evenodd" class="s3" d="M11 12.2v-.3h-.3v.1h-.1v.1h-.1v.1H10v.1h-.1v.1h-.2v.1c-.1 0-.2 0-.3.1h-.3l-.1.1h-.2l-.1.1h-.1c-.1 0-.1.1-.1.1h-.1q0 .1-.1.1l-.1.1-.1.1v.2h.2c.1 0 .1-.1.1-.1 0-.1.1 0 .1-.1h.1q.1 0 .1-.1H9c0-.1.1-.1.1-.1h.1c.1 0 .1-.1.1-.1h.2c.1 0 .1 0 .1-.1h.2q.1 0 .1-.1h.1l.1-.1h.1v-.1c.1.1.1 0 .2 0h.1c.1 0 .1 0 .2-.1h.1v-.1h.2v-.1z"/><path id="path192" fill-rule="evenodd" class="s3" d="M10.7 11.6v.1h-.1q-.1 0-.1.1h-.2c0 .1-.1.1-.1.2-.1 0-.2-.1-.2 0v.1h-.1c-.1 0 0 .1-.1.1 0 0-.1-.1-.1 0h-.2l-.1.1h-.2v.1H9v.1l-.1-.1h-.1c-.1 0-.1.1-.2 0 .1 0 .2-.1.2-.1q-.1-.1.1-.1s.1-.1.2-.1c0-.1.1-.1.1-.1h.3c0-.1.1-.1.1-.1v-.1h.3v-.1h.1v-.1h.1v-.1h.2q.1 0 .1-.1h.2q.1 0 .1-.1h.3v.1c0 .1-.1.1-.1.1h-.1v.1h-.1z"/><path id="path194" fill-rule="evenodd" class="s3" d="M10.8 11h.1q0-.1.1-.1v-.1h.1s0-.1-.1-.1h-.3q0 .1-.1.1h-.2c0 .1-.1 0-.1.1h-.1l-.2.1v.1s-.1 0-.1.1q-.1 0-.2.1s-.1-.1-.1 0c0 0-.2 0-.3.1 0 0 0 .1-.1.1s-.1.1-.1.2h.2c0-.1.2-.1.2-.1 0-.1 0-.1.1-.1h.1v-.1h.1s0-.1.1-.1h.3c0-.1.1-.1.1-.1h.1s.1 0 .1-.1h.2q0-.1.1-.1z"/><path id="path196" fill-rule="evenodd" class="s3" d="M10.9 10.4c0-.1.1-.1.1-.1h.1v-.1c.1 0 0-.1 0-.1v-.2H11v.1h-.2s-.1 0-.1.1h-.3c-.1 0-.1.1-.1.1h-.1v.1h-.1v.1H10c-.1.1-.2.1-.2.1h-.1v.1h-.1l-.1.1v.2s.1.1.1 0h.2c0-.1.1 0 .2-.1 0 0 .1 0 .1-.1h.2l.1-.1h.2l.1-.1.1-.1h.1z"/><path id="path198" fill-rule="evenodd" class="s3" d="M10.4 10q0-.1.1-.1h.1c.1 0 .1-.1.1-.1h.1q.1 0 .1-.1c.1.1 0 0 .1 0l.1-.1v-.1q0-.1-.1 0v-.1q0 .1-.1.1h-.1v.1c-.1 0-.1.1-.1.1h-.2v-.1h-.1c-.1 0-.1.1-.1.1h-.1v.1h-.1v.3s.2 0 .2-.1h.1z"/><path id="path200" fill-rule="evenodd" class="s3" d="M10.6 9h.2v-.1h.2c.1-.1.1 0 .2 0v.2h-.1c-.1.1-.3.1-.3.2h-.2q-.2 0-.1-.1c0-.1.1-.1.1-.2z"/><path id="path202" fill-rule="evenodd" class="s3" d="M10.8 8.7v-.1h.2v.1h-.2z"/><path id="path204" fill-rule="evenodd" class="s3" d="M11 8.2V8h.1q.1 0 .1.1v.1H11z"/><path id="path206" fill-rule="evenodd" class="s3" d="M16 15.4s-.2 0-.1-.1c.1 0 .1-.1.1-.1h.3v.2c0 .1-.1.1-.2.1 0 0-.1 0-.1-.1z"/><path id="path208" fill-rule="evenodd" class="s3" d="M15.4 15.3c.1-.1.4-.1.5-.2 0-.1.3-.1.3-.1.1-.4-.4-.2-.5-.2l-.2.1s-.3.1-.4.1c-.1.1-.2.2-.3.2 0 0-.1 0-.1.1.1.1.7.1.7 0z"/><path id="path210" fill-rule="evenodd" class="s3" d="M15.8 14.5h.1v-.3q-.1 0 0 0-.1 0-.1-.1h-.3v.1h-.1v.1h-.2q-.1 0-.1.1h-.3v.1h-.1l-.1.1h-.1v.1h-.1l-.1.1H14v.1s0-.1 0 0h-.3l-.1.1h-.1s0 .1-.1.1h-.1c-.3 0-.5.3-.1.3h.5c.1 0 .1-.1.1-.1h.3l.1-.1h.1c0-.1.2-.1.3-.1l.1-.1c0-.1.2-.1.2-.1h.4l.1-.1.1-.1.1-.1c0-.1.2-.1.2-.1z"/><path id="path212" fill-rule="evenodd" class="s3" d="M15.5 14c0-.1.1-.1.1-.1v-.3q-.1 0 0 0h-.5v.1h-.2s-.1 0-.1.1q-.1 0-.1.1h-.1c0 .1-.1.1-.1.1h-.1c-.1 0-.1.1-.1.1h-.1q-.1 0-.1.1h-.4l-.1.1h-.1v.1h-.1q-.1 0-.1.1h-.1c-.1.1-.2.1-.3.1 0 .1 0 .1-.1.1h-.2s-.1 0-.2.1c-.4.1-.6.2-.6.4s.4.2.9 0q.1 0 .1-.1h.1c.1 0 .2 0 .2-.1q.1 0 .2-.1c.1 0 .1-.1.1-.1h.3c0-.1.1-.1.2-.1l.2-.1c.1-.1.2-.1.2-.1l.2-.2s.2-.1.3-.1c0 0 .1-.1.2-.1h.1c.2 0 .1-.1.4-.1z"/><path id="path214" fill-rule="evenodd" class="s3" d="M15.2 13.3h.1v-.2h-.1V13H15v.1h-.1s0 .1-.1.1h-.1q0 .1-.1.1h-.1q-.1 0-.1.1h-.2s0 .1-.1.1q-.2 0-.4.1c0 .1-.1.1-.2.1 0 0 0 .1-.1.1h-.2q0 .1-.1.1c-.1 0-.1 0-.1.1h-.2l-.1.1h-.2q0 .1-.1.1h-.1v.1h-.2q-.3.1-.3.3c0 .1.2.1.5.1v-.1h.1l.2-.1h.1l.1-.1h.1c.1 0 .1-.1.2-.1s.2-.1.2-.1q.1 0 .2-.1h.2l.1-.1h.2c.1 0 .1 0 .1-.1h.1v-.1h.1v-.1h.1v-.1h.4q0-.1.1-.1h.1v-.1h.2v-.1z"/><path id="path216" fill-rule="evenodd" class="s3" d="M14.6 13c-.1 0-.1 0-.2.1l-.1.1h-.4l-.1.1s0 .1-.1.1-.1.1-.2.1h-.2c0 .1-.1.1-.1.1l-.1.1H13l-.1.1h-.1l-.1.1h-.1c0 .1-.1 0-.2 0l-.1.1h-.2v.1s-.2.1-.2 0c-.1-.1-.1-.1-.1-.2h.1v-.2s.1 0 .1-.1h.2c0-.1.1 0 .1-.1h.1s.1-.1.2-.1c0 0 .1 0 .1-.1h.1c.1 0 .2-.1.2-.1h.2s.1 0 .1-.1h.1c0-.1.1-.1.1-.1.1 0 .1-.1.1-.1.1 0 .2-.1.3-.1h.2l.1-.1h.1v-.1c.1 0 .1-.1.1-.1.1 0 .1 0 .1-.1h.2v-.1h.4v.1h.1v.2c-.1 0 0 0-.1.1 0 .1-.1.1-.1.1h-.1v.1h-.2v.1h-.1z"/><path id="path218" fill-rule="evenodd" class="s3" d="M14.8 12h-.1v.1h-.1c0 .1-.2.2-.2.2-.2 0-.3.1-.4.2-.1 0-.1.1-.2.1 0 0 0 .1-.1.1h-.1c0 .1 0 .1-.1.1s-.3.1-.3.1H13s0 .1-.1.1h-.1v.1h-.3s0 .1-.1.1v.1h-.1s0 .1-.1.1q-.1 0-.2-.1h-.1l-.1-.1v-.1h.1c0-.1 0-.1.1-.1h.3v-.1h.1l.1-.1h.2q0-.1.1-.1h.1v-.1h.1c.1-.1.3-.1.4-.1.1-.1.1-.3.3-.3.2 0 .1-.2.3-.2 0 0 .2-.1.3-.1.1 0 .2 0 .2-.1.2 0 .1-.1.3 0v.1q.1 0 .1.1h-.1z"/><path id="path220" fill-rule="evenodd" class="s3" d="M12.3 12.2c-.4-.2-.6.5 0 .5.1 0 .1-.1.2-.1s.1-.2.2-.2c0 0 .1 0 .1-.1h.1l.1-.1h.2c.1-.1.2-.1.2-.1 0-.1 0-.1.1-.1h.1v-.1h.2v-.1h.1q.1 0 .1-.1l.1-.1h.4l.1-.1v-.3h-.5l-.1.1c0 .1-.1 0-.1 0 0 .1-.1.1-.1.1 0 .1 0 .1-.1.1h-.1c0 .1-.3.1-.3.1-.1.1-.1 0-.1.1 0 0-.1.1-.2.1h-.2v.1h-.1v.1h-.1v.1h-.1c-.1 0-.1 0-.1.1h-.1z"/><path id="path222" fill-rule="evenodd" class="s3" d="M14.1 11.1q.1 0 .1-.1h.1v-.3c0-.1-.1 0-.1 0h-.3c-.1.1-.2 0-.2.1l-.1.1h-.1c-.1 0-.2 0-.2.1h-.1c0 .1-.1.1-.1.1-.1 0-.2.1-.3.1q-.1 0-.1.1l-.1.1h-.4c0 .1-.1 0-.1.1 0 0 0 .1-.1.1v.2h.3c.1 0 .1.1.1 0h.1c.1 0 .1-.1.1-.1h.1l.1-.1h.1c0-.1 0 0 .1-.1.1 0 .1-.1.2-.1v-.1h.5v-.1c.1.1.1 0 .1 0l.1-.1h.2z"/><path id="path224" fill-rule="evenodd" class="s3" d="M13.5 10.7c0-.1.2-.2.3-.2.1-.1.3 0 .3-.2v-.2c-.1-.1-.2 0-.3 0h-.1c0 .1-.1 0-.1.1h-.1c-.1.1-.2.2-.3.2h-.3v.1h-.1v.1h-.2v.1c-.3-.1-.5.1-.5.3 0 .2.3.2.6.1V11c.1 0 .2-.1.2-.1h.2l.1-.1h.1v-.1h.2z"/><path id="path226" fill-rule="evenodd" class="s3" d="M13.9 9.8v-.2h-.1v-.1h-.2l-.1.1h-.1q-.1.1-.2 0 0 .1 0 0c0 .1-.1.1-.1.1H13v.1h-.1l-.1.1h-.2v.1h-.3c0 .1-.1.1-.1.1v.1c-.1 0-.1 0-.1.1H12v.1c0 .1.1.1.1.1h.1s0-.1.1 0v-.1h.6v-.1h.1l.1-.1h.1c0-.1.1 0 .1-.1h.2V10h.1q0-.1.1-.1h.1v-.1h.1z"/><path id="path228" fill-rule="evenodd" class="s3" d="M13.6 9.2V9h-.1v-.1h-.2q0 .1-.1.1h-.1c0 .1-.1.1-.1.1h-.1c-.1 0-.1 0-.1.1l-.1.1h-.2v.1h-.1c-.3 0-.3.1-.4.3 0 .2.2.2.7-.1.1.1.1 0 .1 0h.4v-.1h.2s0-.1.1-.1v-.1h.1v-.1z"/><path id="path230" fill-rule="evenodd" class="s3" d="M13.3 8.7h-.1s0 .1-.1.1-.1.1-.1.1h-.3V9h-.1c-.1 0-.1.1-.1.1h-.1l-.1.1h-.2v-.4h.1l.1-.1v-.1h.2c.1.1.2.1.2 0h.1l.1-.1h.1v-.1h.3q.1 0 .1.1v.1s0 .1-.1.1z"/><path id="path232" fill-rule="evenodd" class="s3" d="M12.1 8.3v.2h.3s.1 0 .1-.1c0 0 .4-.1.4-.2l.1-.1q.1-.1.1-.2-.3-.2-1 .4z"/><path id="path234" fill-rule="evenodd" class="s3" d="m12.5 7.4-.2.1s-.1.1-.1.2-.1.2 0 .2.2-.1.2-.1c.1 0 .2-.1.2-.1h.2v-.1c0-.1 0-.2-.1-.2h-.2z"/><path id="path236" fill-rule="evenodd" class="s3" d="M12.4 6.9c.1 0 .1.1.1.2s-.1.2-.2.2-.2-.1-.2-.2c.1-.1.1-.2.3-.2z"/><path id="path238" fill-rule="evenodd" class="s3" d="M12.3 6.5q.1 0 .1.1h-.2l.1-.1z"/><path id="path240" fill-rule="evenodd" class="s2" d="M14.4 8.7s.4.9.5.9c.1.4.4.6.8.6-.1-.5-.4-.7-.6-1-.2-.4-.3-.9-.8-.9z"/><path id="path242" fill-rule="evenodd" d="M18.2 11.6c0 .4.2.5.6.5 0-.5.2-1-.6-1z" style="fill:#f1ebe8"/><path id="path244" fill-rule="evenodd" class="s2" d="M15.7 2.8c.5 0 1.1.3 1.2.8 1.2 0 1 .6 1.5.8.5.3 1.2.3 1.2 1.3.5.1 1 .6 1 1.3v.4c.4.1.9.7.9 1.2 0 .3-.2.5-.3.8.3.3.8.6.8 1.2v.1c0 .3-.1.4-.2.6.1.2.5.6.5.9 0 2.8-1.4 5.2-2.9 6.6-1.3 1.4-3.9 3.1-6.5 3.1h-.8c-3.2 0-5.4-1.1-7-2.7-.9-.9-1.5-1.6-2.1-2.8-.3-.5-.6-1.1-.7-1.7-.1-.3-.5-1.8-.5-2 0-.8.3-.9.5-1.4 0-.2-.1-.2-.1-.5v-.2c0-.7.4-.9.8-1.1-.1-.2-.3-.6-.3-.9 0-.6.4-1.1.9-1.2V7c0-.8.4-.9.8-1.3.2-.1.2-.5.4-.7.2-.3.4-.2.6-.5h.4c.3-.5.7-.9 1.4-.9.3-.4.6-.8 1.3-.8.6 0 1.3.5 1.3 1.1V4c0 .3-.1.4-.1.6 1.3 0 1.5-.9 2.2-.9.3 0 .5.4.7.5.3.3.6.1 1 .1s.5.3.9.4c0-.2-.1-.4-.1-.7 0-.6.6-1.2 1.3-1.2zM5.5 19.1c1.3 1.1 3.7 2.5 6 2.5h.7c2.8 0 4.8-1.2 6.4-2.4 1.1-.9 3.2-3.7 3.2-5.5-.3.2-.6.4-1.1.4h-.1c-.7 0-1.1-.6-1.3-.7 0 1.4-1.6 3.3-2.4 4-.9.8-2.9 1.7-4.5 1.7h-.6c-3.5 0-6.3-2.8-6.9-5.7-.2.1-.8.6-1 .6H3c-.2 0-.3-.1-.6-.2.1 1.8 2 4.4 3.1 5.3zm12.8-5.8h.4c.2 0 .2 0 .4-.1v-.5c-.6-.1-.2-.4-.7-.4h-.3c-.1.3-.3.6-.3.7 0 .2.2.3.5.3zm1.1-.8c0 .8.6 1.3 1.3 1.3.7 0 1.3-.6 1.3-1.2 0-.7-.5-1.4-1.2-1.4h-.1c-.5 0-1.3.6-1.3 1zm-17.2.2c0 .5.6 1.1 1 1.1h.3c.7 0 1.3-.6 1.3-1.3 0-.6-.6-1.3-1.2-1.3h-.1c-.7 0-1.3.5-1.3 1.2zm16.4-1c0 .4.2.5.6.5 0-.5.2-1-.6-1zm.8-.9c0 .3.1.4.3.5.2-.1.4-.3.7-.3h.6c.3 0 .2.1.6.1.1-.2.1-.2.1-.4v-.1c0-.6-.6-1.1-1.2-1.1h-.1c-.5 0-1 .5-1 1zm-16.9.3 1-.2V10h-.3l.5-.4v1.3l.9.4c0-.3.2-.5.2-.5 0-.6-.4-1.3-1-1.3h-.2c-.5 0-1.1.4-1.1.9zm16.3-2.4c0 .4.4.9.7.9.3 0 .4-.3 1-.3h.5c0-.3.1-.3.1-.6v-.3c0-.5-.5-1-1-1-.6 0-1.3.5-1.3.9zm-15.6.6c1 0 1.2.3 1.4.3.3 0 .7-.5.7-.8v-.6c0-.3-.6-.8-1.1-.8-.7 0-1.2.5-1.2 1.1 0 .4.1.5.2.8zM18 7.1c0 .3.3.8.7.8 0 0 .6-.7 1-.7h.6v-.3c0-.6-.6-1.1-1.1-1.1-.6 0-1.2.4-1.2 1zm-14.1.1h.5c.6 0 .9.7 1.1.7.3 0 .6-.4.6-.7v-.4c0-.5-.5-1-.9-1h-.3c-.6 0-1 .5-1 1.1zm12.2 5.9c0 .1 0 0 .2 0h.4l.3-1 .5-.2-.2.8c.6 0 1-1.1 1-1.8-.2-.3-1.4-1-1.9-1h-.3v.5h-.4V10c0-.3.2-.4.2-.6 0-.4-.7-1.4-1.2-1.4v.4l-.4-.1v-.5c0-.7-.6-1.2-1.2-1.5-.4-.2-.4 0-.8-.5-.2-.3-.3-.6-.7-.7-.1.4 0 .6-.5.7l.1.9v.4c-.4 0-.1-.1-.5-.1h-.2c-.5 0-.7.7-.6 1.4l-.6.4v-.1l.2-.6-.1-.1-.8.9c0 .6 0 .8-.6.9.1-.6.2-.3.2-.6 0-.1 0-.2-.2-.2-.4 0-.4.7-.4 1.2l-.6.4c0-.3.2-.6-.2-.6h-.1c-.3 0-.9.7-.9 1h-.6c0 .1-.2.4-.2.4 0 .3.1.5.3.6l.1-.6 1.4-.8.2.5h-.3c-.4 0-.7.4-1 .5v.2c0 .3-.2.6-.4.6H5v.3l.1.7c.2.1.2.1.4.1h.1c.2 0 .2 0 .4-.1v-1.2c0-.2.2-.3.4-.4v.4c0 .3.1.2.3.2l.4-.8h.4l.1.5c-.8.1-.2.7-1.1.8l.1.4h.5l.5.2c-.5 0-1.4.3-1.8.3h-.5c.1.5 1.9-.1 1.9.5v.1c0 .3-.1.1-.2.5h-.4c-.2 0-.5.3-.7.4l.8 1.2c.8 0 1 .3 1.2.3h.4v-.6h.6c.3 0 .1.1.4.1h.1c.2 0 .2 0 .4-.1h.3c.3.1.5-.1.5.3v.2h1l-.1.4h-.4v.3c.4.1.7.4.5-.3h.7v.3h.2V17c0-.6 2.4-.2 2.7-.2l-.2-.4.2-.2.6-.1.4.2h.1l-.5.5-.1-.1c0 .5.4.6.9.6l.1-.4h-.3v-.3h.7c.3 0 .8-.7.8-.8 0-.3-.7-.2-1-.2-.1-.1-.2-.1-.2-.3 0-.3.1-.2.3-.3 0-.5-.4-.2-.4-.6v-.3l1.1-.1c0 .4 0 .3-.3.4l-.1.1.8.3-.1.1h-.6v.4h.3c.3 0 .2.1.4.3l.9-1.9h-1.6c-.2 0-.3-.1-.4-.1 0-.2 0-.3.2-.3h.3V13l-.1-.1-.8.7h-.5l-.3-.1v-.3c-.1-.1 0-.1.3-.1zM8.6 5.5l-.1-.1c-.1.5-.4.8-1 1-.5.2-.3.6-1.2.8 0 .6-.3.8-.7 1.1 0 1.4-.3 1-.8 1.6l.2.7h.7c.1-.3.5-.8.8-.8h.7v-.3c0-.4.4-.9.8-.9.3 0 .3 0 .5.1.1-.2.6-1.1.8-1.1h.3c0-.6.6-1.1 1.2-1.1 0-.3-.1-.2-.1-.5 0-.2.7-1.5.9-1.5.2 0 1.1 1.2 1.6 1.5.8.5 1.1.4 1.4 1.5.9.1 1.5 1.4 1.9 2.1 1.4 0 2 1.2 2.7 1.4v-.4c0-.3 0-.4.1-.6-.5-.8-.7-.3-.7-1.7-.8-.4-.5-.5-.8-1-.2-.3-.7-.2-.9-.9-.8 0-1.1-.5-1.3-1-.7 0-1.6-.8-2.2-.8-.2 0-.1.1-.4.1-.6 0-.7-.6-1.1-.6-.7 0-.9.8-2.3.8zM6.3 6.7v.2c.5 0 .9-.5.9-1 0-.6-.6-1.2-1.1-1.2h-.2c-.5 0-1 .4-1 .9.7 0 1.4.4 1.4 1.1zm9.5-1.6c0 .5.5 1 .9 1 0-.8.5-1.6 1.3-1.6-.1-.4-.5-.7-.9-.7-.6 0-1.3.5-1.3 1.1zm1.3 1c0 .3.4.7.7.8 0-.9.7-1.3 1.5-1.3-.1-.6-.4-.9-1.1-.9-.5 0-1.1.4-1.1.8zm-9.7-.5V6c.4 0 .9-.5.9-.8v-.5c0-.6-.6-.9-1.2-.9-.3 0-.8.3-.9.6.6 0 1.2.6 1.2 1.2zm8.2-.6c0-.7.3-1.3 1-1.4 0-.4-.4-.6-.9-.6-.6 0-1.1.4-1.1 1s.4 1 1 1zm-8-1.4c.4 0 1 .6 1 1V5c.4 0 .9-.4.9-.8v-.4c0-.5-.6-.8-1.1-.8h-.2c-.2 0-.6.3-.6.6zm1.9 13.5.6.1V17c0-.4-1-.3-1.3-.3l-.2.3-.7-.1c-.3 0-.2.2-.2.4.3.1.4.5.9.5h1.8v.2h-.8c-.2 0-.2 0-.2.2h1v.3h2c.1.1.1.2.3.2h.5v-.2h-.4c-.2 0-.3-.1-.3-.3h-1.8V18c.8 0 1.8-.3 2.4 0 .2-.1.3-.3.5-.3h.6c-.1.3-.1.3-.5.3l-.4.3.6.1c.3 0 .3-.2.5-.2s.1 0 .4.1l1.4-.8-.8-.1h-1.1c-.4 0-.8.2-1.1.2l-3.7-.1c-.2 0-.2.1-.5.1s-.3-.1-.3-.3H9c.3 0 .2-.2.5-.2z"/><path id="path246" fill-rule="evenodd" class="s5" d="M8.4 5.4c-.7 0-1.3-.6-1.3-1.3 0-.8.6-1.4 1.3-1.4.7 0 1.3.6 1.3 1.4 0 .7-.6 1.3-1.3 1.3z"/><path id="path248" fill-rule="evenodd" class="s5" d="M7.2 6.3c-.8 0-1.4-.6-1.4-1.3 0-.8.6-1.4 1.4-1.4.7 0 1.3.6 1.3 1.4 0 .7-.6 1.3-1.3 1.3z"/><path id="path250" fill-rule="evenodd" class="s5" d="M5.9 7.2c-.7 0-1.3-.6-1.3-1.4 0-.7.6-1.3 1.3-1.3.8 0 1.4.6 1.4 1.3 0 .8-.6 1.4-1.4 1.4z"/><path id="path252" fill-rule="evenodd" class="s5" d="M4.9 8.3c-.7 0-1.3-.6-1.3-1.3 0-.7.6-1.3 1.3-1.3.7 0 1.3.6 1.3 1.3 0 .7-.6 1.3-1.3 1.3z"/><path id="path254" fill-rule="evenodd" class="s5" d="M4 10c-.7 0-1.3-.6-1.3-1.3 0-.8.6-1.4 1.3-1.4.8 0 1.4.6 1.4 1.4 0 .7-.6 1.3-1.4 1.3z"/><path id="path256" fill-rule="evenodd" class="s5" d="M3.5 12.2c-.7 0-1.3-.6-1.3-1.3 0-.8.6-1.4 1.3-1.4.7 0 1.3.6 1.3 1.4 0 .7-.6 1.3-1.3 1.3z"/><path id="path258" fill-rule="evenodd" class="s5" d="M3.3 14.2c-.8 0-1.5-.7-1.5-1.5s.7-1.5 1.5-1.5 1.5.7 1.5 1.5-.7 1.5-1.5 1.5z"/><g id="text262"><path id="path936" fill-rule="evenodd" class="s2" d="m8.5 3.6-.1.1h-.2l-.1-.1-.1-.1v-.1q0-.1.1-.1 0-.1.1-.1 0-.1.1-.1h.2q.1 0 .1.1l.1.1v.1l-.1.1-.1.1zm-.1-.2q.1 0 .1-.1v-.1h-.1l-.1.1-.1.1q-.1.1 0 .1h.1l.1-.1z"/><path id="path938" class="s2" d="m8.3 3.9-.1-.2.2-.1.1.1z"/><path id="path940" class="s2" d="M8.9 4.2h-.3l-.1-.1V4q-.1 0-.1-.1l.1-.1.1.1V4l.1.1h.1v-.2q-.1 0-.1-.1h-.1l.3-.2.3.3-.1.1-.2-.2h-.1.1v.1L9 4v.1q-.1 0-.1.1z"/><path id="path942" fill-rule="evenodd" class="s2" d="M9.3 4.5h-.2q0 .1-.1.1l-.1-.1h-.1v-.3l.1-.1L9 4l.1-.1q.1 0 .2.1t.1.2v.2q-.1 0-.1.1zm-.1-.2.1-.1v-.1h-.1q-.1 0-.2.1l-.1.1v.1H9q.1 0 .2-.1z"/></g><g id="text266"><path id="path945" class="s2" d="m7.5 5.1-.4-.3.1-.1.1.1.3-.3-.1-.1v-.1h.1v.1h.1v-.1l.2.1-.5.5.2.1z"/></g><g id="text270"><path id="path948" class="s2" d="m6.3 6.2-.4-.4.1-.1h.4l.1-.1q.1 0 .1-.1l-.1-.1h-.1l-.1-.1.1-.1.1.1h.1q.2.1.2.2t-.1.2q0 .1-.1.1h-.4l.2.3z"/></g><g id="text274"><path id="path951" class="s2" d="M5.4 7.3q0 .1-.1.1H5q-.1 0-.2-.1-.1 0-.1-.1-.1 0-.1-.1l.1-.2q.1.1.1.2.1 0 .1.1h.3V7h-.1v-.1H5l-.1-.1h-.1l.4-.5.6.4-.2.2-.3-.3-.1.2h.1q0 .1.1.1V7l.1.1q0 .1-.1.2z"/></g><g id="text278"><path id="path954" fill-rule="evenodd" class="s2" d="M3.8 8.5q0 .1-.1.2l-.1.1h-.2q-.1-.1-.2-.1v-.5l.1-.1q.1-.1.2-.1h.2q.1 0 .2.1v.3l-.1.1zm-.1-.1v-.3h-.1l-.2.2v.3h.1q.1 0 .2-.2z"/><path id="path956" class="s2" d="M3.8 8.9h-.2l.1-.2.2.1z"/><path id="path958" class="s2" d="m4.6 9.1-.1.1h-.3q-.1-.1-.2-.1Q4 9 3.9 9l.1-.2.1.1.1.1h.2v-.2h-.1l-.1-.1h-.1l.2-.4.5.3v.1l-.4-.2v.2q.1 0 .1.1h.1v.3z"/><path id="path960" fill-rule="evenodd" class="s2" d="M5.2 9.2q-.1.1-.1.2H5q-.1.1-.2.1l-.1-.1q-.1 0-.1-.1-.1 0-.1-.1v-.1q0-.1.1-.2 0-.1.1-.2h.1l.1-.1q.1 0 .2.1.1 0 .1.1.1 0 .1.1V9q-.1.1-.1.2zM5 9.1q.1-.1.1-.2T5 8.8h-.1q-.1.1-.1.2-.1.1-.1.2t.1.1h.1q0-.1.1-.2z"/></g><g id="text282"><path id="path963" class="s2" d="m3.9 11-.6-.1.1-.2.1.1.1-.4-.1-.1v-.1h.2v-.1l.2.1-.2.6.2.1z"/></g><g id="text286"><path id="path966" class="s2" d="M4 13.4H2.9v-.2q.2-.1.3-.2l.2-.2.1-.1q.1-.1.1-.2t-.1-.1-.1-.1h-.2q-.1.1-.2.1v-.3h.4q.3 0 .4.1.1.1.1.3v.2l-.2.2-.2.2h-.1l.6.1z"/></g><path id="path288" fill-rule="evenodd" class="s5" d="M15.6 5.3c-.7 0-1.3-.6-1.3-1.4 0-.7.6-1.3 1.3-1.3.7 0 1.3.6 1.3 1.3 0 .8-.6 1.4-1.3 1.4z"/><path id="path290" fill-rule="evenodd" class="s5" d="M16.8 6.1c-.7 0-1.3-.6-1.3-1.3 0-.7.6-1.3 1.3-1.3.8 0 1.4.6 1.4 1.3 0 .7-.6 1.3-1.4 1.3z"/><path id="path292" fill-rule="evenodd" class="s5" d="M18.1 7c-.8 0-1.4-.6-1.4-1.3 0-.7.6-1.3 1.4-1.3.7 0 1.3.6 1.3 1.3 0 .7-.6 1.3-1.3 1.3z"/><path id="path294" fill-rule="evenodd" class="s5" d="M19.1 8.2c-.7 0-1.3-.6-1.3-1.3 0-.8.6-1.4 1.3-1.4.7 0 1.3.6 1.3 1.4 0 .7-.6 1.3-1.3 1.3z"/><path id="path296" fill-rule="evenodd" class="s5" d="M20 9.9c-.8 0-1.4-.6-1.4-1.4 0-.7.6-1.3 1.4-1.3.7 0 1.3.6 1.3 1.3 0 .8-.6 1.4-1.3 1.4z"/><path id="path298" fill-rule="evenodd" class="s5" d="M20.5 12c-.7 0-1.3-.6-1.3-1.3 0-.7.6-1.3 1.3-1.3.7 0 1.3.6 1.3 1.3 0 .7-.6 1.3-1.3 1.3z"/><path id="path300" fill-rule="evenodd" class="s5" d="M20.7 14.1c-.8 0-1.5-.7-1.5-1.5s.7-1.5 1.5-1.5 1.5.7 1.5 1.5-.7 1.5-1.5 1.5z"/><path id="path302" fill-rule="evenodd" class="s2" d="M14.6 4q-.1-.2.1-.3c.1-.1.2-.1.2.1l.2.1q.1.2 0 .3-.2.1-.3 0zm.2-.2h-.1v.1l.2.2c0 .1.1.1.1.1.1-.1 0-.1 0-.1zm.5.2-.1-.1.1-.1.1.1zm.1-.5-.1.1-.2-.3.2-.2.1.1-.1.1v.1l.1-.1c.1 0 .2 0 .2.1.1.1.2.2 0 .3q-.1.1-.2 0l.1-.1s0 .1.1 0c0 0 0-.1-.1-.1 0 0 0-.1-.1 0zm.1-.3q-.1-.2 0-.3c.2-.1.2 0 .3.1l.2.2q.1.1 0 .2-.2.2-.3 0zm.2-.1s0-.1-.1-.1v.1l.2.2c0 .1.1.1.1.1v-.1z"/><path id="path304" class="s2" d="m16.7 4.8.2-.2-.5-.5-.1.1c0 .1 0 .1-.1.2l.1.1.1-.1z"/><path id="path306" class="s2" d="M17.6 5.4v-.1s-.1-.1 0-.1h.1v.3c0 .1.1.2.2.3v.1l.3-.4-.1-.1-.2.2v-.3q0-.1-.1-.2-.2-.2-.3 0-.2.2 0 .3v.1l.1-.1z"/><path id="path308" class="s2" d="M18.9 6.8q-.1-.1 0-.1c.1 0 .2.1.2.1 0 .1.1.2 0 .2-.1.1-.1 0-.1-.1l-.2.1v.1q.2.2.4.1c.2-.1.2-.3.1-.5-.1-.1-.2-.3-.4-.2q-.1.1-.1.2l-.1-.2.3-.2-.1-.1-.5.2.3.5z"/><path id="path310" fill-rule="evenodd" class="s2" d="M18.9 8.4q0-.2.3-.2c.2-.1.2 0 .2.2l.1.3c0 .2-.1.3-.3.3q-.2 0-.2-.2zm.3 0s0-.1-.1-.1v.5s0 .1.1.1v-.2zm.4.6v-.2h.1l.1.2zm.3-.4-.1-.4.5-.1v.2H20v.2l.1-.1c.2 0 .2.1.3.3 0 .2-.1.3-.3.3q-.2 0-.2-.2v-.1h.1c0 .1 0 .1.1.1s.1-.1.1-.1c0-.1 0-.2-.1-.2q-.1 0-.1.1h-.1zm.5-.3q0-.2.2-.2c.2 0 .3.1.3.3v.3c0 .1 0 .2-.2.2q-.3.1-.3-.2zm.3 0v-.1c-.1 0-.1.1-.1.1v.4s0 .1.1.1.1-.1.1-.1z"/><path id="path312" class="s2" d="m20.4 10.8.2-.1-.1-.7h-.2c0 .1-.1.1-.1.1v.2l.1-.1z"/><path id="path314" class="s2" d="M20.6 12.4v-.1c0-.1 0-.2.1-.2s.1.1.1.1q0 .2-.1.3l-.1.1c-.2.2-.3.3-.3.6h-.1.9V13h-.5c0-.1.1-.2.2-.2l.1-.2c.1-.1.2-.2.2-.3q0-.4-.4-.4t-.4.4v.1h.3z"/><path id="path316" class="s2" d="m5.1 16 .2.3.1-.1-.4-.8-.2.1.2.3-.8.5.1.2z"/><path id="path318" class="s2" d="m5.4 17.3-.4.3.1.2.9-.7-.1-.2-.4.2-.2-.3.3-.3-.1-.2-.9.7.1.2.4-.3z"/><path id="path320" class="s2" d="m6.7 17.8-.5-.6-.9.8.6.6.2-.1-.5-.5.3-.2.3.4.2-.1-.4-.4.2-.2.4.4z"/><path id="path322" class="s2" d="m7.2 19.2.1-.9-.2-.1-.6.9.1.1.5-.6-.1.9.2.1.7-.9-.2-.1-.5.6z"/><path id="path324" fill-rule="evenodd" class="s2" d="m7.6 19.9-.2-.1.9-.9.2.2-.1 1.2-.3-.1.1-.3-.4-.2zm.7-.6zm0 0-.4.3.3.1.1-.4z"/><path id="path326" class="s2" d="m9.2 19.4-.2-.1-.4 1.1h.2z"/><path id="path328" class="s2" d="m9.8 20.4-.1-.9h-.3l-.3 1 .2.1.2-.8.2 1h.2l.4-1-.2-.1-.3.7z"/><path id="path330" class="s2" d="M10.7 19.8h-.2l-.3 1.1.3.1z"/><path id="path332" class="s2" d="m11.4 20.1.3.1V20l-.9-.2v.2l.3.1-.1.9.2.1z"/><path id="path334" fill-rule="evenodd" class="s2" d="M11.8 21.1h-.2l.3-1.1.3-.1.5 1.2h-.3l-.1-.2h-.4zm.1-.5h.3l-.1-.4-.2.4z"/><path id="path336" class="s2" d="M13 19.9h-.3l.2 1.2.8-.1v-.3l-.6.1z"/><path id="path338" fill-rule="evenodd" class="s2" d="m14.1 19.7.5-.2c.2 0 .4.1.4.2 0 .2 0 .3-.1.3.2 0 .2.1.3.2q0 .1-.1.3s-.1.1-.3.2l-.4.1zm.4.9.3-.1q.2-.1.2-.2c-.1-.1-.2-.2-.2-.1l-.3.1zm-.2-.5.3-.1q.1 0 .1-.2 0-.1-.2 0h-.2z"/><path id="path340" fill-rule="evenodd" class="s2" d="m15.6 20.3-.2.1-.1-1.2.3-.1.8.9-.3.1-.1-.2-.4.2zm0-.5.2-.1-.3-.3.1.4z"/><path id="path342" class="s2" d="m17 19.2-.8-.4-.2.1.6 1 .2-.1-.5-.7.9.4.2-.1-.7-1-.1.1.4.7z"/><path id="path344" class="s2" d="M17.6 18.7v-.2l.6.2.2-.2-.8-.2v-.7l-.2.2v.7l-.3-.4-.2.2.7.9.2-.2z"/><path id="path346" class="s2" d="m18.2 17.1-.2.2.9.7.5-.6-.2-.1-.3.4z"/><path id="path348" class="s2" d="m18.8 16.2.2-.2-.1-.2-.5.8.1.1.2-.2.8.5.1-.2z"/><path id="path350" fill-rule="evenodd" class="s2" d="m18.9 15.7.3-.4c.1-.4.4-.3.6-.2.3.1.5.4.4.7l-.3.5zm1 .2.1-.2c.1-.2-.1-.4-.2-.4-.3-.2-.4-.1-.5 0l-.1.2z"/><path id="path352" class="s2" d="m20.3 14.8-.1.3h.2l.1-.2z"/><g id="text356"><path id="path969" class="s2" d="M10.3 3.3V2h.3l.5.9V2h.3v1.3h-.3l-.5-.9v.9z"/><path id="path971" class="s2" d="M11.9 3.3V2.2h-.4V2h1.1v.2h-.4v1.1z"/><path id="path973" fill-rule="evenodd" class="s2" d="M12.7 2h.9l.1.1q.1.1.1.2t-.1.2l-.1.1q.1 0 .2.1v.4l-.1.1q-.1.1-.2.1h-.8zm.3.2v.3h.5v-.2l-.1-.1h-.3zm0 .5v.4h.5l.1-.1v-.2h-.1q-.1-.1-.2-.1z"/></g></g><g id="g358"/><g id="g384"/><g id="g410"/><g id="g436"/><g id="g462"/><g id="g488"/><g id="g514"/><g id="g540"/><g id="g570"/><g id="g596"/><g id="g622"/></g></g></svg>