<svg xmlns="http://www.w3.org/2000/svg" xml:space="preserve" viewBox="0 0 24 24"><path fill="#fdfdfd" d="M.087 12.029V.076h23.905v23.905H.087Z"/><path fill="#ebe6d5" d="M11.875 23.46a.135.135 0 0 1 .022-.201.128.128 0 0 1 .179.178c-.044.066-.146.078-.201.022zm-.583-.044c-.062-.044-.064-.129-.005-.187.053-.054.106-.057.172-.01.093.065.04.231-.075.231a.197.197 0 0 1-.092-.034zm1.168-.01c-.024-.025-.044-.063-.044-.085 0-.053.09-.137.147-.137.1 0 .157.157.083.231-.047.048-.133.044-.186-.01zm-1.763-.146a.128.128 0 0 1 .179-.178.111.111 0 0 1 .057.1c0 .13-.166.185-.236.078zm2.35.027c-.026-.019-.041-.057-.041-.103 0-.12.136-.179.214-.092.109.12-.042.29-.173.195zm-2.872-.219c-.06-.047-.066-.115-.016-.179.053-.067.1-.074.171-.024.059.04.066.144.015.196-.042.042-.121.045-.17.007zm3.414-.016a.153.153 0 0 1-.045-.089c0-.055.075-.133.128-.133.07 0 .138.065.138.13a.127.127 0 0 1-.221.092zm-3.939-.298c-.014-.017-.023-.064-.02-.104.014-.134.17-.157.239-.036.028.05.028.063-.006.114-.029.043-.057.058-.112.058-.041 0-.086-.014-.101-.032zm4.438-.003c-.08-.08-.019-.216.098-.216.08 0 .133.052.133.13 0 .103-.156.161-.23.086zm-2.657-.14a4.46 4.46 0 0 1-.415-.099 3.762 3.762 0 0 1-.906-.459c-.131-.096-1.324-1.275-4.148-4.1-3.672-3.673-3.975-3.982-4.11-4.187a3.182 3.182 0 0 1-.495-1.195 3.967 3.967 0 0 1 0-1.148 3.15 3.15 0 0 1 .691-1.453c.076-.09 1.89-1.915 4.03-4.052 3.015-3.011 3.932-3.915 4.069-4.01a3.22 3.22 0 0 1 1.162-.507c.31-.069.992-.075 1.273-.012.456.104.895.296 1.217.534.265.195 8 7.92 8.215 8.202.174.231.408.695.484.963a3.22 3.22 0 0 1 0 1.815 3.71 3.71 0 0 1-.485.963c-.094.124-1.495 1.54-4.08 4.124-3.058 3.057-3.982 3.968-4.136 4.078a3.236 3.236 0 0 1-1.171.522 3.955 3.955 0 0 1-1.195.022zm4.338-5.824c.623-.192.994-.667 1.216-1.554.05-.199.056-.25.036-.312-.05-.151-.198-.221-.34-.162-.104.044-.134.096-.202.356-.162.616-.41 1.009-.728 1.154a.483.483 0 0 1-.29.05c-.132-.006-.175-.018-.237-.066-.163-.124-.265-.43-.305-.915a46.649 46.649 0 0 1-.02-1.77c0-1.75-.025-2.332-.127-3.005-.13-.846-.376-1.563-.714-2.075-.31-.467-.724-.775-1.2-.893-.506-.125-1.024-.095-1.422.081-.418.185-.833.615-1.1 1.14-.063.122-.105.18-.127.176-.02-.004-.065-.102-.117-.261-.212-.645-.524-1.098-.943-1.372a1.227 1.227 0 0 0-.695-.215 1.26 1.26 0 0 0-.995.362c-.31.287-.555.767-.555 1.087 0 .15.04.204.148.204.174 0 .269-.081.526-.453.352-.51.544-.664.76-.605.183.05.414.394.48.715.063.309.078.704.078 2.125 0 1.893.034 2.97.135 4.416.073 1.055.123 1.432.207 1.556.086.128.295.154.455.056.097-.058.168-.23.198-.472.061-.51.143-2.07.167-3.21.028-1.265.079-2.093.145-2.357.087-.346.39-1.132.536-1.394.22-.395.504-.719.75-.858.25-.142.583-.205.86-.162.267.041.47.14.659.32.139.132.18.189.271.378.059.122.128.307.152.41.123.508.14.826.146 2.678.007 1.888.03 2.276.18 3.01.225 1.098.68 1.743 1.326 1.883.146.032.513.007.686-.046zm-6.57 5.582c-.08-.087-.023-.21.096-.21.08 0 .133.052.133.132 0 .109-.154.161-.23.078zm5.33-.012c-.044-.067-.027-.135.045-.182.065-.042.132-.024.18.047.029.045.03.061.004.115-.023.048-.047.063-.111.068-.067.006-.088-.003-.118-.048zm-5.677-.363c-.06-.02-.11-.077-.11-.127 0-.103.155-.162.23-.087.087.087-.006.25-.12.214zm6.12-.036c-.066-.066-.069-.102-.015-.168.044-.055.14-.066.192-.022.04.033.044.163.006.194-.068.054-.126.053-.183-.004zm-6.597-.422c-.063-.063-.067-.094-.02-.162.041-.058.145-.066.197-.014.051.051.044.155-.015.196-.067.048-.099.044-.162-.02zm7.01.003c-.026-.028-.048-.071-.048-.096 0-.1.157-.157.231-.083.052.051.044.155-.014.196-.068.048-.112.043-.169-.017zm-7.432-.425c-.04-.04-.051-.069-.04-.105.045-.154.253-.131.253.029 0 .04-.018.076-.05.098-.067.047-.098.043-.163-.022zm7.85.012c-.056-.055-.058-.137-.005-.185.085-.076.225-.019.225.093 0 .06-.074.136-.132.136a.153.153 0 0 1-.089-.044zm-8.264-.417c-.078-.085-.025-.225.085-.225.07 0 .121.056.121.133 0 .12-.13.177-.206.092zm8.676 0a.134.134 0 0 1 .102-.225c.062 0 .127.07.127.138 0 .056-.08.128-.14.128a.138.138 0 0 1-.089-.04zm-9.097-.42c-.076-.084-.02-.226.09-.226.064 0 .144.105.126.164-.03.101-.15.135-.216.062zm9.518 0c-.117-.13.062-.304.184-.181.053.053.056.106.01.172-.042.06-.143.065-.194.009zm-9.94-.423a.13.13 0 0 1 .036-.2c.055-.03.064-.03.121.013.077.057.088.105.042.175-.044.067-.144.073-.2.012zm10.358.008c-.095-.095.012-.267.133-.212.03.013.066.05.08.08.054.12-.118.227-.213.132zm-10.777-.427c-.065-.071-.045-.152.049-.202.045-.023.061-.02.11.016.033.024.062.065.066.093.017.111-.147.18-.225.093zm11.19.013c-.053-.067-.052-.126.004-.182.03-.03.071-.056.09-.056.063 0 .15.106.132.161-.024.08-.055.105-.131.105-.04 0-.082-.013-.094-.028zm-11.59-.418c-.066-.05-.072-.099-.023-.169.065-.093.232-.04.231.074 0 .06-.025.092-.093.118-.047.018-.07.014-.115-.023zm11.99-.033c-.033-.05-.033-.064-.005-.113.07-.122.225-.099.238.035.01.094-.028.136-.12.136-.056 0-.084-.014-.112-.058zm-12.414-.394c-.063-.064-.067-.095-.02-.162.043-.061.144-.066.195-.01.052.059.046.15-.012.192-.068.047-.1.043-.162-.02zm12.864.008c-.066-.052-.073-.1-.024-.17.041-.059.145-.067.197-.015.051.052.044.155-.015.196-.064.046-.088.044-.158-.011zm-13.285-.43c-.041-.041-.052-.07-.041-.105.045-.155.253-.132.253.028 0 .04-.018.076-.049.098-.068.047-.099.043-.163-.021zm13.692.011c-.087-.086-.03-.221.092-.221.119 0 .176.164.08.23-.066.047-.119.044-.172-.009zm-14.095-.41c-.095-.067-.044-.232.071-.232.109 0 .165.155.083.23-.05.045-.09.045-.154.001zm14.52 0c-.06-.043-.065-.144-.008-.195.128-.117.303.062.18.185-.053.053-.106.056-.172.01zm-14.953-.427c-.076-.084-.019-.225.091-.225.063 0 .143.104.125.164-.03.1-.15.134-.216.06zm15.361 0a.134.134 0 0 1 .1-.225c.065 0 .13.062.13.124 0 .122-.151.188-.23.1zm-15.781-.42c-.092-.102.01-.262.13-.207.03.013.066.05.08.08.056.122-.118.228-.21.126zm16.2.005c-.078-.078-.016-.231.094-.231.058 0 .137.074.137.128 0 .115-.151.183-.231.103zm-16.627-.443c-.057-.086-.02-.173.077-.182.08-.008.158.044.158.105 0 .127-.167.182-.235.077zm17.04.03c-.054-.068-.053-.126.003-.183.07-.07.112-.07.18-.001.064.063.068.095.02.162-.038.055-.165.069-.203.022zm.465-.395c-.077-.03-.108-.117-.064-.184.047-.073.115-.092.179-.05.134.088.036.29-.115.234zm-17.92-.039c-.047-.053-.046-.12.004-.166.085-.077.226-.025.226.083 0 .109-.155.165-.23.083zm-.402-.412c-.063-.063-.067-.095-.02-.162.065-.093.232-.04.23.074 0 .055-.02.085-.08.117-.065.034-.068.033-.13-.029zm18.703 0c-.03-.03-.054-.073-.054-.096 0-.095.155-.157.232-.093.052.043.042.168-.016.209-.067.047-.099.043-.162-.02zm-19.124-.42c-.03-.03-.054-.07-.054-.09 0-.05.082-.122.14-.122.116 0 .17.166.076.231-.067.048-.098.044-.162-.02zm19.534.01c-.087-.088-.03-.222.095-.222.118 0 .169.135.083.222a.153.153 0 0 1-.089.044.153.153 0 0 1-.088-.044zm-19.95-.417c-.075-.084-.02-.225.09-.225.108 0 .158.168.068.23-.065.046-.113.044-.158-.005zm20.371-.004c-.086-.087-.03-.221.092-.221.12 0 .176.164.08.23-.066.047-.119.044-.172-.009zm-20.757-.433c-.11-.077-.018-.256.113-.223.07.018.112.111.078.176-.047.09-.109.104-.19.047zm21.148-.006a.134.134 0 0 1 .102-.225c.062 0 .127.07.127.138 0 .056-.08.128-.14.128a.138.138 0 0 1-.09-.04zm.331-.492c-.033-.026-.058-.068-.058-.098 0-.068.102-.15.164-.131.107.032.14.18.052.24-.064.046-.088.044-.158-.011zm-21.83-.034c-.034-.052-.035-.064-.006-.117.087-.155.303-.025.219.132-.036.067-.165.058-.213-.015zm-.224-.501c-.054-.068-.053-.126.005-.184.057-.058.115-.059.183-.005.041.033.034.138-.012.18-.048.043-.144.048-.176.009zm22.276-.013c-.05-.055-.046-.127.008-.181.053-.053.106-.056.172-.01.058.041.066.145.014.197-.047.047-.149.044-.194-.006zm.19-.54c-.096-.046-.091-.19.008-.236.084-.038.173.01.181.097.012.116-.087.187-.19.139zM.56 12.79c-.035-.052-.035-.064-.006-.116.087-.156.302-.026.218.131-.036.067-.165.058-.213-.015zm-.054-.564c-.053-.052-.044-.141.02-.19.125-.095.28.094.162.2-.055.05-.127.046-.182-.01zm22.725.006c-.049-.055-.046-.127.008-.181.087-.087.221-.03.221.092 0 .114-.153.173-.229.089zM.515 11.617C.48 11.565.48 11.553.51 11.5c.063-.114.241-.075.241.052 0 .124-.167.169-.236.064zm22.694.017c-.049-.054-.046-.127.008-.18.117-.118.279.028.198.178-.03.056-.156.058-.206.002zM.626 11.041c-.034-.052-.035-.064-.006-.116.023-.041.054-.06.106-.065.09-.009.136.027.136.106 0 .13-.166.182-.236.075zm22.473.018a.155.155 0 0 1-.037-.089c0-.058.074-.136.128-.136.07 0 .138.064.138.13 0 .119-.151.181-.23.095zM.866 10.53c-.054-.022-.075-.119-.039-.175.046-.07.114-.087.18-.044.134.088.01.28-.141.219zm22.033-.026a.155.155 0 0 1-.036-.088c0-.058.073-.137.128-.137.07 0 .137.065.137.13 0 .12-.15.182-.229.095zM1.127 9.993a.153.153 0 0 1-.044-.089c0-.06.077-.133.14-.133.064 0 .126.064.126.13 0 .06-.075.136-.133.136a.153.153 0 0 1-.089-.045zm21.493-.005c-.054-.058-.057-.102-.01-.168.04-.058.144-.066.196-.014.052.052.044.155-.014.196-.068.048-.118.043-.172-.014zM1.493 9.52c-.065-.065-.069-.096-.021-.163.065-.094.23-.04.23.075 0 .058-.042.11-.104.129-.036.01-.064 0-.105-.041zm20.772.009c-.087-.087-.03-.222.094-.222.122 0 .177.162.078.232-.066.046-.119.043-.172-.01zM1.946 9.136a.145.145 0 0 1-.088-.13c0-.111.167-.163.23-.071.05.07.044.118-.023.17-.061.049-.066.05-.119.031zm19.909-.039c-.064-.063-.067-.095-.02-.162.038-.055.159-.068.204-.023.046.046.033.167-.022.205-.068.047-.099.043-.162-.02zm-19.51-.395c-.116-.058-.064-.237.068-.237.062 0 .13.067.13.128 0 .032-.097.138-.125.138a.287.287 0 0 1-.073-.029zm19.102-.01c-.056-.046-.067-.14-.022-.195.047-.056.18-.033.22.04.03.054.03.064-.013.12-.057.077-.118.089-.185.035zM2.748 8.276c-.094-.066-.04-.231.076-.231.12 0 .169.149.074.225-.06.05-.087.05-.15.006zm18.27-.006c-.046-.051-.047-.145-.002-.19.052-.052.156-.044.197.014.046.066.043.119-.01.172-.055.055-.137.057-.185.004zM3.156 7.85c-.075-.084-.02-.226.089-.226.103 0 .157.157.077.23-.053.047-.12.046-.166-.005zm17.442 0c-.077-.085-.02-.226.092-.226.06 0 .137.074.137.133 0 .06-.077.133-.14.133a.138.138 0 0 1-.09-.04zM3.58 7.441c-.06-.048-.067-.116-.017-.18.026-.032.063-.058.084-.058.068 0 .136.065.136.13 0 .11-.12.173-.203.108zm16.597-.013a.136.136 0 0 1 .101-.225c.056 0 .128.079.128.14 0 .11-.154.167-.229.085zM3.97 6.994c-.043-.065-.026-.133.046-.18.119-.078.249.086.153.192a.127.127 0 0 1-.199-.012Zm15.786.014a.155.155 0 0 1-.036-.088c0-.058.073-.137.128-.137.07 0 .137.065.137.13 0 .12-.15.182-.229.095zm-.37-.388c-.078-.039-.105-.134-.055-.19.095-.105.234-.06.234.074 0 .108-.085.163-.18.116zM4.39 6.574c-.043-.066-.026-.133.044-.18.125-.081.26.097.149.197-.06.055-.151.047-.193-.017zm.466-.37c-.058-.033-.077-.063-.077-.12-.001-.105.156-.16.228-.08.054.06.045.127-.021.18-.067.052-.07.053-.13.02zm14.076-.029c-.065-.064-.068-.1-.014-.167.047-.058.147-.066.197-.015.05.05.042.15-.016.197-.066.053-.102.05-.167-.015zM5.288 5.794a.145.145 0 0 1-.088-.13c0-.111.167-.163.231-.071.047.067.044.098-.02.162-.056.056-.066.059-.123.039zm13.242-.02c-.055-.038-.069-.158-.023-.204.045-.045.166-.032.204.023.048.067.044.098-.02.162-.063.063-.094.067-.161.02zm-12.86-.42c-.096-.067-.04-.231.08-.231.055 0 .136.073.136.123 0 .042-.097.143-.138.143a.187.187 0 0 1-.078-.035zm12.44 0c-.06-.041-.067-.145-.014-.197.055-.056.166-.036.206.037.03.055.03.065-.013.122-.055.074-.112.086-.18.039zM6.078 4.929c-.076-.084-.02-.226.089-.226.1 0 .156.158.083.231a.12.12 0 0 1-.172-.005zm11.598 0c-.077-.085-.02-.226.092-.226.06 0 .137.075.137.133 0 .06-.077.133-.14.133a.137.137 0 0 1-.09-.04zM6.51 4.532c-.054-.021-.075-.118-.039-.174.047-.07.114-.087.18-.044.134.088.011.28-.141.218zm10.744-.027a.13.13 0 0 1 .037-.2c.054-.03.067-.03.121 0 .073.04.089.114.04.188-.043.067-.143.073-.198.012zm-10.36-.427c-.06-.085-.029-.172.072-.204.12-.038.215.128.125.218-.052.052-.156.044-.197-.014Zm9.94.008a.155.155 0 0 1-.036-.088c0-.06.074-.137.133-.137.06 0 .133.077.133.14 0 .11-.155.168-.23.085zm-9.517-.42c-.053-.059-.045-.127.022-.18.09-.07.207-.015.207.1 0 .106-.156.16-.229.08zm9.092-.015c-.031-.047-.032-.066-.01-.122.055-.13.244-.096.244.044 0 .132-.163.187-.234.078zm-8.671-.406c-.048-.053-.047-.12.004-.166.083-.075.225-.02.225.089 0 .103-.158.157-.23.077zm8.25-.013c-.042-.066-.025-.134.047-.18.08-.053.174-.002.184.097.009.095-.028.137-.12.137-.055 0-.084-.015-.11-.054zm-7.82-.387c-.09-.089-.034-.223.092-.223.06 0 .127.07.127.133 0 .105-.145.164-.22.09zm7.44.004c-.068-.058-.079-.124-.032-.182a.134.134 0 0 1 .208-.001c.054.066.05.102-.014.167-.065.065-.102.068-.163.016zM8.59 2.432c-.06-.042-.065-.143-.008-.194.12-.108.28.043.18.17-.053.067-.1.074-.172.024zm6.596 0c-.058-.04-.066-.144-.014-.196.051-.052.155-.044.196.015.047.067.044.098-.02.162-.063.063-.094.067-.162.02zM9 2.006c-.105-.117.045-.294.168-.198.06.048.066.116.016.18-.054.068-.131.076-.184.018zm5.755 0a.134.134 0 0 1 .102-.225c.062 0 .127.07.127.137 0 .056-.079.128-.14.128a.138.138 0 0 1-.089-.04zm-5.282-.373c-.139-.05-.1-.25.048-.25.094 0 .162.115.112.19-.015.022-.104.077-.12.073a.819.819 0 0 1-.04-.013zm4.857-.04c-.063-.063-.067-.094-.02-.161.039-.055.16-.069.205-.023.045.045.032.166-.023.204-.067.048-.098.044-.162-.02zM9.905 1.26a.134.134 0 0 1 .022-.2.128.128 0 0 1 .179.178c-.044.066-.146.077-.201.022zm3.944.011c-.061-.036-.052-.166.015-.21.07-.046.119-.035.173.038.039.052.04.065.013.121-.033.07-.13.094-.201.051zm-.522-.255c-.076-.053-.06-.186.026-.227.057-.027.07-.026.122.013.082.061.087.144.012.203-.071.056-.094.057-.16.011zm-2.899-.013c-.037-.038-.033-.162.007-.195.045-.038.14-.035.181.006.041.041.045.136.007.182-.033.04-.158.044-.195.007zm.562-.186c-.073-.072-.029-.194.08-.22.117-.028.2.137.11.218-.051.047-.145.048-.19.002zm1.745-.02c-.046-.07-.035-.118.041-.175.057-.042.067-.043.122-.012.075.042.096.169.035.214-.064.047-.158.035-.198-.026zm-1.174-.09c-.046-.069-.016-.152.068-.19.12-.055.227.117.132.212a.134.134 0 0 1-.2-.022zm.604.016c-.072-.079-.032-.188.077-.215.118-.028.201.137.111.219-.053.048-.143.047-.188-.004z"/><path fill="#d5caae" d="M11.897 23.437c-.048-.048-.043-.111.011-.15.099-.068.209.032.144.131-.04.062-.104.07-.155.02zm-.6-.061c-.064-.1.036-.202.135-.137.064.042.07.102.014.152-.057.051-.108.046-.148-.015zm1.202.028c-.062-.036-.051-.149.016-.18.046-.02.063-.018.1.016.056.05.057.135.001.165-.052.028-.068.028-.117-.001zm-1.778-.163c-.065-.1.045-.2.144-.13.056.04.058.099.005.147-.057.052-.108.046-.149-.017zm2.353.03c-.061-.036-.05-.149.017-.18.103-.046.19.088.109.17-.04.04-.071.042-.126.01zm-2.877-.221c-.059-.034-.052-.15.01-.174.103-.04.193.085.117.162-.042.04-.072.044-.127.012zm3.403-.029c-.066-.1.035-.202.134-.137.064.042.07.102.013.153-.056.051-.107.046-.147-.016zm-3.925-.284a.118.118 0 0 1-.026-.073c0-.025.012-.058.026-.073a.118.118 0 0 1 .073-.026c.026 0 .059.011.074.026a.118.118 0 0 1 .026.073.118.118 0 0 1-.026.073.118.118 0 0 1-.074.027.118.118 0 0 1-.073-.027zm4.435-.008c-.04-.04-.043-.063-.011-.122.046-.086.198-.036.198.065 0 .037-.067.092-.11.092a.127.127 0 0 1-.077-.035zm-2.547-.122a3.156 3.156 0 0 1-1.483-.618c-.136-.104-1.439-1.394-4.118-4.077-3.209-3.213-3.944-3.96-4.058-4.124a3.122 3.122 0 0 1 .165-3.796c.077-.09 1.896-1.92 4.042-4.063 3.464-3.458 3.926-3.912 4.11-4.034 1.103-.732 2.487-.71 3.577.058.133.093 1.158 1.103 4.07 4.01 2.14 2.137 3.956 3.965 4.035 4.063.467.576.694 1.222.694 1.97 0 .793-.258 1.478-.781 2.07-.091.103-1.893 1.91-4.003 4.017-2.893 2.888-3.881 3.862-4.017 3.957-.363.256-.77.434-1.199.526-.249.052-.79.074-1.034.041zm4.25-5.805c.45-.145.79-.48 1.013-.997.089-.205.238-.71.238-.804 0-.148-.136-.294-.274-.294a.342.342 0 0 0-.244.121 1.16 1.16 0 0 0-.08.232c-.195.765-.503 1.186-.903 1.233-.355.042-.512-.16-.603-.778-.018-.121-.028-.725-.032-1.915a56.61 56.61 0 0 0-.031-2.102c-.07-1-.202-1.666-.457-2.317-.338-.861-.805-1.369-1.451-1.578a2.644 2.644 0 0 0-1.1-.089c-.633.103-1.165.524-1.543 1.22-.06.113-.12.204-.131.202-.011-.002-.062-.12-.112-.265-.268-.767-.714-1.302-1.244-1.493-.161-.058-.598-.081-.79-.042-.514.107-1.024.66-1.175 1.273-.082.33.018.474.275.398.127-.038.207-.12.442-.458.304-.435.475-.592.644-.592.15 0 .301.143.433.41.16.322.186.698.186 2.655 0 1.544.018 2.324.078 3.41.076 1.362.155 2.125.238 2.287.068.133.168.187.321.172.213-.02.329-.136.382-.38.055-.254.144-1.673.176-2.81.053-1.867.084-2.516.136-2.809.012-.072.068-.266.123-.432.293-.878.53-1.327.89-1.686.289-.288.54-.396.929-.396.66-.001 1.079.368 1.263 1.113.109.44.116.578.135 2.56.014 1.458.026 1.947.053 2.214.172 1.66.627 2.558 1.41 2.778.185.052.58.032.806-.041zM9.22 22.338c-.043-.061-.043-.072 0-.115.048-.048.136-.044.164.008.03.058.028.081-.012.122-.05.049-.112.043-.152-.015zm5.348.023c-.042-.042-.03-.123.022-.16.042-.03.056-.03.094-.004.054.035.07.114.034.158-.033.04-.114.042-.15.006zM8.8 21.919c-.034-.048-.02-.109.032-.141.04-.025.128.01.143.055a.098.098 0 0 1-.175.086zm6.189.021a.118.118 0 0 1-.027-.073c0-.025.012-.058.027-.073a.118.118 0 0 1 .073-.026c.025 0 .058.012.073.026a.118.118 0 0 1 .026.073.118.118 0 0 1-.026.073.118.118 0 0 1-.073.027.118.118 0 0 1-.073-.027zm-6.596-.42c-.037-.037-.034-.118.006-.15.084-.07.213.06.144.144-.033.04-.114.043-.15.006zm6.986-.029c-.021-.046-.019-.063.016-.1.057-.064.147-.05.174.027.026.077-.014.128-.101.128-.047 0-.071-.014-.09-.055zm.446-.387c-.055-.056-.056-.093 0-.143.06-.055.15-.03.17.047.01.046.003.068-.036.1-.063.05-.08.05-.134-.004zm-7.853-.005c-.071-.071.009-.192.107-.161.054.017.08.11.043.155-.032.04-.113.043-.15.006zm-.413-.415c-.048-.053-.03-.154.027-.158.096-.007.138.02.138.09 0 .09-.105.134-.165.068zm8.68.003c-.048-.053-.047-.099.003-.144.055-.05.105-.046.146.012.045.064.044.075-.01.128-.054.055-.093.056-.14.004zm-9.098-.42c-.065-.073-.031-.16.063-.16.097 0 .14.133.057.177-.06.032-.078.03-.12-.018zm9.516.005c-.047-.047-.044-.105.008-.152.09-.08.213.031.146.133-.04.062-.104.07-.154.02zm-9.94-.43c-.033-.037-.036-.054-.015-.1.044-.095.181-.062.181.045 0 .099-.097.131-.166.055zm10.349.012c-.066-.08.028-.203.126-.165.056.021.07.124.023.17-.036.037-.117.034-.15-.005zm-10.769-.44c-.043-.066-.024-.121.05-.14.043-.01.067-.002.098.037.036.044.037.056.01.097-.045.068-.116.07-.157.007zm11.193.025c-.042-.042-.031-.123.022-.16.041-.029.055-.03.094-.004.054.035.07.114.033.159-.032.039-.113.042-.15.005zm-11.6-.419c-.059-.058-.017-.173.062-.173.04 0 .11.067.11.105 0 .073-.12.12-.172.068zm12.004-.023c-.029-.041-.03-.055-.004-.094.059-.089.19-.06.19.042 0 .104-.125.14-.186.052zM5.47 18.598c-.037-.037-.033-.117.006-.15.045-.037.138-.01.155.043.032.098-.09.179-.161.107zm12.83-.029c-.022-.045-.019-.062.014-.1.072-.078.188-.044.188.056 0 .109-.158.143-.203.044zm.446-.387c-.056-.056-.056-.093-.001-.143.06-.055.15-.03.17.047.011.046.003.068-.035.1-.064.051-.08.05-.134-.004zm-13.697-.004c-.071-.072.01-.193.107-.162.054.017.08.11.044.155-.033.04-.114.043-.15.007zm14.11-.413c-.048-.052-.047-.098.004-.144.052-.048.098-.046.144.004.05.055.046.105-.013.146-.063.045-.09.044-.135-.006zm-14.53-.007c-.04-.04-.033-.095.019-.142.049-.044.095-.03.14.042.051.08-.09.168-.158.1zm-.398-.407c-.083-.059-.05-.165.05-.165.094 0 .132.098.065.164-.043.044-.054.044-.115 0zm15.347 0c-.047-.047-.044-.106.005-.15.057-.052.108-.046.15.018.033.051.033.06 0 .11-.041.064-.105.072-.156.021zm-15.784-.43c-.081-.09.054-.215.14-.129.04.04.032.124-.016.15-.06.032-.078.029-.124-.022zm16.208.02c-.072-.042-.026-.198.058-.198.082 0 .136.107.089.175-.036.05-.086.058-.147.023zm-16.628-.45c-.042-.064-.023-.12.047-.138.065-.016.119.025.119.09 0 .104-.109.136-.166.049zm17.036.027c-.03-.03-.034-.105-.01-.141.054-.078.183-.041.183.051 0 .075-.036.116-.1.116a.118.118 0 0 1-.073-.026zm-17.44-.421c-.037-.036-.034-.117.005-.15.044-.035.1-.022.137.034.057.086-.069.19-.142.116zm17.862 0c-.046-.046-.032-.15.023-.171.098-.038.192.086.126.166-.032.038-.113.041-.15.005zm-18.283-.42c-.058-.059-.016-.173.063-.173.04 0 .11.067.11.105 0 .073-.12.12-.173.067zm18.676-.02a.132.132 0 0 1-.01-.088c.016-.051.114-.08.164-.05.045.029.057.11.023.152-.04.048-.148.04-.177-.013zm.444-.397c-.054-.053-.057-.095-.01-.142.041-.041.123-.045.16-.008.042.042.031.123-.023.16-.063.045-.074.044-.127-.01zm-19.54-.004a.096.096 0 0 1 .03-.155c.048-.022.063-.019.103.022.04.04.044.055.022.103a.096.096 0 0 1-.155.03zm19.95-.415c-.049-.054-.03-.147.032-.167.114-.036.2.08.121.167-.021.024-.056.043-.076.043-.021 0-.056-.02-.077-.043zm-20.37-.005c-.063-.063-.007-.161.085-.147.068.01.105.073.073.123-.03.048-.12.062-.158.024zm20.773-.419c-.08-.046-.024-.197.073-.197.023 0 .059.025.078.055.034.052.034.06 0 .111-.038.059-.087.069-.15.031zm-21.176-.04c-.036-.069.008-.14.082-.13.122.014.122.153 0 .168-.04.005-.065-.007-.082-.039zM1 13.905a.096.096 0 0 1 .031-.156c.051-.023.063-.02.1.025.05.063.051.078.007.123-.042.04-.101.044-.138.008zm21.774-.02c-.039-.073.006-.153.085-.153.074 0 .116.036.116.1 0 .063-.042.1-.115.1-.04 0-.07-.017-.086-.048zM.768 13.376c-.048-.027-.051-.115-.006-.153.018-.015.057-.021.087-.013.072.018.094.092.044.147-.043.048-.069.052-.125.02zm22.262-.01c-.046-.047-.043-.09.01-.143.055-.055.093-.056.14-.004.099.11-.046.25-.15.146zM.6 12.798c-.085-.086.039-.22.129-.14.053.049.056.085.01.132-.042.041-.102.045-.138.008zm22.571-.02c-.038-.073.006-.153.085-.153.075 0 .116.036.116.1s-.041.1-.114.1c-.04 0-.07-.017-.087-.047zM.546 12.226c-.044-.026-.051-.11-.012-.148.04-.041.124-.032.15.016.027.051.01.106-.045.135-.048.025-.044.025-.093-.003zm22.708-.016c-.048-.053-.047-.1.003-.145.053-.047.1-.046.145.004.046.051.046.102.001.146-.046.047-.105.044-.15-.005zM.553 11.62c-.062-.074.024-.204.102-.154.073.046.086.092.042.141-.048.053-.107.059-.144.014zm22.662-.015c-.038-.072.007-.152.086-.152.074 0 .115.036.115.1s-.041.1-.114.1c-.04 0-.07-.017-.086-.048zM.68 11.053c-.044-.026-.051-.11-.012-.149.086-.086.22.039.14.129-.045.05-.071.053-.128.02zm22.439-.012c-.05-.05-.034-.122.037-.162.054-.03.063-.03.105.009.054.049.058.107.01.154a.102.102 0 0 1-.152 0zM.878 10.5c-.044-.026-.051-.11-.012-.149.086-.086.221.038.14.128-.045.05-.07.054-.128.02zm22.042-.019c-.051-.056-.038-.114.036-.155.054-.03.063-.03.105.008.054.05.058.107.01.155-.046.047-.105.044-.151-.008zm-.278-.51c-.055-.056-.056-.094-.004-.141.112-.101.253.043.146.15-.047.046-.09.044-.142-.01zm-21.499.008c-.034-.034-.015-.14.029-.164.072-.038.136.01.128.096-.006.06-.016.071-.074.077-.037.004-.074 0-.083-.01zm21.144-.473c-.05-.05-.054-.074-.021-.135.026-.048.13-.058.172-.016.042.042.03.123-.023.16-.063.045-.074.044-.128-.01zM1.508 9.5c-.086-.086.038-.22.128-.14.054.049.056.085.01.132-.042.041-.101.045-.138.008zm.407-.429c-.044-.043-.044-.054 0-.115.058-.083.164-.05.164.05 0 .094-.098.132-.164.065zm19.938-.024c-.018-.072.013-.127.078-.136.063-.01.113.032.113.094 0 .065-.04.101-.115.101-.048 0-.065-.013-.076-.059zm-.38-.374c-.086-.06-.052-.187.05-.187.026 0 .06.012.074.027.042.042.032.146-.016.172-.054.029-.05.03-.108-.012zM2.318 8.63c-.022-.048-.019-.063.022-.103.04-.04.055-.044.103-.022.037.017.057.044.057.077 0 .111-.137.148-.182.048zm18.722-.382c-.07-.078-.033-.181.066-.181.045 0 .119.072.119.115 0 .029-.086.106-.118.106-.017 0-.047-.018-.067-.04zM2.748 8.239c-.043-.042-.032-.102.025-.139.065-.042.121-.023.139.047.024.096-.095.162-.164.092zm.442-.406c-.083-.059-.05-.165.053-.165.1 0 .128.112.041.169-.038.026-.052.025-.094-.004zm17.43-.006c-.046-.05-.047-.101-.002-.146.05-.05.114-.043.155.02.034.052.034.06 0 .111-.043.066-.102.071-.153.015zM3.6 7.423c-.078-.046-.033-.175.062-.175.096 0 .131.097.059.162-.047.043-.066.045-.12.013zm16.6-.016c-.048-.053-.047-.1.003-.145.053-.047.099-.046.144.004.048.053.047.099-.004.144-.052.048-.098.047-.144-.003zM4.02 7.003c-.044-.026-.051-.11-.012-.15.086-.085.221.04.14.13-.045.049-.07.053-.128.02zm15.756-.011c-.02-.02-.035-.05-.035-.067 0-.033.076-.12.106-.12.04 0 .115.072.115.11 0 .054-.057.112-.11.112a.127.127 0 0 1-.076-.035zM4.43 6.579c-.037-.036-.034-.117.006-.15.045-.037.138-.01.156.046.028.088-.098.169-.162.104Zm14.924-.027c-.048-.073-.011-.145.074-.145.073 0 .115.036.115.1 0 .105-.13.136-.19.045zM4.836 6.151c-.043-.044-.043-.054 0-.116.058-.083.165-.05.165.05 0 .094-.098.133-.165.066zm14.114.008a.118.118 0 0 1-.027-.073c0-.026.012-.059.027-.073a.118.118 0 0 1 .073-.027c.025 0 .058.012.073.027a.118.118 0 0 1 .026.073.118.118 0 0 1-.026.073.118.118 0 0 1-.073.026.118.118 0 0 1-.073-.026zm-.399-.407c-.086-.06-.051-.186.053-.186.102 0 .13.132.041.19-.038.026-.052.025-.094-.004zM5.24 5.71c-.022-.049-.02-.063.021-.104.041-.04.056-.044.104-.022.037.017.056.044.056.077 0 .112-.136.148-.181.049zm12.891-.377c-.088-.061-.052-.187.054-.187.044 0 .118.072.118.116 0 .022-.083.106-.105.106a.203.203 0 0 1-.067-.035zM5.67 5.318c-.04-.04-.032-.094.018-.14.037-.033.054-.035.1-.015.095.044.062.181-.045.181a.118.118 0 0 1-.073-.026zm.443-.407c-.027-.019-.049-.053-.049-.076s.022-.057.049-.076c.042-.029.055-.03.094-.004a.11.11 0 0 1 .045.08.11.11 0 0 1-.045.08c-.039.026-.052.025-.094-.004zm11.583-.008c-.054-.06-.03-.151.048-.17.045-.012.068-.004.1.035.05.063.05.08-.005.134-.055.055-.093.056-.143 0zM6.522 4.502c-.078-.046-.033-.176.061-.176.097 0 .132.097.06.163-.047.042-.067.044-.12.012zm10.755-.017c-.048-.054-.046-.099.01-.15.041-.037.05-.038.105-.007.073.04.086.099.035.155-.048.053-.102.054-.15.002zM6.943 4.08c-.044-.026-.051-.11-.012-.149.086-.086.22.038.14.129-.045.049-.071.053-.128.02zm9.912-.019c-.081-.09.031-.213.133-.146.062.04.07.104.019.154-.047.047-.105.044-.152-.008zm-9.518-.426c-.029-.042-.03-.056-.004-.095.047-.07.14-.071.172-.002.022.047.02.064-.014.101-.053.058-.111.056-.154-.004zm9.099.002c-.046-.066-.015-.14.062-.149.073-.009.123.03.123.094 0 .103-.126.14-.185.055zM7.76 3.223c-.047-.052-.046-.076.006-.124.052-.047.108-.039.148.022.026.039.025.052-.004.094-.042.06-.101.063-.15.008zm8.268.014c-.062-.062-.015-.172.073-.172.06 0 .1.04.1.1 0 .058-.04.099-.1.099a.118.118 0 0 1-.073-.027zm-7.866-.449c-.02-.046-.018-.063.015-.1.073-.08.166-.042.166.069 0 .099-.14.123-.181.031zm7.445.029c-.062-.062-.015-.173.073-.173.06 0 .1.04.1.1 0 .059-.04.1-.1.1a.118.118 0 0 1-.073-.027zm-.4-.408c-.085-.06-.048-.186.055-.186.064 0 .102.05.093.124-.009.076-.083.107-.148.062zm-6.62-.018c-.037-.046-.012-.139.043-.156.076-.024.137.026.13.106-.007.06-.017.072-.076.077-.041.004-.08-.006-.096-.027Zm.44-.408c-.097-.079.002-.217.112-.158.045.024.06.1.028.146-.032.046-.092.05-.14.012zm5.756 0c-.067-.054-.046-.15.038-.172.112-.028.17.111.077.186-.045.036-.056.035-.115-.013zm-5.355-.422c-.03-.058-.029-.08.012-.122.05-.05.114-.042.155.02.027.041.03.063.01.099-.032.06-.145.062-.177.003zm4.918.016c-.062-.062-.016-.172.073-.172.06 0 .1.04.1.1 0 .058-.04.099-.1.099a.118.118 0 0 1-.073-.027zm-4.419-.34c-.05-.05-.043-.114.02-.154.099-.066.199.037.133.136-.039.06-.103.068-.153.018zm3.944.01c-.053-.03-.049-.12.008-.16.065-.046.14-.015.148.061.013.104-.064.153-.156.1zM10.45.98c-.063-.062-.016-.172.072-.172.06 0 .1.04.1.1 0 .059-.04.099-.1.099a.118.118 0 0 1-.073-.027zm2.87-.02c-.04-.074.007-.152.09-.152.085 0 .13.078.09.152-.034.064-.145.064-.18 0zM11.01.785c-.06-.066-.015-.155.078-.155.092 0 .137.089.077.155-.022.024-.057.044-.077.044-.021 0-.056-.02-.078-.044zm1.764.017c-.014-.014-.026-.054-.026-.088 0-.113.178-.111.195.002.014.094-.102.153-.169.086zM11.601.714c-.062-.062-.015-.173.073-.173.06 0 .1.04.1.103 0 .079-.117.126-.173.07zm.584-.008c-.02-.02-.035-.045-.035-.057 0-.111.158-.152.203-.053.047.103-.087.19-.168.11z"/><path fill="#b7a172" d="M11.907 23.418c-.046-.056-.018-.112.055-.112.053 0 .068.01.074.053.011.081-.076.122-.129.059zm-.57-.027c-.04-.016-.034-.117.008-.133.039-.015.1.014.113.053.008.024-.053.096-.079.093a.214.214 0 0 1-.042-.013zm1.168-.017c-.046-.056-.019-.112.055-.112.045 0 .068.012.073.04.009.045-.032.104-.073.104-.016 0-.04-.015-.055-.032zm-1.739-.132c-.055-.04-.033-.112.037-.12.06-.007.094.036.072.094-.018.046-.066.058-.109.026zm2.315-.001c-.047-.056-.02-.112.054-.112.079 0 .104.07.042.115-.05.037-.064.036-.096-.003zm-2.865-.218c-.059-.043-.038-.114.036-.122.069-.008.104.045.068.102-.03.049-.058.054-.104.02zm3.408-.006c-.02-.02-.035-.044-.035-.054 0-.025.064-.088.088-.088.025 0 .089.063.089.088 0 .025-.064.089-.089.089-.01 0-.034-.016-.054-.035zm-3.93-.307c-.06-.072.04-.159.106-.093.028.029.03.046.012.075-.032.052-.083.06-.118.018zm4.425-.014c-.018-.034-.017-.054.002-.077.062-.075.176 0 .129.084-.03.053-.101.049-.13-.007zm-2.509-.11a3.14 3.14 0 0 1-1.474-.585c-.128-.097-1.431-1.386-4.086-4.044a544.642 544.642 0 0 1-3.986-4.014 3.285 3.285 0 0 1-.625-1.305 3.109 3.109 0 0 1 .624-2.59c.05-.061 1.849-1.872 3.998-4.024 2.74-2.744 3.962-3.953 4.086-4.043a3.095 3.095 0 0 1 3.689.032c.089.067 1.891 1.852 4.096 4.055 4.23 4.228 4.104 4.096 4.33 4.555.218.442.313.86.313 1.373 0 .51-.095.93-.308 1.361-.229.463-.048.273-4.26 4.49-2.156 2.158-3.99 3.982-4.075 4.052a3.032 3.032 0 0 1-1.882.7 3.973 3.973 0 0 1-.44-.012zm4.1-5.732c.659-.158 1.088-.676 1.32-1.593.064-.252.068-.312.025-.395-.106-.204-.357-.24-.507-.075-.023.025-.08.182-.128.351-.21.73-.502 1.1-.896 1.131-.308.025-.445-.162-.532-.72-.031-.203-.037-.49-.042-1.997-.006-1.973-.025-2.374-.146-3.12a5.794 5.794 0 0 0-.495-1.606 2.61 2.61 0 0 0-.527-.76c-.296-.3-.608-.465-1.058-.557-.304-.063-.804-.053-1.057.02-.544.16-1.046.61-1.366 1.225a.508.508 0 0 1-.08.128.988.988 0 0 1-.084-.205C9.859 7.88 9.4 7.337 8.84 7.147c-.153-.052-.213-.06-.443-.061-.376-.001-.57.061-.868.281-.271.2-.57.657-.66 1.01-.044.173-.034.357.022.42.085.092.276.076.427-.037.04-.03.17-.19.287-.357.318-.448.5-.624.648-.624.134 0 .28.14.404.387.076.151.101.245.143.543.03.213.036.538.04 2.025.004.974.017 2.055.031 2.402.066 1.626.173 3.01.257 3.31.05.177.178.275.36.275.167 0 .29-.075.365-.223.085-.168.108-.366.182-1.58.03-.5.043-.836.1-2.712.041-1.33.069-1.54.284-2.136.275-.764.49-1.159.81-1.482a1.293 1.293 0 0 1 1.492-.263c.076.036.183.117.271.205.248.247.395.622.476 1.217.028.207.039.622.053 2.138.02 1.975.03 2.186.135 2.807.214 1.262.68 2.011 1.354 2.174.18.044.487.038.7-.012zm-6.456 5.492c-.016-.01-.026-.043-.022-.072.006-.04.021-.052.063-.052.046 0 .055.01.055.066 0 .069-.041.094-.096.058zm5.317-.013a.157.157 0 0 1-.004-.071c.01-.056.136-.057.146 0 .016.082-.113.147-.142.071zm-5.748-.403c-.035-.034-.014-.115.033-.13.064-.02.115.044.083.104-.022.04-.087.055-.116.026zm6.169-.017c-.024-.062.001-.112.055-.112.07 0 .11.061.07.109-.036.044-.109.045-.125.003zm-6.59-.403c-.025-.026-.016-.09.016-.116.062-.052.151.038.1.1-.027.032-.091.04-.116.016zm7.01-.018c-.021-.056.002-.111.05-.118a.08.08 0 0 1 .086.105c-.017.053-.117.063-.136.013zm-7.434-.432c-.02-.06.003-.09.066-.09.064 0 .085.03.066.09-.008.027-.033.044-.066.044s-.057-.017-.066-.044zm7.838.009a.11.11 0 0 1 .01-.078c.045-.085.172-.026.142.067-.017.056-.132.064-.152.011zm.441-.398c-.019-.02-.034-.044-.034-.054 0-.01.015-.035.034-.054.02-.02.044-.035.054-.035.01 0 .035.016.054.035.02.02.035.043.035.054 0 .01-.016.034-.035.054-.02.019-.043.034-.054.034-.01 0-.034-.015-.054-.034zM7.56 20.65c-.02-.053.01-.1.064-.1s.083.047.063.1c-.007.018-.036.033-.063.033-.028 0-.057-.015-.064-.033zm9.11-.392c-.04-.04-.032-.102.016-.127a.222.222 0 0 1 .054-.023c.018 0 .08.068.08.088 0 .029-.065.089-.096.089a.092.092 0 0 1-.054-.027zm-9.529-.025c-.018-.047.036-.11.086-.1.028.006.042.027.042.064 0 .042-.012.056-.058.061-.035.004-.062-.005-.07-.025zm-.386-.385c-.033-.012-.037-.108-.005-.128.038-.024.11.013.11.056 0 .046-.061.088-.105.072zm10.332-.016c-.046-.056-.019-.112.055-.112.052 0 .067.011.073.053.012.082-.076.122-.128.06zM6.334 19.43c-.038-.016-.034-.11.006-.126.08-.03.134.053.073.114-.028.028-.035.03-.079.012zm11.16-.016c-.027-.069 0-.113.068-.113.059 0 .066.007.066.066 0 .056-.01.068-.06.074-.04.004-.066-.005-.075-.027zm-11.58-.404c-.037-.015-.035-.085.003-.116.043-.037.102-.006.102.053 0 .039-.048.088-.074.075l-.031-.013zm12-.016c-.027-.07 0-.114.069-.114.058 0 .066.008.066.067 0 .056-.01.067-.061.073-.04.005-.066-.005-.074-.026zm-12.421-.416c-.036-.036-.035-.074.003-.105.049-.04.106-.005.098.061-.007.064-.059.086-.101.044zm12.834-.016c-.028-.053.018-.121.075-.11.052.01.09.07.071.115-.019.05-.119.047-.146-.005zm-13.26-.412c-.038-.047-.01-.1.052-.1s.094.058.056.103c-.032.04-.073.038-.108-.003zm13.68.001c-.02-.023-.02-.043-.002-.077.047-.088.175-.032.145.064-.017.053-.103.061-.143.013zm.431-.402c-.043-.043-.037-.095.016-.128.045-.028.112.003.123.058.007.035-.05.106-.084.106-.01 0-.035-.017-.055-.036zm-14.523-.02c-.018-.045.006-.1.044-.1.017 0 .043.016.058.034.022.026.022.04 0 .066-.015.019-.041.034-.058.034-.018 0-.037-.015-.044-.034zm14.936-.391c-.05-.051-.015-.151.054-.151.031 0 .097.06.097.089 0 .028-.066.088-.097.088a.092.092 0 0 1-.054-.026zm-15.357-.03c-.017-.045.006-.099.044-.099.045 0 .084.055.068.097-.018.045-.095.047-.112.003zm15.774-.397c-.034-.041-.022-.1.029-.131.057-.035.136.059.102.121-.027.05-.093.056-.13.01zm-16.194-.023c-.018-.045.006-.1.043-.1.045 0 .089.06.073.1-.016.043-.1.043-.116 0zm16.601-.395c-.026-.07 0-.114.069-.114.058 0 .066.008.066.067 0 .056-.01.067-.061.073-.04.004-.066-.005-.074-.026zM3.4 16.485c-.028-.028-.015-.091.022-.105.047-.018.106.039.088.085-.013.035-.083.048-.11.02zm-.409-.41c-.036-.036-.033-.073.008-.107.049-.04.12.028.085.083-.03.05-.06.057-.093.024zm17.845-.004c-.027-.069 0-.113.068-.113.059 0 .066.007.066.066 0 .056-.01.068-.06.074-.04.004-.066-.005-.074-.027zm-18.26-.421c-.054-.04-.026-.107.04-.098.03.005.052.025.056.054.009.058-.044.082-.096.044zm18.673-.009c-.031-.06.017-.122.088-.112.044.007.054.02.054.075 0 .055-.01.067-.06.073-.04.004-.066-.007-.082-.036zm.43-.394c-.043-.043-.037-.095.016-.128.083-.052.171.077.093.134-.052.038-.065.037-.109-.006zm-19.533-.02c-.04-.047-.01-.104.049-.095.057.008.08.08.036.109-.042.026-.054.024-.085-.013zm19.943-.397c-.059-.07.028-.18.104-.131.055.034.062.1.015.134-.051.038-.086.037-.119-.003zm-20.355-.022c-.02-.052.008-.105.052-.097.024.005.039.028.039.063 0 .063-.07.09-.091.034zm20.757-.415c-.056-.056-.014-.15.066-.15.021 0 .049.019.062.042.03.055.029.058-.012.1-.042.041-.08.044-.116.008zm-21.139-.015c-.044-.028-.022-.103.03-.103.032 0 .044.015.044.054 0 .059-.028.078-.074.049zm21.463-.489c-.042-.034-.047-.05-.027-.083.014-.023.05-.04.088-.04.053 0 .066.01.071.06.01.086-.062.12-.132.063zM1.01 13.86c-.017-.045.017-.087.065-.078.058.011.054.094-.006.103-.026.003-.052-.007-.059-.024zm22.03-.512c-.034-.043-.01-.117.046-.135.084-.026.145.078.082.14a.086.086 0 0 1-.127-.005zM.79 13.343c-.009-.009-.016-.034-.016-.056 0-.029.017-.04.057-.04.046 0 .056.008.05.049-.007.049-.061.077-.091.047zm22.394-.587c-.012-.037-.003-.06.033-.09.068-.054.14-.017.13.067-.006.049-.02.06-.077.066-.057.006-.073-.003-.086-.043zM.612 12.753c-.018-.046.017-.088.064-.079.059.012.055.095-.005.103-.026.004-.052-.007-.059-.024zm22.65-.558c-.023-.027-.024-.047-.004-.09.03-.065.105-.067.145-.004.051.082-.08.17-.141.094zM.542 12.17c-.008-.021 0-.052.02-.071.03-.031.038-.03.07.002.02.02.03.052.023.071-.018.046-.095.045-.113-.002zm22.698-.57c-.044-.054-.007-.124.066-.124.075 0 .097.028.079.101-.016.062-.1.075-.145.022zM.568 11.58c-.018-.045.016-.087.064-.078.059.012.054.094-.005.103-.026.004-.053-.007-.06-.024zm22.561-.556c-.032-.039-.012-.114.035-.132.048-.018.12.025.12.072 0 .083-.102.123-.155.06zM.677 11c-.016-.043.043-.103.087-.086.05.019.03.105-.027.113-.026.004-.052-.007-.06-.027zm22.253-.532c-.032-.038-.012-.113.035-.131.047-.019.12.025.12.071 0 .084-.103.123-.155.06zM.884 10.446c-.025-.03-.024-.04.003-.068.045-.045.112-.017.103.043-.008.058-.067.072-.106.025zm21.768-.498c-.051-.057-.022-.122.056-.122.067 0 .108.064.075.117-.035.056-.083.058-.13.005zm-21.48-.01c-.037-.045-.013-.1.044-.1.025 0 .051.015.058.033.013.033-.026.1-.058.1-.01 0-.03-.015-.044-.034zm21.104-.478c-.03-.094.098-.147.151-.063.036.057.002.108-.071.108-.047 0-.07-.013-.08-.045zm-20.76.004c-.024-.04.014-.094.062-.087.065.01.064.093 0 .102-.027.004-.054-.003-.061-.015zm20.36-.41c-.027-.069 0-.113.069-.113.058 0 .066.008.066.066 0 .056-.01.068-.061.074-.04.004-.066-.005-.074-.027zM1.932 9.03c-.007-.02-.004-.047.009-.06.036-.035.105-.011.105.038 0 .056-.094.074-.114.022zm19.548-.373a.087.087 0 0 1-.03-.082c.006-.044.02-.055.074-.055.055 0 .067.01.073.06.009.075-.058.12-.117.077zM2.37 8.645c-.044-.028-.021-.101.033-.109.055-.008.087.054.05.098-.03.035-.042.037-.083.01zm18.682-.406c-.055-.055-.014-.15.066-.15.021 0 .05.02.062.043.03.055.03.058-.012.1-.042.04-.08.044-.116.008zM2.773 8.211c-.02-.05.008-.1.056-.1.052 0 .079.061.045.103-.034.04-.085.038-.1-.003zm17.859-.392c-.056-.056-.014-.15.065-.15.022 0 .05.02.063.044.048.09-.058.177-.128.106zM3.194 7.792c-.02-.053.009-.106.053-.097.024.005.038.027.038.062 0 .063-.07.09-.09.035zm17.017-.394c-.07-.07.017-.176.106-.128.076.04.043.155-.044.155a.101.101 0 0 1-.062-.027zM3.597 7.367c-.016-.041.023-.097.067-.097.044 0 .079.076.048.107-.037.037-.099.032-.115-.01zm16.19-.395c-.032-.038-.012-.113.035-.131.047-.019.12.024.12.071 0 .084-.103.123-.155.06zM4.013 6.95c-.008-.02 0-.051.018-.069.044-.044.11-.015.102.044-.008.06-.1.078-.12.025zm.435-.398c-.04-.047-.011-.1.054-.1.044 0 .056.011.056.053 0 .03-.016.06-.035.066-.046.018-.044.019-.075-.019zm14.92-.006c-.03-.055.01-.116.075-.116s.086.03.068.1c-.016.066-.11.076-.143.016zM4.871 6.144c-.045-.029-.02-.101.036-.11.06-.008.089.049.05.096-.032.038-.044.04-.086.014zm14.083-.011c-.026-.07 0-.114.069-.114.059 0 .066.008.066.067 0 .056-.01.067-.061.073-.039.005-.066-.005-.074-.026zM5.282 5.729c-.009-.009-.016-.04-.016-.069 0-.045.01-.052.061-.046.049.006.061.018.061.062 0 .04-.013.058-.045.062-.025.004-.052 0-.061-.009zm13.252-.017c-.027-.069 0-.113.068-.113.059 0 .066.007.066.066 0 .056-.01.068-.06.074-.04.004-.066-.005-.074-.027zm-.392-.393c-.072-.04-.032-.152.054-.152.044 0 .085.063.07.106-.017.045-.082.07-.124.046zm-12.44-.011c-.008-.009-.015-.038-.015-.067 0-.04.012-.052.056-.052.03 0 .062.016.069.034.023.06-.067.128-.11.085zm12.02-.408c-.066-.038-.034-.153.042-.153.03 0 .097.06.097.088 0 .023-.064.09-.085.088a.187.187 0 0 1-.054-.023zM6.1 4.869c-.02-.054.01-.1.064-.1.028 0 .056.015.063.033.02.054-.009.1-.063.1-.028 0-.057-.015-.064-.033zm11.19-.392a.092.092 0 0 1-.026-.054c0-.031.06-.097.088-.097.025 0 .089.064.089.089 0 .028-.066.088-.097.088a.092.092 0 0 1-.053-.026zm-10.775-.03c-.015-.038.028-.099.07-.099.042 0 .08.057.064.097-.018.046-.117.047-.134.003zm10.351-.407c-.026-.05-.01-.103.034-.12.047-.019.095.006.11.055.03.092-.098.15-.144.065zm-9.93-.013c-.022-.056.01-.103.063-.095.036.005.052.024.057.068.006.052 0 .06-.05.06-.032 0-.064-.014-.07-.033zm.44-.38c-.046-.018-.033-.113.016-.129.06-.018.089.003.089.066 0 .04-.048.089-.074.077l-.031-.013zm9.078-.017c-.024-.062.002-.111.061-.118.069-.008.106.064.062.118-.034.041-.108.042-.123 0zm-8.66-.408c-.016-.01-.026-.042-.022-.071.006-.04.021-.053.063-.053.041 0 .057.013.063.053.006.045-.025.09-.063.09a.124.124 0 0 1-.04-.019zm8.239-.012c-.024-.062.002-.112.062-.119.068-.008.106.065.061.119-.034.04-.107.041-.123 0zm-7.828-.403c-.029-.028-.017-.114.017-.127.06-.022.103.01.096.072-.007.057-.077.091-.113.055zm7.408-.016c-.027-.07 0-.114.069-.114.058 0 .066.008.066.067 0 .056-.01.067-.061.073-.04.005-.066-.005-.074-.026zM8.61 2.358c-.017-.033-.014-.052.013-.079.02-.02.047-.032.06-.027.038.012.067.074.052.112-.019.05-.097.046-.125-.006zm6.59.029c-.055-.055.018-.155.094-.13.07.022.053.13-.023.14-.03.003-.063-.001-.072-.01zm-.399-.41c-.081-.046-.019-.17.071-.141.03.01.046.033.046.067 0 .065-.063.104-.117.074zm-5.782-.042c-.02-.06.013-.094.08-.084.04.005.053.021.053.063 0 .076-.11.093-.133.02zm.447-.367c-.023-.024-.019-.115.007-.13.012-.008.043-.008.068 0 .062.02.051.13-.014.14-.025.003-.052-.002-.06-.01zm4.885-.018c-.022-.056.001-.112.049-.119a.08.08 0 0 1 .086.105c-.016.054-.116.063-.135.014zm-4.405-.332c-.02-.054.001-.111.046-.12.058-.011.106.057.077.11-.026.05-.105.055-.123.01zm3.932 0c-.046-.056-.018-.112.055-.112.046 0 .068.012.073.04.01.045-.032.104-.073.104-.015 0-.04-.015-.055-.033zm-3.405-.26c-.058-.059.002-.144.083-.118.072.023.045.144-.032.144-.013 0-.036-.012-.05-.027zm2.875-.015c-.028-.053.018-.122.075-.11.062.011.093.074.058.116-.04.047-.106.044-.133-.006zm-2.313-.17a.069.069 0 0 1 .06-.117c.082.012.072.149-.01.15-.009 0-.031-.015-.05-.034zm1.759.002c-.043-.051-.019-.111.047-.119.044-.005.063.005.074.04.027.086-.066.146-.121.079zm-1.17-.076c-.017-.01-.027-.043-.023-.072.01-.072.119-.088.14-.02.026.08-.048.136-.118.092zm.574-.02c-.028-.051.008-.116.064-.116.055 0 .091.067.063.117a.073.073 0 0 1-.127 0z"/></svg>