<svg fill="#000" viewBox="0 0 24 24" version="1.1" id="svg12" xml:space="preserve" xmlns="http://www.w3.org/2000/svg"><title>Netmeds</title><defs id="defs16"><style id="style4139">.cls-1{fill:#df1f25}.cls-2{fill:#fefefe}.s0{fill:#df1f25}.s1{fill:#fefefe}</style></defs><g id="g1435" transform="translate(.774 1.13)"><g id="layer1" transform="translate(-.774 -1.13)"><path style="fill:#84be52;fill-opacity:1;stroke:#87ceeb;stroke-width:.01;stroke-linejoin:bevel" id="rect1491" d="M-.108 0h24.2v23.985h-24.2z"/></g><path fill="none" d="M-18.35 7.74h56.017v12.114H-18.35Z" id="path1417"/><path fill="#84be52" d="M17.005 2.872 11.438 1.04v5.78H5.87l-.211 6.06 5.778 3.452c3.03.564 4.862.705 5.567.564 1.057-.282 4.721-3.03 5.214-4.65.494-1.621.353-4.088-.281-5.356-.423-.846-2.114-2.185-4.933-4.017Z" id="path1419"/><path fill="#fff" fill-rule="evenodd" d="M22.219 12.174c-.845 2.396-2.889 4.087-5.214 4.72v-4.72zM1.009 5.057C2.419 1.392 6.576-.58 10.45.687l.987.353v5.85H5.87v5.355h5.567v4.087l-3.876-1.268-1.973-.705C1.714 13.09-.33 9.073.868 5.338Zm15.925-2.185.564.212c2.043.634 3.594 2.114 4.369 3.805h-4.933z" clip-rule="evenodd" id="path1421"/><path fill-opacity=".994" d="M20.62 18.865h.287c.088 0 .154.022.242.044.066.022.154.044.22.066.065.022.131.066.197.11l.023.021v.023c.022.066.022.131.022.198v.241l-.088-.066c-.044-.022-.089-.065-.132-.087-.043-.022-.11-.067-.176-.088a2.64 2.64 0 0 0-.22-.066 1.298 1.298 0 0 0-.308-.044c-.066 0-.132 0-.198.021-.066.023-.11.044-.176.067a.265.265 0 0 0-.11.11.304.304 0 0 0-.044.131c0 .044.022.11.044.132a.227.227 0 0 0 .132.11c.066.044.11.066.198.11.066.022.154.066.242.088.11.044.22.088.308.132a1.166 1.166 0 0 1 .506.418c.065.088.087.22.087.352a.758.758 0 0 1-.11.396.758.758 0 0 1-.263.264c-.11.065-.22.11-.374.153a2.43 2.43 0 0 1-.396.044c-.154 0-.286-.022-.44-.022a3.42 3.42 0 0 1-.462-.087h-.021l-.067-.507.088.067c.132.087.264.154.374.175.132.023.286.044.44.023.088 0 .154 0 .22-.023a.744.744 0 0 0 .198-.087c.044-.044.088-.066.132-.132a.408.408 0 0 0 .044-.154c0-.066-.022-.11-.044-.132a.225.225 0 0 0-.132-.11c-.044-.044-.11-.066-.198-.088-.066-.022-.154-.066-.242-.088-.11-.044-.22-.066-.308-.11-.11-.044-.198-.11-.286-.154a1.153 1.153 0 0 1-.22-.242c-.066-.088-.087-.22-.087-.352 0-.11.021-.22.088-.33.065-.087.131-.176.241-.241.088-.066.22-.11.33-.154a.764.764 0 0 1 .44-.132zM7.34 17.567v1.32h.638v.418H7.34v2c0 .066.022.176.132.176.044 0 .154.022.198.022h.044v.155c-.11.022-.308.022-.462.022-.11 0-.198 0-.286-.022a1.022 1.022 0 0 1-.198-.067.265.265 0 0 1-.11-.11.304.304 0 0 1-.044-.131v-2.045h-.66v-.418h.638v-.902zm12.006-.022v2.727c0 .22-.044.396-.087.572a1.458 1.458 0 0 1-.264.44 1.184 1.184 0 0 1-.462.286c-.176.065-.418.087-.66.087-.242 0-.462-.022-.637-.087a1.021 1.021 0 0 1-.44-.286 1.23 1.23 0 0 1-.264-.44 1.556 1.556 0 0 1-.088-.572c0-.22.044-.418.088-.572.066-.175.154-.33.264-.44.11-.131.264-.22.44-.285a1.839 1.839 0 0 1 .637-.11c.176 0 .33.022.462.066.11.022.198.066.286.11l.022-1.474h.704zm-1.429 1.738h-.066c-.088 0-.176.022-.263.044-.089.021-.155.087-.22.153-.067.067-.11.177-.154.286-.044.11-.044.264-.044.44v.198c0 .176.022.33.044.44.043.11.087.198.153.264s.132.11.22.132a1.3 1.3 0 0 0 .308.043h.044c.088 0 .176-.021.264-.043a.459.459 0 0 0 .22-.132.764.764 0 0 0 .154-.264c.044-.11.044-.264.044-.44v-.198c0-.176-.022-.33-.044-.44-.044-.11-.088-.22-.154-.286-.066-.065-.132-.131-.22-.153-.088-.044-.198-.044-.286-.044zm-3.1-.352c.22 0 .396.044.571.11a1.268 1.268 0 0 1 .726.725c.066.154.088.33.088.528v.22h-2.045c.022.088.022.154.044.242a.986.986 0 0 0 .132.264.602.602 0 0 0 .264.198c.11.043.242.087.396.087.131 0 .307-.021.55-.087l.043-.022.066.264-.044.021c-.11.044-.242.088-.352.132a.885.885 0 0 1-.33.067h-.065a1.44 1.44 0 0 1-.55-.11 1.022 1.022 0 0 1-.44-.286c-.132-.11-.22-.264-.308-.44a2.233 2.233 0 0 1-.132-.55c0-.176.044-.352.11-.528a1.89 1.89 0 0 1 .286-.44 1.172 1.172 0 0 1 .44-.285c.175-.066.352-.088.55-.11zm0 .396a.605.605 0 0 0-.286.066.754.754 0 0 0-.198.175c-.044.066-.088.154-.132.242-.022.088-.044.154-.066.242h1.341c-.022-.264-.11-.44-.22-.55-.087-.11-.242-.175-.44-.175zM4.744 18.93c.22 0 .396.044.572.11a1.267 1.267 0 0 1 .726.725c.065.154.087.33.087.528v.22H4.063c.021.088.021.154.065.242a.606.606 0 0 0 .132.264.603.603 0 0 0 .264.198c.11.043.242.087.396.087.132 0 .308-.021.55-.087l.044-.022.066.264h-.044c-.11.043-.242.087-.352.131a.883.883 0 0 1-.33.067h-.066c-.198 0-.396-.044-.55-.11a1.023 1.023 0 0 1-.44-.286c-.131-.11-.22-.264-.307-.44a2.233 2.233 0 0 1-.132-.55c0-.176.044-.352.11-.528.066-.154.175-.307.286-.44a1.172 1.172 0 0 1 .44-.285c.175-.044.351-.066.55-.088Zm0 .396a.606.606 0 0 0-.286.066.523.523 0 0 0-.198.175c-.044.066-.087.154-.131.242-.023.088-.044.154-.066.242h1.34c-.021-.264-.11-.44-.22-.55a.578.578 0 0 0-.439-.175Zm6.993-.44c.242 0 .462.044.66.11.175.066.33.175.44.286.11.131.197.285.242.461.043.176.065.374.065.594v1.32h-.725v-1.474a2.268 2.268 0 0 0-.044-.44.503.503 0 0 0-.132-.264.32.32 0 0 0-.198-.131 1.1 1.1 0 0 0-.286-.044h-.044a1.11 1.11 0 0 0-.264.043.457.457 0 0 0-.22.132.77.77 0 0 0-.154.264c-.044.11-.043.264-.043.44v1.474h-.726v-1.474a2.03 2.03 0 0 0-.044-.418.507.507 0 0 0-.132-.264.32.32 0 0 0-.198-.131 1.1 1.1 0 0 0-.286-.044h-.044c-.088 0-.176.021-.264.044a.456.456 0 0 0-.22.131.76.76 0 0 0-.154.264c-.044.11-.044.264-.044.44v1.451h-.747V20.36c0-.44.131-.813.374-1.055.241-.264.615-.396 1.055-.396.264 0 .484.044.66.11.154.066.308.154.396.264a1.409 1.409 0 0 1 .417-.286 2.073 2.073 0 0 1 .66-.11zm-10.071.022c.242 0 .461.044.66.11.175.066.329.176.439.286.11.131.198.285.242.461.044.176.066.374.066.594v1.298h-.725v-1.452c0-.176-.023-.33-.045-.44a.504.504 0 0 0-.132-.264.32.32 0 0 0-.198-.131 1.1 1.1 0 0 0-.285-.044h-.044a1.09 1.09 0 0 0-.264.044.459.459 0 0 0-.22.131.765.765 0 0 0-.154.264c-.044.11-.044.264-.044.44v1.451H.237V20.36c0-.44.131-.813.373-1.055.22-.264.594-.396 1.056-.396zm20.208-.484h-.198v-.044h.44v.044h-.198v.528h-.044v-.528m.396-.044h.044l.242.33.242-.33h.044v.55h-.044v-.485l-.22.33-.22-.33v.484h-.044v-.55" id="path1423" style="fill:#fff;fill-opacity:1"/></g></svg>