<svg xmlns="http://www.w3.org/2000/svg" xml:space="preserve" viewBox="0 0 24 24"><title>NewsLaundry</title><g fill="none"><path fill="#ec2228" d="M.062.007h22.593a1.395 1.395 0 0 1 1.394 1.395V22.6a1.395 1.395 0 0 1-1.394 1.394H.062z"/><path fill="#fff" fill-rule="evenodd" d="m10.84 1.18.936 7.104a1.209 1.209 0 0 0-.447.281c-.236.23-.354.506-.354.829 0 .323.118.598.354.824.165.164.356.27.572.315a.666.666 0 0 0 .189.053v.145a.063.063 0 0 0-.015.01 748.728 748.728 0 0 0-1.254 1.507.323.323 0 0 0-.055.058c-.07.084-.137.165-.204.243-.647.772-1.002 1.175-1.064 1.211-.11.094-.28.022-.508-.213l1.164-12.424h.592a.042.042 0 0 0 .02.005c.004 0 .007.001.01.004a.114.114 0 0 1 .045.02c.01.006.017.016.02.029zm1.106 11.383-.517.543.462.562-.09 2.108a1.63 1.63 0 0 0-.736.421c-.328.32-.492.703-.492 1.149 0 .45.164.831.492 1.148.27.258.58.412.936.46l-.12 1.512-1.467 2.045H8.155l.811-8.59c.066-.037.14-.014.219.066.176.33.408.324.696-.019l2-2.142a.07.07 0 0 1 .045.005.03.03 0 0 1 .02.01c.02.006.042.027.065.063zm.348-1.328c.26-.313.413-.504.463-.571a6.572 6.572 0 0 0 .572-.897 1.22 1.22 0 0 0 .055-.373c0-.323-.117-.6-.353-.829a1.174 1.174 0 0 0-.473-.286l.93-7.084c.007-.038.024-.063.05-.072h.652v.01l.005.067 1.184 12.74c.003.08.008.155.015.227l-.105-.02a1.84 1.84 0 0 0-.258-.057 1.496 1.496 0 0 0-.538.009.62.62 0 0 0-.109.034.23.23 0 0 0-.07.03c-.139.08-.199.202-.179.367.027.081.07.147.13.199a.41.41 0 0 0 .298.107c.117-.003.23-.024.344-.064a2.7 2.7 0 0 0 .318-.12l.209-.117.746 7.986-2.268-.01-1.453-2.026-.01-.193c-.014-.107-.045-.55-.095-1.328a1.61 1.61 0 0 0 1.065-.47c.328-.317.493-.699.493-1.148a1.55 1.55 0 0 0-.493-1.149 1.602 1.602 0 0 0-.632-.392c-.003 0-.006-.002-.01-.005v.005a.893.893 0 0 0-.208-.044l-.11-2.103.438-.572-.493-.528z" clip-rule="evenodd"/></g></svg>