<svg xmlns="http://www.w3.org/2000/svg" viewBox="0 0 24 24"><title>Nykaa</title><g fill-rule="evenodd" opacity=".975"><path fill="#fc2779" d="M7.032 7.937c-.195.372-.372.754-.556 1.091-.248.471-.429.872-.656 1.293-.12.23-.234.46-.347.695-.44.921-.84 1.853-1.215 2.799-.124.308-.206.553-.344.85-.152.34-.206.585-.694.525-.124-.014-.277-.046-.337-.17-.064-.12-.025-.28-.018-.411.089-.982.142-1.939.227-2.927.025-.273.081-.68.085-1.024-.106.24-.213.553-.259.659a80.182 80.182 0 0 0-1.233 2.927c-.12.312-.163.52-.372.744-.266.287-.482.27-.577.27-.613.013-.585-.284-.43-.65.14-.34.635-1.41.791-1.736.149-.311.276-.623.415-.942.117-.259.255-.524.368-.79.383-.91.865-1.779 1.293-2.668.117-.238.355-.752.71-.716.34.035.414.053.467.287.074.379-.007.804-.046 1.18a14.598 14.598 0 0 0-.142 2.395c.188-.276.744-1.524.91-1.81l.897-1.765c.06-.103.195-.46.49-.46 0 0 .828-.135.573.354zm16.842 2.66c.053.564-.153.543-.397.61l-2.172.365v.01c.003.543.035.993.081 1.333.057.422.096.772.138 1.19.036.38.142.978-.45 1.028-.205.014-.265.036-.46.036-.163 0-.213-.163-.241-.291-.17-.79-.107-1.63-.163-2.438-.004-.05-.01-.418-.004-.684l-.567.092-.514.1c-.085.283-.304.992-.368 1.272-.092.425-.464 1.63-.475 1.672 0 0-.028.298-.5.273-.577 0-.506-.415-.41-.737l.673-2.278a38.41 38.41 0 0 0-.666.134l-.312 1.995s-.01.773-.585.84c0 0-.156.05-.46.003-.497-.074-.117-1.548-.117-1.548.035-.156.212-.776.265-1.056l-.822.163c-.003.007-.003.007-.01.007a1.463 1.463 0 0 1-.213.04l-.262.052-.83.142-1.006 1.878c-.187.358-.311.471-.598.475-.578.018-.613-.106-.744-.532-.185-.52-.507-1.654-.691-2.14-.036-.099-.309-1-.348-1.088l-.07.114a11.24 11.24 0 0 0-.585 1.215c-.21.517-.32.673-.642 1.502-.202.507-.343.925-1.23.815-.414-.06-.109-.602-.01-.836.216-.485.447-.974.68-1.445a31.96 31.96 0 0 1 1.988-3.523c.312-.47.585-.924.982-1.442.432-.577 1.555-.425 1.134.124l-1.3 1.942c.51-.305.829-.528 1.293-.89.379-.297.864-.648 1.247-.945a3.685 3.685 0 0 1 .645-.44.97.97 0 0 1 .641-.113s.507.255.33.503c-.142.191-.404.347-.404.347-.45.337-1.003.698-1.464 1.028-.648.46-1.364.79-1.998 1.268-.22.17-.333.213-.241.507.106.337.262.656.475 1.166.149.354.305.744.482 1.098.265-.354.574-.804.772-1.098a64.311 64.311 0 0 1 2.01-2.806c.417-.56.892-1.113 1.285-1.623.23-.298.369-.404.734-.383 0 0 .592-.01.531.5-.056.474-.127 1.25-.194 1.725-.071.521-.156 1.042-.22 1.563l-.007.028.744-.166.117-.029a13.713 13.713 0 0 1 .258-.638c.518-1.144.504-1.151.957-2.175.174-.393.284-.723.936-.815.563-.082.609.354.627.666.032.496.063.935.078 1.495.003.39-.004.263.02.9.617-.117 1.156-.22 1.33-.248.464-.088 1.24-.375 1.297.192zm-7.59 1.074c.141-.723.358-1.973.492-2.647-.24.256-1.817 2.431-2.175 3.03.358-.082.999-.227 1.68-.372l.003-.01zm3.88-2.951c-.195.496-.521 1.488-.833 2.296l.879-.167v-.035c.014-.369-.06-1.722-.046-2.094zm-9.486-.312c-.34.62-.698 1.173-1.098 1.818-.85 1.357-1.534 2.58-2.18 3.982-.07.16-.17.355-.24.51-.131.302-.29.458-.624.482-.188.011-.624.015-.57-.3.035-.228.166-.415.272-.603.493-.886.844-1.432 1.407-2.388.695-1.187-.662-.156-1.176-.812-.397-.577.52-2.037.645-2.342.067-.17.365-.673.517-.935.213-.372 1.084-.255.815.258-.273.539-.308.723-.595 1.262a1.885 1.885 0 0 0-.23.701c-.004.213.17.32.407.29.365-.038.531-.346.708-.59l1.099-1.723a.85.85 0 0 1 .319-.361c.177-.089.4-.036.567.046.287.141.056.514-.043.705z"/></g></svg>