<?xml version="1.0" encoding="UTF-8" standalone="no"?>
<svg
   xml:space="preserve"
   preserveAspectRatio="xMidYMid"
   version="1.0"
   viewBox="0 0 24 24"
   id="svg24"
   sodipodi:docname="nykaafashion.svg"
   inkscape:version="1.2.2 (732a01da63, 2022-12-09)"
   xmlns:inkscape="http://www.inkscape.org/namespaces/inkscape"
   xmlns:sodipodi="http://sodipodi.sourceforge.net/DTD/sodipodi-0.dtd"
   xmlns="http://www.w3.org/2000/svg"
   xmlns:svg="http://www.w3.org/2000/svg"><defs
     id="defs28" /><sodipodi:namedview
     id="namedview26"
     pagecolor="#505050"
     bordercolor="#eeeeee"
     borderopacity="1"
     inkscape:showpageshadow="0"
     inkscape:pageopacity="0"
     inkscape:pagecheckerboard="0"
     inkscape:deskcolor="#505050"
     showgrid="false"
     inkscape:zoom="22.291667"
     inkscape:cx="10.968224"
     inkscape:cy="12.02243"
     inkscape:window-width="1366"
     inkscape:window-height="715"
     inkscape:window-x="-8"
     inkscape:window-y="-8"
     inkscape:window-maximized="1"
     inkscape:current-layer="svg24" /><title
     id="title16">Nykaa Fashio</title><path
     fill-rule="evenodd"
     d="M 0.095,11.974 V 23.905 H 23.958 V 0.042 H 0.095 Z"
     id="path18"
     style="display:inline" /><path
     d="m 12.867,6.426 c 0.122,0.062 0.159,0.15 0.113,0.273 -0.018,0.052 -0.321,0.523 -0.67,1.047 -0.353,0.527 -0.631,0.97 -0.619,0.989 0.037,0.058 0.098,0.03 0.432,-0.193 0.324,-0.217 1.543,-1.127 1.696,-1.268 a 0.309,0.309 0 0 1 0.098,-0.07 c 0.01,0 0.04,-0.018 0.061,-0.04 0.107,-0.104 0.68,-0.517 0.833,-0.6 0.223,-0.122 0.523,-0.18 0.686,-0.131 0.15,0.045 0.343,0.235 0.343,0.336 0,0.104 -0.24,0.328 -0.656,0.619 a 12.8,12.8 0 0 0 -0.364,0.26 5.082,5.082 0 0 1 -0.251,0.175 c -0.116,0.08 -0.352,0.238 -0.52,0.358 -0.169,0.116 -0.43,0.29 -0.582,0.385 -0.15,0.095 -0.297,0.184 -0.322,0.2 a 8.839,8.839 0 0 1 -0.242,0.143 l -0.275,0.169 c -0.043,0.03 -0.101,0.064 -0.126,0.076 -0.08,0.037 -0.312,0.196 -0.554,0.38 -0.239,0.18 -0.333,0.29 -0.333,0.386 0,0.052 0.064,0.263 0.119,0.392 0.015,0.033 0.052,0.122 0.083,0.199 0.027,0.076 0.091,0.223 0.14,0.33 0.046,0.107 0.086,0.202 0.086,0.212 a 0.63,0.63 0 0 0 0.043,0.11 c 0.04,0.089 0.122,0.278 0.208,0.48 0.2,0.475 0.33,0.735 0.37,0.735 0.047,0 0.249,-0.263 0.653,-0.857 l 0.386,-0.566 c 0.08,-0.12 0.159,-0.236 0.177,-0.26 a 98.894,98.894 0 0 1 1.482,-2.049 c 0.618,-0.827 1.595,-2.039 1.702,-2.115 0.196,-0.141 0.668,-0.12 0.842,0.036 0.107,0.092 0.107,0.095 0.107,0.343 0,0.135 -0.012,0.297 -0.027,0.355 a 4.62,4.62 0 0 0 -0.061,0.46 c -0.062,0.649 -0.16,1.426 -0.218,1.714 a 8.965,8.965 0 0 0 -0.064,0.468 c -0.04,0.368 -0.028,0.408 0.125,0.37 0.043,-0.011 0.166,-0.039 0.276,-0.063 0.11,-0.022 0.254,-0.055 0.321,-0.068 0.138,-0.03 0.181,-0.085 0.285,-0.352 0.04,-0.104 0.101,-0.248 0.135,-0.324 0.1,-0.22 0.208,-0.466 0.257,-0.582 0.028,-0.058 0.067,-0.153 0.092,-0.205 0.024,-0.055 0.064,-0.144 0.086,-0.2 l 0.122,-0.269 c 0.043,-0.091 0.113,-0.254 0.156,-0.358 0.043,-0.107 0.11,-0.266 0.153,-0.358 0.043,-0.092 0.077,-0.175 0.077,-0.184 0,-0.073 0.248,-0.508 0.349,-0.612 0.168,-0.171 0.321,-0.236 0.603,-0.254 0.3,-0.022 0.373,-0.003 0.468,0.122 0.114,0.147 0.166,0.646 0.2,1.868 0.018,0.658 0.04,1.02 0.06,1.04 0.037,0.038 0.356,0 0.77,-0.085 A 6.96,6.96 0 0 1 22.6,9.317 c 0.107,-0.016 0.205,-0.037 0.22,-0.046 0.055,-0.034 0.536,-0.117 0.747,-0.129 0.361,-0.024 0.508,0.11 0.508,0.465 0,0.178 -0.006,0.2 -0.095,0.273 a 0.539,0.539 0 0 1 -0.159,0.095 c -0.098,0.018 -0.438,0.076 -0.649,0.107 -0.214,0.028 -0.698,0.11 -0.918,0.153 l -0.444,0.08 a 7.86,7.86 0 0 0 -0.328,0.06 c -0.064,0.016 -0.076,0.21 -0.043,0.674 0.046,0.604 0.089,1.023 0.11,1.078 0.01,0.025 0.037,0.273 0.065,0.554 l 0.064,0.665 c 0.018,0.19 -0.052,0.431 -0.156,0.53 -0.08,0.073 -0.37,0.134 -0.658,0.137 -0.23,0.003 -0.273,-0.058 -0.343,-0.523 -0.05,-0.316 -0.117,-1.795 -0.12,-2.658 0,-0.282 0.003,-0.282 -0.404,-0.217 a 4.96,4.96 0 0 0 -0.438,0.08 5.496,5.496 0 0 1 -0.205,0.045 c -0.092,0.016 -0.12,0.034 -0.134,0.101 a 0.49,0.49 0 0 1 -0.043,0.114 0.499,0.499 0 0 0 -0.046,0.137 c -0.01,0.058 -0.04,0.163 -0.061,0.23 a 8.878,8.878 0 0 0 -0.092,0.306 5.118,5.118 0 0 1 -0.077,0.26 11.68,11.68 0 0 0 -0.092,0.368 5.127,5.127 0 0 1 -0.092,0.367 c -0.015,0.043 -0.055,0.18 -0.091,0.306 -0.129,0.463 -0.163,0.567 -0.184,0.613 a 0.951,0.951 0 0 0 -0.046,0.153 c -0.052,0.23 -0.202,0.336 -0.48,0.336 -0.264,0 -0.454,-0.147 -0.454,-0.352 0,-0.085 0.058,-0.373 0.092,-0.459 0.015,-0.034 0.055,-0.165 0.092,-0.29 0.125,-0.435 0.245,-0.846 0.294,-0.996 0.021,-0.067 0.061,-0.205 0.089,-0.306 0.03,-0.1 0.07,-0.239 0.091,-0.306 a 0.762,0.762 0 0 0 0.05,-0.285 c -0.004,-0.052 -0.16,-0.046 -0.438,0.016 l -0.24,0.052 -0.042,0.156 c -0.025,0.082 -0.052,0.22 -0.061,0.306 -0.04,0.315 -0.117,0.833 -0.144,0.964 a 9.1,9.1 0 0 0 -0.061,0.368 c -0.019,0.125 -0.043,0.309 -0.059,0.41 -0.042,0.315 -0.192,0.557 -0.382,0.63 a 1.51,1.51 0 0 1 -0.582,0.04 c -0.18,-0.04 -0.23,-0.156 -0.23,-0.545 a 3.8,3.8 0 0 1 0.104,-0.903 c 0.07,-0.312 0.203,-0.83 0.24,-0.955 a 0.35,0.35 0 0 0 0.015,-0.16 c -0.022,-0.057 -0.16,-0.063 -0.343,-0.018 -0.178,0.046 -0.551,0.12 -0.766,0.157 a 1.91,1.91 0 0 0 -0.23,0.046 4.562,4.562 0 0 1 -0.336,0.058 c -0.444,0.06 -0.514,0.095 -0.612,0.275 l -0.184,0.337 c -0.055,0.101 -0.16,0.294 -0.23,0.429 -0.07,0.134 -0.174,0.327 -0.23,0.428 -0.054,0.101 -0.162,0.3 -0.235,0.444 -0.263,0.502 -0.328,0.551 -0.744,0.551 -0.42,0 -0.46,-0.04 -0.658,-0.673 -0.065,-0.193 -0.144,-0.45 -0.18,-0.567 -0.04,-0.12 -0.102,-0.318 -0.139,-0.444 -0.04,-0.125 -0.08,-0.257 -0.095,-0.29 A 45.48,45.48 0 0 1 10.892,10.832 0.446,0.446 0 0 0 10.849,10.71 0.54,0.54 0 0 1 10.803,10.572 0.524,0.524 0 0 0 10.751,10.425 c -0.076,-0.092 -0.135,-0.03 -0.321,0.337 -0.224,0.44 -0.407,0.839 -0.407,0.881 a 0.247,0.247 0 0 1 -0.028,0.086 1.9,1.9 0 0 0 -0.092,0.19 l -0.135,0.306 a 13.21,13.21 0 0 0 -0.14,0.322 l -0.095,0.214 c -0.016,0.034 -0.077,0.184 -0.138,0.337 -0.322,0.799 -0.469,0.933 -1.029,0.933 -0.337,0 -0.395,-0.036 -0.395,-0.248 0,-0.082 0.012,-0.174 0.03,-0.205 a 3.47,3.47 0 0 0 0.096,-0.205 c 0.08,-0.193 0.214,-0.487 0.471,-1.04 0.163,-0.35 0.69,-1.403 0.848,-1.7 C 9.474,10.523 9.591,10.309 9.67,10.159 9.753,10.005 9.851,9.828 9.89,9.761 L 9.983,9.592 c 0.06,-0.132 0.673,-1.123 0.866,-1.408 0.019,-0.025 0.107,-0.162 0.2,-0.306 0.318,-0.493 0.428,-0.659 0.452,-0.69 0.013,-0.018 0.114,-0.15 0.224,-0.3 C 12,6.518 12.221,6.387 12.582,6.38 a 0.657,0.657 0 0 1 0.285,0.046 z"
     id="path342"
     style="fill:#eb7287;fill-opacity:1" /><path
     d="M 6.906,6.439 C 7.028,6.472 7.071,6.546 7.037,6.659 7.016,6.726 6.578,7.609 5.84,9.072 5.657,9.432 5.442,9.868 5.363,10.036 c -0.294,0.63 -0.392,0.845 -0.392,0.857 0,0.006 -0.034,0.086 -0.074,0.175 -0.042,0.089 -0.11,0.248 -0.153,0.352 l -0.15,0.352 c -0.04,0.089 -0.092,0.211 -0.113,0.27 a 6.458,6.458 0 0 1 -0.092,0.229 c -0.027,0.067 -0.076,0.184 -0.104,0.26 -0.03,0.077 -0.067,0.166 -0.083,0.2 C 4.19,12.764 4.126,12.923 4.068,13.082 3.774,13.848 3.67,14.013 3.455,14.062 3.324,14.092 3.027,14.052 2.959,13.995 2.846,13.903 2.846,13.71 2.953,12.562 c 0.019,-0.193 0.043,-0.533 0.058,-0.75 0.08,-1.136 0.095,-1.347 0.141,-1.706 0.05,-0.391 0.04,-0.514 -0.03,-0.514 -0.04,0 -0.172,0.248 -0.172,0.322 0,0.027 -0.012,0.07 -0.03,0.1 C 2.904,10.042 2.861,10.134 2.828,10.22 2.751,10.4 2.742,10.425 2.601,10.734 2.54,10.863 2.491,10.985 2.491,11 a 0.208,0.208 0 0 1 -0.03,0.086 2.27,2.27 0 0 0 -0.093,0.205 L 2.277,11.506 C 2.261,11.539 2.222,11.634 2.185,11.72 2.148,11.803 2.108,11.9 2.093,11.934 a 4.33,4.33 0 0 0 -0.092,0.23 c -0.07,0.174 -0.083,0.205 -0.177,0.428 a 5.23,5.23 0 0 0 -0.117,0.291 3.02,3.02 0 0 1 -0.095,0.23 0.377,0.377 0 0 0 -0.04,0.129 c 0,0.027 -0.012,0.058 -0.027,0.07 -0.015,0.01 -0.04,0.058 -0.05,0.113 -0.024,0.107 -0.177,0.37 -0.275,0.472 a 1.25,1.25 0 0 1 -0.19,0.147 c -0.113,0.07 -0.162,0.08 -0.394,0.08 -0.24,0 -0.279,-0.01 -0.37,-0.08 -0.083,-0.062 -0.102,-0.098 -0.102,-0.193 0,-0.061 0.012,-0.126 0.028,-0.144 a 2.7,2.7 0 0 0 0.156,-0.334 c 0.073,-0.168 0.174,-0.404 0.23,-0.52 l 0.168,-0.368 c 0.037,-0.085 0.128,-0.278 0.199,-0.428 0.25,-0.54 0.413,-0.894 0.413,-0.916 0,-0.015 0.187,-0.428 0.441,-0.976 C 1.86,10.036 1.909,9.923 1.909,9.917 1.909,9.901 2.053,9.586 2.252,9.163 2.32,9.02 2.466,8.723 2.577,8.505 2.687,8.285 2.809,8.037 2.852,7.955 2.895,7.868 3.008,7.635 3.109,7.434 3.431,6.782 3.584,6.607 3.832,6.607 c 0.429,0.003 0.48,0.07 0.48,0.612 0,0.34 -0.036,0.775 -0.107,1.274 -0.042,0.306 -0.134,1.85 -0.113,1.907 0.015,0.04 0.034,0.043 0.089,0.016 C 4.23,10.394 4.325,10.232 4.493,9.889 5.298,8.245 6.083,6.705 6.174,6.592 A 0.44,0.44 0 0 1 6.471,6.429 c 0.15,-0.024 0.322,-0.021 0.435,0.01 z"
     id="path340"
     style="fill:#eb7287;fill-opacity:1" /><path
     d="m 8.381,6.515 a 0.246,0.246 0 0 1 0.092,0.27 C 8.464,6.821 8.403,6.962 8.339,7.097 8.274,7.232 8.192,7.409 8.155,7.495 8.118,7.578 8.015,7.798 7.925,7.985 7.717,8.413 7.647,8.591 7.622,8.772 7.552,9.24 8.066,9.378 8.482,9.002 8.538,8.952 8.632,8.832 8.697,8.738 8.761,8.643 8.822,8.56 8.832,8.551 8.841,8.542 8.908,8.438 8.978,8.321 9.048,8.202 9.196,7.969 9.306,7.801 9.413,7.633 9.511,7.473 9.526,7.449 9.539,7.425 9.603,7.32 9.667,7.219 c 0.478,-0.74 0.502,-0.765 0.79,-0.759 0.205,0.003 0.383,0.095 0.41,0.211 0.031,0.123 -0.018,0.254 -0.26,0.701 -0.14,0.255 -0.682,1.16 -0.707,1.18 A 0.437,0.437 0 0 0 9.836,8.649 C 9.811,8.695 9.689,8.897 9.563,9.102 A 22.78,22.78 0 0 0 9.26,9.602 0.797,0.797 0 0 1 9.162,9.745 0.283,0.283 0 0 0 9.107,9.837 0.743,0.743 0 0 1 9.043,9.96 c -0.361,0.554 -1.136,2.026 -1.73,3.29 L 7.108,13.685 C 6.979,13.961 6.762,14.075 6.379,14.068 6.156,14.065 6.049,14.022 6.024,13.924 5.984,13.768 6.052,13.591 6.306,13.171 a 1.36,1.36 0 0 0 0.104,-0.19 c 0,-0.009 0.125,-0.223 0.275,-0.477 0.153,-0.254 0.276,-0.469 0.276,-0.481 0,-0.01 0.034,-0.061 0.073,-0.113 0.04,-0.055 0.117,-0.18 0.169,-0.282 a 6.41,6.41 0 0 1 0.153,-0.26 0.748,0.748 0 0 0 0.073,-0.123 L 7.487,11.138 C 7.879,10.529 7.965,10.263 7.803,10.155 7.733,10.11 7.687,10.106 7.38,10.14 7.007,10.177 6.765,10.143 6.609,10.027 6.505,9.953 6.409,9.739 6.409,9.58 6.409,9.445 6.496,9.035 6.557,8.888 L 6.655,8.643 C 6.713,8.499 7.295,7.317 7.402,7.128 7.692,6.608 7.76,6.524 7.941,6.466 8.051,6.429 8.293,6.457 8.381,6.516 Z"
     id="path338"
     style="fill:#eb7287;fill-opacity:1" /><path
     d="m 4.8606168,15.213 c 0.052,0.101 0.123,0.26 0.163,0.352 0.04,0.092 0.113,0.251 0.162,0.355 0.049,0.108 0.089,0.2 0.089,0.209 0,0.012 0.033,0.095 0.076,0.186 0.043,0.092 0.11,0.251 0.153,0.359 0.043,0.104 0.11,0.257 0.15,0.343 0.04,0.082 0.104,0.23 0.141,0.321 0.037,0.092 0.08,0.18 0.095,0.199 0.058,0.061 0.018,0.077 -0.217,0.077 h -0.242 l -0.08,-0.169 -0.076,-0.168 h -0.53 c -0.59,0 -0.582,-0.003 -0.674,0.22 l -0.049,0.117 h -0.23 c -0.14,0 -0.232,-0.013 -0.232,-0.031 0,-0.04 0.089,-0.254 0.337,-0.811 0.015,-0.034 0.055,-0.132 0.092,-0.215 0.036,-0.085 0.085,-0.199 0.11,-0.25 l 0.089,-0.2 c 0.021,-0.055 0.085,-0.193 0.134,-0.303 0.053,-0.11 0.095,-0.208 0.095,-0.22 0,-0.01 0.043,-0.107 0.092,-0.215 0.052,-0.11 0.092,-0.21 0.092,-0.223 0,-0.04 0.101,-0.138 0.135,-0.126 0.018,0.003 0.076,0.092 0.125,0.193 z"
     id="path336"
     style="fill:#ffffff;fill-opacity:1" /><path
     d="m 20.784617,15.388 c 0.199,0.205 0.502,0.526 0.67,0.71 0.35,0.383 0.438,0.475 0.469,0.475 0.088,-0.003 0.098,-0.068 0.104,-0.766 l 0.009,-0.72 0.208,-0.008 0.205,-0.01 v 1.21 c 0,0.664 0.006,1.224 0.016,1.249 0.009,0.021 0.003,0.061 -0.016,0.086 -0.052,0.082 -0.162,-0.007 -0.627,-0.506 l -0.65,-0.689 a 5.655,5.655 0 0 1 -0.244,-0.272 c -0.11,-0.138 -0.129,-0.04 -0.138,0.735 l -0.01,0.716 -0.235,0.01 -0.239,0.009 v -1.283 c 0,-0.704 0.01,-1.292 0.022,-1.301 0.049,-0.05 0.11,0 0.456,0.355 z"
     id="path334"
     style="fill:#ffffff;fill-opacity:1" /><path
     d="m 8.5286168,15.134 c 0.162,0.082 0.328,0.248 0.328,0.327 0,0.03 -0.043,0.083 -0.092,0.117 -0.05,0.033 -0.092,0.07 -0.092,0.082 0,0.052 -0.14,0.022 -0.178,-0.037 -0.058,-0.094 -0.263,-0.183 -0.425,-0.183 -0.208,0 -0.33,0.1 -0.33,0.27 0,0.155 0.07,0.235 0.29,0.333 0.527,0.236 0.704,0.349 0.82,0.533 0.083,0.125 0.099,0.174 0.099,0.34 a 0.683,0.683 0 0 1 -0.383,0.645 c -0.104,0.056 -0.175,0.065 -0.475,0.068 -0.312,0 -0.37,-0.01 -0.502,-0.074 -0.177,-0.088 -0.46,-0.349 -0.44,-0.407 a 0.679,0.679 0 0 1 0.143,-0.14 l 0.132,-0.099 0.15,0.135 c 0.147,0.132 0.367,0.233 0.508,0.233 a 0.64,0.64 0 0 0 0.208,-0.065 c 0.166,-0.08 0.224,-0.208 0.169,-0.38 -0.03,-0.094 -0.074,-0.122 -0.438,-0.305 -0.469,-0.236 -0.576,-0.313 -0.68,-0.478 -0.092,-0.144 -0.107,-0.45 -0.027,-0.603 a 0.904,0.904 0 0 1 0.428,-0.361 c 0.196,-0.065 0.613,-0.04 0.787,0.049 z"
     id="path332"
     style="fill:#ffffff;fill-opacity:1" /><path
     d="m 17.878617,15.085 c 0.334,0.088 0.704,0.382 0.827,0.658 0.174,0.386 0.177,0.817 0.01,1.185 -0.096,0.208 -0.368,0.477 -0.604,0.594 -0.205,0.104 -0.211,0.104 -0.622,0.104 -0.41,0 -0.413,0 -0.597,-0.101 -0.263,-0.147 -0.395,-0.257 -0.514,-0.441 a 1.273,1.273 0 0 1 -0.214,-0.735 c -0.006,-0.606 0.355,-1.09 0.943,-1.264 0.171,-0.05 0.581,-0.05 0.771,0 z"
     id="path330"
     style="fill:#ffffff;fill-opacity:1" /><path
     d="m 2.5306168,15.09 c 0.037,0.016 0.05,0.065 0.05,0.2 0,0.098 -0.004,0.183 -0.007,0.187 a 17.64,17.64 0 0 1 -0.575,0.021 l -0.567,0.018 v 0.674 l 0.46,0.015 0.459,0.015 0.009,0.19 c 0.006,0.141 -0.003,0.193 -0.03,0.196 -0.022,0 -0.209,0 -0.414,-0.003 -0.223,-0.003 -0.398,0.01 -0.435,0.03 -0.06,0.031 -0.064,0.059 -0.064,0.506 v 0.475 H 0.92661682 V 15.073 H 1.7046168 c 0.428,0 0.799,0.009 0.826,0.018 z"
     id="path328"
     style="fill:#ffffff;fill-opacity:1" /><path
     d="m 10.901617,15.544 c 0.003,0.275 0.021,0.474 0.043,0.499 0.024,0.03 0.165,0.04 0.594,0.04 0.661,0 0.59,0.067 0.603,-0.567 l 0.006,-0.428 0.15,-0.01 a 0.817,0.817 0 0 1 0.223,0.01 l 0.07,0.015 v 2.511 h -0.459 v -0.536 c 0,-0.496 -0.002,-0.536 -0.058,-0.567 -0.076,-0.04 -0.982,-0.04 -1.086,0 l -0.08,0.028 -0.006,0.53 -0.01,0.53 h -0.428 l -0.01,-1.195 c -0.002,-0.658 0,-1.224 0.01,-1.264 0.015,-0.065 0.03,-0.07 0.224,-0.061 l 0.205,0.009 z"
     id="path326"
     style="fill:#ffffff;fill-opacity:1" /><path
     d="m 14.657617,16.343 v 1.255 h -0.428 l -0.01,-1.194 c -0.002,-0.658 0,-1.224 0.01,-1.264 0.015,-0.065 0.03,-0.07 0.223,-0.061 l 0.205,0.009 z"
     id="path20"
     style="fill:#ffffff;fill-opacity:1" /><path
     style="display:inline"
     d="m 17.290617,15.47 -0.165,0.065 c -0.125,0.046 -0.343,0.263 -0.42,0.416 -0.042,0.086 -0.054,0.19 -0.058,0.392 0,0.31 0.065,0.484 0.242,0.655 0.181,0.172 0.343,0.233 0.616,0.23 0.284,0 0.413,-0.052 0.6,-0.233 0.383,-0.37 0.349,-1.04 -0.07,-1.356 -0.224,-0.169 -0.56,-0.245 -0.745,-0.169 z"
     id="path966" /><path
     style="display:inline"
     d="m 4.6406168,15.93356 c -0.165,0.377 -0.263,0.634 -0.266,0.705 l -0.004,0.076 0.334,0.01 c 0.184,0.002 0.346,-0.004 0.361,-0.02 0.028,-0.027 0.007,-0.103 -0.134,-0.474 a 2.02,2.02 0 0 0 -0.169,-0.352 l -0.06,-0.082 z"
     id="path964" /><path
     style="display:inline"
     d="m 16.357,8.502 c -0.242,0.328 -0.542,0.738 -0.664,0.913 -0.325,0.456 -0.506,0.713 -0.551,0.777 a 7.508,7.508 0 0 1 -0.218,0.319 c -0.098,0.143 -0.187,0.29 -0.199,0.33 -0.03,0.089 0.043,0.117 0.19,0.074 0.116,-0.034 0.31,-0.077 0.848,-0.193 0.168,-0.034 0.349,-0.077 0.398,-0.092 0.052,-0.012 0.129,-0.034 0.175,-0.043 0.094,-0.018 0.131,-0.107 0.177,-0.416 0.015,-0.107 0.05,-0.3 0.077,-0.426 0.024,-0.125 0.067,-0.355 0.091,-0.508 0.025,-0.153 0.053,-0.3 0.062,-0.321 0.009,-0.025 0.027,-0.126 0.046,-0.227 0.015,-0.101 0.049,-0.288 0.073,-0.413 0.07,-0.362 0.07,-0.352 0,-0.362 -0.055,-0.009 -0.147,0.101 -0.505,0.588 z"
     id="path962" /><path
     style="display:inline"
     d="M 20.224,7.725 C 20.166,7.85 20.031,8.23 19.832,8.827 a 3.462,3.462 0 0 1 -0.107,0.29 c -0.07,0.148 -0.22,0.588 -0.224,0.659 -0.003,0.067 0.012,0.076 0.11,0.086 0.065,0.006 0.2,-0.013 0.304,-0.037 0.1,-0.028 0.226,-0.05 0.272,-0.05 A 0.313,0.313 0 0 0 20.358,9.702 L 20.444,9.632 20.407,8.977 A 21.404,21.404 0 0 1 20.371,8.012 c 0,-0.214 -0.013,-0.324 -0.043,-0.364 -0.04,-0.055 -0.046,-0.052 -0.104,0.077 z"
     id="path22" /></svg>
