<svg xmlns="http://www.w3.org/2000/svg" xml:space="preserve" viewBox="0 0 24 24"><path fill="#fff" d="m19.644 9.526 2.288 4.292h2.251l-4.539-8.5-4.538 8.5h2.25zm-7.449 2.3.006-6.522h-1.986v8.514h3.828l1.063-1.991zM4.639 5.002a4.521 4.521 0 0 0-2.524.766A4.558 4.558 0 0 0 .441 7.814a4.586 4.586 0 0 0-.26 2.637 4.571 4.571 0 0 0 1.24 2.338 4.532 4.532 0 0 0 2.324 1.25 4.516 4.516 0 0 0 2.623-.258 4.544 4.544 0 0 0 2.038-1.68 4.58 4.58 0 0 0-.562-5.761 4.527 4.527 0 0 0-3.206-1.339Zm0 7.022a2.436 2.436 0 0 1-1.36-.411 2.456 2.456 0 0 1-.904-1.102 2.471 2.471 0 0 1 .526-2.682 2.433 2.433 0 0 1 2.666-.536 2.448 2.448 0 0 1 1.098.906c.27.404.413.88.413 1.366a2.472 2.472 0 0 1-.72 1.74 2.445 2.445 0 0 1-1.732.72h.013z"/></svg>