<svg xmlns="http://www.w3.org/2000/svg" xml:space="preserve" viewBox="0 0 24 24"><path fill="#fff" fill-rule="evenodd" d="M-.041-.041h24.039v24.08H-.041z" opacity=".827"/><path d="M12.335 10.513h-1.973a.135.135 0 0 1-.155-.103L9.196 7.433c0-.035-.024-.076-.048-.138l-.104.276-.941 2.821a.128.128 0 0 1-.149.114H5.981a6.657 6.657 0 0 0 .162-.459L7.958 5.23c.034-.087.076-.128.172-.128h2a.152.152 0 0 1 .17.114l1.993 5.17a.455.455 0 0 1 .042.128zm10.534 0h-1.99c-.087 0-.124-.024-.149-.103l-1.014-2.977c0-.035-.027-.076-.051-.138l-.049.152-1 2.938a.145.145 0 0 1-.166.128h-1.942c0-.048.025-.09.038-.128l1.95-5.174a.155.155 0 0 1 .179-.117h2.014a.145.145 0 0 1 .148.104l2.018 5.225a.252.252 0 0 0 .014.09zm-5.826-5.395v1.587h-1.48v3.822h-2.149V6.719H11.88V5.132Zm-15.708 0h5.178v1.587h-1.48v3.822H2.867V6.719H1.335Zm7.875 7.878v.46h.024a1.452 1.452 0 0 1 .848-.546 1.71 1.71 0 0 1 1.08.049 1.19 1.19 0 0 1 .624.496 1.207 1.207 0 0 1 .063.104.31.31 0 0 1 .037-.066 1.528 1.528 0 0 1 .99-.624 1.794 1.794 0 0 1 1.177.152 1.431 1.431 0 0 1 .81 1.138 2.087 2.087 0 0 1 .024.397v2.97H13.56v-2.574a2.287 2.287 0 0 0-.024-.293.628.628 0 0 0-.534-.528.714.714 0 0 0-.708.235.807.807 0 0 0-.19.534v2.625h-1.358v-2.587a1.131 1.131 0 0 0-.055-.369.648.648 0 0 0-.58-.448.842.842 0 0 0-.314.028.707.707 0 0 0-.496.558 1.214 1.214 0 0 0 0 .221v2.597H7.92v-4.529zm9.458.425v-.425h1.324v4.14a2.846 2.846 0 0 1-.38 1.431 1.863 1.863 0 0 1-1.137.897 3.035 3.035 0 0 1-1.76-.017 2.049 2.049 0 0 1-1.103-.814 1.528 1.528 0 0 1-.242-.552v-.062a.135.135 0 0 0 0-.063l1.2-.344a.238.238 0 0 1 .028.086.938.938 0 0 0 .897.68 1.438 1.438 0 0 0 .483-.066 1.01 1.01 0 0 0 .62-.742 2.421 2.421 0 0 0 .052-.676 1.152 1.152 0 0 1-.748.42 2.087 2.087 0 0 1-1.197-.103 2.028 2.028 0 0 1-1.276-1.39 2.277 2.277 0 0 1 .162-1.776 2.032 2.032 0 0 1 1.162-1.035 2.17 2.17 0 0 1 1.218-.038 1.252 1.252 0 0 1 .697.449zm-1.953 1.693v.142a.907.907 0 0 0 .57.793.938.938 0 0 0 .455.062.886.886 0 0 0 .835-.628 1.252 1.252 0 0 0 .051-.483.938.938 0 0 0-1.269-.827.959.959 0 0 0-.642.941zm-8.823-2.749v-1.414h12.073a13.118 13.118 0 0 1 0 1.404c-.062.024-11.873.034-12.073.01zm-1.99 7.182v-1.415h8.985v1.415zm1.397-2.025H5.878v-4.488H4.49v-.969h.11a1.745 1.745 0 0 0 1.077-.414 1.149 1.149 0 0 0 .393-.62v-.056h1.214z"/></svg>