<svg xmlns="http://www.w3.org/2000/svg" xml:space="preserve" viewBox="0 0 6.35 6.35"><title>1mg</title><path d="M3.23 2.746h-.572a.039.039 0 0 1-.045-.03l-.293-.863c0-.01-.007-.022-.014-.04l-.03.08-.273.818a.037.037 0 0 1-.043.033h-.572a1.93 1.93 0 0 0 .047-.133l.526-1.397c.01-.025.022-.037.05-.037h.58a.044.044 0 0 1 .049.033l.578 1.499a.132.132 0 0 1 .012.037zm3.054 0h-.577c-.025 0-.036-.007-.043-.03l-.294-.863c0-.01-.008-.022-.015-.04l-.014.044-.29.852a.042.042 0 0 1-.048.037H4.44c0-.014.007-.026.011-.037l.565-1.5a.045.045 0 0 1 .052-.034h.584a.042.042 0 0 1 .043.03L6.28 2.72a.073.073 0 0 0 .004.026zM4.595 1.182v.46h-.429V2.75h-.623V1.646h-.445v-.46Zm-4.554 0h1.501v.46h-.429V2.75H.485V1.646H.041zm2.283 2.284v.133h.007a.421.421 0 0 1 .246-.158.496.496 0 0 1 .313.014.345.345 0 0 1 .181.144.35.35 0 0 1 .018.03.09.09 0 0 1 .011-.019.443.443 0 0 1 .287-.181.52.52 0 0 1 .341.044.415.415 0 0 1 .235.33.605.605 0 0 1 .007.115v.861h-.385v-.746a.663.663 0 0 0-.007-.085.182.182 0 0 0-.155-.153.207.207 0 0 0-.205.068.234.234 0 0 0-.055.155v.761h-.394v-.75a.328.328 0 0 0-.016-.107.188.188 0 0 0-.168-.13.244.244 0 0 0-.091.008.205.205 0 0 0-.144.162.352.352 0 0 0 0 .064v.753h-.4V3.466Zm2.742.123v-.123h.384v1.2a.825.825 0 0 1-.11.415.54.54 0 0 1-.33.26.88.88 0 0 1-.51-.005.594.594 0 0 1-.32-.236.443.443 0 0 1-.07-.16v-.018a.039.039 0 0 0 0-.018l.348-.1a.069.069 0 0 1 .008.025.272.272 0 0 0 .26.197.417.417 0 0 0 .14-.019.293.293 0 0 0 .18-.215.702.702 0 0 0 .015-.196.334.334 0 0 1-.217.122.605.605 0 0 1-.347-.03.588.588 0 0 1-.37-.403.66.66 0 0 1 .047-.515.589.589 0 0 1 .337-.3.629.629 0 0 1 .353-.011.363.363 0 0 1 .202.13zM4.5 4.08v.041a.263.263 0 0 0 .165.23.272.272 0 0 0 .132.018.257.257 0 0 0 .242-.182.363.363 0 0 0 .015-.14.272.272 0 0 0-.368-.24.278.278 0 0 0-.186.273zm-2.558-.797v-.41h3.5a3.803 3.803 0 0 1 0 .407c-.018.007-3.442.01-3.5.003Zm-.577 2.082v-.41H3.97v.41Zm.405-.587h-.412V3.477H.956v-.281h.032a.506.506 0 0 0 .312-.12.333.333 0 0 0 .114-.18V2.88h.352z"/></svg>