<svg xmlns="http://www.w3.org/2000/svg" xmlns:xlink="http://www.w3.org/1999/xlink" xml:space="preserve" viewBox="0 0 24 24"><defs><path id="a" d="M.036 60h245.209V.498H.036V60Z"/></defs><g fill="none" fill-rule="evenodd"><g transform="translate(2.032 -.001) scale(.39874)"><mask id="b" fill="#fff"><use xlink:href="#a"/></mask><path fill="#27346a" d="m25.547 57.548 1.812-11.494.117-.637a2.36 2.36 0 0 1 2.332-1.992h1.44c2.4 0 4.604-.256 6.552-.761 2.079-.54 3.928-1.379 5.495-2.493 1.662-1.182 3.058-2.71 4.15-4.54 1.15-1.931 1.996-4.256 2.513-6.91.456-2.342.541-4.44.255-6.234-.304-1.896-1.034-3.514-2.17-4.81-.69-.784-1.571-1.464-2.621-2.02l-.025-.014v-.03c.366-2.34.352-4.29-.042-5.97-.397-1.682-1.2-3.197-2.456-4.628-2.603-2.967-7.337-4.47-14.071-4.47H10.334a2.602 2.602 0 0 0-2.567 2.193L.067 51.57a1.537 1.537 0 0 0 1.522 1.78H13.06l-.01.055-.788 4.997a1.342 1.342 0 0 0 1.325 1.551h9.624a2.268 2.268 0 0 0 2.24-1.914l.095-.49" mask="url(#b)"/><path fill="#27346a" d="M18.954 15.676a2.314 2.314 0 0 1 2.286-1.954h14.496c1.718 0 3.32.113 4.783.348a21.5 21.5 0 0 1 1.221.233 17.716 17.716 0 0 1 1.7.465c.718.24 1.387.52 2.003.847.726-4.629-.005-7.779-2.508-10.631C40.178 1.843 35.199.498 28.828.498H10.334c-1.302 0-2.41.947-2.613 2.233L.02 51.563a1.587 1.587 0 0 0 1.568 1.835h11.417l5.949-37.722" mask="url(#b)"/></g><path fill="#2790c3" d="M20.152 6.225c-.022.14-.046.284-.075.432-.973 4.993-4.3 6.719-8.55 6.719H9.365c-.52 0-.958.378-1.038.89l-1.423 9.017a.554.554 0 0 0 .547.64h3.838c.454 0 .84-.33.911-.779l.038-.195.723-4.584.046-.253a.923.923 0 0 1 .912-.78h.574c3.717 0 6.628-1.51 7.479-5.877.355-1.825.171-3.349-.768-4.42a3.655 3.655 0 0 0-1.051-.81"/><path fill="#1f264f" d="M19.134 5.82a8.398 8.398 0 0 0-.946-.21 12.06 12.06 0 0 0-1.906-.14h-5.78a.922.922 0 0 0-.912.78l-1.23 7.79-.035.227a1.05 1.05 0 0 1 1.038-.891h2.164c4.25 0 7.576-1.726 8.549-6.72.029-.147.053-.29.075-.431a5.225 5.225 0 0 0-1.018-.406"/></g></svg>