<svg xmlns="http://www.w3.org/2000/svg" xml:space="preserve" viewBox="0 0 24 24"><title>PAYTM Payments Bank</title><g data-name="Group 22"><path fill="#00b2f1" d="M23.788 7.652A1.578 1.578 0 0 0 22.3 6.596h-.015a1.573 1.573 0 0 0-1.137.485 1.569 1.569 0 0 0-1.136-.485h-.015a1.567 1.567 0 0 0-1.027.382v-.12a.232.232 0 0 0-.231-.216h-1.055a.233.233 0 0 0-.233.233v5.727a.233.233 0 0 0 .233.234h1.055a.232.232 0 0 0 .23-.2V8.523c0-.013 0-.027.002-.041a.383.383 0 0 1 .363-.353h.195a.401.401 0 0 1 .223.086.388.388 0 0 1 .143.308l.003 4.09a.234.234 0 0 0 .234.234h1.055a.232.232 0 0 0 .23-.223V8.518a.388.388 0 0 1 .173-.33.424.424 0 0 1 .194-.065h.195a.386.386 0 0 1 .365.395l.004 4.085a.233.233 0 0 0 .233.234h1.054a.234.234 0 0 0 .234-.234V8.211a1.488 1.488 0 0 0-.08-.558" data-name="Path 1"/><path fill="#00b2f1" d="M16.649 6.657h-.602v-.98a.208.208 0 0 0-.254-.21c-.669.184-.535 1.11-1.755 1.19h-.119a.255.255 0 0 0-.051.005.233.233 0 0 0-.181.228v1.053a.233.233 0 0 0 .233.234h.636v4.47a.23.23 0 0 0 .23.232h1.043a.23.23 0 0 0 .23-.231v-4.47h.59a.233.233 0 0 0 .233-.235V6.89a.233.233 0 0 0-.232-.233" data-name="Path 2"/><path fill="#0c2756" d="M12.855 6.658H11.8a.233.233 0 0 0-.234.233v2.18a.247.247 0 0 1-.245.243h-.443a.248.248 0 0 1-.248-.248l-.004-2.176a.233.233 0 0 0-.232-.233H9.339a.233.233 0 0 0-.232.233v2.39a1.496 1.496 0 0 0 1.555 1.555s.682 0 .703.004a.245.245 0 0 1 .003.488l-.017.002-1.542.006a.233.233 0 0 0-.234.233v1.055a.234.234 0 0 0 .234.233h1.723a1.496 1.496 0 0 0 1.556-1.555V6.89a.233.233 0 0 0-.234-.233" data-name="Path 3"/><path fill="#0c2756" d="M2.74 6.658H.437a.228.228 0 0 0-.229.228v5.73a.227.227 0 0 0 .213.234h1.075a.233.233 0 0 0 .234-.234l.004-1.603h1.009A1.368 1.368 0 0 0 4.175 9.58V8.092a1.37 1.37 0 0 0-1.433-1.434m-.093 1.931v.651a.247.247 0 0 1-.247.247h-.669V8.183h.669a.247.247 0 0 1 .247.247z" data-name="Path 4"/><path fill="#0c2756" d="M6.856 6.663H5.394a.227.227 0 0 0-.235.22v.988a.24.24 0 0 0 .249.232H6.8a.242.242 0 0 1 .21.223v.135a.236.236 0 0 1-.205.217h-.69c-.917 0-1.57.61-1.57 1.465v1.227a1.382 1.382 0 0 0 1.473 1.456H7.93a.602.602 0 0 0 .621-.58v-4c0-.97-.5-1.583-1.696-1.583m.169 4.402v.164a.231.231 0 0 1-.005.039.274.274 0 0 1-.01.034.247.247 0 0 1-.235.159h-.438a.24.24 0 0 1-.249-.232v-.902a.24.24 0 0 1 .249-.231h.438a.241.241 0 0 1 .25.232z" data-name="Path 5"/><g fill="#00b2f1"><path d="M1.42 15.599h.267a1.438 1.438 0 0 0 .905-.252.884.884 0 0 0 .328-.734c0-.61-.39-.919-1.16-.919H.937v3.045h.485v-1.14m0-1.465h.301a.929.929 0 0 1 .543.125.428.428 0 0 1 .159.369.46.46 0 0 1-.17.404 1.067 1.067 0 0 1-.604.13H1.42z" data-name="Path 6"/><path d="M4.525 16.626a1.182 1.182 0 0 0 .4-.327l.078.372h.381v-1.95a.964.964 0 0 0-.253-.74 1.108 1.108 0 0 0-.767-.233 2.031 2.031 0 0 0-.503.065 2.112 2.112 0 0 0-.463.18l-.03.016.159.392.036-.017a1.812 1.812 0 0 1 .776-.212.554.554 0 0 1 .427.145.683.683 0 0 1 .132.463v.138l-.44.013c-.926.029-1.394.34-1.394.928a.82.82 0 0 0 .249.639.974.974 0 0 0 .678.224 1.316 1.316 0 0 0 .535-.096m.362-1.333v.215a.77.77 0 0 1-.216.582.83.83 0 0 1-.597.208.553.553 0 0 1-.365-.111.402.402 0 0 1-.128-.324.435.435 0 0 1 .207-.401 1.519 1.519 0 0 1 .714-.152z" data-name="Path 7"/><path d="m7.236 17.036 1.205-3.191.019-.05h-.536l-.009.023a142.03 142.03 0 0 0-.694 1.944c-.05.146-.086.262-.112.348a7.97 7.97 0 0 0-.23-.694l-.622-1.622h-.536l1.146 2.855-.15.386a.61.61 0 0 1-.59.467 1.477 1.477 0 0 1-.307-.03l-.045-.01v.416l.029.007a1.764 1.764 0 0 0 .392.044.932.932 0 0 0 .61-.206 1.632 1.632 0 0 0 .43-.688" data-name="Path 8"/><path d="M11.91 13.743a1.167 1.167 0 0 0-.56.132.939.939 0 0 0-.353.321.882.882 0 0 0-.873-.453 1.068 1.068 0 0 0-.506.119.883.883 0 0 0-.318.278l-.062-.346h-.413v2.877h.497v-1.508a1.268 1.268 0 0 1 .178-.76.661.661 0 0 1 .556-.225.525.525 0 0 1 .419.155.724.724 0 0 1 .134.478v1.86h.499V15.07a1.052 1.052 0 0 1 .18-.676.688.688 0 0 1 .557-.215.52.52 0 0 1 .417.154.719.719 0 0 1 .135.478v1.861h.499v-1.865a1.138 1.138 0 0 0-.248-.808.991.991 0 0 0-.738-.255" data-name="Path 9"/><path d="M14.66 13.743a1.15 1.15 0 0 0-.926.412 1.669 1.669 0 0 0-.342 1.101 1.505 1.505 0 0 0 .37 1.076 1.327 1.327 0 0 0 1.006.39 2.466 2.466 0 0 0 .493-.043 2.343 2.343 0 0 0 .433-.141l.022-.01v-.46l-.053.023a2.231 2.231 0 0 1-.88.185.832.832 0 0 1-.638-.243 1.05 1.05 0 0 1-.238-.688h1.93v-.306a1.372 1.372 0 0 0-.318-.939 1.1 1.1 0 0 0-.862-.359m-.516.638a.66.66 0 0 1 .512-.208.59.59 0 0 1 .483.2.879.879 0 0 1 .17.554h-1.387a.96.96 0 0 1 .225-.544z" data-name="Path 10"/><path d="M17.849 13.743a1.228 1.228 0 0 0-.54.117.936.936 0 0 0-.347.283l-.062-.349h-.413v2.877h.499v-1.508a1.172 1.172 0 0 1 .195-.76.774.774 0 0 1 .616-.225.6.6 0 0 1 .461.157.698.698 0 0 1 .147.486v1.85h.499v-1.864a1.076 1.076 0 0 0-.268-.809 1.104 1.104 0 0 0-.788-.255" data-name="Path 11"/><path d="M20.856 16.281a1.406 1.406 0 0 1-.212.017.383.383 0 0 1-.302-.123.537.537 0 0 1-.11-.364v-1.612h.813v-.404h-.814v-.65h-.31l-.182.61-.407.178v.266h.4v1.631c0 .592.286.894.851.894a1.667 1.667 0 0 0 .248-.023.861.861 0 0 0 .213-.057l.022-.011v-.397l-.048.014a1.397 1.397 0 0 1-.162.033" data-name="Path 12"/><path d="M23.248 15.38a1.86 1.86 0 0 0-.688-.374 4.117 4.117 0 0 1-.485-.205.54.54 0 0 1-.174-.14.288.288 0 0 1-.05-.17.253.253 0 0 1 .137-.228.833.833 0 0 1 .434-.09 2.013 2.013 0 0 1 .751.171l.034.014.18-.413-.034-.014a2.285 2.285 0 0 0-.9-.187 1.343 1.343 0 0 0-.785.204.67.67 0 0 0-.294.572.684.684 0 0 0 .085.349.814.814 0 0 0 .257.259 3.01 3.01 0 0 0 .564.258 2.167 2.167 0 0 1 .542.27.31.31 0 0 1 .129.25.314.314 0 0 1-.161.29.982.982 0 0 1-.492.102 1.777 1.777 0 0 1-.438-.059 2.004 2.004 0 0 1-.425-.158l-.055-.027v.476l.02.01a1.819 1.819 0 0 0 .887.182 1.414 1.414 0 0 0 .84-.22.74.74 0 0 0 .307-.632.688.688 0 0 0-.185-.49" data-name="Path 13"/><path d="M2.593 19.656a.661.661 0 0 0 .238-.173.71.71 0 0 0 .16-.473.684.684 0 0 0-.29-.607 1.597 1.597 0 0 0-.875-.185h-.89v3.042h1.082a1.194 1.194 0 0 0 .781-.234.822.822 0 0 0 .291-.664.703.703 0 0 0-.497-.708m-.012.684a.428.428 0 0 1-.149.367.796.796 0 0 1-.481.12h-.53v-.935h.503a.907.907 0 0 1 .51.114.376.376 0 0 1 .146.336zm-1.16-.881v-.8h.42a1.024 1.024 0 0 1 .516.097.309.309 0 0 1 .138.288.359.359 0 0 1-.125.318.842.842 0 0 1-.47.098z" data-name="Path 14"/><path d="M4.72 18.281a2.104 2.104 0 0 0-.977.248l-.029.015.159.397.036-.018a1.838 1.838 0 0 1 .785-.214.559.559 0 0 1 .43.146.692.692 0 0 1 .135.469v.139l-.445.014c-.935.03-1.409.344-1.409.937a.832.832 0 0 0 .252.645.985.985 0 0 0 .685.226 1.35 1.35 0 0 0 .542-.096 1.187 1.187 0 0 0 .403-.331l.08.376h.385v-1.97a.979.979 0 0 0-.257-.749 1.118 1.118 0 0 0-.775-.234m.53 1.56v.218a.779.779 0 0 1-.218.588.839.839 0 0 1-.604.21.547.547 0 0 1-.37-.113.408.408 0 0 1-.129-.325.44.44 0 0 1 .209-.407 1.525 1.525 0 0 1 .72-.154z" data-name="Path 15"/><path d="M7.938 18.276a1.239 1.239 0 0 0-.547.12.932.932 0 0 0-.35.284l-.063-.352h-.417v2.907h.503v-1.523a1.19 1.19 0 0 1 .198-.769.78.78 0 0 1 .623-.228.609.609 0 0 1 .467.159.71.71 0 0 1 .147.492v1.87h.503V19.35a1.095 1.095 0 0 0-.269-.816 1.118 1.118 0 0 0-.796-.257" data-name="Path 16"/><path d="M12.12 18.328h-.61l-.927.982c-.12.134-.215.25-.288.344.01-.15.015-.265.015-.344v-2.17h-.5v4.097h.498v-1.08l.28-.241.988 1.32h.612l-1.254-1.66 1.186-1.246" data-name="Path 17"/></g></g></svg>