<svg xmlns="http://www.w3.org/2000/svg" id="svg2" version="1.1" viewBox="0 0 24 24" style="background-color:white;"><title>PharmEasy</title><g id="g5313" fill="#000" stroke="none" transform="matrix(.125 0 0 -.125 -575.542 118.963)"><g id="g5418" transform="translate(-5502.732 -1034.917) scale(2.17355)"><g id="g5353" fill="#11847f" fill-opacity="1" transform="translate(4590.788 820.153) scale(.02247)"><g id="g5407" transform="matrix(.7657 0 0 .7657 478.354 83.177)"><path id="path5317" fill="#11847f" fill-opacity="1" d="M3476.557 1073.691c0-257.043 2.173-344.655 8.69-351.172 12.308-12.309 102.817-11.585 112.953.725 5.069 5.792 8.69 72.406 10.137 178.12l2.173 168.707 28.238 24.618c49.96 43.444 113.678 40.548 152.054-7.24l22.446-27.515 2.172-173.052 2.172-173.775 59.374 2.172 59.373 2.172v405.477l-23.894 36.203c-31.135 46.34-58.65 62.27-114.403 66.614-76.026 6.516-108.61-2.172-144.088-36.928-55.754-55.753-54.305-57.925-54.305 93.405v133.952h-123.092V1073.69z"/><path id="path5319" fill="#11847f" fill-opacity="1" d="M2886.445 1379.246c-2.173-5.792-2.897-156.398-2.173-335.966l2.173-325.829 52.856-2.172c33.307-1.448 57.201 1.448 63.718 6.516 7.965 6.517 10.137 30.411 10.137 101.37 0 84.715 1.448 93.404 13.757 100.645 7.965 3.62 52.133 7.24 99.197 7.24 101.37 0 141.917 11.585 186.809 54.305 39.1 36.928 49.96 55.03 65.166 106.438 14.481 51.408 14.481 76.027 0 127.435-22.446 78.2-65.89 126.711-134.676 152.054-43.444 15.93-351.172 22.446-356.964 7.965zm317.14-124.539c35.48-26.79 48.512-54.305 48.512-101.369 0-31.859-3.62-44.892-21.722-68.786-29.686-41.272-59.373-52.133-141.192-52.133-54.305 0-68.062 2.173-71.683 11.585-8.688 23.17-5.068 216.496 5.069 226.633 5.792 6.516 29.686 8.689 81.82 6.516 66.613-2.172 75.302-3.62 99.196-22.446z"/><path id="path5321" fill="#11847f" fill-opacity="1" d="M5896.383 1378.523c-12.309-12.31-12.309-643.694 0-656.003 6.517-6.517 64.442-8.69 217.22-8.69h208.53v115.851h-147.709c-128.16 0-148.433 1.448-152.054 11.585-2.172 6.517-4.344 39.824-4.344 75.303 0 35.48 2.172 68.786 4.344 75.303 3.62 10.137 23.17 11.585 140.469 11.585 150.606 0 144.813-2.172 144.813 49.236 0 62.994 7.965 59.374-144.813 59.374-117.298 0-136.848 1.448-140.469 11.585-8.688 22.446-5.068 139.02 5.069 145.537 4.344 2.896 72.406 5.792 149.881 5.792h141.193v108.61l-206.359 2.172c-154.95 1.448-209.254-.724-215.771-7.24z"/><path id="path5323" fill="#11847f" fill-opacity="1" d="M4189.762 1223.573c-26.067-6.517-64.442-27.515-87.612-48.513-23.17-20.998-52.133-73.855-44.168-81.82 2.172-2.895 26.79-6.516 54.305-8.688 47.064-2.896 50.684-2.172 73.13 18.826 43.444 39.1 123.815 39.1 156.398 0 20.274-23.894 24.619-63.718 7.965-77.475-5.068-4.345-49.96-11.585-99.92-15.206-126.712-9.412-172.328-31.134-202.015-97.024-16.654-36.928-17.378-68.062-1.448-107.162 15.205-39.1 27.514-53.58 63.717-76.75 24.619-15.206 36.928-18.102 86.888-18.102 62.994-.725 107.886 15.929 129.608 46.34 14.481 20.998 31.859 13.033 34.755-16.654l2.172-23.894 55.753-2.172c53.581-2.172 56.477-1.448 60.098 15.205 2.896 9.413 3.62 101.37 2.172 204.91l-2.172 187.533-19.55 29.687c-10.861 16.654-34.755 39.1-54.305 49.96-31.859 18.102-42.72 20.274-118.023 22.447-45.616 1.448-89.784.724-97.748-1.448zm162.914-291.799c26.067-49.236-19.55-115.85-86.888-127.435-62.27-10.861-120.194 36.927-101.369 83.267 13.033 31.86 24.619 38.376 85.44 47.789 82.543 12.309 94.129 12.309 102.817-3.62z"/><path id="path5325" fill="#11847f" fill-opacity="1" d="M4818.25 1222.124c-9.413-2.896-31.135-19.55-49.96-36.203-18.102-17.377-34.755-29.687-37.652-27.514-2.172 2.896-3.62 17.377-2.896 33.307l2.172 28.962H4606.1V975.942c0-181.016 2.172-246.906 8.689-253.423 11.585-11.585 101.369-11.585 112.954 0 6.517 6.517 8.689 53.581 8.689 166.535v157.123l22.446 26.066c29.686 33.307 62.993 47.064 115.126 47.064H4916l2.896 47.788c.724 26.067-.724 49.961-4.344 54.305-7.965 7.241-70.959 7.965-96.3.724z"/><path id="path5327" fill="#11847f" fill-opacity="1" d="M5217.934 1217.056c-28.238-15.206-52.857-39.1-58.65-55.753-5.068-15.93-21.721-17.378-27.514-1.448-2.172 6.516-4.344 22.446-4.344 36.203v25.342l-59.373-2.172c-42.72-1.448-60.098-5.068-59.374-10.86.724-5.07 1.448-118.748 2.172-251.976l.725-242.561h57.2c45.617 0 57.926 2.172 61.546 11.585 2.172 6.516 4.345 81.095 4.345 166.535 0 129.607 2.172 159.294 11.585 178.12 30.41 59.373 92.68 72.406 144.088 31.859l21.723-17.378 3.62-183.913 3.62-183.188 53.581-2.172c38.375-1.448 55.753.724 59.373 7.24 3.62 5.069 6.517 80.372 6.517 166.535 0 170.88 3.62 190.43 41.272 218.668 23.17 17.378 72.406 22.446 95.576 10.137 9.413-5.068 24.618-18.826 32.583-29.687 14.481-19.55 15.206-32.583 18.826-195.497l3.62-175.224 56.477-2.172c52.857-2.172 56.477-1.448 61.546 14.481 3.62 9.413 5.792 91.956 5.068 183.189-1.448 201.29-7.24 231.7-50.684 275.144-31.86 31.86-53.581 39.824-112.23 39.824-60.822 0-80.372-7.24-122.367-48.512-21.722-20.998-41.996-38.376-44.892-38.376-2.897 0-8.69 9.413-12.31 20.998-4.344 11.585-19.55 29.687-34.755 41.272-23.17 18.101-34.755 20.998-81.82 23.17-39.823 1.448-60.82-.724-76.75-9.413z"/><path id="path5329" fill="#11847f" fill-opacity="1" d="M6557.454 1221.4c-53.58-13.757-104.989-55.753-120.194-97.024-5.069-14.482-7.241-28.963-4.345-31.86 2.896-2.895 26.79-6.516 52.133-7.964 43.444-2.896 48.512-1.448 71.682 18.826 41.996 36.927 118.023 39.1 153.502 4.344 20.274-20.274 23.894-68.062 7.24-81.82-5.792-5.068-51.408-11.584-100.644-15.929-52.857-3.62-99.197-10.86-110.782-17.377-11.585-5.793-24.618-10.861-28.963-10.861-15.205 0-52.132-48.513-63.717-84.716-11.586-34.755-11.586-39.823-.725-77.475 21.722-74.578 70.959-107.885 159.295-107.885 61.545 0 78.923 6.516 120.195 43.443 23.17 21.722 41.271 15.93 44.168-14.48l2.172-23.17H6847.08v414.164l-20.273 26.79c-11.585 14.482-34.031 35.48-50.685 45.617-27.514 17.377-37.651 19.55-113.678 20.998-45.616 1.448-92.68 0-104.99-3.62zm161.467-284.557c5.068-5.069 8.689-23.17 8.689-40.548 0-27.514-3.62-36.203-26.79-59.373-48.513-47.789-135.4-45.616-159.295 4.344-24.618 51.409 7.965 85.44 91.956 95.577 76.751 9.413 76.027 9.413 85.44 0z"/><path id="path5331" fill="#11847f" fill-opacity="1" d="M7068.644 1222.849c-34.755-7.241-94.128-51.41-109.334-81.096-19.55-38.375-19.55-99.92 0-132.504 26.067-44.892 63.718-62.993 184.637-89.784 63.718-13.757 76.751-18.826 93.405-36.203 16.653-16.654 13.757-41.272-7.241-61.546-16.654-15.205-25.342-17.377-75.303-17.377-54.305 0-57.925.724-81.095 23.894-23.894 22.446-26.79 23.17-83.992 23.17h-59.373l4.344-19.55c5.793-25.342 30.411-62.27 53.581-80.37 38.376-28.24 86.888-40.549 166.535-39.824 67.338 0 81.095 2.172 117.299 19.55 47.788 22.445 90.508 68.061 97.024 103.54 8.69 47.065-.724 94.853-23.17 118.747-31.134 32.583-66.614 45.616-198.394 72.407-42.72 8.689-77.474 27.514-82.543 44.892-9.413 35.479 33.307 70.234 86.888 70.234 36.927 0 55.029-7.965 84.715-35.48 18.826-16.652 24.619-18.825 68.787-16.652 26.79 1.448 51.408 5.068 55.029 8.688 2.896 3.62-2.897 22.446-14.482 42.72-13.757 26.066-30.41 44.168-56.477 60.097-35.479 21.723-40.547 23.17-120.195 24.619-45.616.724-91.232 0-100.645-2.172z"/><path id="path5333" fill="#11847f" fill-opacity="1" d="M7407.507 1207.643c3.62-7.24 13.757-34.03 22.446-60.097 8.689-25.343 18.102-52.857 21.722-60.822 6.516-15.93 55.029-154.95 84.715-242.562 9.413-29.686 22.446-64.441 28.239-77.475 5.793-12.309 10.137-36.927 10.137-55.028 0-48.513-23.17-71.683-76.75-76.027l-39.824-3.62 2.172-47.789 2.172-47.788 62.994.724c68.786.724 97.748 10.86 139.744 47.788 34.031 30.41 52.133 69.51 104.265 230.253 20.274 61.545 39.824 117.298 43.444 123.09 3.62 6.517 8.689 22.447 11.585 36.204 2.897 13.757 7.241 28.963 10.137 32.583 2.897 4.344 18.102 47.788 34.031 97.025 20.274 63.718 31.86 90.508 41.272 93.404 31.603 33.234-53.993 23.158-62.27 23.17h-75.302l-7.241-30.41c-11.585-44.168-25.342-95.577-63.718-236.046-6.516-22.446-15.205-56.477-19.55-75.302-4.344-19.55-11.584-34.756-15.929-34.756-10.137 0-31.135 38.376-37.651 68.787-2.172 12.309-8.69 36.203-13.757 54.305-10.137 34.03-25.343 90.508-44.169 159.294-5.792 21.722-14.48 52.132-18.825 67.338l-7.965 26.79h-71.682c-66.614 0-70.959-.724-64.442-13.033z"/></g></g><g id="g5364" fill="#11847f" fill-opacity="1" transform="matrix(.02554 0 0 .02554 4665.217 852.065)"><path id="path5315" fill="#11847f" fill-opacity="1" d="M919 1760c-45-7-94-19-108-26-14-8-29-14-33-14s-31-14-60-32c-57-34-125-97-485-453-98.581-108.5-249.998-192.307-213-318 0-43 87-68 137-40 17 10 162 146 323 303 160 156 311 299 335 316 68 48 142 67 240 62 46-2 89-9 97-15 7-6 25-13 40-17 15-3 54-31 86-61 159-147 173-352 36-519-49-59-58-81-55-132 1-23 171-201 229-240 56-38 124-26 155 27 32 57 24 82-53 163-38 40-70 79-70 85s11 29 25 51 25 42 25 46c0 3 7 20 15 37 8 18 21 71 29 118 14 78 14 96-1 180-8 52-22 103-29 114-8 11-14 26-14 33 0 18-62 111-103 153-96 101-114.632 136.858-260.632 164.858-101.384 46.32-184.943 19.36-287.368 14.142Z"/><path id="path5335" fill="#11847f" fill-opacity="1" d="M622 758C449 592 445 586 446 533c1-58 38-93 97-93 52 0 74 15 172 113 42 42 82 77 89 77 17-1 276-255 276-272 0-9-39-53-86-99-48-46-92-98-100-115C865 77 918 0 994 0c31 0 50 14 184 140 168 158 194 197 169 247-15 28-291 305-439 441-60 55-72 62-108 62-39 0-48-7-178-132z"/></g></g></g></svg>