<svg xmlns="http://www.w3.org/2000/svg" viewBox="0 0 24 24"><title>Punjab National Bank</title><g opacity=".975"><path fill="#fff" d="M-1.794-113.823c-11.776 0-21.352 10.166-21.352 22.666V54.435c0 12.493 9.576 22.665 21.352 22.665h246.327c11.816 0 21.424-10.172 21.424-22.665v-145.59c0-12.505-9.608-22.668-21.42-22.668zM244.533 82.29H-1.794c-14.624 0-26.534-12.493-26.534-27.854v-145.59c0-15.354 11.91-27.86 26.534-27.86h246.327c14.68 0 26.614 12.506 26.614 27.86v145.59c0 15.361-11.934 27.854-26.61 27.854"/><path fill="#9e173b" fill-rule="evenodd" d="M20.79.416H3.33A3.002 3.002 0 0 0 .357 3.428v17.385c0 1.653 1.343 3.011 2.973 3.011h17.46a2.999 2.999 0 0 0 2.972-3.011V3.428A2.999 2.999 0 0 0 20.79.416"/><path fill="#fab90c" fill-rule="evenodd" d="M16.448 3.475h4.261V20.77h-4.261v-4.897c-3.754 1.372-7.265 1.493-10.49-1.666-1.335-1.39-2.089-3.285-1.773-6.584.053-.506-.183-2.85-.776-4.152h3.785c1.774 2.815-.55 6.409 2.166 8.703 3.703 2.397 6.932-.47 7.088-3.058ZM12.202 5.26c2.018 0 3.648 1.633 3.648 3.612 0 1.997-1.63 3.614-3.648 3.614-2.018 0-3.666-1.617-3.666-3.614 0-1.98 1.648-3.612 3.666-3.612"/></g></svg>