<svg xmlns="http://www.w3.org/2000/svg" viewBox="0 0 24 24"><title>Punjab &amp; Sind Bank</title><g fill-rule="evenodd" clip-rule="evenodd" opacity=".975"><path fill="#fbed21" d="M3.77.148h16.555v23.68H3.769z"/><path fill="#b31f31" d="M8.364 20.87c-.065-.056-.223-.167-.214-.353 0-.093.065-.177.12-.233.066-.056.159-.065.252-.065.12 0 .223.056.307.167a.9.9 0 0 1 .205.493h.241l.084.196h-.288v1.506l-.242-.12v-1.396H8.53v1.498l-.25-.102v-.54a.102.102 0 0 1-.057.028c-.018.01-.028.019-.055.019-.056.018-.103.018-.14.018a.612.612 0 0 1-.325-.13c-.121-.093-.177-.195-.177-.288v-.503h-.242l-.093-.195h1.172zm1.479 1.432-.205.205-.205-.214.205-.205.205.214zM8.28 21.065h-.51v.521c0 .168.055.242.167.242.047 0 .102-.01.167-.037.028-.01.056-.028.093-.037.028-.019.066-.038.084-.056v-.633zm.223-.186h.438a.597.597 0 0 0-.159-.353.31.31 0 0 0-.241-.112c-.112.01-.205.075-.177.27a.345.345 0 0 0 .14.195zm3.47.186c.204.28.111.363-.01.465-.018.038-.074.028-.074.047-.037-.056-.084-.084-.149-.065-.112.018-.195.149-.177.214.019.046.065.13.158.25.084.103.317.345.586.652l.066-.149-.242-.26a4.906 4.906 0 0 0-.158-.168c-.028-.028-.056-.065-.093-.111v-.01c0-.009.009-.009.018-.018s.037-.019.075-.047a.465.465 0 0 0 .074-.065l.065-.074a.5.5 0 0 0 .363.177c.018 0 .018 0 .056-.02.037-.008.065-.018.093-.027.028-.01.046-.019.055-.019v.624l.26.111v-1.507h.196l-.093-.195h-3.07l.094.195h.205v.8c0 .093.027.177.102.214l.92.53c.056.038.084.065.084.093 0 .019-.009.028-.018.056-.01.019-.028.037-.037.056l.158.149c.065-.103.102-.168.102-.205 0-.037-.019-.065-.037-.093a.416.416 0 0 0-.13-.102l-.828-.54a.1.1 0 0 1-.028-.046c-.01-.028-.01-.047-.01-.075v-.837h.447v.717c0 .037-.028.065-.093.065l-.177-.01.168.158.111.028c.01 0 .019 0 .038.01h.074c.074 0 .14-.047.14-.13v-.838h.716zm.158 0c.093.186.12.391.028.568l.102.056c.056.027.12.037.177.037h.065c.018 0 .01-.019.046-.037.065-.028.112-.047.15-.084v-.54h-.568zm2.92-.186a.63.63 0 0 1-.12-.25c-.02-.084.009-.252.102-.317a.373.373 0 0 1 .558.074.942.942 0 0 1 .176.484h.242l.103.195h-.27v1.507l-.27-.111v-1.396h-.335v1.507l-.242-.111v-.419c-.055.065-.102.084-.148.112a.73.73 0 0 1-.326.074.68.68 0 0 1-.205-.028.62.62 0 0 1-.195-.12.555.555 0 0 1-.158-.373.44.44 0 0 1 .12-.279c.094-.102.29-.167.438-.158.093.01.214.028.298.084.074.046.111.065.176.158v-.447H13.89l-.093-.195 1.255.01zm-.297 1.042c.046-.019.055-.037.083-.074s.047-.084.047-.121a.28.28 0 0 0-.084-.214.264.264 0 0 0-.158-.065h-.093c-.019 0-.037 0-.084.018l.289.456zm-.41-.372a.282.282 0 0 0-.083.093.27.27 0 0 0-.056.149c0 .074.018.158.074.195a.367.367 0 0 0 .186.056c.037 0 .075 0 .084-.01l.093-.046-.298-.437zm.828-.67h.521a.562.562 0 0 0-.14-.344c-.074-.083-.158-.14-.241-.13-.205.028-.26.307-.14.474zm-1.479 1.423-.195.205-.205-.214.196-.205.204.214zm-.409-6.352h-.093l-.084.018-.083.02c-.047.018-.084.027-.121.046a.647.647 0 0 0-.112.065c-.037.028-.065.046-.102.083-.028.028-.056.066-.084.093l-.074.103-.056.111c-.019.047-.028.084-.047.121l-.018.084-.01.093v.093l.01.093.018.084c.01.046.028.083.047.12l.056.112c.028.037.046.075.074.103s.056.065.084.093c.037.027.065.055.102.083a.694.694 0 0 0 .112.065c.037.019.083.028.12.047l.084.018.084.02h.186l.084-.02a.685.685 0 0 0 .13-.037c.046-.018.084-.037.12-.056.038-.018.075-.046.112-.065.038-.028.066-.055.103-.083.028-.038.056-.065.084-.103a.694.694 0 0 0 .065-.111c.018-.037.037-.084.055-.121a.685.685 0 0 0 .038-.13l.018-.093v-.186l-.018-.084a.685.685 0 0 0-.038-.13c-.018-.038-.037-.084-.055-.121-.019-.037-.047-.075-.065-.112a.839.839 0 0 0-.084-.093c-.037-.028-.065-.056-.103-.084-.037-.027-.074-.046-.111-.074-.037-.019-.084-.037-.121-.056a.533.533 0 0 0-.13-.037l-.084-.019-.093.047ZM7.508 9.774l.019-.242.018-.158.028-.158.028-.158.037-.149.047-.149.046-.149.056-.148.056-.15.065-.139.065-.14.075-.13.083-.13.084-.13.093-.13.093-.12.093-.122.102-.111.103-.112.111-.112.112-.102.12-.102.122-.093.13-.093.13-.084.13-.084.13-.074.14-.075.14-.065.148-.065.15-.056.204-.074v-.893h.056l.13-.01.13-.018.13-.018.121-.028.121-.037.121-.038.112-.046.111-.047.14-.046.111-.056.103-.065.102-.065.102-.075.103-.074.093-.084.093-.083.093-.084.083-.084.084-.093.084-.093.083-.093.075-.102.149-.196.13-.204.12-.205.103-.204.047-.103.186-.25.176-.233.093-.112.093-.102.084-.103.093-.093.093-.083.093-.084.093-.074.093-.075.093-.065.093-.065.093-.056.102-.046.103-.047.102-.046.102-.038.112-.037.112-.037.12-.028.121-.028.13-.018.13-.019.14-.019.15-.018.297-.019c.14-.01.279-.01.418-.018v2.102l-.093-.019-.093-.01-.093-.009h-.176l-.084.01-.084.028-.083.018-.084.019-.075.028-.083.028-.075.028-.074.037-.065.037-.065.037-.075.047-.065.046-.12.102-.112.112-.112.112-.093.12-.093.13-.084.131-.065.14c-.13.232-.25.465-.381.697a8.997 8.997 0 0 1-.149.233c-.037.055-.084.111-.12.158a2.845 2.845 0 0 1-.14.158l-.093.102-.168.14-.12.083-.13.084-.075.037-.214.112.279.13.13.065.13.075.13.074.13.093.122.084.12.093.112.093.112.102.111.102.103.103.102.111.102.112.093.112.093.12.084.121.084.13.074.13.074.131.066.14.065.14.055.139.056.14.047.148.046.149.037.149.038.148.028.15.018.157.019.158.01.158v.326l-.01.158-.019.158-.018.158-.028.158-.038.159-.037.148-.046.15-.047.148-.056.149-.055.14-.065.139-.066.14-.074.13-.084.13-.083.13-.084.121-.093.12-.093.122-.102.111-.103.112-.111.112-.112.102-.112.102-.12.093-.121.093-.13.084-.13.084-.131.074-.14.074-.139.066-.456.195.484.028.14.01.139.018.13.028.13.037.13.037.13.047.122.055.12.056.112.065.112.065.111.075.103.083.102.084.093.084.093.093.093.093.084.102.083.103.075.111.074.112.065.111.056.121.056.121.046.121.047.13.037.13.028.13.028.13.019.14.009.14v.279l-.01.14-.018.139-.028.14-.028.13-.037.13-.047.13-.046.13-.056.121-.065.121-.065.121-.074.112-.075.111-.084.103-.083.102-.093.102-.103.093-.102.093-.102.084-.112.084-.111.074-.112.065-.12.065-.122.056-.13.047-.13.046-.13.037-.13.028-.14.028-.14.019-.14.009h-.278l-.14-.01-.14-.018-.13-.028-.13-.028-.13-.037-.13-.046-.121-.047-.121-.056-.12-.055-.112-.066-.112-.065-.112-.074-.102-.084-.102-.084-.103-.093-.093-.093-.083-.102-.084-.102-.084-.102-.074-.112-.065-.112-.065-.111-.056-.121-.056-.121-.047-.121-.037-.13-.037-.13-.028-.13-.018-.13-.019-.14-.01-.177V9.774h1.898v2.335l.186-.075.149-.074.14-.084.139-.093.13-.102.121-.112.112-.12.102-.131.093-.13.084-.14.074-.148.065-.159.028-.074.047-.158.018-.084.019-.084.01-.083.008-.084v-.279l-.009-.112-.018-.111-.02-.112-.027-.102-.028-.102-.037-.103-.037-.102-.047-.093-.046-.093-.056-.093-.056-.093-.065-.084-.065-.084-.065-.083-.075-.075-.074-.074-.084-.065-.083-.065-.084-.065-.093-.056-.093-.056-.093-.046-.093-.047-.103-.037-.102-.037-.102-.028-.102-.028-.112-.019-.112-.018-.111-.01h-.214l-.103.01-.102.009-.102.019-.102.018-.093.028-.093.028-.093.028-.093.037-.084.037-.084.047-.084.046-.083.056-.084.056-.074.056-.075.065-.074.065-.065.065-.065.074-.066.075-.055.074-.075.093-.056.084-.046.084-.047.083-.037.084-.037.093-.037.093-.028.093-.028.093-.019.102-.018.103v9.96H7.508V9.775z" class="st2"/></g></svg>