<svg xmlns="http://www.w3.org/2000/svg" id="svg2" version="1.1" viewBox="0 0 24 24" style="background-color:white"><title>Purplle</title><defs id="defs4"><style id="style4139">.cls-1{fill:#df1f25}.cls-2{fill:#fefefe}.s0{fill:#df1f25}.s1{fill:#fefefe}</style></defs><g id="g5289" transform="translate(-.605 -.733) scale(1.03304)"><g id="g5299"><path id="Layer" fill="#6b3293" fill-rule="evenodd" d="M2 13.9v2.5H.6V9.8H2v.7q.6-.9 1.5-.9 1 0 1.4.7.5.6.5 1.7t-.5 1.9q-.6.7-1.6.7-.8 0-1.3-.7zM2 12v.4q0 .4.2.8.3.3.7.3.5 0 .8-.4.3-.4.3-1.1 0-1.2-1-1.2-.4 0-.7.3-.3.3-.3.9Z"/><path id="path5268" fill="#662d91" d="M10.2 11.1q-.3-.1-.7-.1-.4 0-.7.3-.3.4-.3 1v2.2H7.1V9.8h1.4v.9q.4-1 1.3-1 .2 0 .4.1z" opacity=".7"/><path id="path5270" fill="#e9158e" fill-rule="evenodd" d="M11.6 13.9v2.5h-1.4V9.8h1.4v.7q.6-.9 1.5-.9t1.4.7q.5.6.5 1.7t-.5 1.9q-.6.7-1.6.7-.8 0-1.3-.7zm0-1.9v.4q0 .4.2.7.3.4.7.4.5 0 .8-.4.3-.4.3-1.1 0-1.2-1-1.2-.5 0-.7.3-.3.3-.3.9z"/><path id="path5272" fill="#000" fill-rule="evenodd" d="M23.7 9.7v.2h-.9v.2q0 .1.1.2h.8v.2h-.6q-.3 0-.3.3 0 .1.1.1.1.1.2.1h.6v.2h-1V11h.1q-.2-.1-.2-.3v-.1l.1-.1.1-.1q-.2-.1-.2-.4 0-.3.5-.3zm0 2.2q0 .2-.2.3-.1.2-.4.2-.2 0-.4-.2-.1-.1-.1-.4 0-.2.1-.3.2-.2.4-.2.3 0 .4.2.2.1.2.4zm-1-.1q0 .2.1.3.1.1.3.1.2 0 .3-.1.1-.1.1-.3 0-.1-.1-.2t-.3-.1q-.2 0-.3.1-.1.1-.1.2zm.9.6q.1.2.1.3 0 .2-.2.4-.1.1-.3.1-.3 0-.5-.1-.1-.2-.1-.4v-.3h.2v.1l-.1.1v.1q0 .1.1.2.2.2.3.2.2 0 .3-.1.1-.1.1-.3 0-.1-.1-.3h.2zm-.4 1.2q.1 0 .3.2.1.1.1.2 0 .2-.1.3-.2.1-.3.1-.2 0-.3-.1-.1-.1-.1-.3 0-.1.1-.2.1-.2.3-.2z"/><path id="path5274" fill="#ec008c" d="M8.5 14.5H7.1v-.7q-.6.8-1.5.8-1.6 0-1.6-2V9.8h1.4v2.7q0 1 .8 1 .4 0 .7-.3.2-.2.2-.7V9.8h1.4v4.7z" opacity=".7"/><path id="path5276" fill="#8c2d91" d="M15 12.9c0 .2.028.355.161.422.067.133.24.197.439.178.15.023.289-.072.4-.1l.044.923c-.42.197-.478.151-.88.167l-.614-.006c-.2.033-.408-.127-.55-.184-.151-.17-.25-.31-.306-.45a2.19 2.19 0 0 1-.094-.65V7.5H15z" opacity=".8"/><path id="path5278" fill="#672676" d="M16.9 11.1c0 .2.033.333.1.4.133.133.267.2.4.2h.2c.133-.067.233-.1.3-.1v1c-.2.067-.14.144-.34.144-.2.067-.66.075-.86.056-.195-.005-.31-.072-.423-.094-.087-.05-.135-.045-.226-.106-.084-.055-.139-.088-.18-.128l-.171-.139-.1-.133c-.212-.22-.157-.538-.2-.8V5.7h1.5z"/><path id="path5280" fill="#cf128c" fill-rule="evenodd" d="M22 12.5h-3q.1 1.1 1.3 1.1.7 0 1.3-.4v1q-.6.4-1.7.4t-1.7-.7q-.6-.6-.6-1.7 0-1.2.6-1.8.7-.7 1.7-.7t1.6.6q.5.6.5 1.6v.6zm-1.3-.9q0-1-.8-1-.4 0-.6.3-.3.3-.3.7z"/></g></g></svg>