<svg xmlns="http://www.w3.org/2000/svg" xml:space="preserve" viewBox="0 0 24 24"><defs><path id="a" d="M0 38.947h220.927V.282H0z"/></defs><g fill-rule="evenodd"><path fill="#fff" d="M.054 0h24.021v23.967H.055z"/><path fill="navy" d="m11.194.676-8.29 4.83-.966.56v11.896l.965.562 8.292 4.83.978.57.98-.57 8.29-4.83.965-.562V6.067l-.965-.562-8.29-4.83-.98-.569ZM3.882 16.844V7.186l8.291-4.83 8.291 4.83v9.658l-8.291 4.828-8.29-4.828z"/><path fill="navy" d="M16.498 4.625h-8.65l-4.325 7.39 4.325 7.388h8.65l4.325-7.387zm-.892 1.557 3.414 5.833-3.414 5.832H8.74l-3.414-5.832L8.74 6.182h6.867z"/></g></svg>