<svg version="1.2" xmlns="http://www.w3.org/2000/svg" viewBox="0 0 24 24"><title>RBL Bank</title><style>.s0{fill:#21317d}</style><g id="g18"><path id="path27530" class="s0" d="M7.2 6.1V.4H2.7v13.4c0-3.3 1.8-6.2 4.5-7.7z"/><path id="path27534" class="s0" d="M12.2 4.9v4.5c2.2.2 4 2.1 4 4.4 0 2.5-2 4.5-4.5 4.5s-4.5-2-4.5-4.5v7.8c1.3.7 2.8 1.2 4.5 1.2 4.9 0 8.9-4 8.9-9 0-4.7-3.7-8.6-8.4-8.9z"/><path id="path27538" d="M7.2 6.1a8.79 8.79 0 0 0-4.5 7.7v10.1h4.5V13.8c0-2.3 1.7-4.2 3.9-4.4V4.9c-1.4.1-2.7.5-3.9 1.2z" style="fill:#ed1c24"/></g></svg>