<svg xmlns="http://www.w3.org/2000/svg" xml:space="preserve" viewBox="0 0 24 24"><path fill="#afe478" fill-rule="evenodd" d="M11.776 3.552c-1.097.012-2.006.754-2.082 1.734-.009.107-.005.212.006.315a5.077 5.077 0 0 0-1.156-.223c-1.782-.138-3.332.64-3.686 1.787-1.178.382-2.114 1.124-2.575 2.076a1.947 1.947 0 0 0-.256 3.883c.338.026.664-.04.952-.171.834.878 2.12 1.495 3.594 1.61 1.328.102 2.562-.224 3.495-.828.369.61 1.054 1.06 1.872 1.182v.02c.025-.003.049-.01.073-.013.024.003.047.01.072.013v-.02c.82-.121 1.503-.572 1.872-1.182.934.604 2.174.93 3.502.827 1.475-.114 2.753-.731 3.587-1.61.288.132.615.198.953.172a1.946 1.946 0 0 0-.25-3.883c-.461-.952-1.403-1.694-2.582-2.076-.353-1.146-1.897-1.925-3.679-1.787-.41.032-.797.108-1.156.223.011-.103.015-.208.006-.315-.076-.98-.992-1.722-2.089-1.734-.073-.001-.149 0-.223.006H12a2.525 2.525 0 0 0-.224-.006zm.21 1.314h.033a.81.81 0 0 1 .48.144.463.463 0 0 1 .204.368.41.41 0 0 1-.027.125l.552.407a.809.809 0 0 1 .4-.105.81.81 0 0 1 .48.145.47.47 0 0 1 .21.367c0 .095-.045.18-.104.257l.775.565a.847.847 0 0 1 .328-.066c.186 0 .362.052.486.144a.463.463 0 0 1 .204.368.41.41 0 0 1-.079.224l.736.532a.858.858 0 0 1 .335-.072.81.81 0 0 1 .48.144.463.463 0 0 1 .203.368.463.463 0 0 1-.203.368.807.807 0 0 1-.48.144.807.807 0 0 1-.48-.144.47.47 0 0 1-.21-.368.44.44 0 0 1 .138-.296l-.69-.505a.831.831 0 0 1-.84.02l-.552.4c.047.058.088.12.105.19a.313.313 0 0 1 .006.073.463.463 0 0 1-.203.368.722.722 0 0 1-.48.144.842.842 0 0 1-.394-.092l-.775.572c.08.067.139.156.164.25a.341.341 0 0 1 .013.091c0 .145-.079.27-.204.362a.617.617 0 0 1-.098.065.821.821 0 0 1-.243.08c-.044.006-.092.006-.138.006a.81.81 0 0 1-.48-.151.541.541 0 0 1-.15-.158.426.426 0 0 1-.053-.204c0-.144.079-.275.203-.368a.81.81 0 0 1 .743-.105l.834-.604a.545.545 0 0 1-.072-.118.347.347 0 0 1-.033-.138c0-.145.079-.276.204-.368a.633.633 0 0 1 .098-.06.872.872 0 0 1 .381-.085.83.83 0 0 1 .375.092l.565-.407a.586.586 0 0 1-.073-.118.333.333 0 0 1-.026-.132c0-.113.064-.211.145-.295l-.763-.559a.84.84 0 0 1-.387.099.808.808 0 0 1-.427-.118l-.637.466a.48.48 0 0 1 .118.21c.006.026.013.052.013.08a.463.463 0 0 1-.204.367.692.692 0 0 1-.348.138.99.99 0 0 1-.138.006.807.807 0 0 1-.48-.144.463.463 0 0 1-.203-.368c0-.144.079-.276.204-.368a.81.81 0 0 1 .48-.144.87.87 0 0 1 .354.072l.663-.486a.408.408 0 0 1-.078-.224.35.35 0 0 1 .006-.065.473.473 0 0 1 .086-.178l-.5-.368a.776.776 0 0 1-.519.19.818.818 0 0 1-.453-.144l-.493.342a.413.413 0 0 1 .073.223c0 .145-.08.27-.204.362a.81.81 0 0 1-.48.15.858.858 0 0 1-.341-.071l-.776.525c.087.086.158.185.158.302 0 .024-.001.05-.006.073a.494.494 0 0 1-.099.184l.565.407a.855.855 0 0 1 .27-.046.81.81 0 0 1 .479.151c.125.092.204.217.204.361a.463.463 0 0 1-.204.368.81.81 0 0 1-.48.151.81.81 0 0 1-.48-.15.465.465 0 0 1-.203-.369c0-.066.015-.128.046-.184.016-.028.038-.053.06-.078a.622.622 0 0 1 .072-.073L9.207 8a.831.831 0 0 1-.387.104.817.817 0 0 1-.467-.15l-.722.499a.52.52 0 0 1 .184.256c.01.032.013.064.013.098a.38.38 0 0 1-.053.171l.638.46a.848.848 0 0 1 .276-.046.83.83 0 0 1 .486.144.463.463 0 0 1 .203.368.463.463 0 0 1-.203.368.832.832 0 0 1-.486.145.805.805 0 0 1-.381-.079c-.037-.018-.068-.043-.1-.066a.463.463 0 0 1-.203-.368c0-.128.082-.239.184-.328l-.578-.414a.796.796 0 0 1-.473.158.774.774 0 0 1-.525-.19l-.684.472c.033.04.064.087.086.132.01.022.02.041.026.065a.292.292 0 0 1 .007.073.463.463 0 0 1-.204.367c-.031.023-.062.048-.099.066a.818.818 0 0 1-.38.079.832.832 0 0 1-.487-.145.463.463 0 0 1-.204-.367c0-.145.08-.276.204-.368a.828.828 0 0 1 .486-.145c.13 0 .244.031.348.079l.77-.526c-.012-.034-.027-.066-.027-.105 0-.144.079-.275.203-.368a.81.81 0 0 1 .48-.15.9.9 0 0 1 .23.032l.105-.079.013-.006.697-.473a.405.405 0 0 1-.053-.178c0-.144.079-.275.204-.368a.828.828 0 0 1 .486-.144c.106 0 .2.02.289.052l.092-.059.696-.48c-.067-.078-.125-.167-.125-.269a.47.47 0 0 1 .21-.368.81.81 0 0 1 .48-.144.82.82 0 0 1 .42.112l.507-.342a.418.418 0 0 1-.06-.197c0-.145.08-.276.204-.368a.83.83 0 0 1 .453-.138v-.007zm.033.216a.555.555 0 0 0-.322.099.286.286 0 0 0-.111.144.229.229 0 0 0 .06.21.384.384 0 0 0 .051.047.535.535 0 0 0 .322.098.534.534 0 0 0 .316-.098c.078-.058.118-.13.118-.204 0-.074-.04-.14-.118-.197a.534.534 0 0 0-.316-.099zm-1.557.94a.556.556 0 0 0-.322.092.267.267 0 0 0-.105.15.23.23 0 0 0 .053.21.35.35 0 0 0 .052.047.553.553 0 0 0 .322.092.532.532 0 0 0 .316-.092c.078-.058.118-.13.118-.204 0-.074-.04-.146-.118-.203a.534.534 0 0 0-.316-.092zm3.167 0a.534.534 0 0 0-.315.092.29.29 0 0 0-.112.15.229.229 0 0 0 .06.21.384.384 0 0 0 .052.047.532.532 0 0 0 .315.092.553.553 0 0 0 .322-.092c.078-.058.118-.13.118-.204 0-.074-.04-.146-.118-.203a.556.556 0 0 0-.322-.092zm-1.623 1.15a.536.536 0 0 0-.315.098.282.282 0 0 0-.112.145.185.185 0 0 0-.006.052c0 .056.021.11.065.158a.517.517 0 0 0 .368.145.555.555 0 0 0 .322-.1c.078-.057.118-.128.118-.203 0-.075-.04-.14-.118-.197a.557.557 0 0 0-.322-.099zM8.82 7.29a.557.557 0 0 0-.322.098.29.29 0 0 0-.112.151.226.226 0 0 0 .06.21c.014.016.033.026.052.04a.535.535 0 0 0 .322.099.534.534 0 0 0 .315-.099c.078-.058.119-.123.119-.197 0-.074-.04-.146-.119-.204a.536.536 0 0 0-.315-.098zm6.497 0a.536.536 0 0 0-.315.098.288.288 0 0 0-.112.151.226.226 0 0 0 .06.21c.014.016.032.026.052.04a.517.517 0 0 0 .315.099.555.555 0 0 0 .322-.099c.078-.057.118-.122.118-.197 0-.075-.04-.147-.118-.204a.557.557 0 0 0-.322-.098zm-1.524 1.077a.557.557 0 0 0-.322.099.26.26 0 0 0-.105.144.23.23 0 0 0 .053.21.35.35 0 0 0 .052.046.535.535 0 0 0 .322.099.555.555 0 0 0 .322-.099.248.248 0 0 0 .112-.203c0-.075-.034-.14-.112-.197a.558.558 0 0 0-.322-.099zm-3.56.053a.534.534 0 0 0-.316.098.292.292 0 0 0-.112.151.185.185 0 0 0-.006.053c0 .075.04.146.118.204a.49.49 0 0 0 .223.085c.03.004.06.007.092.007a.553.553 0 0 0 .322-.092c.078-.058.119-.13.119-.204 0-.075-.04-.146-.119-.204a.555.555 0 0 0-.322-.098zm6.766.065a.558.558 0 0 0-.322.099.26.26 0 0 0-.105.144.23.23 0 0 0 .053.21.35.35 0 0 0 .052.047.535.535 0 0 0 .322.098.534.534 0 0 0 .315-.098c.078-.058.119-.129.119-.204 0-.075-.041-.14-.119-.197A.536.536 0 0 0 17 8.485zm-9.86.02a.534.534 0 0 0-.316.099.292.292 0 0 0-.112.15.226.226 0 0 0 .06.21c.014.016.032.026.052.04a.52.52 0 0 0 .315.099.557.557 0 0 0 .322-.099c.078-.057.118-.122.118-.197 0-.075-.04-.146-.118-.203a.555.555 0 0 0-.322-.099zm-1.775 1.07a.555.555 0 0 0-.322.1.292.292 0 0 0-.111.15.226.226 0 0 0 .06.21c.014.016.032.026.051.04a.54.54 0 0 0 .322.099.536.536 0 0 0 .316-.099c.077-.057.118-.122.118-.197 0-.075-.04-.146-.118-.204a.534.534 0 0 0-.316-.098zm3.325.034a.534.534 0 0 0-.316.098.286.286 0 0 0-.112.145.182.182 0 0 0-.006.052.23.23 0 0 0 .033.112.23.23 0 0 0 .033.046.52.52 0 0 0 .368.145.558.558 0 0 0 .321-.099c.079-.057.119-.13.119-.204 0-.074-.04-.14-.119-.197a.555.555 0 0 0-.321-.098zm3.429.092a.534.534 0 0 0-.315.092.288.288 0 0 0-.112.15.188.188 0 0 0-.007.053c0 .056.022.11.066.158a.376.376 0 0 0 .053.046.532.532 0 0 0 .315.092.553.553 0 0 0 .322-.092.249.249 0 0 0 .111-.204.248.248 0 0 0-.111-.203.556.556 0 0 0-.322-.092z"/><path fill="#577632" d="m8.612 10.82 1.808 1.415-1.634.01-.907-.695-.894-.006 1.608 1.261.02-.013v.004l2.504-.014.05.038-.918 5.035 3.533.027-.977-5.012.109-.086 2.507.013v-.003l.017.013 1.607-1.261-.893.006-.907.695-1.634-.01 1.81-1.415-.97.011-1.774 1.383-.127-.659-1.15-.011-.113.615-1.705-1.33z"/></svg>