<svg xmlns="http://www.w3.org/2000/svg" xml:space="preserve" viewBox="0 0 24 24"><g fill-rule="evenodd" stroke-linejoin="round" stroke-miterlimit="2" clip-rule="evenodd"><path fill="#2885f0" d="M-.13 8.426a7.49 7.49 0 0 0 .563 2.668c1.19-3.446 4.14-5.905 7.606-5.986h.176c2.01 0 3.854.8 5.294 2.13.334.31.643.642.925.998 1.146 1.436 1.9 3.27 2.085 5.297 1.3-1.407 2.093-3.2 2.13-5.155v-.056c-.083-3.467-2.542-6.414-5.988-7.606a10.407 10.407 0 0 0-3.4-.564C4.097.152-.088 3.85-.13 8.426Z"/><path fill="#08b723" d="m15.695 18.933.324-.015c3.326-.223 6.128-2.635 7.282-5.973a10.36 10.36 0 0 0 .565-3.402c0-5.16-3.697-9.346-8.274-9.389a7.49 7.49 0 0 0-2.668.563c3.446 1.19 5.905 4.14 5.986 7.606V8.5c0 2.01-.8 3.854-2.13 5.294-1.53 1.656-3.764 2.78-6.294 3.01 1.407 1.3 3.2 2.093 5.155 2.13z"/><path fill="#f7251d" d="M8.094 5.37h-.056c-3.359.08-6.23 2.39-7.49 5.667l-.116.32a10.407 10.407 0 0 0-.564 3.402c0 5.158 3.697 9.346 8.274 9.388a7.49 7.49 0 0 0 2.668-.563c-3.446-1.189-5.905-4.138-5.986-7.606v-.176c0-2.01.8-3.854 2.13-5.296 1.53-1.656 3.764-2.78 6.295-3.01-1.407-1.3-3.2-2.092-5.155-2.128z"/><path fill="#fabf04" d="M5.085 15.925v.054c.083 3.468 2.542 6.415 5.99 7.606h-.003c1.095.377 2.246.568 3.404.565 5.158 0 9.346-3.697 9.388-8.274a7.49 7.49 0 0 0-.563-2.668c-1.189 3.446-4.138 5.905-7.606 5.986h-.176c-2.01 0-3.854-.8-5.294-2.13-1.656-1.53-2.78-3.764-3.01-6.294-1.3 1.407-2.092 3.2-2.13 5.155z"/></g></svg>