<svg xmlns="http://www.w3.org/2000/svg" xml:space="preserve" viewBox="0 0 24 24"><title>Slack</title><g fill="none" fill-rule="evenodd" clip-rule="evenodd"><path fill="#44bedf" d="M8.896.257a2.354 2.354 0 0 0-2.354 2.354 2.354 2.354 0 0 0 2.354 2.354h2.353V2.611A2.354 2.354 0 0 0 8.896.257Zm-.001 6.278H2.619A2.354 2.354 0 0 0 .265 8.889a2.354 2.354 0 0 0 2.354 2.355h6.276a2.354 2.354 0 0 0 2.353-2.355 2.354 2.354 0 0 0-2.353-2.354z"/><path fill="#2bac76" d="M23.8 8.89a2.354 2.354 0 1 0-4.706 0v2.354h2.353a2.354 2.354 0 0 0 2.354-2.355z"/><g mask="url(#mask0_804_13257)" transform="translate(.265 .257) scale(.43585)"><path fill="#2bac76" d="M39.6 19.806V5.402a5.4 5.4 0 1 0-10.8 0v14.404a5.4 5.4 0 1 0 10.8 0z"/><path fill="#e2ac37" d="M34.2 54.016a5.4 5.4 0 0 0 5.4-5.401 5.4 5.4 0 0 0-5.4-5.402h-5.4v5.401a5.4 5.4 0 0 0 5.4 5.402z"/></g><path fill="#e2ac37" d="M15.171 17.522h6.276a2.354 2.354 0 0 0 2.354-2.355 2.354 2.354 0 0 0-2.354-2.354h-6.276a2.354 2.354 0 0 0-2.354 2.354 2.354 2.354 0 0 0 2.354 2.355z"/><g fill="#cd2553" mask="url(#mask1_804_13257)" transform="translate(.265 .257) scale(.43585)"><path d="M0 34.21a5.4 5.4 0 1 0 10.8 0v-5.4H5.4a5.4 5.4 0 0 0-5.4 5.4Zm14.402 0v14.404a5.4 5.4 0 1 0 10.8 0V34.21a5.4 5.4 0 1 0-10.8 0z"/></g></g></svg>