<svg version="1.2" xmlns="http://www.w3.org/2000/svg" viewBox="0 0 24 24"><title>South Indian Bank</title><style>.s0{fill:#a00}</style><g id="#aa0000ff"><path id="path6" class="s0" d="M8.4 1.9c.3-.3.8-.4 1.2-.4.4 0 .7 0 1 .1.1.1.3.1.3.3-.1.2-.4.2-.6.3-.7.5-1.4.9-2 1.4v-.7c0-.3-.1-.7.1-1z"/><path id="path8" class="s0" d="M11.5 2.2c.6-.3 1.3-.1 1.8.3.2.1.3.3.2.4-.2.2-.4.3-.7.4-1.6.5-3.2 1.3-4.5 2.3v-.8c.9-1 2-1.8 3.2-2.6z"/><path id="path10" class="s0" d="M14.2 3.2c.3-.2.7 0 .9.2.2.1.5.3.6.4.2.1.3.3.1.5-.1.3-.5.3-.7.4-2.4.8-4.8 1.8-6.8 3.3q0-.4-.1-.8c1.1-1.2 2.5-2.2 4-3q1-.6 2-1z"/><path id="path12" class="s0" d="M16.2 4.8c.3-.1.7-.1.9.1l.6.6c.2.1.3.3.2.6-.1.2-.4.3-.6.4-2 .6-4 1.3-5.9 2.2q-1.7.8-3.1 1.9 0-.3-.1-.7c1.1-1.2 2.4-2.2 3.8-3 1.3-.8 2.8-1.5 4.2-2.1z"/><path id="path14" class="s0" d="M17.7 6.8c.3-.1.5-.2.8-.1.3 0 .5.3.6.6.2.3.5.6.5 1 0 .3-.3.5-.5.7-.5.3-1.1.3-1.7.4-3.2.6-6.4 1.9-9.1 3.8v-.8c1-1.1 2.3-2 3.6-2.9 1.9-1.1 3.8-1.9 5.8-2.7z"/><path id="path16" class="s0" d="M15.2 10.6c.1.3.1.5.1.8-1.2 1.2-2.6 2.2-4 3.1-1.7 1-3.6 1.8-5.4 2.5-.2.1-.4.2-.7.2-.3 0-.6-.3-.8-.6-.1-.4-.4-.7-.4-1.1 0-.3.2-.5.5-.7.5-.2 1-.3 1.6-.4 3.3-.5 6.4-1.8 9.1-3.8z"/><path id="path28" class="s0" d="M12.2 15.2c1.1-.6 2.1-1.2 3.1-1.9v.7c-.8.9-1.8 1.7-2.9 2.4-1.5 1.1-3.2 1.9-4.9 2.6-.3.2-.7.2-1 .1q-.2-.3-.5-.5l-.4-.4c0-.2 0-.4.1-.5.3-.3.6-.3.9-.4 1.9-.6 3.8-1.3 5.6-2.1z"/><path id="path30" class="s0" d="M8.6 19.1c2.4-.8 4.7-1.7 6.7-3.2v.8c-.7.8-1.5 1.4-2.4 2-1 .7-2.1 1.3-3.3 1.9-.1.1-.3.2-.5.2q-.4 0-.7-.3c-.2-.2-.5-.3-.6-.5-.2-.1-.2-.4 0-.5.2-.2.5-.3.8-.4z"/><path id="path50" class="s0" d="M10.7 20.6c1.7-.5 3.2-1.3 4.6-2.3v.8c-.8.8-1.8 1.5-2.7 2.2-.3.2-.6.4-.9.5-.3.1-.7 0-1.1-.2-.2-.1-.4-.2-.6-.4 0-.1 0-.2.1-.3q.3-.2.6-.3z"/><path id="path56" class="s0" d="M14.1 21.1c.4-.3.8-.5 1.2-.8v1.3c0 .3-.3.6-.6.7-.4.1-.8.1-1.3 0-.2 0-.5 0-.7-.1V22l.2-.2q.6-.3 1.2-.7z"/></g></svg>