<svg xmlns="http://www.w3.org/2000/svg" viewBox="0 0 24 24"><title>State Bank Of India</title><g opacity=".975"><path fill="#fff" d="M-1.794-113.823c-11.776 0-21.352 10.166-21.352 22.666V54.435c0 12.493 9.576 22.665 21.352 22.665h246.327c11.816 0 21.424-10.172 21.424-22.665v-145.59c0-12.505-9.608-22.668-21.42-22.668zM244.533 82.29H-1.794c-14.624 0-26.534-12.493-26.534-27.854v-145.59c0-15.354 11.91-27.86 26.534-27.86h246.327c14.68 0 26.614 12.506 26.614 27.86v145.59c0 15.361-11.934 27.854-26.61 27.854"/><path fill="#00b5ef" d="M12.037.109C5.44.109.09 5.47.09 12.085.089 18.286 4.79 23.386 10.815 24v-8.7a3.445 3.445 0 0 1-2.218-3.214 3.444 3.444 0 0 1 3.44-3.441 3.445 3.445 0 0 1 3.442 3.441c0 1.466-.925 2.72-2.22 3.214V24c6.026-.613 10.727-5.713 10.727-11.914C23.986 5.471 18.637.11 12.037.11"/></g></svg>