<svg xmlns="http://www.w3.org/2000/svg" xml:space="preserve" viewBox="0 0 24 24">
  <path fill="#e65924" fill-rule="evenodd" stroke="#e65924" stroke-width=".425" d="M.065.25h23.654v23.734H.065z"/>
  <path fill="#fdfffe" d="M10.86 3.762c-1.035 0-1.9.291-2.598.873-.826.676-1.24 1.592-1.24 2.749 0 1.164.51 2.238 1.531 3.223.223.215.888.754 1.994 1.617.762.596 1.3 1.077 1.617 1.444.381.431.571.905.571 1.423 0 .496-.15.898-.452 1.207-.302.316-.712.474-1.229.474-1.229 0-1.994-.88-2.296-2.64l-2.177.635c.467 2.76 1.958 4.14 4.473 4.14 1.222 0 2.202-.356 2.943-1.068.725-.697 1.088-1.588 1.088-2.673 0-1.035-.316-1.936-.948-2.705-.41-.496-1.143-1.154-2.2-1.973-1.034-.79-1.684-1.33-1.95-1.617-.41-.445-.614-.937-.614-1.476 0-.439.147-.801.441-1.089.28-.273.626-.41 1.035-.41.956 0 1.61.73 1.962 2.189l2.177-.647c-.632-2.45-2.008-3.676-4.128-3.676zm5.564 12.978v2.767h2.513V16.74z"/>
</svg>