<svg xmlns="http://www.w3.org/2000/svg" xml:space="preserve" viewBox="0 0 24 24"><path fill="#e65924" fill-rule="evenodd" stroke="#e65924" stroke-width=".42316417" d="M.226.193h23.602V23.78H.226Z"/><path fill="#fdfffe" d="M16.212 16.363v2.712h2.464v-2.712zM10.758 4.195c-1.015 0-1.863.285-2.547.856-.81.662-1.216 1.56-1.216 2.695 0 1.14.5 2.194 1.501 3.16.219.21.87.738 1.955 1.584.747.585 1.274 1.056 1.585 1.416.374.422.56.887.56 1.395 0 .486-.147.88-.443 1.183-.296.31-.698.465-1.205.465-1.205 0-1.955-.863-2.25-2.588l-2.135.622c.458 2.706 1.92 4.059 4.385 4.059 1.198 0 2.159-.35 2.885-1.047.71-.683 1.067-1.557 1.067-2.62 0-1.015-.31-1.898-.93-2.652-.402-.487-1.12-1.132-2.156-1.934-1.014-.775-1.651-1.304-1.912-1.586C9.5 8.767 9.3 8.285 9.3 7.756c0-.43.144-.785.432-1.067a1.4 1.4 0 0 1 1.015-.402c.937 0 1.578.716 1.923 2.146l2.135-.634c-.62-2.402-1.969-3.604-4.047-3.604z"/></svg>