<svg xmlns="http://www.w3.org/2000/svg" xml:space="preserve" viewBox="0 0 24 24"><path fill="#fff" fill-rule="evenodd" d="M23.88 12.76h-3.22c.076.77.64 1.018 1.279 1.018.655 0 1.182-.148 1.618-.38v1.327a3.329 3.329 0 0 1-1.822.44c-1.603 0-2.73-1-2.73-2.99 0-1.673.956-3.004 2.518-3.004 1.566 0 2.382 1.31 2.382 2.997 0 .16-.016.503-.024.591zm-2.365-2.246c-.412 0-.867.291-.867 1.03h1.698c0-.739-.427-1.03-.831-1.03zm-5.103 4.65c-.575 0-.927-.239-1.159-.415l-.008 1.85-1.646.348V9.279h1.503l.032.407a1.878 1.878 0 0 1 1.29-.515c1.16 0 2.246 1.039 2.246 2.957 0 2.09-1.079 3.037-2.258 3.037zm-.38-4.535c-.379 0-.615.136-.786.324l.008 2.446c.16.175.391.311.779.311.607 0 1.015-.66 1.015-1.546 0-.86-.416-1.535-1.015-1.535zm-4.698-1.35h1.65v5.77h-1.65zm0-1.878 1.65-.348v1.343l-1.65.351V7.405Zm-1.727 3.736v3.912H7.961v-5.77h1.478l.048.487c.4-.707 1.227-.563 1.447-.487v1.514c-.208-.068-.915-.172-1.327.344zm-3.416 1.886c0 .97 1.039.671 1.247.583v1.343c-.22.12-.616.216-1.155.216a1.658 1.658 0 0 1-1.706-1.695l.004-5.262 1.606-.344V9.28h1.255v1.41H6.19v2.338zm-1.962.28c0 1.186-.923 1.862-2.29 1.862a4.475 4.475 0 0 1-1.782-.372v-1.57c.552.3 1.239.523 1.782.523.368 0 .612-.096.612-.4 0-.79-2.502-.495-2.502-2.317 0-1.163.911-1.858 2.246-1.858.543 0 1.087.08 1.634.3v1.55a3.688 3.688 0 0 0-1.638-.424c-.344 0-.576.1-.576.36 0 .74 2.514.388 2.514 2.35z"/></svg>