<svg xmlns="http://www.w3.org/2000/svg" xml:space="preserve" viewBox="0 0 24 24"><path fill="#fff" d="M11.993.078a11.953 11.953 0 1 0 11.953 11.953A11.953 11.953 0 0 0 11.993.078Zm1.417 7.39a2.326 2.326 0 0 1 .38-.385 2.658 2.658 0 0 0 .411-.398 1.546 1.546 0 0 0 .345-.83.983.983 0 0 0-.239-.778 1.252 1.252 0 0 0-.397-.334 3.985 3.985 0 0 1 .911.468h-.008l-.049-.032-.049-.033-.094-.061-.028-.019.028.019.094.06.05.034.048.032h.008l.097.065a3.445 3.445 0 0 1 1.235 1.401 2.852 2.852 0 0 1 .232.854 3.06 3.06 0 0 1-.044 1.007 1.895 1.895 0 0 1-.398.824 1.611 1.611 0 0 1-.8.52 1.76 1.76 0 0 1-1.016-.025 1.542 1.542 0 0 1-.787-.601 1.59 1.59 0 0 1-.254-.928 1.457 1.457 0 0 1 .324-.86zm-3.112 9.126a2.326 2.326 0 0 1-.38.386 2.658 2.658 0 0 0-.41.397 1.537 1.537 0 0 0-.345.83.982.982 0 0 0 .238.779 1.192 1.192 0 0 0 .398.333 3.887 3.887 0 0 1-.913-.467l-.097-.065a3.445 3.445 0 0 1-1.236-1.4 2.9 2.9 0 0 1-.227-.852 3.104 3.104 0 0 1 .043-1.009 1.912 1.912 0 0 1 .397-.824 1.607 1.607 0 0 1 .795-.522 1.758 1.758 0 0 1 1.016.025 1.551 1.551 0 0 1 .795.6 1.615 1.615 0 0 1 .255.928 1.468 1.468 0 0 1-.329.861zm6.118-1.156a4.24 4.24 0 0 1-.503 1.848 3.924 3.924 0 0 1-1.325 1.404 3.882 3.882 0 0 0 .698-.886 1.479 1.479 0 0 0 .043-1.373c-1.06-2.385-5.647-3.467-6.79-4.637a3.975 3.975 0 0 1-.88-1.192 4.331 4.331 0 0 1-.354-2.045 4.256 4.256 0 0 1 .504-1.854 3.935 3.935 0 0 1 1.324-1.405 3.911 3.911 0 0 0-.698.887 1.479 1.479 0 0 0-.049 1.376c1.06 2.385 5.644 3.467 6.789 4.637a4.025 4.025 0 0 1 .881 1.193 4.324 4.324 0 0 1 .36 2.047z"/></svg>