<svg xmlns="http://www.w3.org/2000/svg" xml:space="preserve" viewBox="0 0 24 24">
  <path fill="#fff" d="M11.97 12.478c.28.574.58 1.13 1.049 1.556.181.165.381.295.623.335a.6.6 0 0 0 .38-.05.277.277 0 0 1 .388.127.31.31 0 0 1-.132.413c-.29.154-.592.159-.898.068-.349-.103-.635-.318-.89-.584-.4-.415-.693-.911-.951-1.433l-.036-.069c-.01.002-.017.001-.021.005-.246.2-.498.393-.736.603a.995.995 0 0 0-.217.296c-.12.237-.052.461.163.603.167.11.354.148.546.157a1.696 1.696 0 0 0 .713-.12.278.278 0 0 1 .369.165c.06.15 0 .332-.146.39-.564.22-1.131.259-1.687-.022a1.018 1.018 0 0 1-.57-.775 1.168 1.168 0 0 1 .17-.805c.147-.247.355-.43.57-.603.191-.155.388-.302.584-.45.038-.028.043-.052.034-.1-.161-.768.003-1.443.529-2.005.2-.214.43-.381.713-.452.555-.14 1.04.338.955.937-.038.271-.16.498-.32.705-.272.354-.601.643-.942.917Zm-.173-.618c.072-.06.136-.11.2-.163.253-.213.5-.435.707-.702.096-.125.182-.255.205-.42.02-.149-.058-.261-.196-.263a.366.366 0 0 0-.161.04c-.25.123-.44.32-.58.57a1.49 1.49 0 0 0-.175.938zM5.602 9.974c-.027.193-.052.381-.082.57-.068.439-.126.881-.211 1.317-.21 1.073-.434 2.142-.652 3.213-.007.035-.016.07-.026.104-.045.147-.156.232-.28.215-.116-.016-.222-.144-.215-.29a3.012 3.012 0 0 1 .056-.415c.207-1.089.421-2.176.623-3.265.087-.468.15-.94.223-1.41.002-.01.001-.02.003-.035-.018-.001-.034-.004-.05-.004-.553.01-1.106.015-1.658.035a32.388 32.388 0 0 0-1.365.082 33.535 33.535 0 0 0-1.22.124c-.157.018-.254-.136-.26-.252-.003-.102.018-.184.117-.219.074-.025.148-.057.224-.066.562-.06 1.125-.122 1.689-.17a30.312 30.312 0 0 1 1.29-.08c.409-.018.817-.023 1.226-.03.352-.006.706-.014 1.058-.005.552.014 1.104.04 1.656.063.26.01.52.018.78.036.264.019.528.048.791.075.295.03.59.062.884.093.09.01.18.018.268.03.103.014.19.1.201.193a.219.219 0 0 1-.142.24.6.6 0 0 1-.227.04c-.287-.01-.574-.03-.861-.045-.435-.024-.87-.048-1.305-.07a43.2 43.2 0 0 0-.848-.033c-.536-.015-1.073-.027-1.61-.04h-.077zm16.963 4.05c-.89.29-1.79.533-2.707.706a12.6 12.6 0 0 1-1.596.207 7.976 7.976 0 0 1-1.312-.018c-.372-.04-.733-.12-1.052-.34-.208-.144-.38-.322-.465-.577a1.04 1.04 0 0 1 .044-.745c.165-.403.41-.75.679-1.08.545-.665 1.189-1.212 1.867-1.713.479-.353.977-.67 1.516-.909.352-.156.719-.242 1.103-.21.34.03.643.15.875.43.16.19.23.417.227.67-.001.11 0 .22-.006.33a.283.283 0 0 1-.275.274.293.293 0 0 1-.288-.273c-.009-.13-.008-.263-.026-.392-.044-.304-.196-.45-.484-.497-.217-.035-.42.02-.62.095-.451.17-.86.43-1.254.714a11.027 11.027 0 0 0-1.943 1.775c-.237.278-.462.569-.615.91a1.76 1.76 0 0 0-.11.35c-.036.165.03.31.166.397.155.1.329.137.504.163a6.32 6.32 0 0 0 1.432.03c.383-.028.767-.053 1.145-.116.387-.065.77-.163 1.15-.265.877-.234 1.753-.48 2.63-.718.255-.491 1.21.448-.585.802z"/>
</svg>
