<svg version="1.2" xmlns="http://www.w3.org/2000/svg" viewBox="0 0 24 24"><title>TamilNad Mercantile Bank</title><style>.s0{fill:#c72e8f}.s1{fill:#3052a1}</style><g id="layer1"><path id="path4010" fill-rule="evenodd" class="s0" d="M16.9 15.5h-.1V8.1q0-.1.1-.1h3.6c2.8 0 2.9 3 1.4 3.6.6.3 1.1.8 1.1 1.8q0 1-.6 1.5-.6.6-1.5.6zm1.3-6.2V11h2.3c1.4 0 1.4-1.7-.1-1.7zm0 3v1.9h2.4c1.5 0 1.3-1.9 0-1.9z"/><path id="path4048" fill-rule="evenodd" class="s0" d="M3.5 15.5h-.1V9.3H1.1q-.1 0-.1-.1V8.1q0-.1.1-.1h6q.1 0 .1.1v1.1q0 .1-.1.1H4.8v6.2z"/><path id="path4050" fill-rule="evenodd" class="s0" d="M7.1 15.5H5.5l3-7.4V8H10v.1z"/><path id="path4052" fill-rule="evenodd" class="s1" d="M11.5 15.5H13l-3-7.4V8H8.5z"/><path id="path4054" fill-rule="evenodd" class="s1" d="M14.6 15.5h1.5l-2.9-7.4q0-.1-.1-.1h-1.4q-.1 0-.1.1z"/><path id="path4056" fill-rule="evenodd" class="s0" d="M11 9.8c0 .1.5 1.4.7 1.8.1-.1 1.5-3.6 1.5-3.6h-1.5q-.1 0-.1.1L11 9.7s-.1 0 0 .1z"/></g></svg>