<svg xmlns="http://www.w3.org/2000/svg" xml:space="preserve" viewBox="0 0 24 24"><path fill="#d3bb85" fill-opacity=".953" d="M.39 5.757c-.405-1.901.862-3.633 2.711-3.633h5.194c1.385.059 3.116-1.039 3.116-1.039v8.71c0 8.826-4.847 12.57-7.095 12.916-.405.176-.692.058-.17-.347 3.058-1.96 4.848-6.63 5.018-10.61V3.797c-.634.405-1.842.464-1.842.464H2.768c-1.209 0-1.842.405-2.365 1.496m23.245 0c.405-1.901-.81-3.633-2.711-3.633h-5.194c-1.326.059-3.116-1.039-3.116-1.039v8.71c0 8.826 4.847 12.57 7.095 12.916.405.176.692.058.176-.347-3.057-1.96-4.847-6.63-5.017-10.61V3.797c.633.405 1.842.464 1.842.464h4.613c1.208 0 1.848.405 2.306 1.496z"/></svg>