<svg xmlns="http://www.w3.org/2000/svg" id="svg2" version="1.1" viewBox="0 0 24 24"><title>TATA CLiQ</title><g id="layer1" transform="translate(0 -1028.362)"><g id="g4794" transform="translate(.202 1034.11) scale(.11526)"><g id="g4760" stroke-width=".265" transform="translate(251.6 56.127)"><path id="path4762" d="M-55.033 64.16c-.928-.326-2.132-1.342-5.456-4.61-2.346-2.304-4.338-4.19-4.427-4.19-.089 0-1.622.768-3.408 1.707-5.626 2.959-10.501 4.17-16.74 4.162-10.457-.015-20.24-4.967-26.66-13.496-4.643-6.168-6.811-12.559-6.807-20.064.003-4.323.26-6.18 1.357-9.748 2.68-8.72 8.917-16.167 17.14-20.468 4.92-2.573 9.713-3.742 15.336-3.74 9.431.003 17.388 3.284 24 9.896 6.221 6.22 9.357 13.405 9.806 22.469.35 7.033-1.13 12.47-5.49 20.196l-.622 1.1 4.14 3.998c5.273 5.094 5.896 6.294 4.83 9.311-.55 1.563-1.789 2.772-3.49 3.409-1.654.618-1.928.624-3.51.068z"/><path id="path4764" fill="#f7f7f7" d="M-78.467 49.297c7.615-2.092 13.676-8.247 15.8-16.044.847-3.114.853-8.94.011-11.87-2.287-7.959-8.37-13.913-16.43-16.084-2.917-.786-7.83-.78-10.83.015-13.184 3.493-20.871 17.316-16.419 29.525 2.08 5.702 6.901 10.847 12.535 13.375 4.66 2.09 10.232 2.484 15.333 1.083z"/><path id="path4766" d="M-227.145 61.416c-4.339-.625-9.53-2.435-12.459-4.345-2.398-1.564-5.614-4.965-6.973-7.374-2.176-3.858-4.125-10.75-4.795-16.96-.789-7.294.503-16.456 3.263-23.15 3.094-7.504 8.73-12.385 16.73-14.49 3.434-.904 6.098-1.213 10.452-1.214 9.265 0 16.135 2.596 21.268 8.037 2.866 3.039 3.62 5.247 2.576 7.546-1.303 2.869-5.107 3.892-7.532 2.026-.51-.393-1.97-1.643-3.242-2.777-4.1-3.656-7.32-4.806-13.467-4.81-3.422-.004-4.242.081-5.953.614-4.624 1.44-7.865 4.101-9.756 8.012-2.435 5.034-3.55 14.536-2.541 21.662 1.414 9.993 4.915 14.89 12.051 16.86 2.452.678 11.043.663 13.343-.023 2.175-.648 4.68-2.054 6.832-3.834 3.327-2.753 4.009-3.212 5.39-3.625 1.748-.523 3.08-.207 4.228 1.002 1.17 1.232 1.674 2.374 1.674 3.788 0 1.727-.634 2.878-2.773 5.036-4.272 4.31-9.874 6.877-17.519 8.027-2.201.33-8.479.327-10.797-.007z"/><path id="path4768" d="M-183.082 60.087c-1.358-.406-2.33-1.197-2.992-2.434l-.59-1.103-.073-28.168c-.051-19.876.014-28.585.22-29.583a5.35 5.35 0 0 1 5.275-4.293c2.366 0 4.15 1.073 5.059 3.042.464 1.006.488 2.34.494 26.79l.006 25.73h24.502l1.365.68c1.14.568 1.48.916 2.069 2.12 1.327 2.714.498 5.413-2.088 6.792-1.109.591-1.12.592-16.72.647-10.158.035-15.93-.041-16.527-.22z"/><path id="path4770" d="M-135.232 60.022c-1.514-.541-2.526-1.398-3.134-2.655-.558-1.153-.564-1.362-.618-20.702l-.055-19.537.662-1.322c.945-1.886 2.432-2.856 4.591-2.994 1.316-.084 1.898.01 2.747.443 1.47.75 2.634 2.24 2.968 3.799.178.828.277 7.861.277 19.618 0 16.069-.052 18.504-.425 19.764-.9 3.036-4.048 4.646-7.014 3.586z"/><path id="path4772" fill="#ff1744" d="M-132.424 5.992c-1.197-.646-9.128-8.584-9.552-9.56-.546-1.257-.47-3.603.157-4.832 1.292-2.534 4.799-3.62 7.35-2.279.397.21 2.646 2.325 4.997 4.7 3.636 3.675 4.322 4.498 4.59 5.5.598 2.25-.298 4.703-2.198 6.02-1.313.91-4.064 1.142-5.344.45z"/><path id="path4774" d="M-178.33-35.525v-11.244h-8.994v-9.26h29.898v9.26h-9.007l.072 11.245.071 11.244h-12.039z"/></g><g id="g4776" transform="matrix(.30895 0 0 .30218 -4.281 -86.547)"><path id="path4778" d="M44.737 317.654H14.616v-30.922H116.23v30.922H87.079v74.315H44.737z"/><path id="path4780" d="m189.356 391.969-21.664-62.717-21.394 62.717h-40.663l39.881-105.237h44.161l40.842 105.237z"/><path id="path4782" fill="#486aae" d="M250.933 317.654h-30.128v-30.922h101.61v30.922h-29.142v74.315h-42.34z"/><path id="path4784" d="m395.552 391.969-21.657-62.717-21.402 62.717H311.83l39.894-105.237h44.148L436.7 391.969z"/></g><path id="path4786" d="M87.079 317.654v74.315H44.737v-74.315H14.616v-30.922H116.23v30.922z" transform="matrix(.30895 0 0 .30218 59.421 -86.547)"/></g></g></svg>