<svg xmlns="http://www.w3.org/2000/svg" xml:space="preserve" viewBox="0 0 24 24"><g fill="none"><path fill="#fff" d="M-.009 5.027v1.094h1.023v2.66H2.44V6.12h1.024V5.027Zm4.624 0L3.167 8.78H4.61l.787-2.27.79 2.27h1.445L6.19 5.027Zm2.722 0v1.094H8.36v2.66h1.426V6.12h1.023V5.027Zm4.62 0L10.508 8.78h1.45l.786-2.27.787 2.27h1.444L13.53 5.027h-1.573ZM-.009 14.41c0-2.535 1.37-3.753 3.76-3.753 1.448 0 2.401.514 2.892 1.153.098.126.13.233.13.353 0 .31-.287.565-.648.565a.706.706 0 0 1-.491-.213c-.491-.482-1.009-.746-1.884-.746-1.597 0-2.32.876-2.32 2.641 0 1.872.723 2.632 2.32 2.632.888 0 1.37-.181 1.944-.71.195-.17.347-.23.518-.23.361 0 .648.254.648.578a.472.472 0 0 1-.12.32c-.579.686-1.704 1.154-2.99 1.154-2.389 0-3.759-1.126-3.759-3.744zm11.267 2.553a.58.58 0 0 1 .597.565v.032a.576.576 0 0 1-.597.598H8.096a.594.594 0 0 1-.61-.616v-6.25a.63.63 0 0 1 .62-.64.63.63 0 0 1 .62.64v5.67zm3.097.528c0 .366-.283.663-.625.663-.343 0-.625-.297-.625-.663v-4.3c0-.366.282-.662.624-.662.348 0 .626.296.626.662zm8.717 1.288a.66.66 0 0 1-.459-.19l-.865-.876-.255.153a2.78 2.78 0 0 1-.158.093l-.023.01a4.104 4.104 0 0 1-1.226.402 3.535 3.535 0 0 1-.584.047 3.98 3.98 0 0 1-.967-.12 4.02 4.02 0 0 1-1.346-.645 3.745 3.745 0 0 1-1.01-1.098 4.076 4.076 0 0 1-.19-.343 3.814 3.814 0 0 1-.32-1.024l-.004-.036-.01-.042-.008-.065a3.892 3.892 0 0 1-.038-.515c0-.32.042-.639.12-.95a3.962 3.962 0 0 1 .654-1.348 3.99 3.99 0 0 1 1.11-1.01c.167-.107.348-.199.533-.273a4.22 4.22 0 0 1 .917-.26 3.793 3.793 0 0 1 1.564.088l.01.005c.04.01.078.023.115.033l.014.004a3.929 3.929 0 0 1 2.004 1.464 4.058 4.058 0 0 1 .597 1.288c.037.149.07.306.088.473a4.263 4.263 0 0 1-.083 1.431 3.81 3.81 0 0 1-.44 1.062l-.152.25.875.875a.646.646 0 0 1 0 .918.642.642 0 0 1-.463.2Zm-3.542-7.06a2.935 2.935 0 0 0-1.495.416l-.01.004a2.998 2.998 0 0 0-.8.742 2.683 2.683 0 0 0-.472.982 2.561 2.561 0 0 0-.06 1.094c.056.384.185.722.384 1.037a2.808 2.808 0 0 0 .736.798 2.817 2.817 0 0 0 2.768.347 2.792 2.792 0 0 0 1.18-.94 2.718 2.718 0 0 0 .458-.978 2.985 2.985 0 0 0 .056-1.108 2.854 2.854 0 0 0-1.092-1.844 2.727 2.727 0 0 0-1.653-.55Z"/><path fill="#ff1744" d="M14.753 11.204a.78.78 0 0 1 0 1.098.78.78 0 0 1-1.096 0l-.95-.95a.767.767 0 0 1 .033-1.093.775.775 0 0 1 1.064 0z"/></g></svg>