<svg xmlns="http://www.w3.org/2000/svg" xml:space="preserve" viewBox="0 0 24 24">
  <path fill="#004697" d="M17.16 9.946h-3.044v-3.03A6.812 6.812 0 0 0 7.304.103h-.326A6.812 6.812 0 0 0 .167 6.915v16.982h16.97a6.823 6.823 0 0 0 6.823-6.823v-.326a6.801 6.801 0 0 0-6.801-6.802Z" data-name="Path 1"/>
  <path fill="#fff" d="M3.898 6.944a2.319 2.319 0 0 1 .632-.066h1.38V5.771h.668v-.608H2.584v.608h2.67v.489h-.798a1.967 1.967 0 0 0-1.219.302 1.153 1.153 0 0 0-.384.951 1.18 1.18 0 0 0 .457 1.042 2.328 2.328 0 0 0 1.315.307 3.703 3.703 0 0 0 .736-.064v.669h.657V8.462a.613.613 0 0 0 .135-.386.421.421 0 0 0-.186-.38.936.936 0 0 0-.507-.109h-.07l-.242.586a3.265 3.265 0 0 1-1.218-.022.497.497 0 0 1-.301-.2.79.79 0 0 1-.092-.416.78.78 0 0 1 .086-.401.457.457 0 0 1 .275-.19Z" data-name="Path 2"/>
  <path fill="#59ffb9" d="M13.189 11.475H6.274v-.33a1.05 1.05 0 0 0-.226-.71 1.347 1.347 0 0 0-.742-.376 6.561 6.561 0 0 0-1.355-.111h-.1v.62h.1a7.96 7.96 0 0 1 1.101.055.769.769 0 0 1 .446.181.618.618 0 0 1 .119.421v.25H2.584v.608H5.55v.534a3.131 3.131 0 0 0-.373-.089 3.732 3.732 0 0 0-.633-.048 2.188 2.188 0 0 0-1.223.273 1.294 1.294 0 0 0-.004 1.878 2.12 2.12 0 0 0 1.22.277 3.736 3.736 0 0 0 .64-.048 2.81 2.81 0 0 0 .375-.094v.727h.657v-3.412h2.948v.556h-.082a3.215 3.215 0 0 0-1.585.303 1.13 1.13 0 0 0-.53 1.05 1.172 1.172 0 0 0 .482 1.047 2.386 2.386 0 0 0 1.33.314 3.488 3.488 0 0 0 1.252-.205l.06-.024v-.658l-.14.055a3.152 3.152 0 0 1-1.144.19 1.711 1.711 0 0 1-.893-.178.738.738 0 0 1-.124-.994.847.847 0 0 1 .449-.214 4.738 4.738 0 0 1 .911-.068h.672v-1.176h1.809a1.232 1.232 0 0 1 .21.334 1.064 1.064 0 0 1 .094.426.389.389 0 0 1-.228.398 2.4 2.4 0 0 1-.88.115h-.37v.508l1.468 1.634h.771v-.126l-1.3-1.41a1.71 1.71 0 0 0 .876-.253.914.914 0 0 0 .344-.79 2.049 2.049 0 0 0-.067-.515 2.101 2.101 0 0 0-.109-.317h.755zm-7.64 1.722v.879l-1.217-.972c.085-.004.182-.006.287-.006a5 5 0 0 1 .576.028 2.306 2.306 0 0 1 .356.072zm-.631 1.085q-.128.006-.28.006a3.387 3.387 0 0 1-.7-.054.449.449 0 0 1-.283-.16.688.688 0 0 1-.084-.381.87.87 0 0 1 .044-.297.336.336 0 0 1 .063-.108l1.24.993z" data-name="Path 3"/>
  <path fill="#fff" d="M5.575 17.523a.484.484 0 0 0 .342-.117.484.484 0 0 0 0-.656.558.558 0 0 0-.684 0 .484.484 0 0 0 0 .656.479.479 0 0 0 .342.117z" data-name="Path 4"/>
  <path fill="#fff" d="M7.517 17.785a1.236 1.236 0 0 1-.097-.464.435.435 0 0 1 .158-.388 1.232 1.232 0 0 1 .653-.116 3.263 3.263 0 0 1 1.102.178 3.415 3.415 0 0 1 1.007.601l.167.138v-.68l-.033-.026a3.532 3.532 0 0 0-2.257-.82 1.843 1.843 0 0 0-1.069.265.894.894 0 0 0-.385.774 1.463 1.463 0 0 0 .101.538h-4.28v.608H5.24v.404H4.126a1.343 1.343 0 0 0-.862.221.819.819 0 0 0-.276.67.93.93 0 0 0 .27.712.864.864 0 0 0 .252.16l.01.004.038.015.006.002c.078.024.19.048.23.055l.015.003a2.054 2.054 0 0 0 .555-.009 7.38 7.38 0 0 0 .33-.052 2.808 2.808 0 0 1 .483-.06.387.387 0 0 1 .248.062.283.283 0 0 1 .073.221.32.32 0 0 1-.157.307 1.434 1.434 0 0 1-.668.102 2.883 2.883 0 0 1-.686-.068l-.203-.486a.808.808 0 0 0-.519-.01l-.01.003a.332.332 0 0 0-.036.016l-.013.006a.29.29 0 0 0-.025.015.413.413 0 0 0-.191.376.566.566 0 0 0 .142.381v.973h.657v-.642a3.77 3.77 0 0 0 .816.078 2.158 2.158 0 0 0 1.185-.254.932.932 0 0 0 .391-.833.903.903 0 0 0-.217-.64 1.018 1.018 0 0 0-.764-.241 2.48 2.48 0 0 0-.335.024 5.244 5.244 0 0 0-.312.051 2.883 2.883 0 0 1-.505.06.49.49 0 0 1-.294-.067.3.3 0 0 1-.079-.244.254.254 0 0 1 .09-.227.818.818 0 0 1 .417-.068h1.731V18.39h1.022v3.412h.657V18.39h2.983v.404H9.453a1.343 1.343 0 0 0-.862.22.812.812 0 0 0-.275.665.94.94 0 0 0 .27.715 1.1 1.1 0 0 0 .78.256 2.487 2.487 0 0 0 .326-.024c.115-.015.23-.033.339-.051a2.962 2.962 0 0 1 .48-.06.367.367 0 0 1 .24.062.281.281 0 0 1 .072.22.315.315 0 0 1-.167.306 1.658 1.658 0 0 1-.73.103 3.965 3.965 0 0 1-1.522-.269l-.14-.058v.656l.051.026a2.802 2.802 0 0 0 .72.21 5.274 5.274 0 0 0 .905.078 2.061 2.061 0 0 0 1.18-.265.942.942 0 0 0 .389-.824.897.897 0 0 0-.217-.634.996.996 0 0 0-.75-.241 2.492 2.492 0 0 0-.332.024 7.265 7.265 0 0 0-.326.05c-.04.004-.115.016-.228.034a1.828 1.828 0 0 1-.296.027.455.455 0 0 1-.28-.068.302.302 0 0 1-.078-.244.254.254 0 0 1 .09-.227.822.822 0 0 1 .417-.068h1.722V18.39h1.31a.953.953 0 0 1 .203.55.292.292 0 0 1-.12.27 1.076 1.076 0 0 1-.535.086h-.29v.174a1.24 1.24 0 0 0 .467 1.054 2.13 2.13 0 0 0 1.298.346 3.188 3.188 0 0 0 .823-.101v1.033h.658V18.39h1.094v3.412h.658V18.39h.711v-.607zm6.868 2.371a3.722 3.722 0 0 1-.784.077 2.268 2.268 0 0 1-.799-.111.594.594 0 0 1-.298-.24 1.16 1.16 0 0 0 .647-.205.782.782 0 0 0 .274-.655 1.15 1.15 0 0 0-.065-.392 1.304 1.304 0 0 0-.12-.236h1.144v1.763z" data-name="Path 5"/>
  <g data-name="Group 51">
    <path fill="#004697" fill-rule="evenodd" d="M17.167 9.96h-3.05V6.913A6.837 6.837 0 0 0 7.288.068H6.96A6.837 6.837 0 0 0 .131 6.914V23.98h17.015a6.848 6.848 0 0 0 6.84-6.856v-.33a6.826 6.826 0 0 0-6.818-6.836" data-name="Path 6"/>
  </g>
  <path fill="#59ffb9" fill-rule="evenodd" d="M4.835 14.254c0-.673-.167-1.087-.71-1.087s-.708.414-.708 1.087.167 1.087.709 1.087.709-.414.709-1.087m.894-.004c0 1.228-.534 1.744-1.36 1.744a.942.942 0 0 1-.91-.412v.36h-.883v-4.18h-.334v-.653h1.074a.145.145 0 0 1 .145.145v1.625a1.102 1.102 0 0 1 .917-.376c.82 0 1.353.52 1.353 1.748m5.371 1.736zm.725-.652h-.598c-.414-.05-.415-.37-.415-.68v-1.45h.86v-.652h-.86v-1.002h-.88v3.229c0 .326 0 1.19 1.17 1.207h.756v-.652h-.032zm2.271 0h-.597c-.413-.05-.414-.37-.414-.68v-1.45h.859v-.652h-.86v-1.002h-.882v3.229c0 .326 0 1.19 1.169 1.207h.756v-.652zm1.907-2.23c-.46 0-.671.265-.669.881h1.335c.004-.616-.209-.882-.668-.882m-1.584 1.148c0-1.129.527-1.763 1.61-1.763.967 0 1.547.501 1.547 1.766v.17a.187.187 0 0 1-.187.183h-2.043c-.004.51.386.735.993.735a1.995 1.995 0 0 0 .765-.159v.66a1.83 1.83 0 0 1-.89.166c-1.065 0-1.793-.437-1.793-1.759m-6.6-1.149c-.458 0-.67.266-.668.882h1.335c.004-.616-.21-.882-.669-.882M6.235 14.25c0-1.128.526-1.762 1.611-1.762.966 0 1.546.5 1.546 1.765v.17a.187.187 0 0 1-.187.184H7.163c-.004.507.387.733.993.733a1.998 1.998 0 0 0 .765-.159v.663a1.834 1.834 0 0 1-.89.167c-1.065 0-1.793-.437-1.793-1.759m13.868-1.76a.954.954 0 0 0-.912.605v-.399a.145.145 0 0 0-.145-.145h-1.094v.653h.394v2.736h.84v-1.555a1.241 1.241 0 0 1 .334-.935.873.873 0 0 1 .577-.175h.262v-.787z" data-name="Path 7"/>
  <path fill="#fff" fill-rule="evenodd" d="M2.552 17.604a.474.474 0 1 1 .474.47.458.458 0 0 1-.474-.47zm.922 4.295h-.88v-3.388h.88v3.388zm8.465-4.294a.474.474 0 1 1 .474.471.458.458 0 0 1-.474-.47zm.922 4.294h-.879v-3.388h.88zm-5.246 0H6.58a.145.145 0 0 1-.145-.145v-1.792c0-.296 0-.84-.53-.84-.63 0-.669.768-.669 1.178v1.599h-.844v-2.735H4.06v-.652h1.02a.145.145 0 0 1 .145.145v.314a.974.974 0 0 1 .981-.517c1.114 0 1.114.938 1.114 1.398v1.395h.298zm2.734-1.691c0-.676-.167-1.094-.709-1.094-.542 0-.709.418-.709 1.094s.167 1.09.71 1.09.708-.413.708-1.092zm.841 1.691h-.885l.004-.36a.942.942 0 0 1-.911.413c-.827 0-1.36-.517-1.36-1.744 0-1.228.534-1.748 1.352-1.748a1.104 1.104 0 0 1 .918.377v-1.771h.883zm4.695-1.687c0-.673-.167-1.087-.709-1.087-.541 0-.708.414-.708 1.087s.167 1.087.708 1.087c.542 0 .709-.414.709-1.089zm.841 1.687h-.815v-.406a1.093 1.093 0 0 1-.985.46c-.826 0-1.353-.514-1.353-1.74s.527-1.74 1.357-1.74a1.07 1.07 0 0 1 .978.457v-.422h.818zM4.471 9.378h-.597c-.413-.05-.415-.37-.415-.68v-1.45h.86v-.652h-.858V5.591h-.883v3.23c0 .327 0 1.19 1.17 1.208h.757v-.653zm3.831.652H7.257a.145.145 0 0 1-.145-.145V8.092c0-.296 0-.84-.531-.84-.63 0-.63.768-.63 1.179v1.599H5.07V5.848h-.334v-.652H5.81a.145.145 0 0 1 .144.145v1.66a1.018 1.018 0 0 1 .93-.419c1.114 0 1.114.939 1.114 1.399v1.394h.307zm1.928-2.884c-.46 0-.672.266-.669.883h1.335c.004-.616-.209-.883-.668-.883M8.643 8.293c0-1.129.527-1.763 1.611-1.763.967 0 1.547.5 1.547 1.766v.17a.187.187 0 0 1-.187.183H9.569c-.004.51.387.734.994.734a1.993 1.993 0 0 0 .765-.16v.662a1.829 1.829 0 0 1-.89.167c-1.066 0-1.793-.435-1.793-1.759" data-name="Path 8"/>
</svg>