<svg xmlns="http://www.w3.org/2000/svg" xml:space="preserve" viewBox="0 0 24 24"><path fill="#fff" d="M.11 12.032v11.905h23.812V.126H.111ZM13.774.604A9.212 9.212 0 0 1 15.53.89c.06.015.244.061.406.099.165.04.326.08.358.09l.377.106a11.415 11.415 0 0 1 .625.179l.234.071c.067.022.17.054.228.07.056.014.131.035.163.047.36.12.55.151.942.151.334 0 .38-.004.502-.045a.568.568 0 0 0 .38-.431c.033-.14.049-.149.285-.149.117 0 .224.008.238.016.02.014.024.655.02 3.141l-.006 3.123-.186.007a.62.62 0 0 1-.207-.014.814.814 0 0 1-.093-.23 10.701 10.701 0 0 0-.208-.586l-.062-.165a15.424 15.424 0 0 0-.145-.377l-.123-.307a22.95 22.95 0 0 0-.149-.357 9.564 9.564 0 0 0-.702-1.362 10.817 10.817 0 0 0-.423-.607 6.58 6.58 0 0 0-.857-.93 11.914 11.914 0 0 0-.675-.512c-.486-.298-.772-.447-1.002-.522l-.159-.058a4.765 4.765 0 0 0-.674-.179c-.05-.007-.143-.025-.209-.037-.365-.072-.595-.086-1.287-.086-.866.003-1.344.05-1.977.203-.05.012-.125.028-.168.036a.466.466 0 0 0-.108.03.383.383 0 0 1-.089.033c-.335.085-.841.32-1.192.55A5.229 5.229 0 0 0 8.175 3.27c-.228.335-.55.956-.643 1.24a10.928 10.928 0 0 0-.325.992c-.078.29-.088.332-.181.784-.08.383-.135.778-.179 1.25l-.051.556c-.012.119-.028.35-.038.516l-.038.625c-.067 1.045-.099 3.232-.061 4.187.012.29.026.664.03.833.031.972.19 2.514.337 3.264.016.076.042.215.06.308.055.3.116.567.178.774l.06.218c.041.159.087.311.113.377.01.026.037.101.06.169.24.712.654 1.484 1.047 1.944.184.219.722.717.8.742a.581.581 0 0 1 .095.064.42.42 0 0 0 .083.057c.008 0 .046.024.087.052.197.133.723.357 1.068.454.065.02.159.046.208.06.088.024.244.061.447.107.137.03.478.08.704.101l.357.038c.26.034 1.157.028 1.44-.008.53-.07.892-.145 1.14-.24l.204-.07a.668.668 0 0 0 .145-.059c.006-.01.024-.018.042-.018.034 0 .542-.246.69-.337l.13-.074c.027-.011.29-.184.436-.285a8.87 8.87 0 0 0 .575-.453c.195-.17.598-.58.755-.766.158-.19.365-.454.444-.57l.18-.263c.05-.072.09-.133.09-.139a.87.87 0 0 1 .057-.093c.032-.048.078-.121.102-.165.023-.044.073-.133.109-.198.192-.344.454-.907.599-1.29l.054-.14c.021-.053.166-.501.238-.743.03-.095.073-.264.113-.427.041-.174.032-.169.274-.169.156 0 .222.008.238.028.016.02.02.885.018 3.259l-.006 3.232-.242.006-.242.006-.05-.097a1.678 1.678 0 0 0-.238-.334c-.159-.158-.524-.232-.927-.188-.288.03-.482.071-.802.173-.043.011-.136.04-.208.057l-.228.062-.407.113c-.06.016-.167.043-.238.063a179.865 179.865 0 0 0-.685.179c-.053.014-.17.041-.258.06-.154.031-.3.06-.565.118-.351.076-.6.117-1.032.173-.313.04-.43.044-1.22.044-.836-.002-.891-.004-1.29-.056-.593-.08-.623-.083-.744-.11l-.248-.053a11.29 11.29 0 0 1-.725-.176c-.204-.062-.69-.215-.754-.238-.037-.016-.176-.068-.307-.12a6.732 6.732 0 0 1-.298-.119l-.149-.065c-.27-.121-.349-.159-.575-.272a9.57 9.57 0 0 1-.88-.484c-.116-.071-.227-.14-.247-.15a13.19 13.19 0 0 1-.748-.525A12.241 12.241 0 0 1 3.9 18.818a14.303 14.303 0 0 1-.772-1.16 2.145 2.145 0 0 1-.088-.15 7.13 7.13 0 0 0-.089-.158 18.745 18.745 0 0 1-.41-.824l-.094-.208a3.826 3.826 0 0 1-.123-.294l-.06-.159a8.713 8.713 0 0 1-.178-.53l-.062-.198a5.328 5.328 0 0 1-.148-.585 18.642 18.642 0 0 0-.092-.417 1.172 1.172 0 0 1-.028-.179c0-.025-.011-.115-.027-.198-.111-.573-.15-1.835-.082-2.679.038-.464.14-1.103.25-1.567.01-.05.03-.13.04-.177.01-.05.028-.121.04-.159l.107-.349c.05-.167.1-.317.149-.446a5.029 5.029 0 0 0 .099-.268c.07-.169.103-.244.188-.437a13.617 13.617 0 0 1 .665-1.25 1.1 1.1 0 0 0 .054-.09.688.688 0 0 1 .047-.079l.217-.327c.178-.27.535-.762.627-.863l.24-.278c.428-.502.825-.901 1.286-1.29.109-.093.216-.182.238-.202.15-.13.446-.355.605-.467a18.333 18.333 0 0 1 .72-.482.513.513 0 0 1 .102-.06.556.556 0 0 0 .085-.05c.042-.029.093-.06.115-.07a14.566 14.566 0 0 1 1.31-.65c.49-.208.565-.237.787-.31.117-.038.235-.078.258-.088.026-.01.135-.046.244-.077a10.61 10.61 0 0 1 1.835-.389c.116-.016.374-.04.576-.052l.457-.028c.107-.006.33.002.784.03z"/></svg>