<svg xmlns="http://www.w3.org/2000/svg" xml:space="preserve" viewBox="0 0 24 24"><g fill-rule="evenodd"><rect width="24.979" height="24.77" x="-.371" y="-.405" fill="red" stroke="red" stroke-linecap="square" stroke-width=".062" paint-order="stroke markers fill" rx=".481" ry=".501"/><path fill="#fff" d="m20.338 5.56.315-2.097H5.003L4.765 5c-.255 1.6-.629 3.038-1.141 4.297-.61 1.479-1.378 2.558-2.146 3.057.768.5 1.516 1.559 2.146 3.057.512 1.24.905 2.678 1.142 4.296l.236 1.539h15.65l-.314-2.098c-.394-2.598-1.142-4.936-2.166-6.714l-.039-.06.04-.06c1.003-1.818 1.771-4.156 2.165-6.753zm-4.784 9.871c.256.6.492 1.28.69 2.038H8.092c-.433-1.998-1.083-3.736-1.89-5.135.807-1.398 1.437-3.137 1.89-5.135h8.13c-.196.76-.433 1.439-.689 2.038-.669 1.619-1.496 2.698-2.264 3.097.788.4 1.615 1.459 2.284 3.097z" style="mix-blend-mode:normal"/></g></svg>