<svg xmlns="http://www.w3.org/2000/svg" xml:space="preserve" viewBox="0 0 24 24"><g fill-rule="evenodd"><path fill="#00f" d="M0 0h24v24H0z"/><path fill="#fff" d="M11.12 1.41c-.382.043-.73.505-.897.857-.383.813-.49 1.844-.49 2.734 0 .331.016.66.024.99.004.14.053.289-.002.425-.182.448-.544.896-.816 1.296-.071.106-.233.348-.385.33-.097-.012-.14-.131-.16-.212-.058-.234-.05-.515-.051-.756-.004-.74.01-1.451.089-2.191.028-.266.002-.68.126-.918.104-.2.609-.436.82-.505.11-.036.234-.028.33-.1.113-.084.133-.28-.046-.285-.166-.005-.362.1-.518.151-.147.05-.295.106-.45.126.004-.35.097-.714-.09-1.037-.153-.265-.483-.363-.663-.07-.183.296-.208.7-.253 1.037-.02.154-.013.357-.101.49-.109.166-.522.224-.707.237-.064.004-.249-.026-.254.077-.018.34.63.32.82.256.072.314-.055.718-.09 1.036-.086.808-.201 1.763.084 2.545.211.581.9 1.046 1.441.556.276-.25.494-.574.694-.885.095-.148.168-.327.298-.447.03.24.023.675.18.868.176.213.678.023.78-.185.136-.28-.003-.732.035-1.037.06-.492.445-1.05.73-1.438.115-.155.243-.341.421-.424-.13.537-.14 1.1-.14 1.65 0 .286-.022.573.072.847.036.106.078.214.14.307.515.765 1.333-.31 1.554-.777h.023c.034.795.488 1.601 1.32 1.7.231.029.456.013.66-.115.373-.234.522-.592.702-.974.208-.44.422-.877.625-1.32.125-.27.34-.567.346-.871-.155.078-.26.252-.379.377-.451.475-.741 1.115-1.077 1.673-.111.187-.34.714-.617.672-.199-.03-.313-.293-.369-.458a7.483 7.483 0 0 1-.343-1.44c-.02-.162-.062-.395.045-.536.091-.12.3-.18.431-.247.247-.123.462-.27.609-.511a.566.566 0 0 0-.139-.76.942.942 0 0 0-.447-.176c-.96-.149-1.222.911-1.334 1.665-.024.16-.01.34-.054.495-.056.196-.213.375-.325.543-.105.157-.338.655-.539.687-.09.014-.12-.13-.126-.192-.018-.21.038-.427.046-.636.018-.506.176-1.084.022-1.58-.242-.785-1.05-.42-1.41.024-.193.239-.328.523-.5.777-.086-.337.097-.57.218-.872.224-.557.46-1.119.626-1.696.11-.382.286-.856.145-1.25a.89.89 0 0 0-.156-.277c-.173-.202-.354-.27-.528-.25Zm.12.453c.212.044.203.484.183.64-.06.452-.273.917-.425 1.344-.07.199-.117.449-.253.613-.147-.62.012-1.42.164-2.027.03-.123.15-.608.331-.57zm8.099.957c-.117.008-.222.073-.28.226-.138.362.282.645.524.814.147.102.227.254.4.101.187-.165.414-.395.443-.656.05-.446-.366-.414-.584-.166-.085-.183-.31-.332-.503-.319zm-4.364 1.533c.07-.008.141.01.186.07.058.076-.019.167-.066.226-.13.162-.306.356-.508.422.04-.192.071-.475.203-.627a.296.296 0 0 1 .185-.091zm6.563.271c.016.192.087.418.183.586.032.057.143.14.186.044.054-.122-.131-.473-.133-.63zm-.188.01c-.02-.001-.037.011-.054.048-.077.17.12.495.29.507a.719.719 0 0 0-.052-.236l-.056-.14c-.013-.036-.071-.174-.128-.179zm.592.002a.06.06 0 0 0-.035.015c-.061.046-.004.197.008.257.04.191.115.558.377.495-.037-.105-.087-.205-.13-.307-.03-.07-.062-.141-.087-.213-.016-.044-.055-.248-.133-.247zm.234.036c-.032.302.117.765.423.872.033-.172-.247-.844-.423-.872zm.346.035c-.026-.007-.05.01-.068.066-.024.072.037.186.06.253.065.188.18.653.439.61-.038-.13-.103-.252-.157-.376a2.559 2.559 0 0 1-.094-.26c-.01-.033-.103-.272-.18-.294Zm-1.41.008c-.102-.032-.141.283.145.381l.022-.025a1.824 1.824 0 0 0-.053-.188c-.038-.109-.08-.157-.114-.168zm-.303.004-.025.023c.033.113.075.195.189.236-.02-.115-.056-.205-.164-.259zm-.306.046.188.118c-.03-.101-.088-.115-.188-.118Zm-.048.166.14.095zm2.38.07c-.069.194.185.699.377.754-.028-.283-.223-.526-.377-.754zm-2.061.054a.176.176 0 0 0-.108.064c.098.07.195.083.236-.048a.307.307 0 0 0-.128-.016zm.323.11c-.084-.007-.155.041-.217.12.126.066.201.011.306-.07v-.026a.245.245 0 0 0-.089-.024zm.278.087c-.254-.015-.36.342-.025.165.049-.026.096-.054.143-.085v-.047a.32.32 0 0 0-.118-.033zm.296.128c-.151-.021-.349.033-.367.189-.02.172.295.037.352 0a.525.525 0 0 0 .143-.143.297.297 0 0 0-.128-.046zm.315.106c-.11-.009-.195.054-.305.13-.041.029-.13.072-.12.135.013.08.138.07.19.05.134-.05.29-.152.353-.28a.329.329 0 0 0-.118-.035zm.257.101c-.146.002-.346.199-.444.263.079.236.458-.11.566-.188-.03-.055-.074-.076-.122-.075zm.323.085a.146.146 0 0 0-.06.002c-.13.03-.301.151-.398.24-.061.057-.056.14.043.127.135-.019.348-.16.442-.257.056-.058.026-.102-.027-.112zm.223.093a.4.4 0 0 0-.095.033c-.141.067-.356.178-.402.334.201.062.317-.047.472-.168.042-.032.153-.103.114-.17-.017-.03-.053-.035-.089-.029zm.305.108c-.178-.01-.37.17-.47.307.205.05.394-.129.47-.307zm.284.07c-.145-.02-.384.144-.425.284.218-.017.335-.077.425-.284zm.07.073-.023.045.023.025.048-.07zm.236.729c-.165 0-.428.007-.52.166.159 0 .488.03.52-.166zm.118.213.046.093-.023-.093zm-.304.007c-.062-.005-.144.025-.19.033-.192.03-.455-.008-.52.22.102 0 .204.003.306-.011.07-.01.144-.018.213-.037.043-.013.349-.104.242-.187a.091.091 0 0 0-.051-.018zm.161.157c.047.13.124.378.261.425 0-.173-.017-.46-.26-.425zm-.188.095c-.12.005-.235.037-.352.06-.087.018-.172.028-.26.04-.037.005-.454.071-.273.176.183.104.827-.083.885-.276zm.118.141c-.036.15.11.444.259.495-.002-.21-.09-.332-.212-.495zm-.33.114c-.094.008-.19.05-.283.072-.094.024-.187.048-.282.063-.053.008-.47.051-.31.198.062.058.216 0 .287-.014.225-.045.593-.065.682-.315a.315.315 0 0 0-.094-.004zm.22.083c-.07.025-.045.13-.029.18.046.141.131.4.282.447.07-.194-.01-.324-.11-.495-.026-.044-.073-.158-.143-.132zm-.315.203c-.21.03-.822.118-.917.306.252.107.867.008.917-.306zm.21.035c-.076-.025-.085.085-.075.13.02.092.145.456.246.475.076.014.06-.106.05-.145-.024-.104-.11-.423-.222-.46Zm-.185.249c-.037.16.028.306.106.447.021.04.078.152.14.114.142-.087-.14-.528-.246-.561zm-.188.022c-.187.043-.793.11-.825.307.214 0 .882.045.825-.307zm.07.214c-.12.213.02.423.14.613h.026c.128-.184.037-.508-.166-.613zm-.259.118-.425.085-.217.01-.041.211c.2 0 .763-.011.683-.306zm.12.209c-.18.026-.043.468.093.468.178 0 .068-.491-.093-.468zm-.26.12a.972.972 0 0 0-.237.029 2.33 2.33 0 0 1-.166.035c-.05.01-.248.06-.147.147.147.127.536-.035.55-.211zm.14.14c-.34.104.132.574.083.237a.559.559 0 0 0-.025-.095c-.017-.048-.039-.094-.058-.141zm-10.058.125c-.086-.008-.166.015-.215.091-.072.112-.064.27-.077.398-.047.47.068 1.363-.513 1.485-.043-.293-.15-.585-.222-.872-.115-.454-.652-1.107-1.193-.924-.165.056-.306.23-.416.359-.355.414-.3.859-.45 1.342-.077.25-.259.486-.393.708-.102.17-.194.39-.367.495-.046-.585.07-1.178.07-1.769 0-.251.017-.547-.103-.776-.216-.412-.75-.401-1.098-.179-.527.338-.831 1.082-.99 1.664h-.022c-.001-.269-.066-.535-.092-.802-.019-.198-.015-.395-.136-.565a.978.978 0 0 0-.174-.183c-.558-.458-1.032.445-1.154.889h-.025c-.031-.25-.023-.502-.023-.754 0-.12.024-.27-.043-.377-.101-.162-.482-.334-.624-.139-.163.226-.127.764-.134 1.034-.017.676-.163 1.35-.166 2.027 0 .206-.06.591.124.738.08.063.185.055.278.08.068.02.158.08.23.048.078-.036.09-.157.108-.23l.165-.66c.12-.476.248-.947.4-1.413.106-.324.204-.633.487-.85.03.384.068.772.07 1.157.001.252.025.503.025.754 0 .235-.06.567.073.776.112.178.408.24.538.046.14-.21.187-.537.261-.777.154-.497.326-.994.56-1.46.093-.187.27-.602.521-.611.237-.009.13.554.114.681-.076.588-.238 1.41-.014 1.98.219.56.926.36 1.19-.022.123-.178.253-.37.338-.568.115.268.17.546.321.802.104.174.223.33.385.455.114.089.241.157.377.203.737.253 1.057-.582 1.146-1.153.025-.162.014-.398.103-.539.062-.097.186-.124.284-.168 0 .244-.019.488-.025.731-.009.368-.078.713.354.81.1.023.25.131.323.01.12-.195.137-.527.193-.75.127-.506.261-1.01.427-1.507.103-.31.206-.664.495-.85 0 .378.047.753.047 1.132 0 .259.022.519.023.779.001.198-.04.636.09.793.079.097.376.236.478.118.157-.182.206-.523.281-.748.179-.535.342-1.073.595-1.578.092-.185.27-.591.513-.613.272-.025.13.62.114.754-.07.581-.216 1.317-.01 1.885.143.395.66.473.98.244.182-.13.285-.358.393-.549.15-.262.315-.523.431-.801.318.467.944 1.24.584 1.837-.195.324-.78.288-.795-.141-.013-.346.365-.597.542-.85-.493-.14-.99.633-.909 1.061.148.786 1.298.624 1.804.358.184-.096.292-.272.383-.451.399-.786-.108-1.576-.52-2.24-.104-.167-.217-.33-.327-.494-.152-.23-.286-.47-.426-.706-.063-.106-.132-.216-.042-.328.25-.308.641.093.667.373.01.118-.102.23-.05.348.033.073.127.084.197.073.314-.054.229-.559.118-.75-.194-.336-.583-.419-.942-.332-.426.104-.784.62-.738 1.063.027.25.196.533.183.777-.007.127-.103.249-.166.354-.163.27-.316.662-.576.85-.12-.65.115-1.343.052-2.006-.017-.176-.003-.353-.085-.518-.208-.416-.74-.438-1.098-.209-.503.323-.89 1.09-.99 1.672h-.022c-.031-.392-.02-1.038-.239-1.367a.75.75 0 0 0-.163-.176c-.582-.454-1.046.441-1.179.905h-.023v-.611c0-.185.024-.404-.09-.564a.597.597 0 0 0-.376-.209zm9.774.042a1.12 1.12 0 0 0-.188.014c-.513.091.077.373.188-.014zm.048.118c-.006.04-.012.077-.008.118.03.3.297-.028.008-.118zm-.211.163c-.119.005-.258.02-.236.166zm-11.218.59h.048l.352 1.109c-.462-.136-.51-.714-.4-1.108Zm-.59.707c.16.212.214.467.429.648.13.11.446.173.53.305.053.083.01.204.008.296-.008.276-.088 1.016-.495.98-.282-.026-.432-.343-.499-.578a2.656 2.656 0 0 1 .027-1.651zm-8.765 3.11-.237.166c.12-.005.258-.019.237-.165zm8.665.003c-.45-.011-.959.256-1.215.54-.228.253-.337.598-.43.918-.213.744-.273 1.412 0 2.146.299.796 1.191 1.172 1.91.619a2.44 2.44 0 0 0 .603-.715c.095-.16.16-.364.292-.495.022.504.304 1.135.709 1.442.375.284.815.35 1.164-.01.262-.272.305-.673.364-1.03.024-.142.017-.351.11-.468.112-.14.344-.193.483-.315.327-.288.774-.971.729-1.433-.589.165-.654 1.061-1.295 1.156-.013-.299-.104-.587-.186-.872-.126-.438-.643-1.113-1.18-.938-.186.06-.34.25-.459.395-.32.39-.287.824-.447 1.272-.15.42-.509.892-.8 1.226-.153.177-.544.629-.818.55-.285-.08-.328-.517-.329-.761-.001-.74.04-1.432.383-2.098.093-.18.41-.792.696-.632.103.057.018.186-.023.255-.09.156-.292.455-.124.625.137.139.318-.05.404-.153.193-.231.306-.573.137-.85a.777.777 0 0 0-.678-.374zm-9.185.02c-.12.102-.077.26.072.307zm.352.226a.239.239 0 0 0-.234.2 1.12 1.12 0 0 0 .188-.02c.326-.061.204-.187.046-.18zm-.56.009c-.032.002-.053.035-.043.12.004.032.016.063.027.093.018.048.04.096.06.143.251-.08.053-.362-.043-.356zm-.17.145c-.168-.02-.077.45.071.472.19.027.081-.454-.07-.472zm.92.116c-.206 0-.498-.01-.588.213l.588-.07zm-1.108.07c-.188.153-.05.513.143.613.112-.213-.024-.425-.143-.613Zm1.086.188c-.2 0-.765.009-.684.307.255-.058.683-.003.684-.307zm-1.295.09c-.07.004-.024.181-.01.217a3.066 3.066 0 0 0 .174.354c.165-.091.021-.49-.127-.561a.08.08 0 0 0-.037-.01zm-.095.194c-.188.063.003.504.112.597.138.118.081-.174.062-.22a3.031 3.031 0 0 0-.064-.14c-.038-.08-.077-.156-.11-.237zm1.11.044c-.26.001-.567.035-.617.286.185-.008.818-.091.849-.282-.065 0-.146-.005-.232-.004zm11.59.192c.284.174.378.78.402 1.084-.479-.087-.485-.72-.402-1.084zm-12.887.021c-.198.033.096.654.226.607.14-.05-.12-.624-.226-.607zm1.218.052c-.284-.004-.653.115-.68.352.215-.032.813-.122.92-.307a.594.594 0 0 0-.24-.045Zm-1.363.257c.002.209.093.331.214.495h.045c.04-.171-.118-.345-.188-.495zm1.347.025c-.055.005-.113.023-.145.029-.23.04-.618.07-.707.323l.025.022c.275-.063.55-.116.825-.178.063-.014.183-.072.132-.16-.021-.036-.075-.042-.13-.036ZM0 15.653c0 .173.015.46.259.425l-.189-.425zm1.344.023c-.265.05-.781.026-.92.307l.636-.108.253-.033zm11.145.07c.203.149.276.477.495.649.128.1.438.17.502.32.037.088.002.192-.005.282-.02.28-.074.91-.449.939-.293.022-.466-.302-.534-.539-.085-.296-.169-.61-.147-.92.017-.249.105-.485.138-.73zm-11.358.236c-.102 0-.206-.004-.307.009-.07.008-.142.02-.21.037-.046.011-.354.1-.245.189.055.044.182-.004.244-.015.187-.032.452.004.518-.22zm-1.036.166.046.093-.023-.093zm.514.139c-.16 0-.348.016-.373.168.164-.002.424-.011.518-.166l-.145-.002zm.358.686c-.218.009-.338.078-.424.283.14.02.382-.147.424-.283zm.255.037c-.164 0-.272.145-.398.246v.07c.177.009.37-.172.473-.306a.312.312 0 0 0-.075-.01zm.263.027c-.136.009-.306.16-.398.252-.05.051-.084.147.023.147.14 0 .369-.168.462-.265.074-.076 0-.14-.087-.134zm-1.013.076-.047.073zm1.338.046c-.13-.03-.347.147-.44.222-.04.03-.123.106-.042.142.123.056.395-.164.482-.242.039-.034.076-.104 0-.122zm13.09.118a.524.524 0 0 0-.101.01c-.505.098-.395.927.143.833.53-.092.435-.84-.042-.843zm-12.78.002c-.113-.031-.592.137-.533.3.027.077.134.028.18.004.138-.071.286-.16.354-.304zm.158.108a.261.261 0 0 0-.11.01c-.132.047-.292.156-.354.282.178.085.276-.002.425-.102.04-.027.13-.067.12-.128-.007-.04-.041-.057-.08-.062zm-1.572.058c.029.283.223.525.377.754h.025c-.02-.221-.17-.688-.402-.754Zm1.76.107a.701.701 0 0 0-.204.077.55.55 0 0 0-.141.145c.125.09.47.065.495-.14.01-.087-.066-.098-.15-.082zm-1.499.01c.037.133.1.252.154.378.036.085.069.17.097.259.014.044.173.455.248.227.024-.071-.036-.185-.06-.252-.065-.189-.18-.648-.439-.611zm.352.094c-.033.175.245.843.425.872 0-.309-.098-.758-.425-.872zm1.417.056c-.106.008-.283.154-.309.203.1.048.442.038.384-.158-.011-.036-.04-.048-.075-.045zm-1.11.062c.03.169.246.817.424.777-.05-.269-.072-.758-.424-.777zm1.323.112c-.084-.009-.15.041-.215.124.122.06.207.01.307-.07v-.025a.255.255 0 0 0-.092-.03zm-.969.029.164.66h.236c-.018-.218-.119-.724-.4-.66zm.33.095c.02.08.042.159.074.236.02.047.038.093.056.141.018.05.098.26.174.133.108-.18-.127-.504-.305-.51Zm.803.019c-.041.004-.077.034-.097.1l.236-.026v-.022c-.05-.035-.098-.056-.139-.052zm-.45.074c-.016.083.063.485.206.4.172-.102-.106-.366-.205-.4zm.66.07.142.096zm-.378.048c.02.115.051.216.166.26l.023-.023c-.033-.113-.075-.196-.189-.237Zm.284.096c.03.1.088.114.188.118zm2.071.559a.718.718 0 0 0-.139.002c-.207.045-.005.394.162.342.094-.03.197-.243.106-.32a.337.337 0 0 0-.129-.024zm-.704.458c-.381.045-.457.432-.568.727-.039.105-.285.223-.281.285.018.295.443.242.607.35.087.058.084.181.174.24.072.048.115.02.138-.051-.11-.055-.157-.136-.14-.259h.045c.056.237.177.31.402.211l-.025-.07c-.181.062-.242-.045-.282-.211.412-.14.341-.534.458-.85.03-.083.215-.216.15-.314-.051-.076-.268-.01-.349-.019-.112-.012-.214-.053-.329-.04zm1.04.022c-.17 0-.083.356.068.35.11-.004.334-.2.22-.314-.04-.04-.23-.035-.288-.036zm-.957.05c.109-.004.213.034.27.137.243.448-.153 1.065-.66 1.027a.883.883 0 0 1-.401-.157v-.046c.312-.182.235-.61.497-.845a.494.494 0 0 1 .294-.116zm10.18.085a.264.264 0 0 0-.104.044c-.24.164-.14.505-.379.69.07-.192.053-.773-.25-.421-.175.202.056.573-.222.656l-.023-.447c-.287.069-.358.307-.26.565l-.33.094c.113-.131.242-.497.054-.634-.176-.129-.35.227-.359.352-.007.111.025.221.046.33l-.211.024a.777.777 0 0 0 .12-.565c-.009-.063-.01-.17-.081-.197-.39-.145-.495.536-.441.762l-.566-.118.214-.143v-.023l-.38.081-.376-.128c-.019.123.083.158.188.188v.025l-.565.118c.015-.362-.038-.758-.495-.779-.054.279-.085.538.095.78l-.236-.026c.064-.17.08-.816-.276-.69-.218.078-.069.528.017.643l-.306-.07c.048-.263.043-.516-.26-.589a.614.614 0 0 0-.022.47c-.32-.192.036-.752-.495-.8v.518c-.26-.152-.13-.503-.38-.666-.278-.183-.568.23-.42.476.16.265.552.162.775.331-.193-.02-.322.075-.377.26.228.132.565.228.708-.071l.33.118v.023c-.132.038-.543.326-.313.495.222.163.52-.243.524-.423l.495.093v.023c-.404.04-.563.365-.495.731.402-.003.79-.29.66-.73l.4.024c-.152.206-.303.42-.19.683.029.068.081.182.168.185.083.002.168-.108.215-.166.19-.234.193-.506.02-.75l.589-.132.59.132c-.201.385-.094.675.234.943h.025c.284-.29.21-.612-.047-.895l.4-.048c0 .319.034.581.376.705.071.025.202.075.272.024.07-.05.062-.182.051-.256-.037-.263-.283-.428-.534-.45v-.023l.495-.093c.024.176.299.578.528.423.243-.165-.171-.47-.317-.495v-.023c.09-.021.214-.1.305-.079.212.05.267.208.522.139.357-.098.12-.364-.143-.367.223-.182.59-.061.76-.329.139-.218-.08-.566-.323-.522zm-10.193.066c-.198 0-.225.322-.022.32.203-.004.24-.32.022-.32zm.802.267a1.799 1.799 0 0 0-.03.636c.044.202.159.281.1.495h-.047l-.023-.07-.095.023c.062.207.244.078.283-.07l.094.022c-.03.1-.048.183-.164.189l-.025.095c.195.032.163-.137.294-.207.148-.08.308.057.46-.081.034-.03.08-.078.073-.128-.009-.064-.12-.13-.148-.197-.08-.194-.038-.446-.192-.607-.125-.13-.406-.032-.58-.1zm.29.16a.26.26 0 0 1 .26.08c.084.101.073.275.102.396.03.127.102.223.172.33-.392.127-.945-.143-.75-.636a.293.293 0 0 1 .216-.17zm.064.043c-.173.022-.132.313.046.282.17-.03.129-.303-.046-.282z"/></g></svg>