<svg xmlns="http://www.w3.org/2000/svg" xml:space="preserve" viewBox="0 0 24 24"><path fill="#d5441c" fill-rule="evenodd" stroke="#d5441c" stroke-width=".945" d="M.488.493h23.071v23.061H.488z"/><path fill="#fff" d="M14.248 11.177c-.46-.078-.82-.443-.926-.938-.121-.575.041-1.17.416-1.52.24-.226.416-.294.75-.293.189 0 .287.015.407.062.35.135.576.508.576.948v.107h-1.69v.187c.001.352.117.648.334.85.188.177.298.22.566.22.29.003.461-.07.65-.278.077-.084.144-.136.154-.12.03.05-.142.377-.264.498a1.076 1.076 0 0 1-.572.278.898.898 0 0 1-.402-.001zm.713-1.946c-.04-.377-.174-.595-.4-.656-.362-.098-.677.201-.765.726l-.017.104h1.2zm-7.218 1.852c0-.057.017-.068.131-.085.163-.025.272-.08.318-.16.028-.049.036-.402.036-1.6V7.701l-.26-.008c-.44-.013-.576.097-.825.666-.108.246-.14.298-.19.298-.056 0-.058-.01-.04-.146.011-.08.029-.329.04-.554l.02-.408h1.535c1.209 0 1.534.007 1.534.034 0 .074.055.818.07.942.014.12.01.132-.043.132-.04 0-.07-.03-.1-.104-.108-.265-.269-.57-.35-.662-.137-.156-.267-.202-.568-.203h-.257l.008 1.564.007 1.564.072.071c.049.05.125.082.242.104.15.029.171.04.171.096v.063H7.743Zm2.513 0c.01-.053.034-.068.128-.08.224-.03.212.073.212-1.767V7.605l-.168-.085c-.093-.047-.163-.1-.157-.118.012-.035.713-.265.817-.267l.062-.002v1.779l.168-.156c.198-.183.365-.274.591-.32.358-.074.658.044.795.311.084.163.106.44.107 1.327v.822l.074.058a.308.308 0 0 0 .166.057c.08 0 .093.01.093.07v.069h-1.219v-.066c0-.056.017-.068.118-.081.222-.03.219-.012.21-1.056-.009-.858-.013-.922-.065-1.01-.151-.257-.564-.256-.943.001l-.095.065v1.893l.073.058a.308.308 0 0 0 .166.057c.08 0 .093.01.093.07v.069h-1.239l.013-.066zM20.38 16.27c-.43-.08-.732-.287-.881-.601-.124-.261-.15-.615-.15-2.005l-.001-1.366h-.215c-.208 0-.215-.004-.215-.123 0-.109.028-.136.226-.22.356-.151.887-.526 1.213-.858.266-.269.319-.304.461-.304h.161l.012.549.012.548.441.012.441.012v.384h-.906l.012 1.483.012 1.483.12.119c.146.146.404.156.67.025.185-.092.264-.067.264.085 0 .141-.469.566-.735.665-.24.09-.742.15-.942.112zm-18.92-.23c0-.152.011-.172.1-.172.179 0 .359-.088.41-.198.034-.076.048-.753.048-2.3v-2.194l-.098-.098a.59.59 0 0 0-.28-.128c-.172-.027-.18-.036-.18-.179v-.15h1.678c1.847 0 2.111.026 2.6.256.367.172.597.389.757.715.313.636.166 1.518-.324 1.938-.396.339-.892.482-1.798.518l-.635.026v.74c0 .72.003.743.102.85.117.126.352.203.619.203h.182v.345H1.46Zm2.798-2.458c.227-.068.454-.267.573-.503.133-.263.164-.422.161-.82-.005-.733-.39-1.217-1.022-1.282l-.232-.024v2.678h.178c.098 0 .252-.022.342-.049zm2.662 2.485c0-.133.013-.147.155-.17.288-.047.275.027.275-1.625v-1.5l-.215-.14c-.173-.112-.214-.161-.204-.244.01-.098.065-.12.87-.334.474-.125.934-.228 1.022-.228h.161l.003.612c.003.477.013.59.05.505.413-.96.566-1.118 1.082-1.118.357 0 .365.016.38.7l.012.59h-.266c-.356 0-.894.078-1.096.159l-.165.066v1.131c0 .622.012 1.163.027 1.201.034.087.204.175.414.213.15.027.161.04.161.178v.149H6.92Zm3.87 0c0-.13.016-.149.136-.173.261-.052.252.012.25-1.634l-.001-1.51-.192-.117c-.154-.093-.193-.14-.193-.237v-.12l.871-.227c.48-.125.934-.226 1.01-.225l.14.001v1.954c0 2.162-.013 2.058.281 2.113.136.025.15.041.15.174v.145H10.79v-.145zm2.796-.001c0-.132.013-.149.149-.174.28-.053.28-.054.28-1.664V12.78l-.214-.138c-.17-.108-.215-.162-.215-.251 0-.112.015-.118.87-.342.48-.125.944-.226 1.034-.225l.163.001-.03.387c-.015.213-.02.387-.01.387s.14-.117.287-.26a2.29 2.29 0 0 1 .515-.377c.217-.102.297-.115.698-.115.4 0 .477.013.666.11.268.136.461.41.53.751.032.16.05.753.05 1.637 0 1.536-.008 1.493.28 1.547.136.025.15.042.15.174v.145h-2.451v-.142c0-.13.015-.147.16-.183.26-.065.269-.11.268-1.438 0-1.248-.023-1.462-.168-1.608-.078-.077-.142-.09-.444-.09-.205.001-.395.024-.45.056l-.097.054v1.429c0 .785.015 1.45.033 1.475a.467.467 0 0 0 .297.147c.06 0 .078.033.078.15v.15h-2.429v-.145z"/></svg>