<svg xmlns="http://www.w3.org/2000/svg" xmlns:xlink="http://www.w3.org/1999/xlink" xml:space="preserve" viewBox="0 0 24 24"><defs><linearGradient id="a"><stop offset="0" stop-color="#f89c03"/><stop offset="1" stop-color="#567ac8"/></linearGradient><linearGradient xlink:href="#a" id="b" x1="-1827.061" x2="492.939" y1="694.909" y2="694.909" gradientTransform="translate(18.878 4.534) scale(.01026)" gradientUnits="userSpaceOnUse"/></defs><path fill="url(#b)" d="M.129 17.615h1.149c0-1.528.33-3.057.967-4.447.6-1.311 1.47-2.56 2.563-3.509 1.195-1.038 2.532-1.848 4.05-2.32 3.865-1.2 8.319-.067 11.053 2.955a11.418 11.418 0 0 1 2.162 3.448c.487 1.218.728 2.564.728 3.873h1.135c0-1.665-.347-3.271-.998-4.803-.582-1.367-1.47-2.606-2.518-3.653-3.281-3.282-8.41-4.347-12.725-2.635a12.291 12.291 0 0 0-4.05 2.635c-1.172 1.143-2.076 2.564-2.687 4.077a11.771 11.771 0 0 0-.83 4.379m1.697 0h.972c0-1.312.284-2.624.83-3.818.518-1.13 1.257-2.112 2.152-2.968.717-.685 1.588-1.239 2.49-1.641a9.411 9.411 0 0 1 3.709-.81c2.765-.032 5.479 1.281 7.218 3.422a9.38 9.38 0 0 1 1.524 2.695 9.16 9.16 0 0 1 .548 3.12h.972c0-1.463-.301-2.91-.913-4.242-.577-1.257-1.395-2.325-2.385-3.284-.738-.715-1.638-1.268-2.558-1.714a9.59 9.59 0 0 0-3.188-.902c-1.596-.16-3.195.01-4.707.565-3.967 1.454-6.664 5.366-6.664 9.577m1.697 0h.793c0-1.066.225-2.131.66-3.106.428-.963 1.043-1.78 1.79-2.518.602-.595 1.36-1.078 2.134-1.415 2.985-1.298 6.587-.615 8.796 1.826a8.146 8.146 0 0 1 1.616 2.695c.29.796.425 1.673.425 2.518h.82c0-1.032-.215-2.024-.546-2.997-.287-.84-.775-1.656-1.336-2.34a8.696 8.696 0 0 0-2.824-2.28c-2.159-1.08-4.738-1.177-6.978-.29-1.005.4-1.89 1.001-2.688 1.724-.826.748-1.5 1.726-1.94 2.748a8.67 8.67 0 0 0-.722 3.435m1.696 0h.616c0-.86.186-1.719.536-2.504.334-.75.814-1.392 1.393-1.97a5.76 5.76 0 0 1 1.725-1.162c.825-.365 1.735-.57 2.64-.549 2.483.061 4.815 1.657 5.678 4.01.255.695.397 1.433.397 2.175h.657c0-.831-.153-1.69-.462-2.463-.32-.8-.77-1.543-1.359-2.176-1.89-2.029-4.9-2.716-7.483-1.713-.848.33-1.594.834-2.258 1.452a6.456 6.456 0 0 0-1.495 2.136 6.985 6.985 0 0 0-.585 2.764m1.697 0h.438c0-.646.137-1.3.406-1.889.223-.486.514-.947.894-1.327 1.404-1.406 3.549-1.866 5.363-.983.512.248.954.581 1.355.983.41.411.737.926.952 1.464.223.558.348 1.15.348 1.752h.479c0-.724-.144-1.416-.432-2.08a4.84 4.84 0 0 0-1.21-1.687 5.394 5.394 0 0 0-1.437-.934c-2.053-.879-4.428-.305-5.908 1.348a5 5 0 0 0-.903 1.506 5.086 5.086 0 0 0-.345 1.847z"/></svg>