<svg xmlns="http://www.w3.org/2000/svg" xml:space="preserve" viewBox="0 0 24 24"><path fill="#fffdff" d="m18.837 2.972.02 2.263h.228c.12.01 1.172 0 2.333 0 1.32 0 2.174.03 2.303.1.198.109.198.208.198 9.072 0 8.09-.02 8.974-.158 9.034-.09.03-4.299.06-9.371.06-7.534 0-9.232-.02-9.321-.13-.07-.09-.12-.913-.13-2.313l-.03-2.174-2.431-.03c-1.787-.02-2.442-.06-2.502-.148-.04-.06-.08-4.13-.08-9.024 0-7.028.03-8.904.13-8.944.06-.03 4.318-.05 9.45-.04l9.331.02z"/><path fill="#2e3458" d="M2.448 3.22c-.04.03-.07 2.978-.07 6.552v6.482H3.67c.963 0 1.29-.03 1.29-.13v-5.31c0-3.445.03-5.251.1-5.38.1-.189.238-.199 5.688-.189h5.579l.03-1.042.03-1.053h-6.94c-3.811 0-6.968.03-6.998.07zm16.538 4.656c-.1.05-.13 1.22-.13 5.38 0 2.928-.039 5.39-.079 5.45-.06.099-1.35.129-5.688.148l-5.598.03v2.085h13.897V7.866l-1.141-.02c-.626-.01-1.202.01-1.261.03z"/><path fill="#aadae4" fill-rule="evenodd" stroke="#aadae4" stroke-width=".08" d="M7.5 7.872h8.81v8.234H7.5z"/></svg>