<svg xmlns="http://www.w3.org/2000/svg" xml:space="preserve" viewBox="0 0 24 24"><g transform="translate(223.25 221.516)"><rect width="24.186" height="24.112" x="-223.358" y="-221.468" fill="#b71c1c" fill-rule="evenodd" stroke="#000" stroke-width=".052" ry="0"/><path fill="#fff" d="m-216.992-208.033-1.555-2.687-1.555 2.687-1.112-2.902h-1.867l2.512 6.655 2.022-3.546 2.022 3.546 2.513-6.655h-1.868zm3.644-2.902h1.667v6.41h-1.667zm7.891 2.244c0-1.237-1-2.24-2.237-2.246h-2.822v6.412h1.688v-1.927h.751l1.248 1.927h1.972l-1.577-2.318a2.236 2.236 0 0 0 .977-1.849zm-2.237-.681a.682.682 0 0 1 0 1.36h-1.22v-1.358zm5.04 3.324v-.974h2.845v-1.415h-2.846v-.975h3.03v-1.523h-4.553v6.41h4.65v-1.523zm-20.077-5.32h.215v-.867h.313v-.215h-.842v.215h.314zm.863-.43h.437v.43h.215v-1.075h-.215v.43h-.437v-.43h-.215v1.074h.215zm1.078.43h.537v-.214h-.43v-.214h.43v-.215h-.43v-.215h.43v-.214h-.43v-.002h-.214v1.073h.108z"/></g></svg>