<svg xmlns="http://www.w3.org/2000/svg" xml:space="preserve" viewBox="0 0 24 24"><defs><linearGradient id="a" x1="93.545" x2="18.602" y1="104.292" y2="21.722" gradientTransform="scale(1.04966 .9527)" gradientUnits="userSpaceOnUse"><stop offset="0%" stop-color="#130036"/><stop offset="22.97%" stop-color="#18023B"/><stop offset="51.22%" stop-color="#26094A"/><stop offset="82.11%" stop-color="#3D1563"/><stop offset="100%" stop-color="#4E1D75"/></linearGradient><linearGradient id="b" x1="6.166" x2="34.739" y1="38.339" y2="38.339" gradientTransform="scale(.81742 1.22336)" gradientUnits="userSpaceOnUse"><stop offset="0%" stop-color="#3156A8"/><stop offset="24.74%" stop-color="#3351A4"/><stop offset="53.65%" stop-color="#3B4397"/><stop offset="84.53%" stop-color="#472C82"/><stop offset="100%" stop-color="#4E1D75"/></linearGradient><linearGradient id="d" x1="27.301" x2="69.007" y1="13.621" y2="65.202" gradientTransform="scale(1.19278 .83838)" gradientUnits="userSpaceOnUse"><stop offset="2.02%" stop-color="#48A8E0"/><stop offset="38.83%" stop-color="#2061BD"/><stop offset="49.68%" stop-color="#2B51AC"/><stop offset="78.92%" stop-color="#442C84"/><stop offset="94.09%" stop-color="#4E1D75"/></linearGradient><linearGradient id="e" x1="12.234" x2="135.439" y1="131.417" y2="16.994" gradientTransform="scale(.79148 1.26346)" gradientUnits="userSpaceOnUse"><stop offset="37.87%" stop-color="#3156A8"/><stop offset="100%" stop-color="#4E1D75"/></linearGradient><linearGradient id="f" x1="55.196" x2="117.711" y1="118.271" y2="13.812" gradientTransform="scale(.86253 1.15939)" gradientUnits="userSpaceOnUse"><stop offset="0%" stop-color="#29ABE2"/><stop offset="77.33%" stop-color="#385AA6"/><stop offset="85.75%" stop-color="#414293"/><stop offset="100%" stop-color="#4E1D75"/></linearGradient><linearGradient id="g" x1="26.261" x2="29.51" y1="40.964" y2="42.493" gradientTransform="scale(.9045 1.10559)" gradientUnits="userSpaceOnUse"><stop offset="0%" stop-color="#B0DCD6"/><stop offset="100%" stop-color="#53ACE0"/></linearGradient><linearGradient id="h" x1="40.854" x2="45.837" y1="18.208" y2="37.132" gradientTransform="scale(.97306 1.02768)" gradientUnits="userSpaceOnUse"><stop offset=".74%" stop-color="#1398D1" stop-opacity="0"/><stop offset="24.82%" stop-color="#1187C2" stop-opacity=".62"/><stop offset="64.22%" stop-color="#3F6499" stop-opacity=".71"/><stop offset="100%" stop-color="#2F4282" stop-opacity=".5"/></linearGradient><linearGradient id="i" x1="37.583" x2="34.781" y1="34.329" y2="32.799" gradientTransform="scale(.95318 1.04911)" gradientUnits="userSpaceOnUse"><stop offset="0%" stop-color="#F9C21B"/><stop offset="14.79%" stop-color="#F3BA1B"/><stop offset="37.87%" stop-color="#E3A41B"/><stop offset="66.34%" stop-color="#C9801C"/><stop offset="98.84%" stop-color="#A44E1C"/><stop offset="100%" stop-color="#A34C1C"/></linearGradient><linearGradient id="j" x1="130.82" x2="107.486" y1="49.677" y2="18.142" gradientTransform="scale(.7757 1.28917)" gradientUnits="userSpaceOnUse"><stop offset="0%" stop-color="#409EC3"/><stop offset="62%" stop-color="#2061BD"/></linearGradient><linearGradient id="k" x1="81.894" x2="69.684" y1="53.868" y2="11.475" gradientTransform="scale(1.06215 .94149)" gradientUnits="userSpaceOnUse"><stop offset="0%" stop-color="#14B2DA"/><stop offset="40.28%" stop-color="#297CCC"/><stop offset="50.77%" stop-color="#256FC5"/><stop offset="64.92%" stop-color="#2164BF"/><stop offset="81.62%" stop-color="#2061BD"/><stop offset="98.35%" stop-color="#2061BD"/></linearGradient><radialGradient id="c" cx="38.773" cy="42.032" r="55.952" fx="38.773" fy="42.032" gradientTransform="scale(.74974 1.3338)" gradientUnits="userSpaceOnUse"><stop offset="16.54%" stop-color="#14CDDA"/><stop offset="54.78%" stop-color="#2061BD"/><stop offset="65.46%" stop-color="#2658AC"/><stop offset="86.4%" stop-color="#373F81"/><stop offset="100%" stop-color="#432D62"/></radialGradient></defs><g fill="none" fill-rule="evenodd" transform="matrix(.1886 0 0 .19475 .735 .285)"><path fill="url(#a)" d="M92.952 17.465c-7.136-4.66-16.262-6.17-21.299-6.697-5.39-.563-10.072-.464-14.19.14-.349-.004-.695-.017-1.046-.017-.268 0-.532.011-.801.014.11-.135.187-.219.187-.219s-.216.034-.641.227a76.476 76.476 0 0 0-3.979.158c1.826-2.002 3.322-3.051 3.322-3.051s-1.775.26-5.015 3.196c-1.54.142-3.062.33-4.556.564C48.34 7.173 51.9 5.233 51.9 5.233s-4.316-.879-11.075 5.913a30.15 30.15 0 0 0-1.598 1.758c-19.7 4.766-33.8 17.488-33.8 32.438 0 2.931-.9 6.156.071 9.376-.387 5.144.438 19.18.438 19.18s5.333 28.861 25.84 33.88c.326.077-4.285-7.195-6.324-15.966 3.97 4.039 8.703 7.234 14.014 7.787.652.068-3.034-4.252-6.262-9.465l46.601 15.701c24.373-10.469 21.536-9.525 26.769-15.194 11.529-12.48 13.142-19.56 10.238-40.468-1.964-14.112-12.38-28.09-23.86-32.708Z"/><path fill="#fbfbfb" d="M11.165 30.645 4.206 70.212l3.858 11.956 77.025 25.609L99.374 47.04z"/><path fill="#999" d="M11.381 31.991c.386.832.273 1.028.032 1.028-.108 0-.242-.04-.368-.08-.125-.039-.243-.08-.319-.08-.212 0-.092.316 1.114 1.831 1.707 2.168 26.77 40.004 28.14 40.004a.05.05 0 0 0 .019-.003c11.667-4.157 61.288-21.189 61.288-21.189l-5.078-7.395-84.828-14.116"/><path fill="#f8f8f8" d="M12.109 31.062s.374 1.935 2.107 4.076c1.722 2.161 24.856 37.189 26.017 36.88 15.154-4.023 70.136-25.429 70.136-25.429Z"/><path fill="#999" d="m82.338 106.865-73.2-24.339.258 1.711 73.757 24.523z"/><path fill="url(#b)" d="M28.396 29.425s-26.634 7.8-14.413 34.955c0 0-5.603-5.131-8.94-11.691-.15-.293 5.562-20.584 5.562-20.584Z"/><path fill="url(#c)" d="M13.983 64.38c-2.315-.04-6.037-1.95-7.244-4.264-1.509 25.145 8.75 39.83 25.038 47.661C26.454 107.167 0 93.207 0 59.613 0 31.048 22.667 5.515 58.138 4.346c.217 1.601-17.586 5.617-18.155 7.505-.884 2.939-2.916 6.138-4.629 8.703-2.322 3.474 3.227 6.445-.85 7.382-6.136 1.408-14.32.628-20.354 8.473-9.072 11.792-3.019 25.283-.167 27.971z"/><path fill="url(#prefix__linearGradient21707)" d="M45.77.621C22.798-1.142 10.975 8.051 3.385 18.74.621 22.63.923 26.203 1.875 30.519c.409 1.842.822 2.725.325 4.603-.275 1.037-.23 2.004-.57 2.616-.472.845-1.074 1.768-1.275 3.285-.503 3.789.838 4.995 1.677 6.27 1.194-1.186 3.526-3.976 7.73-5.642 4.205-1.667 6.972-4.172 12.242-6.86 7.2-3.673 15.64 1.899 31.642-3.345 4.924-1.614 16.24-18.377 18.927-19.021C65.092 4.152 52.365 1.127 45.77.62Z" transform="translate(21.671 4.644)"/><path fill="#3f6499" d="M52.265.015s-4.102 1.982-5.888 5.561c4.125-2.078 6.519-3.215 7.65-3.35 0 0-1.084.525-2.429 3.38 2.377-.76 3.195-1.24 3.848-1.248 0 0-.19.3-.363 3.15-3.65-1.182-10.675.195-14.412 2.536C39.404 3.286 52.265.015 52.265.015Z"/><path fill="url(#d)" d="M68.589 4.247c-7.042-.913-12.928-.733-17.933.231 1.574-1.508 3.395-2.251 3.395-2.251-2.36.208-5.305 1.749-7.833 3.38a35.378 35.378 0 0 0-3.636 1.377c.703-.928 1.522-1.92 2.322-2.68C47.876 1.478 52.29.015 52.29.015c-3.766-.276-16.371 2.95-23.956 18.313a82.937 82.937 0 0 0-3.509 4.625c-2.853 4.018-2.54 7.706-1.556 12.162.42 1.903.497 4.941.083 6.904-.083.393-1.163 1.409-1.44 4.147-.296 2.905.74 4.333 1.763 5.513 3.632-5.311 7.215-6.364 7.215-6.364 5.084-2.083 7.2-4.307 12.641-7.083 7.435-3.793 33.434 8.587 49.955 3.173 5.084-1.665-1.957-23.306.818-23.97C86.578 8.894 75.36 5.125 68.59 4.247Z"/><path fill="url(#e)" d="M120.159 50.828c-4.073-21.276-23.668-40.633-39.425-41.706-6.994-.476-4.846 3.11-9.222 4.475-18.858 5.885-19.146 9.32-19.146 9.32 39.984 1.88 40.59 41.368 29.882 51.359 3.013-.703 6.28-4.387 9.281-10.17-.36 2.426-.67 5.403-1.12 8.724-1.37 10.134.406 31.305-28.716 45.472 0 0 15.93-1.302 23.83-10.194-3.213 7.387-12.027 11.378-12.027 11.378 6.487-.95 23.527-5.978 34.382-19.552 12.285-15.366 15.98-29.781 12.281-49.106z"/><path fill="url(#f)" d="M81.193 89.67s12.99-3.63 17.175-10.645c-.508 8.178-7.926 16.565-7.926 16.565s10.845-2.195 15.469-9.826c-.602 6.887-8.952 16.194-8.952 16.194 8.536-1.532 29.984-15.08 23.2-51.13C116.15 29.537 96.49 10.193 80.731 9.12c-6.993-.476-4.846 3.11-9.222 4.475-18.856 5.886-19.144 9.321-19.144 9.321 39.984 1.88 50.61 22.806 29.882 50.8 3.013-.703 4.222-2.36 6.485-5.069 0 0 1.026 10.718-7.54 21.023z"/><path fill="url(#g)" d="M29.826 42.107s-2.322 1.625-4.004 1.21c-1.99-.488-2.327-2.416-2.327-2.416-.044.394-.095.776-.168 1.118-.083.393-1.163 1.409-1.44 4.147-.296 2.905.795 4.589 1.817 5.769 3.633-5.311 7.161-6.62 7.161-6.62-1.383-.483-1.04-3.208-1.04-3.208z"/><g opacity=".6"><path fill="url(#prefix__linearGradient21711)" d="M.745.557c.544-.14 2.767.1 4.225.755 1.458.654 3.972 1.81 1.96 2.313-2.01.503-3.168-.302-4.173-1.156C1.75 1.615-.613.909.745.557Z" opacity=".2" transform="translate(79.719 8.514)"/></g><path fill="url(#h)" d="M30.043 41.79S42.783 20.796 54.3 15.13c1.07-.538-15.946 4.523-22.794 12.081-4.07 4.492-1.916 13.288-1.463 14.579z"/><path fill="#f2f2f2" d="m30.043 41.79.037-.023c3.294-2.035 8.94-3.207 10.76-6.897C47.844 20.664 54.3 15.13 54.3 15.13c-11.517 5.665-24.257 26.66-24.257 26.66Z" opacity=".1"/><path fill="#2f4282" d="M31.255 37.95s-2.296-3.522 1.01-6.735c1.744-1.693 4.389-.752 4.694-.448 1.301 1.29.483 4.014-.688 5.555-.661.867-2.588 2.219-5.016 1.628z"/><path fill="url(#i)" d="M32.57 37.731s-1.586-2.436.7-4.655c1.203-1.169 3.032-.519 3.244-.31.898.892.332 2.774-.476 3.838-.457.602-1.789 1.536-3.468 1.127z"/><path fill="#000" d="M35.738 35.133a1.774 1.774 0 0 1-1.84 1.7 1.768 1.768 0 0 1-1.716-1.823 1.772 1.772 0 0 1 1.842-1.7 1.77 1.77 0 0 1 1.714 1.823z"/><circle cx="32.835" cy="34.588" r="1" fill="#fff"/><path fill="url(#j)" d="M112.447 31.991c-8.72-13.275-15.63-16.648-15.63-16.648s.318 9.67 5.16 14.334c.553.533-5.794-4.15-5.794-4.15s-1.358 4.467 1.753 9.602c-.903-1.2-1.502-1.655-1.502-1.655s-5.86 2.702-7.59 6.451c-.892-1.685-1.562-2.68-1.562-2.68s-4.054 8.09-3.544 17.468c.83 15.249-2.856 20.867-2.856 20.867s9.87-3.787 14.604-15.978c1.955 5.183-.06 10.639-.06 10.639s7.975-5.959 9.69-16.82c1.901 3.066 1.342 9.185 1.342 9.185s5.09-7.087 5.214-14.806c2.36 1.645 2.577 8.07 2.577 8.07s7.547-9.648-1.802-23.879z"/><path fill="url(#k)" d="M103.971 22.715c-2.279-4.247-6.3-6.954-9.834-9.144-8.814-5.465-14.481-6.232-14.481-6.232s-8.133 1.512-6.737 3.775c.072.116.24.263.477.432-7.135-3.286-11.182 4.27-11.182 4.27-4.076-.248-9.04 1.76-10.488 7.135-.15.558 1.826.244 2.843.466 5.944 1.292 11.54 4.094 14.11 5.478 5.982 3.222 9.53 8.588 11.58 12.612 2.478 4.87 3.49 13.436 3.49 13.436s6.522-8.958 4.964-13.558c2.582 1.604 3.092 7.328 3.092 7.328s4.348-6.81 3.063-12.741c3.354 2.044 3.466 6.2 3.466 6.2s3.415-4.738 1.871-12.512c3.375 2.683 4.081 6.16 4.081 6.16s2.758-7.38-.315-13.105z"/></g></svg>