<svg xmlns="http://www.w3.org/2000/svg" viewBox="0 0 24 24"><title>UCO Bank</title><g opacity=".975"><path fill="#fff" d="M-1.794-113.823c-11.776 0-21.352 10.166-21.352 22.666V54.435c0 12.493 9.576 22.665 21.352 22.665h246.327c11.816 0 21.424-10.172 21.424-22.665v-145.59c0-12.505-9.608-22.668-21.42-22.668zM244.533 82.29H-1.794c-14.624 0-26.534-12.493-26.534-27.854v-145.59c0-15.354 11.91-27.86 26.534-27.86h246.327c14.68 0 26.614 12.506 26.614 27.86v145.59c0 15.361-11.934 27.854-26.61 27.854"/><path fill="#04a" fill-rule="evenodd" d="M-43.731 8.158s-.07-.071-.141-.071v.141c.07 0 .141 0 .141-.07m7.851 0s-.071-.071-.142-.071v.141c.07 0 .142 0 .142-.07m.567 0v-.071c-.07 0-.07.07-.07.07 0 .071 0 .071.07.071v-.07m23.693 0s0-.071-.07-.071l-.071.07c0 .071.07.071.07.071.071 0 .071 0 .071-.07"/><g clip-path="url(#b)" transform="matrix(.9822 0 0 -.9822 -274.513 648.144)"><path fill="none" stroke="#fff" stroke-miterlimit="2.613" stroke-width=".154" d="m299.752 635.505 4.035 4.039v16.136l-4.058 4.147h-15.945l-4.064-4.175v-16.136l4.006-4.011h16.026z"/></g><path fill-rule="evenodd" d="M19.883 19.93h-3.885v-4.373l3.313-3.458-6.77-7.354V6.6l4.307 5.045-4.277 4.394v7.909h7.334l3.963-3.968V4.13L19.883.059H4.22L.23 4.16v15.849l3.935 3.94h7.394l-.002-7.91-4.277-4.393L11.586 6.6V4.745L4.816 12.1l3.312 3.458v4.373H4.242V4.076h15.613l.028 15.854zM9.02 11.379a3.03 3.03 0 0 1 3.029-3.033 3.03 3.03 0 0 1 3.029 3.033 3.03 3.03 0 0 1-3.03 3.033 3.031 3.031 0 0 1-3.028-3.033"/><g fill="#04a" clip-path="url(#c)" transform="matrix(.9822 0 0 -.9822 -274.513 648.144)"><path fill="#fff" fill-rule="evenodd" d="m299.752 635.505 4.035 4.04v16.136l-4.058 4.146h-15.945l-4.064-4.175v-16.136l4.006-4.011h16.026" opacity=".975"/><path stroke="#000" stroke-miterlimit="2.613" stroke-width=".154" d="M299.729 639.595h-3.955v4.452l3.373 3.521-6.893 7.487v-1.888l4.385-5.137-4.354-4.473v-8.052h7.467l4.035 4.039v16.136l-4.058 4.147h-15.945l-4.064-4.175v-16.136l4.006-4.011h7.527l-.002 8.052-4.354 4.473 4.385 5.137v1.888l-6.893-7.487 3.372-3.521v-4.452h-3.956v16.142h15.896l.028-16.142zm-11.06 8.706a3.085 3.085 0 1 0 6.168 0 3.086 3.086 0 0 0-3.084-3.088 3.086 3.086 0 0 0-3.084 3.088z"/></g></g></svg>