<svg xmlns="http://www.w3.org/2000/svg" viewBox="0 0 24 24"><title>Union Bank Of India</title><g opacity=".975"><path fill="#ed1d24" d="M14.057 7.318c-.275.944-.197.59-.604 2.138-.368 1.47-.75 2.927-1.04 3.897a3.217 3.217 0 0 1-.34.552 4.598 4.598 0 0 1-.592.643c-1.25 1.09-3.117 1.734-4.732 1.484a2.894 2.894 0 0 1-.473-.092c-1.014-.237-1.684-.737-2.065-1.364-.408-.67-.513-1.55-.369-2.495a3.73 3.73 0 0 1 .104-.499c.619-2.494 1.25-4.973 1.869-7.453.25-1.26-2.407-1.589-2.972.051l-1.71 6.72c-.037.21-.09.472-.131.747-.25 1.6-.013 3.125.724 4.385.775 1.298 2.051 2.27 3.878 2.702.197.053.434.092.71.132 2.431.367 5.231-.552 7.06-2.165.367-.33.71-.684.999-1.063a6.82 6.82 0 0 0 .737-1.261v-.013l.052-.144c.289-.946.684-2.493 1.09-4.055.381-1.483.526-1.995.815-2.966.277-1.325-2.3-1.89-3.01.12" opacity=".975"/><path fill="#006cb7" d="M9.55 11.897c.286-.93.21-.578.603-2.138.383-1.457.763-2.928 1.037-3.886a2.97 2.97 0 0 1 .355-.55 3.95 3.95 0 0 1 .592-.642c1.25-1.103 3.13-1.734 4.733-1.497.132.026.29.051.473.092 1.013.25 1.697.735 2.079 1.378.393.67.513 1.536.367 2.492-.027.132-.051.29-.105.5-.658 2.624-1.315 5.235-1.958 7.86-.173 1.562 2.589 1.72 2.983-.04l1.775-7.138a8.3 8.3 0 0 0 .145-.76c.236-1.59.013-3.11-.737-4.37-.76-1.3-2.037-2.272-3.864-2.704-.198-.04-.436-.093-.724-.132-2.43-.367-5.23.564-7.06 2.166a6.927 6.927 0 0 0-1 1.062 5.634 5.634 0 0 0-.721 1.26l-.067.158c-.275.932-.683 2.494-1.078 4.042-.394 1.496-.525 2.008-.815 2.965-.026 1.799 2.668 1.641 2.987-.117" opacity=".975"/><path fill="#ed1d24" d="M17.012 23.058a.307.307 0 0 0-.13.03.312.312 0 0 0-.114.085l.02-.098h-.147l-.146.696-.003.02h.153l.087-.417a.223.223 0 0 1 .075-.136.211.211 0 0 1 .147-.052c.042 0 .072.013.091.036.016.022.02.055.01.1l-.098.469h.154l.094-.456c.023-.1.02-.175-.013-.215-.03-.042-.088-.062-.18-.062m.845.371a.446.446 0 0 1-.089.19.221.221 0 0 1-.156.064c-.058 0-.1-.023-.126-.065-.024-.042-.027-.104-.01-.179a.38.38 0 0 1 .087-.188.234.234 0 0 1 .101-.059c.017-.003.033-.006.053-.006.061 0 .104.02.13.061.023.042.026.101.01.182m.273-.614h-.147l-.074.347a.215.215 0 0 0-.078-.084.276.276 0 0 0-.12-.026c-.017 0-.03 0-.047.004a.342.342 0 0 0-.199.1.535.535 0 0 0-.143.28c-.026.114-.016.205.026.277a.224.224 0 0 0 .202.104.31.31 0 0 0 .114-.024c.007-.002.01-.002.013-.006a.415.415 0 0 0 .12-.087l-.019.09h.147l.192-.92zm-2.372-.013a.244.244 0 0 0-.15.045.246.246 0 0 0-.074.14l-.017.088h-.11l-.024.114h.108l-.127.602h.153l.128-.602h.123l.026-.114h-.127l.013-.055c.007-.033.016-.06.029-.068.014-.014.033-.017.063-.017h.02l.032.003.025-.13h-.006c-.039-.003-.068-.006-.085-.006m.743.013h-.166l-.206.975h.164l.202-.956zm1.965 0h-.153l-.033.153h.153zm.45.709a.188.188 0 0 1-.081.12.316.316 0 0 1-.073.039.312.312 0 0 1-.078.01.125.125 0 0 1-.081-.026c-.016-.02-.02-.045-.013-.078a.137.137 0 0 1 .039-.072.222.222 0 0 1 .088-.036c.01 0 .026-.003.045-.006l.013-.004a.593.593 0 0 0 .16-.038zm-.04-.472a.414.414 0 0 0-.114.013.338.338 0 0 0-.114.049.257.257 0 0 0-.113.169l-.004.013h.144v-.006a.14.14 0 0 1 .055-.085c.01-.006.02-.01.033-.016a.28.28 0 0 1 .081-.013.19.19 0 0 1 .108.026c.019.016.025.042.019.075-.01.042-.064.071-.163.084h-.016c-.01.004-.02.004-.03.007a.51.51 0 0 0-.224.071.254.254 0 0 0-.101.163c-.013.068-.004.12.029.156.033.04.085.059.156.059.05 0 .095-.01.14-.033a.362.362 0 0 0 .124-.088c-.006.039 0 .065.02.082.016.02.049.029.094.029.014 0 .027-.003.04-.003l.042-.01.023-.111c-.01.004-.017.004-.02.004h-.01c-.015 0-.026-.004-.032-.014-.003-.009-.003-.026.004-.055l.074-.354c.013-.068 0-.124-.039-.16-.042-.035-.11-.052-.205-.052m-3.799.557a.258.258 0 0 1-.163.104c-.017 0-.033.003-.05.003-.061 0-.11-.016-.143-.052-.035-.033-.052-.082-.052-.147a.453.453 0 0 1 .023-.143.465.465 0 0 1 .062-.127.253.253 0 0 1 .088-.078c.022-.009.046-.02.071-.023.013-.003.03-.003.043-.003.068 0 .117.017.153.05.033.032.05.08.05.142a.435.435 0 0 1-.082.274m-.105-.576c-.02 0-.04 0-.059.003a.41.41 0 0 0-.26.13.48.48 0 0 0-.124.342c0 .1.03.179.085.234.058.055.14.081.247.081h.052a.405.405 0 0 0 .265-.133.47.47 0 0 0 .127-.339.32.32 0 0 0-.091-.234.343.343 0 0 0-.242-.084m3.144.702-.009.056h.153l.15-.716h-.154zm1.265-2.761h-.534l-.515.475.202-.966h-.447l-.394 1.874h.446l.078-.375.206-.172.202.553h.501l-.339-.862zm-3.946.891a.275.275 0 0 1-.107.172.337.337 0 0 1-.206.069.142.142 0 0 1-.11-.046c-.024-.03-.03-.071-.02-.12a.162.162 0 0 1 .051-.094.387.387 0 0 1 .128-.059c.017-.003.036-.006.055-.013l.05-.01a.836.836 0 0 0 .195-.058zm.498-.745a.316.316 0 0 0-.169-.136.89.89 0 0 0-.303-.042 1.36 1.36 0 0 0-.235.019.729.729 0 0 0-.247.094.652.652 0 0 0-.267.348h.416a.218.218 0 0 1 .098-.117.316.316 0 0 1 .16-.039c.059 0 .1.01.127.033.026.019.036.049.026.09l-.006.033c-.01.049-.095.085-.258.11a.2.2 0 0 1-.049.008c-.084.016-.16.029-.218.042a.655.655 0 0 0-.31.152.533.533 0 0 0-.15.277c-.025.127-.006.224.056.3.062.07.16.107.293.107a.629.629 0 0 0 .245-.046.867.867 0 0 0 .234-.14l-.006.075v.069h.463l.009-.053c-.02-.012-.032-.036-.036-.072a.508.508 0 0 1 .014-.146l.11-.527a1.41 1.41 0 0 0 .04-.286.32.32 0 0 0-.037-.153m.74.495a.54.54 0 0 1 .107-.254.243.243 0 0 1 .19-.078c.074 0 .12.023.137.068.019.042.009.146-.023.31l-.147.696h.453l.189-.902c.039-.182.03-.312-.026-.393-.056-.082-.166-.12-.326-.12a.561.561 0 0 0-.258.055.63.63 0 0 0-.211.165l.042-.188h-.443l-.29 1.383h.45zm-5.102-.673a.564.564 0 0 0-.257.055.618.618 0 0 0-.21.165l.04-.188h-.443l-.29 1.383h.45l.156-.742a.54.54 0 0 1 .107-.254.25.25 0 0 1 .192-.078c.072 0 .118.023.134.068.02.042.01.146-.023.31l-.147.696h.453l.19-.902c.039-.182.028-.312-.027-.393-.055-.082-.163-.12-.325-.12m-3.112-.46-.078.365h.452l.076-.364zm-.864.46a.567.567 0 0 0-.257.055.622.622 0 0 0-.209.165l.04-.188h-.444l-.23 1.106-.06.277h.45l.156-.742a.63.63 0 0 1 .108-.254.25.25 0 0 1 .192-.078c.072 0 .117.023.137.068.016.042.01.146-.026.31l-.147.696h.453l.19-.902c.038-.182.029-.312-.027-.393-.055-.082-.163-.12-.326-.12m.47 1.415h.45l.289-1.383h-.45zm1.84-.693a.612.612 0 0 1-.133.289.288.288 0 0 1-.137.091.352.352 0 0 1-.085.01c-.084 0-.143-.033-.175-.101-.033-.068-.036-.163-.01-.29a.596.596 0 0 1 .13-.289.294.294 0 0 1 .14-.091.353.353 0 0 1 .082-.01c.084 0 .146.033.179.101.032.068.036.166.01.29m-.118-.739a1.143 1.143 0 0 0-.153.01.83.83 0 0 0-.427.185.934.934 0 0 0-.31.544c-.048.23-.022.413.082.542.101.131.268.196.499.196a.879.879 0 0 0 .58-.196c.16-.13.26-.311.31-.542.048-.231.022-.413-.082-.544-.101-.13-.268-.195-.5-.195m-3.238-.442h-.475l-.247 1.171a.494.494 0 0 1-.131.273c-.059.055-.143.081-.254.081-.114 0-.19-.026-.225-.081-.04-.056-.043-.146-.016-.273l.244-1.171h-.47l-.234 1.112a1.18 1.18 0 0 0-.033.374.43.43 0 0 0 .105.237.55.55 0 0 0 .224.15.956.956 0 0 0 .323.052c.124 0 .238-.02.342-.051a.985.985 0 0 0 .29-.15.735.735 0 0 0 .199-.238c.052-.09.094-.218.127-.374l.176-.835zm7.488.552a.219.219 0 0 1-.088.137.354.354 0 0 1-.192.043h-.385l.075-.355h.405c.071 0 .126.016.156.046.032.03.042.072.03.13m-.112.738a.241.241 0 0 1-.104.163.328.328 0 0 1-.114.035.787.787 0 0 1-.137.01h-.361l.088-.413h.41c.084 0 .146.02.182.052.04.036.05.085.036.153m.05-1.291h-.91l-.394 1.874h.733c.124 0 .221-.004.303-.01.033-.004.059-.007.085-.013a.714.714 0 0 0 .472-.264.7.7 0 0 0 .13-.286.373.373 0 0 0-.03-.27c-.041-.072-.113-.12-.218-.15a.586.586 0 0 0 .245-.152.514.514 0 0 0 .12-.247c.037-.164.01-.284-.077-.362-.089-.08-.241-.12-.46-.12"/><path fill="#fff" fill-rule="evenodd" d="M58.176 79.777c.213 0 .388.183.388.392a.39.39 0 0 1-.388.387.4.4 0 0 1-.395-.387c0-.215.18-.394.395-.392m-1.817.204a.45.45 0 0 1 .445.444.44.44 0 0 1-.445.431.433.433 0 0 1-.441-.436.438.438 0 0 1 .44-.439m-.393-.935c.236 0 .441.188.439.439a.443.443 0 0 1-.446.432.434.434 0 0 1-.438-.436c0-.247.194-.435.445-.435m1.128.17c.275 0 .503.224.503.491a.513.513 0 0 1-.507.502.5.5 0 0 1-.496-.502.49.49 0 0 1 .5-.49m-.392-.15a.453.453 0 0 1-.443-.443.438.438 0 0 1 .443-.437.438.438 0 0 1 .447.437.451.451 0 0 1-.447.443m1.382-.367a.438.438 0 0 1 .445.439.445.445 0 0 1-.445.438.439.439 0 0 1 0-.877m-.98 2.296H57.1a.415.415 0 0 1 .189-.51v-.016a.423.423 0 0 1 .201-.045.37.37 0 0 1 .121.014.431.431 0 0 1 .335.417.425.425 0 0 1-.435.426h-.04c.012.05.023.09.023.153a.433.433 0 0 1-.435.422.443.443 0 0 1-.354-.176.375.375 0 0 1-.081-.246c0-.078.016-.153.047-.21h.008a.438.438 0 0 1 .38-.229z"/></g></svg>