<svg xmlns="http://www.w3.org/2000/svg" xml:space="preserve" viewBox="0 0 24 24"><defs><clipPath id="a"><path fill="#fff" d="M0 11.995h78V47.99H0z"/></clipPath></defs><g fill="#fff" clip-path="url(#a)" transform="translate(.153 -5.107) scale(.7297)"><path d="M25.918 26.578a4.08 4.08 0 0 1-4.177-4.163c0-2.325 1.737-4.293 4.174-4.298 2.434 0 4.06 1.97 4.06 4.297s-1.62 4.164-4.055 4.164h-.003zm.313-10.796c-2.15 0-3.572.787-4.509 1.982v-1.719h-2.608V33.91h2.608v-6.985c.937 1.182 2.359 1.984 4.509 1.984 3.595 0 6.35-2.626 6.35-6.505 0-3.88-2.755-6.622-6.35-6.622z"/><path fill-rule="evenodd" d="M5.703 22.801a8.252 8.252 0 0 0 2.608-3.013v3.358c0 2.09 1.145 3.298 3.082 3.298 1.937 0 3.558-1.206 3.558-3.298v-7.095h2.613V28.66h-2.623v-1.593c-.422.645-1.619 1.85-3.95 1.85-3.451 0-5.28-2.155-5.28-5.216l-.005-.902Z" clip-rule="evenodd"/><path d="M0 21.714v2.53a8.364 8.364 0 0 0 5.869-2.406 8.13 8.13 0 0 0 2.434-5.798H5.745a5.647 5.647 0 0 1-1.684 4.008 5.786 5.786 0 0 1-4.064 1.666z"/></g></svg>