<svg xmlns="http://www.w3.org/2000/svg" xml:space="preserve" viewBox="0 0 24 24"><defs><clipPath id="a"><path fill="#f39293" d="M7 7h120v38H7z"/></clipPath></defs><g fill="#f39293" clip-path="url(#a)" color="#f39293" transform="translate(-2.987 -1.433) scale(.54677)"><path d="M31.7 24.9v3.7h14.7c.9 0 1.6-.7 1.6-1.6V14.8c0-.5-.2-.9-.6-1.2L38 7.4c-.5-.4-1.3-.5-1.9-.1l-9.4 6.4c-.4.3-.6.8-.6 1.3v20.3H10.9v-9l7.3-4.6 5.8 3.9v-4.5l-5-3.4c-.6-.4-1.4-.4-1.9.1L7.8 24c-.4.3-.6.8-.6 1.2v12.1c0 .9.7 1.6 1.6 1.6h19.1c1 0 1.8-.8 1.8-1.8v-21l7.3-4.9 7.3 4.6v9H31.7Z"/></g></svg>