<svg xmlns="http://www.w3.org/2000/svg" xml:space="preserve" viewBox="0 0 24 24"><path fill="#2db3ab" fill-rule="evenodd" d="M0 0h24v24H0z"/><path fill="#f9fdfd" d="M8.627 14.542h.016l.173-.833.32-1.535 1.092-5.291h1.747c.386 0 .74-.031 1.062.223.28.221.324.53.392.854.074.36.15.719.222 1.078.238 1.185.452 2.376.689 3.56.087.436.17.873.255 1.307.042.213.114.437.124.654h.016c.081-.63.282-1.26.427-1.878.268-1.15.529-2.308.778-3.463.08-.37.159-.743.25-1.11.09-.363.21-.73.521-.966.36-.273.763-.26 1.193-.26h1.567l-.254.948-.438 1.567-1.837 6.648-.557 1.976h-2.94l-.34-1.617-.924-4.426-.291-1.374-.095-.488h-.032c-.01.228-.1.464-.15.686-.097.451-.2.904-.3 1.356a749.255 749.255 0 0 1-.86 3.887c-.109.49-.21.981-.325 1.47-.028.116-.019.414-.122.49-.05.037-.16.016-.22.016H7.06l-.228-.833-.565-2.058-1.56-5.732-.43-1.552-.254-.963H5.59c.3 0 .635-.019.898.156.273.182.493.427.598.742.057.172.074.362.119.539.083.336.162.673.23 1.012.163.806.38 1.6.561 2.401.212.936.409 1.877.631 2.81z"/></svg>