<svg xmlns="http://www.w3.org/2000/svg" xml:space="preserve" viewBox="0 0 24 24"><g fill="#767676"><path d="M11.874.98c2.212 0 4.366.66 6.19 1.895a11.109 11.109 0 0 1 4.012 4.871 11.028 11.028 0 0 1-1.024 10.485 11.109 11.109 0 0 1-4.871 4.012 11.028 11.028 0 0 1-10.484-1.024 11.109 11.109 0 0 1-4.013-4.87A11.028 11.028 0 0 1 2.71 5.863 11.109 11.109 0 0 1 7.581 1.85a10.988 10.988 0 0 1 4.294-.87zm0-.705C5.38.275.107 5.546.107 12.04S5.38 23.808 11.874 23.808c6.496 0 11.767-5.272 11.767-11.767C23.641 5.546 18.37.275 11.874.275z"/><path d="M2.073 12.04a9.797 9.797 0 0 0 5.53 8.826L2.92 8.052a9.716 9.716 0 0 0-.847 3.989Zm16.426-.494c0-1.211-.435-2.047-.811-2.706-.377-.659-.965-1.494-.965-2.294s.683-1.742 1.647-1.742h.13c-3.99-3.66-10.19-3.388-13.85.612-.353.388-.682.8-.965 1.235h.636c1.023 0 2.612-.129 2.612-.129.53-.034.588.741.058.812 0 0-.529.06-1.117.094L9.44 18.053l2.142-6.436-1.53-4.189a22.467 22.467 0 0 1-1.023-.094c-.53-.035-.471-.835.058-.812 0 0 1.624.13 2.577.13.953 0 2.613-.13 2.613-.13.529-.034.588.741.058.812 0 0-.53.06-1.117.094l3.54 10.543 1.013-3.2c.447-1.4.718-2.389.718-3.236zm-6.46 1.343L9.1 21.443a9.851 9.851 0 0 0 6.024-.154l-.07-.129zm8.438-5.555c.046.33.07.671.07 1.012 0 1-.188 2.118-.741 3.506l-3.001 8.66c4.589-2.67 6.225-8.518 3.671-13.178z"/></g></svg>