<svg xmlns="http://www.w3.org/2000/svg" xmlns:xlink="http://www.w3.org/1999/xlink" viewBox="0 0 24 24"><title>Yes Bank</title><g transform="matrix(1.37493 0 0 1.10111 -415.413 618.283)"><use xlink:href="#a" width="100%" height="100%" x="275.69" y="670.252" fill="#211e1e" transform="translate(-82.19 -83.588) scale(.35278)"/><use xlink:href="#b" width="100%" height="100%" x="234.171" y="683.252" fill="#211e1e" transform="translate(-82.19 -83.588) scale(.35278)"/><use xlink:href="#c" width="100%" height="100%" x="164.616" y="442.901" fill="#4c4a4c" transform="translate(-155.907 -116.753) scale(.35278)"/><use xlink:href="#c" width="100%" height="100%" x="417.752" y="445.901" fill="#26429e" transform="translate(-155.907 -116.753) scale(.35278)"/><use xlink:href="#d" width="100%" height="100%" x="556.612" y="476.901" fill="#4c4a4c" transform="translate(-155.907 -116.753) scale(.35278)"/><use xlink:href="#c" width="100%" height="100%" x="462.563" y="507.901" fill="#26429e" transform="translate(-155.907 -116.753) scale(.35278)"/><use xlink:href="#c" width="100%" height="100%" x="423.242" y="551.901" fill="#4c4a4c" transform="translate(-155.907 -116.753) scale(.35278)"/><use xlink:href="#c" width="100%" height="100%" x="418.252" y="582.901" fill="#4c4a4c" transform="translate(-155.907 -116.753) scale(.35278)"/><use xlink:href="#d" width="100%" height="100%" x="477.193" y="613.901" fill="#4c4a4c" transform="translate(-155.907 -116.753) scale(.35278)"/><use xlink:href="#e" width="100%" height="100%" x="264.196" y="64.52" fill="#232830" transform="translate(-232.63 -148.208) scale(.35278)"/><use xlink:href="#f" width="100%" height="100%" x="442.279" y="578.78" fill="#512685" transform="translate(29.168 -302.46) scale(.35278)"/><use xlink:href="#g" width="100%" height="100%" x="211.224" y="218.392" transform="translate(166.863 -419.388) scale(.35278)"/><g fill-rule="evenodd"><path fill="#fff" d="m318.356-561.214-11.813 21.43-4.054-4.102h2.795zm0 0"/><path fill="#d71c23" d="m316.879-558.913-10.416 18.519-3.078-3.116h2.085zm0 0"/></g></g></svg>