<svg xmlns="http://www.w3.org/2000/svg" xml:space="preserve" viewBox="0 0 24 24"><g fill="red"><path fill="#fff" fill-rule="evenodd" d="M3.716 2.841h17.01v18.042H3.716z"/><path d="m.068 11.816-.13 12.14 12.727.127c10.893-.07 11.256-.025 11.256-.025-.013.022.07-.497.065-12.339L23.956.11 11.712.067-.058.109zm20.433-8.278c.05.035.048 13.305-.002 13.347-.027.021-.484.032-1.542.035l-1.506.008-.008 1.502c-.002 1.055-.013 1.512-.034 1.539-.042.05-13.34.052-13.374 0-.024-.035-.045-13.178-.022-13.313.011-.063.331-.396 1.535-1.597.838-.834 1.547-1.523 1.582-1.534.084-.023 13.332-.013 13.371.013z"/><path d="M8.047 5.08c-.049.019-.049.099-.049 5.474v5.452h10.957l-.005-5.47-.008-5.47-5.422-.003c-2.983 0-5.445.007-5.473.018zm7.662 2.318c.26.034.405.083.58.194.379.247.577.698.577 1.315 0 .24-.007.29-.04.304-.024.007-.22.015-.436.015a4.13 4.13 0 0 1-.436-.015c-.034-.013-.041-.06-.041-.227 0-.4-.098-.598-.328-.663a.396.396 0 0 0-.25.003c-.224.057-.302.175-.317.49a.89.89 0 0 0 .041.381c.098.304.222.451 1 1.191.606.575.83 1.044.83 1.74 0 .364-.053.62-.185.885-.157.314-.381.505-.745.629-.227.077-.866.082-1.065.01-.474-.178-.698-.41-.85-.892-.05-.15-.086-.789-.055-.915l.016-.065.459.006.456.007.016.335c.01.245.025.359.059.426.09.18.304.26.544.206.152-.033.211-.08.273-.219.067-.144.067-.518 0-.73-.095-.294-.155-.368-.815-1.023-.678-.67-.807-.853-.94-1.328a2.357 2.357 0 0 1 .005-1.121c.157-.536.541-.866 1.09-.939.258-.03.315-.03.557 0zm-4.553.137c.02.03.057.116.075.186.113.4.188.665.237.822.02.07.052.18.067.245a.402.402 0 0 0 .05.14.127.127 0 0 1 .022.071c0 .024.016.096.036.155.021.062.057.18.08.266a.733.733 0 0 0 .067.175c.01.013.036-.044.06-.13l.183-.626c.018-.064.051-.185.077-.27a5.99 5.99 0 0 1 .064-.22 6.48 6.48 0 0 0 .078-.27c.03-.113.067-.23.077-.258a.688.688 0 0 0 .039-.142.565.565 0 0 1 .054-.15c.039-.056.044-.056.495-.05.425.007.456.01.464.056.01.044-.34 1.152-.423 1.348a.39.39 0 0 0-.036.132c0 .03-.01.06-.023.067-.013.008-.031.06-.041.11a.49.49 0 0 1-.036.124c-.01.013-.044.114-.078.22-.033.105-.075.226-.09.27a3.18 3.18 0 0 0-.077.22 22.01 22.01 0 0 1-.178.54l-.134.4-.013 1.315-.013 1.315-.487.008c-.374.005-.493-.003-.51-.026-.011-.018-.021-.619-.021-1.333v-1.302l-.114-.335a8.79 8.79 0 0 1-.131-.42c-.008-.047-.029-.09-.042-.098-.013-.01-.023-.039-.023-.07a.39.39 0 0 0-.036-.131 5.555 5.555 0 0 1-.09-.263 2.953 2.953 0 0 0-.08-.232 9.975 9.975 0 0 1-.183-.555 30.726 30.726 0 0 0-.227-.696c-.147-.435-.196-.616-.178-.639.02-.023.155-.03.513-.03.482 0 .487 0 .526.061zM6.895 5.586c-.062.041-1.398 1.377-1.398 1.4 0 .013.323.023.722.023h.722v-.722c0-.397-.003-.722-.005-.722a.192.192 0 0 0-.041.021zM5.018 8.097c-.031.049-.029 10.178.002 10.178.013 0 .451-.425.972-.946l.949-.949-.005-4.15-.008-4.151-.946-.008c-.73-.005-.949.003-.964.026zm1.771 9.925c-.523.516-.951.952-.954.967-.003.026 1.023.034 5.05.034h5.053l-.005-.962-.008-.959-4.093-.008-4.094-.005z"/></g></svg>