<svg xmlns="http://www.w3.org/2000/svg" xml:space="preserve" id="svg5" version="1.1" viewBox="0 0 24 24"><defs id="defs2"><linearGradient id="paint0_linear_22971_8319" x1="68.716" x2="76.945" y1="9.595" y2="57.775" gradientUnits="userSpaceOnUse"><stop id="stop13827" stop-color="#FF3269"/><stop id="stop13829" offset="1" stop-color="#FF794D"/></linearGradient><clipPath id="clip-path"><path id="Rectangle_64" fill="#00aeef" stroke="#707070" d="M0 0h60v59H0z" data-name="Rectangle 64" transform="translate(213 -132)"/></clipPath><style id="style12648">.cls-3{fill:#00aeef}</style></defs><g id="Layer_1" clip-path="url(#clipPath13948)" data-name="Layer 1" transform="translate(-1.584 -1.293) scale(.4665)"><path id="Path_552" d="M17.4 32.8a.033.033 0 0 1-.033.033H5.549a.033.033 0 0 1-.029-.017.032.032 0 0 1 0-.033l5.589-9.026a.029.029 0 0 0-.025-.044h-5.06a.033.033 0 0 1-.033-.033v-3.029a.033.033 0 0 1 .033-.033h10.887a.033.033 0 0 1 .029.05l-5.589 9.024a.029.029 0 0 0 .025.044h5.992a.033.033 0 0 1 .033.033z" class="cls-3" data-name="Path 552"/><path id="Path_553" d="M37.854 17.1a.029.029 0 0 0-.029-.029h-3.38a.029.029 0 0 0-.029.029v16.4a.029.029 0 0 0 .029.029h3.381a.029.029 0 0 0 .029-.029Z" class="cls-3" data-name="Path 553"/><path id="Path_554" d="M25.621 19.964a6.764 6.764 0 1 0 6.764 6.764 6.764 6.764 0 0 0-6.764-6.764zM25.5 30.422a3.692 3.692 0 1 1 3.693-3.693 3.692 3.692 0 0 1-3.693 3.693z" class="cls-3" data-name="Path 554"/><path id="Path_555" d="M46.651 19.964a6.764 6.764 0 1 0 6.764 6.764 6.764 6.764 0 0 0-6.764-6.764zm-.119 10.458a3.692 3.692 0 1 1 3.693-3.693 3.692 3.692 0 0 1-3.693 3.693z" class="cls-3" data-name="Path 555"/><path id="Path_556" d="M46.732 38.607a.029.029 0 0 0 0-.044l-1.86-1.863a.029.029 0 0 0-.036 0 15.87 15.87 0 0 1-17.48-.053.032.032 0 0 0-.041 0l-1.861 1.861a.029.029 0 0 0 0 .044 18.55 18.55 0 0 0 21.275.058z" class="cls-3" data-name="Path 556"/></g></svg>