<svg xmlns="http://www.w3.org/2000/svg" xml:space="preserve" viewBox="0 0 24 24"><path fill="#e23744" fill-rule="evenodd" d="M.005-.057h23.939v24.019H.005z"/><path fill="#fffff4" d="m4.497 10.673-.02.623-1.623 1.764c.678 0 1.108-.006 1.356-.02-.072.335-.13.609-.19 1.02a18.497 18.497 0 0 0-1.343-.035c-.567 0-1.062.007-1.46.034l.013-.63 1.624-1.757c-.711 0-.972.007-1.265.013.065-.314.11-.663.156-1.012.515.02.717.027 1.389.027.62 0 .971-.006 1.363-.027zm1.845-.185c-1.056 0-1.865.944-1.865 2.073 0 .848.49 1.498 1.441 1.498 1.063 0 1.865-.944 1.865-2.08 0-.84-.476-1.49-1.44-1.49zm-.32 2.664c-.234 0-.371-.212-.371-.63 0-.622.254-1.121.567-1.121.228 0 .365.205.365.629 0 .615-.247 1.122-.56 1.122zm15.255-2.71c-1.07 0-1.89.956-1.89 2.1 0 .859.496 1.517 1.46 1.517 1.077 0 1.89-.956 1.89-2.107 0-.852-.482-1.51-1.46-1.51zm-.344 2.706c-.235 0-.372-.212-.372-.63 0-.622.255-1.121.568-1.121.228 0 .365.205.365.63 0 .615-.248 1.121-.561 1.121zm-7.666-1.428c.085-.582.04-1.109-.606-1.109-.47 0-.978.397-1.337 1.06.078-.547.032-1.06-.607-1.06-.482 0-1.004.418-1.362 1.109.09-.452.071-.965.045-1.074a8.025 8.025 0 0 1-1.154.109c.013.315-.006.725-.065 1.115l-.15 1.026c-.059.404-.124.87-.19 1.163h1.214c.006-.178.052-.458.085-.704l.104-.705c.085-.458.45-.999.73-.999.163 0 .157.158.111.452l-.117.793c-.06.404-.124.87-.19 1.163h1.226c.007-.178.046-.458.078-.704l.105-.705c.085-.459.45-.999.73-.999.163 0 .157.15.13.356l-.292 2.052h1.118zm5.858 1.265-.13.808c-.203.11-.581.266-1.018.266-.743 0-.893-.396-.776-1.238l.19-1.354h-.367l.104-.877.399-.02.15-.636 1.128-.424-.143 1.06h.776c-.026.11-.118.712-.144.897h-.756l-.17 1.252c-.046.321-.02.437.202.437.163 0 .404-.096.555-.17zm-4.279.436c.41-.05.693-.446.761-.841l.012-.106a2.094 2.094 0 0 0-.679-.04c-.235.03-.431.127-.537.27a.482.482 0 0 0-.101.368c.026.217.267.383.544.35zm-.35.626c-.579.07-.96-.16-1.075-.682a1.19 1.19 0 0 1 .203-.928c.233-.293.614-.48 1.079-.537.374-.047.689-.024.984.032l.012-.05c.008-.081.017-.162.005-.259-.03-.248-.226-.395-.709-.336a2.47 2.47 0 0 0-.876.292l-.235-.708c.327-.187.738-.33 1.208-.387.9-.11 1.531.176 1.612.835.021.175.024.361.002.53-.116.814-.19 1.428-.222 1.839a3.2 3.2 0 0 0 0 .327H15.37c.024-.065.045-.152.064-.261.013-.072.022-.163.027-.272-.235.323-.56.515-.963.565z"/></svg>